<svg width="146" height="146" viewBox="0 0 146 146" fill="none" xmlns="http://www.w3.org/2000/svg">
<path fill-rule="evenodd" clip-rule="evenodd" d="M36.2034 0.658C35.3548 1.10771 34.754 1.70971 34.3052 2.56L33.6484 3.80429L33.6547 24.8306C33.6607 44.7183 33.6898 45.9206 34.1917 47.0283C34.4837 47.6723 35.1546 48.508 35.6825 48.8854L36.6426 49.5714L72.6487 49.646C108.049 49.7194 108.673 49.7111 109.761 49.1549C110.37 48.8437 111.17 48.1031 111.539 47.5089L112.209 46.4286L112.295 25.8571C112.342 14.5429 112.301 4.734 112.204 4.05943C111.997 2.622 110.69 0.968 109.3 0.386C108.542 0.0688572 102.054 0 72.9113 0H37.4453L36.2034 0.658ZM107.932 24.8571V45.2857L72.9287 45.3583L37.9258 45.4309V25.0489C37.9258 13.8386 38.0119 4.58057 38.1171 4.47514C38.2221 4.36971 53.9735 4.316 73.12 4.356L107.932 4.42857V24.8571ZM43.6289 8.50057C42.044 9.29371 41.6337 10.4617 41.6334 14.1826C41.6328 17.7631 41.9114 18.4306 43.5388 18.7454C44.2711 18.8871 44.5882 18.7791 45.1784 18.1877C45.856 17.5086 45.9102 17.2637 45.9102 14.87V12.2857H73H100.09V24.8571V37.4286H97.9706H95.8513L94.1546 35.0714C93.2213 33.7751 91.0453 30.5929 89.3192 28C85.3966 22.108 84.6349 21.3351 82.7224 21.3066C80.8968 21.2794 80.1352 21.8457 78.1687 24.6914C76.7575 26.7337 76.5998 26.8726 76.1727 26.4491C75.9177 26.1963 74.1691 23.7123 72.2871 20.9291C68.5276 15.3691 67.6972 14.5714 65.6698 14.5714C64.5756 14.5714 64.25 14.7294 63.1658 15.7857C62.4806 16.4534 60.1645 19.6357 58.0193 22.8571C55.8741 26.0786 52.7531 30.6706 51.0837 33.0617C48.095 37.3431 48.0326 37.4094 46.9795 37.4189L45.9102 37.4286V30.878V24.3271L45.1588 23.7351C44.1622 22.9494 43.1881 22.9871 42.3329 23.8443L41.6328 24.5454V31.5677C41.6328 39.4031 41.7688 40.1403 43.3979 41.1354C44.3281 41.7037 44.7578 41.7123 73 41.7123C101.242 41.7123 101.672 41.7037 102.602 41.1354C104.398 40.0386 104.396 40.054 104.306 24.4849C104.231 11.4746 104.186 10.372 103.709 9.66743C102.525 7.91943 104.01 8 72.9569 8.00057C46.5569 8.00086 44.5591 8.03486 43.6289 8.50057ZM72.3909 28.5714L78.3692 37.2857L65.9449 37.3603C59.1115 37.4011 53.4728 37.3871 53.4149 37.3289C53.357 37.2709 56.1034 33.1594 59.5178 28.1923C64.3737 21.1286 65.8012 19.2369 66.0696 19.5091C66.258 19.7006 69.1028 23.7786 72.3909 28.5714ZM86.7745 31.7857L90.648 37.4286H87.1532H83.6583L81.4343 34.1663C80.211 32.372 79.2566 30.7783 79.3131 30.6249C79.5905 29.8723 82.5753 25.7866 82.7267 25.9523C82.8225 26.0571 84.6441 28.6823 86.7745 31.7857ZM2.6625 42.7183C1.83355 43.2163 1.25298 43.8789 0.737699 44.9146L0 46.398V76.208C0 100.739 0.0690078 106.183 0.388953 106.951C0.896816 108.169 2.33087 109.358 3.57272 109.592C4.41251 109.75 4.5625 109.895 4.5625 110.55C4.5625 111.699 3.24394 125.195 2.39702 132.714C1.4446 141.171 1.39185 143.311 2.10959 144.372C2.98188 145.661 3.96481 146 6.83377 146C9.35341 146 9.4438 145.977 10.4247 145.071L11.4308 144.143L13.5267 134.143C14.6796 128.643 16.3007 120.896 17.1293 116.929L18.6355 109.714H21.4649H24.2942L24.1179 111.357C23.2183 119.747 22.6243 124.936 21.6411 133C20.3687 143.436 20.3821 143.914 21.9841 145.265C22.8082 145.96 23.0332 146 26.0753 146C28.9456 146 29.3794 145.933 30.08 145.381C30.5123 145.04 31.0244 144.365 31.2183 143.881C31.412 143.396 33.089 135.511 34.945 126.357L38.3196 109.714H39.4805H40.6413L44.1621 126.643C46.0986 135.953 47.8789 143.908 48.1184 144.318C48.8878 145.638 49.877 146 52.7166 146C55.1963 146 55.3408 145.965 56.3015 145.119C56.8522 144.635 57.4165 143.825 57.5557 143.32C57.7336 142.674 57.3309 137.551 56.1997 126.067L54.5903 109.732L55.3696 109.561C57.3803 109.118 58.5611 107.282 58.5414 104.627C58.5306 103.146 58.343 102.45 57.4866 100.714C56.3067 98.322 54.8658 96.8966 52.4688 95.75C51.003 95.0491 50.5873 94.9937 46.1246 94.9046C41.3947 94.81 41.3502 94.8031 41.4919 94.1903C41.5709 93.85 41.7366 93.0571 41.8607 92.4286L42.0862 91.2857H73.1426H104.199L104.424 92.4286C104.549 93.0571 104.715 93.85 104.793 94.1906C104.935 94.8049 104.896 94.8109 100.011 94.9049C95.1016 94.9997 95.0779 95.0031 93.1822 95.9391C90.1884 97.4169 88.2097 100.034 87.4914 103.465C87.314 104.313 87.2592 105.489 87.3699 106.081C87.6234 107.434 88.9839 109.009 90.2662 109.433C91.0627 109.697 91.2494 109.904 91.2474 110.522C91.2443 111.576 90.2383 122.22 89.3933 130.143C88.1638 141.673 88.1096 142.314 88.3009 143.093C88.851 145.333 90.0495 146 93.5213 146C96.0409 146 96.1313 145.977 97.1122 145.071L98.1183 144.143L100.214 134.143C101.367 128.643 102.99 120.89 103.82 116.915L105.329 109.687L106.606 109.772L107.883 109.857L111.206 126.714C113.034 135.986 114.68 143.851 114.864 144.192C115.049 144.533 115.538 145.08 115.953 145.406C116.616 145.929 117.097 146 119.975 146H123.245L124.214 145.029C125.138 144.103 125.184 143.959 125.184 141.995C125.184 140.861 124.739 136.38 124.196 132.038C123.187 123.971 121.762 111.215 121.762 110.251C121.762 109.763 122.013 109.714 124.545 109.714H127.329L130.85 126.643C132.786 135.953 134.566 143.908 134.806 144.318C135.575 145.638 136.564 146 139.404 146C141.884 146 142.028 145.965 142.989 145.119C143.54 144.635 144.105 143.823 144.245 143.314C144.425 142.661 144.028 137.61 142.891 126.078L141.282 109.767L142.336 109.598C143.622 109.392 145.087 108.207 145.611 106.951C145.927 106.193 146 102.157 146 85.3334C146 64.8397 145.995 64.6414 145.409 63.8957C144.668 62.9523 143.142 62.8634 142.293 63.7143C141.736 64.2723 141.723 64.6666 141.723 80.5514V96.8169L140.511 96.1463C139.844 95.7774 138.766 95.3349 138.115 95.1629C136.684 94.7849 137.066 97.518 135.033 73.1429C133.875 59.2569 133.56 54.3734 133.756 53.3314C134.515 49.2929 138.991 45.0766 141.07 46.4417C141.711 46.8626 141.723 46.964 141.723 52.1177C141.723 56.7017 141.786 57.4394 142.222 57.9511C143.136 59.0243 145.257 58.7783 145.725 57.5449C146.097 56.564 146.073 47.2734 145.694 45.9083C145.302 44.4914 143.667 42.6929 142.387 42.2694C140.959 41.7974 138.387 42.0549 136.789 42.8294C134.078 44.1446 131.206 47.3811 130.162 50.298C129.107 53.2469 129.12 53.7871 130.746 73.2546C131.6 83.486 132.375 92.5323 132.468 93.3571L132.639 94.8571H126.35H120.062L119.931 94.2143C119.86 93.8606 119.743 93.0391 119.672 92.3886C119.543 91.2097 119.547 91.2051 120.631 91.0317C121.228 90.9357 122.117 90.5206 122.605 90.1089C124.178 88.7834 124.328 88.186 124.328 83.2717C124.328 78.2751 124.086 77.3346 122.511 76.2086C121.692 75.6231 121.242 75.564 116.985 75.4809C114.437 75.4309 112.354 75.3023 112.356 75.1952C112.359 75.0877 112.806 73.9071 113.35 72.5714C114.49 69.7691 114.556 69.0594 113.79 67.8011C112.607 65.8571 112.802 65.8874 101.863 65.9663C91.2751 66.0426 90.9657 66.084 90.009 67.5469C89.303 68.6266 89.4347 70.3569 90.3945 72.6171C90.865 73.7249 91.25 74.8106 91.25 75.03C91.25 75.3666 88.5059 75.4286 73.5703 75.4286C61.3613 75.4286 55.8906 75.3354 55.8906 75.1272C55.8906 74.9614 56.2696 73.9331 56.733 72.8423C57.1964 71.7514 57.6498 70.4406 57.7407 69.9294C57.9412 68.8009 57.2297 67.2911 56.1093 66.468C55.3599 65.9174 54.9445 65.8983 45.2734 65.9646C34.4027 66.0391 34.4897 66.0271 33.4451 67.6243C32.7188 68.7351 32.8397 70.1491 33.8726 72.6229C34.3767 73.83 34.7891 74.9469 34.7891 75.1054C34.7891 75.2849 32.8317 75.4269 29.585 75.4823C24.6663 75.5666 24.3298 75.608 23.4498 76.2369C21.7246 77.4697 21.5293 78.1869 21.5293 83.2857C21.5293 87.4994 21.5783 87.9363 22.1569 88.868C22.8556 89.9937 24.658 91.1429 25.7248 91.1429C26.4659 91.1429 26.479 91.25 26.0664 93.9286L25.9233 94.8571H19.663C16.2197 94.8571 13.4023 94.8191 13.4023 94.7723C13.4023 94.7257 14.1078 86.2723 14.9701 75.9866C15.8324 65.7011 16.5382 56.2209 16.5385 54.9194C16.5391 52.1683 15.8712 49.8523 14.4289 47.6037C11.475 42.9986 5.98857 40.7209 2.6625 42.7183ZM7.28745 46.6783C10.2833 48.076 12.2626 51.4777 12.2606 55.2251C12.26 56.3583 11.5542 65.6374 10.6922 75.8449C9.83019 86.0523 9.125 94.5009 9.125 94.6194C9.125 94.738 8.5795 94.9791 7.91309 95.1554C7.24668 95.3317 6.15567 95.7774 5.48926 96.1463L4.27734 96.8169V71.8574C4.27734 49.548 4.32496 46.8503 4.72532 46.4489C5.3156 45.8577 5.57965 45.8814 7.28745 46.6783ZM52.8916 70.8729C52.7893 71.1957 52.3535 72.3209 51.923 73.3729L51.1408 75.2857H45.3718H39.6031L38.7613 73.2863C38.2982 72.1866 37.8479 71.0617 37.7607 70.7863C37.6124 70.3177 38.0972 70.2857 45.3398 70.2857C53.0168 70.2857 53.0761 70.2903 52.8916 70.8729ZM109.48 70.6429C109.469 70.8394 109.048 71.9643 108.544 73.1429L107.629 75.2857L101.905 75.3629L96.1815 75.44L95.2496 73.22C94.7372 71.9991 94.2553 70.8394 94.1791 70.6429C94.0705 70.3626 95.7027 70.2857 101.77 70.2857C107.775 70.2857 109.495 70.3654 109.48 70.6429ZM118.981 79.8951L120.051 80.0503V83.4546V86.8589L72.9287 86.7866L25.8066 86.7143L25.7262 83.3571C25.682 81.5109 25.682 79.9726 25.7262 79.9389C26.2324 79.5546 116.341 79.512 118.981 79.8951ZM37.6406 91.4074C37.6406 91.6431 27.8831 139.771 27.5139 141.357C27.3895 141.891 27.1717 142 26.229 142C25.1813 142 25.0935 141.939 25.0912 141.214C25.0886 140.311 30.4516 92.7577 30.666 91.7857C30.8034 91.1629 30.9132 91.1429 34.2242 91.1429C36.1293 91.1429 37.6406 91.26 37.6406 91.4074ZM115.333 92.0714C115.576 93.5309 120.906 140.677 120.906 141.375C120.906 141.912 120.748 142 119.785 142C118.964 142 118.623 141.866 118.514 141.5C118.326 140.873 108.645 91.7103 108.645 91.3829C108.645 91.2509 110.115 91.1429 111.911 91.1429H115.177L115.333 92.0714ZM25.2569 101.214C25.1494 102.354 24.988 103.768 24.8984 104.357L24.7356 105.429L14.8629 105.424C9.43297 105.422 4.80973 105.305 4.5893 105.165C4.25339 104.952 4.24655 104.703 4.54653 103.629C5.00734 101.98 6.22525 100.511 7.76395 99.7474C8.9194 99.1746 9.40788 99.1434 17.2174 99.1432L25.4525 99.1429L25.2569 101.214ZM50.2422 99.4789C51.7214 99.9229 53.4534 101.699 54.0137 103.347C54.7748 105.585 55.3081 105.429 46.9082 105.429C40.5344 105.429 39.3516 105.364 39.3516 105.019C39.3516 104.655 39.951 101.527 40.3542 99.7857C40.5005 99.154 40.5777 99.1429 44.8132 99.1429C47.2915 99.1429 49.5989 99.2857 50.2422 99.4789ZM105.793 99.2543C105.793 99.3154 106.05 100.615 106.363 102.143C106.677 103.67 106.934 105.035 106.934 105.174C106.934 105.317 103.529 105.429 99.2027 105.429H91.4716L91.6672 104.357C92.0747 102.124 93.8295 100.006 95.7529 99.4251C96.5137 99.1954 105.793 99.0374 105.793 99.2543ZM138.806 100.065C140.126 100.941 141.383 102.873 141.632 104.407L141.797 105.429H131.512H121.226L121.066 104.214C120.978 103.547 120.799 102.127 120.668 101.06L120.43 99.1194L129.031 99.2026L137.631 99.2857L138.806 100.065ZM14.067 110.598C13.9701 111.084 12.4653 118.316 10.7233 126.669L7.55579 141.857H6.70089C6.0168 141.857 5.85711 141.743 5.90245 141.286C5.93382 140.971 6.6353 133.739 7.46111 125.214L8.96303 109.714H11.6033H14.2436L14.067 110.598ZM50.3121 110.357C50.4995 111.246 53.3342 140.243 53.3285 141.214C53.3248 141.883 53.2056 142 52.5266 142H51.7291L48.5113 126.5C46.7417 117.975 45.2261 110.711 45.1434 110.357C44.9957 109.727 45.0424 109.714 47.5849 109.714C50.0424 109.714 50.1835 109.748 50.3121 110.357ZM100.755 110.598C100.658 111.084 99.1528 118.316 97.4108 126.669L94.2433 141.857H93.3884C92.7043 141.857 92.5446 141.743 92.59 141.286C92.6213 140.971 93.3228 133.739 94.1486 125.214L95.6505 109.714H98.2908H100.931L100.755 110.598ZM137 110.357C137.187 111.246 140.022 140.243 140.016 141.214C140.012 141.883 139.893 142 139.214 142H138.417L135.199 126.5C133.429 117.975 131.914 110.711 131.831 110.357C131.683 109.727 131.73 109.714 134.272 109.714C136.73 109.714 136.871 109.748 137 110.357Z" fill="url(#paint0_linear_3041_79331)"/>
<defs>
<linearGradient id="paint0_linear_3041_79331" x1="-4.53482" y1="19.4452" x2="50.2406" y2="158.101" gradientUnits="userSpaceOnUse">
<stop stop-color="#6A50FC"/>
<stop offset="1" stop-color="#9150FC"/>
</linearGradient>
</defs>
</svg>
