<svg width="146" height="146" viewBox="0 0 146 146" fill="none" xmlns="http://www.w3.org/2000/svg">
<path fill-rule="evenodd" clip-rule="evenodd" d="M2.82297 0.528965C2.28036 0.820109 1.4479 1.53756 0.973194 2.12356L0.110213 3.1889L0.0217749 12.7867C-0.0367081 19.1169 0.0386066 22.7443 0.243154 23.4413C0.635989 24.7792 1.70466 26.0576 2.81469 26.5172L3.67625 26.874V77.2773V127.681L2.81469 128.037C1.70666 128.496 0.637701 129.773 0.239446 131.113C0.0437417 131.772 -0.0395609 134.174 0.017781 137.491L0.110213 142.812L0.973194 143.877C1.4479 144.463 2.28036 145.18 2.82297 145.471C3.77667 145.982 6.15393 146 73 146C139.846 146 142.223 145.982 143.177 145.471C143.72 145.18 144.552 144.463 145.027 143.877L145.89 142.812L145.982 137.491C146.04 134.174 145.956 131.772 145.761 131.113C145.362 129.773 144.293 128.496 143.185 128.037L142.324 127.681V77.2773V26.874L143.185 26.5172C144.295 26.0576 145.364 24.7792 145.757 23.4413C145.961 22.7443 146.037 19.1169 145.978 12.7867L145.89 3.1889L145.027 2.12356C144.552 1.53756 143.72 0.820109 143.177 0.528965C142.225 0.0188203 140.139 0 84.2556 0C26.3465 0 26.3209 0.000285136 25.697 0.581434C24.8753 1.34651 24.8519 2.95336 25.6522 3.63859C26.1979 4.10539 29.635 4.14303 83.9212 4.27734L141.611 4.41992V13.5449V22.6699H73H4.38946V13.5449V4.41992L11.1564 4.27734C17.0426 4.1533 17.9986 4.07032 18.5024 3.63859C19.3021 2.95336 19.2784 1.34622 18.457 0.581434C17.8639 0.0290859 17.4831 0 10.8214 0C4.53723 0 3.70763 0.05475 2.82297 0.528965ZM11.2362 7.55778C9.7776 8.07363 7.81085 10.1407 7.41203 11.5765C6.69169 14.1694 7.22374 16.1935 9.10433 18.017C11.8105 20.641 15.2961 20.6236 17.9484 17.9728C20.5961 15.326 20.5952 11.8132 17.9458 9.08422C16.106 7.18907 13.7764 6.65897 11.2362 7.55778ZM27.6061 7.92535C26.6538 8.42266 25.7571 9.18203 25.22 9.94625C24.4294 11.0703 24.3593 11.364 24.3593 13.5449C24.3593 15.7258 24.4294 16.0195 25.22 17.1436C26.3348 18.7291 28.6274 19.9621 30.454 19.9581C31.2488 19.9564 32.3677 19.6803 33.2572 19.2663C38.0634 17.0295 38.0506 10.0546 33.2364 7.81385C31.2366 6.8831 29.5377 6.91675 27.6061 7.92535ZM45.3957 7.50959C40.7827 9.18175 39.7038 15.3551 43.4809 18.4673C46.7095 21.1272 51.6001 19.9601 53.3537 16.1113C55.6054 11.1699 50.5052 5.65721 45.3957 7.50959ZM62.6254 7.4229C61.1077 7.87716 59.6314 9.14781 58.8879 10.6389C56.2125 16.0058 61.6144 21.8113 67.0091 19.3667C69.5738 18.2044 70.8147 16.3061 70.8147 13.5449C70.8147 9.21939 66.7566 6.18561 62.6254 7.4229ZM78.9909 7.72317C76.4262 8.88547 75.1853 10.7838 75.1853 13.5449C75.1853 19.2443 81.91 22.0651 85.9558 18.0627C90.8867 13.1845 85.2863 4.87047 78.9909 7.72317ZM96.2862 7.5478C95.678 7.76452 94.7317 8.36848 94.1831 8.88975C91.3717 11.5617 91.437 15.6939 94.3315 18.3022C98.4173 21.9844 104.783 19.0866 104.783 13.5449C104.783 9.05314 100.515 6.04104 96.2862 7.5478ZM112.743 7.82355C109.082 9.52707 107.995 14.2598 110.507 17.5519C111.513 18.8711 113.782 19.9544 115.546 19.9581C117.373 19.9621 119.665 18.7291 120.78 17.1436C121.571 16.0195 121.641 15.7258 121.641 13.5449C121.641 11.364 121.571 11.0703 120.78 9.94625C119.665 8.36078 117.373 7.12777 115.546 7.13176C114.751 7.13347 113.632 7.4095 112.743 7.82355ZM130.199 7.55778C128.741 8.07363 126.774 10.1407 126.375 11.5765C125.655 14.1694 126.187 16.1935 128.067 18.017C130.774 20.641 134.259 20.6236 136.911 17.9728C139.559 15.326 139.558 11.8132 136.909 9.08422C135.069 7.18907 132.739 6.65897 130.199 7.55778ZM14.9578 12.1063C15.3429 12.4913 15.6581 13.1386 15.6581 13.5449C15.6581 13.9513 15.3429 14.5986 14.9578 14.9835C14.5726 15.3685 13.925 15.6836 13.5185 15.6836C13.112 15.6836 12.4644 15.3685 12.0793 14.9835C11.6941 14.5986 11.3789 13.9513 11.3789 13.5449C11.3789 13.1386 11.6941 12.4913 12.0793 12.1063C12.4644 11.7213 13.112 11.4062 13.5185 11.4062C13.925 11.4062 14.5726 11.7213 14.9578 12.1063ZM31.6229 11.6854C32.4345 12.1194 32.7765 13.4263 32.346 14.4492C31.7658 15.8287 30.2766 16.1156 29.156 15.0637C27.3855 13.4009 29.4767 10.5374 31.6229 11.6854ZM48.9064 12.1063C49.2916 12.4913 49.6068 13.1386 49.6068 13.5449C49.6068 14.4956 48.4183 15.6836 47.4672 15.6836C46.516 15.6836 45.3276 14.4956 45.3276 13.5449C45.3276 12.5942 46.516 11.4062 47.4672 11.4062C47.8737 11.4062 48.5213 11.7213 48.9064 12.1063ZM65.8933 11.9398C67.3029 13.0807 66.3974 15.6836 64.591 15.6836C63.5007 15.6836 62.4445 14.6314 62.4445 13.5449C62.4445 11.7807 64.5094 10.8197 65.8933 11.9398ZM82.8037 11.9974C84.2963 13.1708 83.3458 15.6836 81.409 15.6836C80.3041 15.6836 79.4474 14.7497 79.4474 13.5449C79.4474 11.6415 81.2778 10.7974 82.8037 11.9974ZM99.9721 12.1063C100.357 12.4913 100.672 13.1386 100.672 13.5449C100.672 14.4956 99.484 15.6836 98.5328 15.6836C97.5817 15.6836 96.3932 14.4956 96.3932 13.5449C96.3932 12.5942 97.5817 11.4062 98.5328 11.4062C98.9394 11.4062 99.587 11.7213 99.9721 12.1063ZM116.844 12.0262C117.69 12.8209 117.708 14.1469 116.884 15.0237C115.839 16.1359 114.243 15.8481 113.651 14.4415C112.729 12.25 115.14 10.4265 116.844 12.0262ZM133.921 12.1063C134.306 12.4913 134.621 13.1386 134.621 13.5449C134.621 14.4956 133.433 15.6836 132.481 15.6836C131.53 15.6836 130.342 14.4956 130.342 13.5449C130.342 12.5942 131.53 11.4062 132.481 11.4062C132.888 11.4062 133.536 11.7213 133.921 12.1063ZM20.7932 30.3928V33.6958L18.4396 31.8662C17.145 30.8599 15.2838 29.4173 14.303 28.6602C13.3225 27.9028 12.52 27.2398 12.52 27.1868C12.52 27.1335 14.3815 27.0898 16.6566 27.0898H20.7932V30.3928ZM37.9527 30.6383C37.8543 34.1252 37.8651 34.1996 38.5815 34.9157C39.3084 35.6423 39.3272 35.6445 44.3291 35.6445C49.3309 35.6445 49.3498 35.6423 50.0767 34.9157C50.793 34.1996 50.8038 34.1252 50.7054 30.6383L50.6053 27.0898H58.7359H66.8664L66.7663 30.6383C66.6679 34.1252 66.6787 34.1996 67.3951 34.9157C68.1219 35.6423 68.1408 35.6445 73.1426 35.6445C78.1445 35.6445 78.1633 35.6423 78.8902 34.9157C79.6066 34.1996 79.6174 34.1252 79.519 30.6383L79.4189 27.0898H87.4068H95.3947L95.2946 30.6383C95.1962 34.1252 95.207 34.1996 95.9233 34.9157C96.6502 35.6423 96.6691 35.6445 101.671 35.6445C106.673 35.6445 106.692 35.6423 107.419 34.9157C108.135 34.1996 108.146 34.1252 108.047 30.6383L107.947 27.0898H114.437H120.928V37.0164C120.928 46.6122 120.947 46.9641 121.509 47.5672C122.273 48.387 123.882 48.4118 124.568 47.6143C124.922 47.2019 125.105 46.3487 125.207 44.6244L125.349 42.2114L130.767 46.4768C133.747 48.8225 136.209 50.8416 136.238 50.9637C136.267 51.0857 133.829 53.1186 130.82 55.4814L125.349 59.7776L125.207 57.5557C125.037 54.9154 124.574 54.1797 123.081 54.1797C122.43 54.1797 121.892 54.3933 121.509 54.8039C120.93 55.425 120.928 55.5926 120.928 91.4465V127.465H118.788H116.648V109.852C116.648 90.0897 116.766 91.2183 114.524 89.4036L113.459 88.541L109.134 88.4518C105.067 88.3676 104.771 88.3979 104.167 88.9619C103.329 89.7444 103.296 91.3441 104.104 92.037C104.568 92.4357 105.424 92.5611 108.454 92.6758L112.226 92.8184L112.3 110.142L112.373 127.465H101.528H90.6833L90.7566 110.142L90.8302 92.8184L93.6046 92.6758C95.6777 92.5691 96.525 92.4077 96.9566 92.037C97.7631 91.3441 97.7298 89.7444 96.8924 88.9596C96.3019 88.4061 95.9844 88.3654 92.9239 88.4495C89.7082 88.5379 89.5618 88.5698 88.5322 89.4036C86.2911 91.2183 86.4083 90.0897 86.4083 109.852V127.465H82.9849H79.5615V126.001C79.5615 123.718 79.0161 122.342 77.5146 120.835C76.7726 120.09 75.9667 119.48 75.7239 119.48C75.3302 119.48 75.2823 117.609 75.2823 102.229C75.2823 86.8478 75.3302 84.9766 75.7239 84.9766C75.9667 84.9766 76.7726 84.3672 77.5146 83.6221C80.2225 80.904 80.2442 77.4248 77.57 74.6702C75.0027 72.0253 71.3285 72.0262 68.6817 74.6719C66.0188 77.3332 66.0542 80.8957 68.7707 83.6221C69.5127 84.3672 70.3186 84.9766 70.5614 84.9766C70.9551 84.9766 71.003 86.8478 71.003 102.229C71.003 117.609 70.9551 119.48 70.5614 119.48C70.3186 119.48 69.5127 120.09 68.7707 120.835C67.2692 122.342 66.7238 123.718 66.7238 126.001V127.465H63.1577H59.5917V122.671C59.5917 118.241 59.5475 117.83 59.01 117.253C58.2281 116.414 56.6761 116.414 55.8942 117.253C55.3567 117.83 55.3125 118.241 55.3125 122.671V127.465H44.4694H33.6267L33.7 110.142L33.7736 92.8184H44.4717H55.1698L55.3125 101.15C55.4388 108.526 55.5122 109.549 55.9515 110.061C56.6422 110.867 58.2449 110.837 59.0214 110.004C59.5994 109.384 59.6122 109.144 59.5315 100.478L59.4491 91.5871L58.5861 90.5217C56.8059 88.3243 57.1736 88.3768 44.1413 88.4637L32.542 88.541L31.4762 89.4036C29.2345 91.2178 29.3517 90.0891 29.3517 109.852V127.465H27.2121H25.0725V77.2773V27.0898H31.5627H38.0528L37.9527 30.6383ZM45.7683 27.7899C46.3269 28.348 46.4687 28.7811 46.4687 29.9286V31.3672H44.3291H42.1894V29.9286C42.1894 28.7811 42.3312 28.348 42.8898 27.7899C43.2749 27.4049 43.9225 27.0898 44.3291 27.0898C44.7356 27.0898 45.3832 27.4049 45.7683 27.7899ZM74.5819 27.7899C75.1405 28.348 75.2823 28.7811 75.2823 29.9286V31.3672H73.1426H71.003V29.9286C71.003 28.7811 71.1448 28.348 71.7034 27.7899C72.0885 27.4049 72.7361 27.0898 73.1426 27.0898C73.5492 27.0898 74.1968 27.4049 74.5819 27.7899ZM103.11 27.7899C103.669 28.348 103.811 28.7811 103.811 29.9286V31.3672H101.671H99.5313V29.9286C99.5313 28.7811 99.6731 28.348 100.232 27.7899C100.617 27.4049 101.264 27.0898 101.671 27.0898C102.077 27.0898 102.725 27.4049 103.11 27.7899ZM133.184 27.4702C132.861 27.7651 128.723 31.0082 125.563 33.4434C125.283 33.6596 125.207 33.012 125.207 30.4039V27.0898H129.404C132.922 27.0898 133.534 27.1514 133.184 27.4702ZM13.6095 33.5378C16.5408 35.8296 18.9657 37.7866 18.9988 37.8864C19.0316 37.9865 17.2343 39.4984 15.0048 41.2461C12.7751 42.9941 10.2771 44.962 9.45323 45.619L7.95549 46.8141V38.0926C7.95549 33.2957 8.02853 29.3711 8.11782 29.3711C8.2074 29.3711 10.6785 31.2463 13.6095 33.5378ZM138.045 38.0766V46.7822L135.12 44.4607C133.512 43.1841 131.015 41.2233 129.57 40.1038C128.126 38.9843 126.97 37.9868 127.003 37.887C127.084 37.6346 137.567 29.4047 137.831 29.3862C137.948 29.3779 138.045 33.2886 138.045 38.0766ZM20.7932 51.0421V59.8814L15.3797 55.5886C12.4025 53.2278 9.90711 51.2004 9.83494 51.0835C9.73366 50.9195 20.4072 42.216 20.7219 42.2054C20.7613 42.2043 20.7932 46.1808 20.7932 51.0421ZM13.8917 59.8494C16.7388 62.1053 19.0079 64.0484 18.934 64.1679C18.7438 64.4758 8.31923 72.7148 8.1201 72.7148C8.02938 72.7148 7.95549 68.7948 7.95549 64.0033C7.95549 56.8271 8.02254 55.3323 8.33521 55.5199C8.54403 55.6454 11.0445 57.5936 13.8917 59.8494ZM137.929 72.6407C137.809 72.7605 127.317 64.5742 127.062 64.1619C126.993 64.0504 129.404 62.0078 132.419 59.6227L137.902 55.2861L137.977 63.9012C138.019 68.6394 137.997 72.5723 137.929 72.6407ZM20.6817 85.7533C20.6158 85.8192 18.1004 83.9215 15.0924 81.5361C10.6046 77.9777 9.69087 77.1342 10.0018 76.8359C10.2101 76.6357 12.6912 74.6548 15.5155 72.4334L20.6506 68.3942L20.7262 77.0139C20.7678 81.7546 20.7479 85.6875 20.6817 85.7533ZM131.126 72.9461C133.99 75.214 136.333 77.1071 136.333 77.153C136.333 77.285 125.523 85.832 125.356 85.832C125.274 85.832 125.207 81.9106 125.207 77.1179C125.207 70.2251 125.281 68.4475 125.563 68.6132C125.76 68.7284 128.263 70.6783 131.126 72.9461ZM74.5819 77.6922C74.967 78.0772 75.2823 78.7245 75.2823 79.1309C75.2823 79.5372 74.967 80.1845 74.5819 80.5695C74.1968 80.9544 73.5492 81.2695 73.1426 81.2695C72.1915 81.2695 71.003 80.0816 71.003 79.1309C71.003 78.1801 72.1915 76.9922 73.1426 76.9922C73.5492 76.9922 74.1968 77.3073 74.5819 77.6922ZM13.6603 85.8534C16.6421 88.2179 19.0815 90.1895 19.0815 90.2348C19.0815 90.3364 8.80649 98.4833 8.3121 98.7736C8.02995 98.9392 7.95549 97.1616 7.95549 90.2688C7.95549 85.4762 8.0194 81.5547 8.09728 81.5547C8.17516 81.5547 10.6785 83.4892 13.6603 85.8534ZM138.045 90.2688C138.045 97.1673 137.97 98.937 137.688 98.763C137.492 98.6418 134.98 96.6925 132.105 94.4309C128.263 91.4077 126.964 90.2348 127.197 90.0005C127.857 89.3369 137.626 81.5977 137.831 81.5766C137.948 81.5647 138.045 85.4762 138.045 90.2688ZM20.7932 103.383C20.7932 110.528 20.7253 112.054 20.4164 111.867C20.209 111.741 17.7022 109.786 14.8456 107.522C10.5812 104.142 9.71826 103.338 10.0232 103.034C10.7376 102.32 20.3673 94.7084 20.5793 94.6901C20.6968 94.6801 20.7932 98.5919 20.7932 103.383ZM130.793 98.8369C133.685 101.128 136.112 103.099 136.185 103.219C136.296 103.398 126.836 111.116 125.586 111.867C125.274 112.054 125.207 110.56 125.207 103.383C125.207 98.5919 125.281 94.6719 125.371 94.6719C125.462 94.6719 127.902 96.5462 130.793 98.8369ZM40.8169 97.5346C40.4096 97.9138 40.1925 98.455 40.1925 99.0918C40.1925 99.7286 40.4096 100.27 40.8169 100.649C41.3638 101.159 41.8163 101.23 44.4717 101.23C47.1271 101.23 47.5796 101.159 48.1265 100.649C48.5339 100.27 48.751 99.7286 48.751 99.0918C48.751 98.455 48.5339 97.9138 48.1265 97.5346C47.5796 97.025 47.1271 96.9531 44.4717 96.9531C41.8163 96.9531 41.3638 97.025 40.8169 97.5346ZM97.8735 97.5346C97.0342 98.3162 97.0342 99.8674 97.8735 100.649C98.4204 101.159 98.8729 101.23 101.528 101.23C104.184 101.23 104.636 101.159 105.183 100.649C105.59 100.27 105.808 99.7286 105.808 99.0918C105.808 98.455 105.59 97.9138 105.183 97.5346C104.636 97.025 104.184 96.9531 101.528 96.9531C98.8729 96.9531 98.4204 97.025 97.8735 97.5346ZM41.8194 105.902C39.1503 106.896 37.1502 109.03 36.445 111.634C35.7392 114.242 36.8649 117.981 38.8622 119.66C40.6486 121.163 41.901 121.609 44.3291 121.609C46.1272 121.609 46.8604 121.477 47.7856 120.986C49.5845 120.032 50.5519 119.101 51.4743 117.437C52.2106 116.108 52.317 115.628 52.317 113.635C52.317 111.641 52.2106 111.162 51.4743 109.833C50.0113 107.193 47.7553 105.772 44.757 105.603C43.6079 105.538 42.4907 105.652 41.8194 105.902ZM99.1613 105.902C96.4922 106.896 94.4921 109.03 93.7869 111.634C93.0811 114.242 94.2068 117.981 96.2041 119.66C97.9905 121.163 99.2429 121.609 101.671 121.609C103.469 121.609 104.202 121.477 105.127 120.986C106.926 120.032 107.894 119.101 108.816 117.437C109.552 116.108 109.659 115.628 109.659 113.635C109.659 111.641 109.552 111.162 108.816 109.833C107.353 107.193 105.097 105.772 102.099 105.603C100.95 105.538 99.8326 105.652 99.1613 105.902ZM19.0618 116.357C19.0784 116.489 10.07 123.713 8.47984 124.843C7.97432 125.203 7.95549 124.9 7.95549 116.364V107.513L13.4988 111.857C16.5479 114.246 19.0513 116.271 19.0618 116.357ZM137.98 120.762L137.902 125.179L132.578 120.976C129.65 118.663 127.211 116.651 127.158 116.504C127.104 116.356 129.5 114.297 132.481 111.927L137.902 107.618L137.98 111.981C138.024 114.38 138.024 118.332 137.98 120.762ZM47.0036 111.042C47.9402 111.978 48.0377 112.223 48.0377 113.635C48.0377 115.057 47.9436 115.288 46.9631 116.268C45.9826 117.248 45.7521 117.342 44.3291 117.342C42.9061 117.342 42.6756 117.248 41.695 116.268C40.7168 115.29 40.6204 115.055 40.6204 113.649C40.6204 112.323 40.7419 111.975 41.4762 111.2C42.5983 110.015 43.2142 109.768 44.7213 109.9C45.6953 109.984 46.1962 110.235 47.0036 111.042ZM104.345 111.042C105.282 111.978 105.38 112.223 105.38 113.635C105.38 115.057 105.285 115.288 104.305 116.268C103.324 117.248 103.094 117.342 101.671 117.342C100.248 117.342 100.017 117.248 99.0369 116.268C98.0587 115.29 97.9623 115.055 97.9623 113.649C97.9623 112.323 98.0838 111.975 98.8181 111.2C99.9401 110.015 100.556 109.768 102.063 109.9C103.037 109.984 103.538 110.235 104.345 111.042ZM20.7932 124.043V127.465H16.4789H12.1648L16.4076 124.054C18.7412 122.177 20.6825 120.638 20.7219 120.632C20.7613 120.626 20.7932 122.161 20.7932 124.043ZM129.771 124.19C131.733 125.728 133.459 127.093 133.608 127.225C133.757 127.357 131.928 127.465 129.543 127.465H125.207V123.999C125.207 120.724 125.234 120.556 125.706 120.964C125.98 121.201 127.81 122.653 129.771 124.19ZM74.5819 123.888C75.1405 124.446 75.2823 124.879 75.2823 126.026V127.465H73.1426H71.003V126.026C71.003 124.879 71.1448 124.446 71.7034 123.888C72.0885 123.503 72.7361 123.188 73.1426 123.188C73.5492 123.188 74.1968 123.503 74.5819 123.888ZM141.611 136.732V141.58H73H4.38946L4.31072 137.029C4.26707 134.526 4.29531 132.312 4.3732 132.109C4.48845 131.809 17.2423 131.754 73.0625 131.813L141.611 131.885V136.732Z" fill="url(#paint0_linear_3041_79349)"/>
<defs>
<linearGradient id="paint0_linear_3041_79349" x1="-4.53482" y1="19.4452" x2="50.2406" y2="158.101" gradientUnits="userSpaceOnUse">
<stop stop-color="#6A50FC"/>
<stop offset="1" stop-color="#9150FC"/>
</linearGradient>
</defs>
</svg>
