<svg width="146" height="113" viewBox="0 0 146 113" fill="none" xmlns="http://www.w3.org/2000/svg">
<path fill-rule="evenodd" clip-rule="evenodd" d="M122.606 0.916614C122.221 1.30157 121.906 1.92977 121.906 2.31274C121.906 2.6957 123.325 8.30302 125.06 14.7735C127.527 23.9732 128.133 26.5881 127.843 26.7677C127.152 27.1946 124.714 27.6628 124.491 27.4116C124.369 27.2753 122.873 21.9121 121.165 15.4935C119.365 8.73018 117.84 3.54433 117.538 3.16051C116.512 1.85535 113.922 2.72821 113.922 4.37927C113.922 4.68809 115.331 10.1976 117.055 16.6224C118.778 23.0476 120.189 28.449 120.191 28.6258C120.194 28.911 116.778 29.9723 116.559 29.7539C116.511 29.706 115.013 24.233 113.23 17.5917C109.794 4.79331 109.675 4.4939 108.031 4.4939C107.219 4.4939 105.936 5.66675 105.94 6.40587C105.941 6.68732 107.394 12.328 109.168 18.9402L112.394 30.963L110.811 31.4132C109.333 31.8338 109.195 31.8307 108.747 31.3673C108.462 31.0725 107.03 26.2391 105.222 19.4675C103.547 13.1954 102.057 7.83964 101.91 7.56532C101.321 6.46433 99.2897 6.53904 98.4313 7.69335L97.8542 8.46898L100.048 16.6458C101.255 21.1433 102.196 24.8697 102.138 24.9268C102.081 24.9841 101.469 24.6045 100.778 24.0838C95.5695 20.1584 88.7668 17.1722 81.3796 15.5688C77.3885 14.7025 67.669 14.6258 63.4504 15.4274C57.8719 16.4876 51.0284 19.1626 46.6501 21.9951C45.5286 22.7205 44.5696 23.3142 44.5191 23.3142C44.4684 23.3142 44.3406 21.8708 44.2345 20.1062C43.8179 13.1664 41.7451 8.30016 38.0102 5.49252C35.8812 3.89193 33.9042 3.21982 31.3689 3.23408C23.6491 3.27828 16.0517 11.4218 12.9096 23.0202C12.4744 24.6262 12.321 26.1028 12.3008 28.8748C12.2757 32.2938 12.3367 32.7477 13.0852 34.7205C14.5036 38.4574 14.9678 40.8456 14.9698 44.4158C14.9721 48.4456 15.4121 46.6069 6.81663 78.492C-0.801324 106.752 -0.738019 106.426 0.863988 109.017C1.95414 110.781 3.55786 111.911 5.56222 112.327C8.596 112.958 11.9127 111.291 13.1836 108.496C13.4847 107.834 16.0314 98.6648 18.8431 88.1197C21.8612 76.7995 24.0318 69.1494 24.1427 69.4419C24.2462 69.7143 24.5357 71.0554 24.7863 72.4215C25.824 78.0827 28.5358 84.5695 32.0453 89.7861C39.7419 101.227 51.7886 108.888 65.244 110.898C68.6473 111.406 76.1281 111.33 79.5292 110.752C101.588 107.004 117.945 89.7294 120.181 67.8203C120.348 66.1855 120.516 64.8167 120.554 64.7782C120.592 64.74 123.186 74.2811 126.318 85.9813C129.45 97.6813 132.285 107.841 132.617 108.559C133.914 111.358 137.117 112.959 140.156 112.327C142.16 111.911 143.764 110.781 144.854 109.017C146.411 106.499 146.34 106.091 140.755 85.3357C136.534 69.6501 135.744 66.9956 135.133 66.4441C134.176 65.5815 133.435 65.6365 132.426 66.6448C131.749 67.3221 131.62 67.6432 131.767 68.2845C131.867 68.7231 134.133 77.2524 136.802 87.2383C140.16 99.8022 141.597 105.623 141.468 106.137C141.232 107.08 140.378 107.939 139.445 108.173C138.539 108.401 137.097 107.825 136.594 107.035C136.385 106.706 132.986 94.382 129.041 79.6477C124.866 64.0548 121.553 52.2134 121.113 51.3148C120.037 49.1171 117.853 47.0255 115.185 45.6374C113.94 44.9901 112.616 44.1343 112.241 43.7357C111.397 42.8366 109.532 36.3898 110.037 36.1143C110.936 35.6241 129.119 30.9855 129.318 31.1956C129.688 31.5857 131.031 36.9512 131.031 38.0394C131.031 39.1318 130.701 39.8715 129.263 42.0082C126.898 45.5213 126.591 49.1853 128.168 55.1091C129.224 59.0785 129.839 60.0994 131.174 60.0994C132.009 60.0994 133.312 58.949 133.312 58.2111C133.312 57.9424 132.937 56.3005 132.479 54.5625C132.02 52.8242 131.567 50.8888 131.471 50.2615C131.179 48.3506 131.779 46.18 133.283 43.7029C135.086 40.7333 135.416 39.65 135.226 37.3179C135.135 36.2118 133.184 28.4254 130.502 18.4668C126.457 3.4468 125.847 1.42647 125.187 0.858441C124.223 0.0294921 123.476 0.046317 122.606 0.916614ZM34.3562 8.19751C37.3574 9.72851 39.1496 13.2009 39.7924 18.7309C40.3385 23.4271 39.5223 28.7892 37.6323 32.9248C36.407 35.6064 35.5484 36.6954 33.0516 38.7357C29.3656 41.7476 26.3501 46.0326 24.6628 50.6561C24.202 51.9188 20.6036 64.9861 16.6662 79.6947C12.7291 94.4031 9.33541 106.706 9.12525 107.035C8.61995 107.825 7.17906 108.401 6.2734 108.173C5.34294 107.94 4.48661 107.081 4.25193 106.145C4.12446 105.638 6.32844 96.9641 11.3717 78.1212C15.389 63.112 18.8052 50.1406 18.9629 49.2959C19.384 47.0403 19.3048 41.1573 18.8223 38.88C18.5924 37.7959 17.9374 35.5554 17.3663 33.9015C16.3785 31.0408 16.3351 30.7608 16.482 28.1733C16.7378 23.6564 18.1966 19.3805 20.9418 15.1011C22.5841 12.541 25.6652 9.43195 27.4748 8.5089C29.9208 7.26106 32.3087 7.15298 34.3562 8.19751ZM80.4157 19.7375C88.19 21.3914 94.2395 24.2515 100.092 29.0401C104.274 32.4629 104.286 32.482 105.909 38.4985C106.702 41.439 107.598 44.3262 107.899 44.9145C108.713 46.5017 110.241 47.8844 112.33 48.9238C114.363 49.9358 114.226 49.7014 115.187 53.8259C116.884 61.1054 116.226 70.4283 113.478 78.0642C109.34 89.5671 99.5084 99.6123 88.1172 103.978C82.6397 106.077 78.0113 106.908 71.8611 106.898C62.6622 106.882 54.7143 104.385 46.9099 99.0594C43.7521 96.9045 37.9631 91.0169 35.8116 87.7715C30.8393 80.2719 28.5116 73.2183 28.1851 64.6619C27.9943 59.6634 28.4494 55.6116 29.683 51.3265C30.8715 47.1975 31.2602 46.6129 35.7959 42.1345C39.603 38.3756 40.0895 37.7793 41.1477 35.5759C41.7879 34.2428 42.5361 32.3822 42.8105 31.4412C43.2351 29.9843 43.5271 29.554 44.7769 28.5431C50.7763 23.6918 58.3703 20.5066 67.0134 19.2165C69.0602 18.9111 78.2009 19.2664 80.4157 19.7375ZM63.8028 31.6043C55.6633 33.7909 48.4189 39.3237 44.0366 46.7002C37.8006 57.197 38.3763 71.0194 45.4855 81.4881C51.6369 90.5464 62.4757 95.935 73.4294 95.3803C78.5622 95.1206 82.5159 94.0737 86.9689 91.7956C95.1951 87.587 101.089 80.2066 103.595 70.9775C104.274 68.479 104.343 67.7421 104.347 62.9509C104.352 58.0733 104.294 57.4634 103.574 54.861C100.853 45.0229 94.1078 37.1451 85.0609 33.2399C82.3383 32.0648 78.6686 31.0134 77.2887 31.0134C75.9046 31.0134 75.1404 31.7135 75.1404 32.9816C75.1404 34.4034 75.7149 34.8824 78.0758 35.4299C86.7576 37.4434 93.5817 42.7824 97.3971 50.5466C99.6107 55.0515 100.048 57.0585 100.072 62.8083C100.095 68.5973 99.6184 70.8215 97.3814 75.3552C92.3273 85.5986 81.9077 91.7218 70.5992 91.0941C58.522 90.424 48.294 82.1716 44.9075 70.365C43.9719 67.1039 43.8142 60.8585 44.5744 57.1902C46.8349 46.2827 55.0542 38.0189 66.2167 35.4299C68.5107 34.8981 69.1521 34.3908 69.1521 33.1079C69.1521 31.0174 67.6048 30.5826 63.8028 31.6043Z" fill="url(#paint0_linear_3041_79321)"/>
<defs>
<linearGradient id="paint0_linear_3041_79321" x1="-4.52627" y1="15.1954" x2="29.7773" y2="127.961" gradientUnits="userSpaceOnUse">
<stop stop-color="#6A50FC"/>
<stop offset="1" stop-color="#9150FC"/>
</linearGradient>
</defs>
</svg>
