<svg width="146" height="146" viewBox="0 0 146 146" fill="none" xmlns="http://www.w3.org/2000/svg">
<path fill-rule="evenodd" clip-rule="evenodd" d="M37.3112 0.219526C34.4394 0.917294 31.2585 3.26862 30.0156 5.61316C29.3401 6.88764 29.3127 6.90325 27.4587 7.07644C26.1615 7.19779 25.0404 7.54182 23.8174 8.19423C21.8383 9.24986 20.9365 10.1924 19.7995 12.3941C19.0963 13.7552 19.0107 14.2818 18.8997 17.9288C18.7778 21.9363 18.7814 21.9634 19.5325 22.7151C20.4423 23.6255 21.7274 23.7039 22.7102 22.9086C23.3601 22.3829 23.4145 22.0977 23.5523 18.5114C23.6779 15.2397 23.7886 14.5572 24.3063 13.8638C25.152 12.731 26.1824 12.0233 27.305 11.8032L28.2616 11.6156V14.6909C28.2616 16.3825 28.4017 18.5256 28.5733 19.4537L28.885 21.1408L27.4469 22.4347C26.0815 23.6629 24.1409 26.7356 24.1409 27.6687C24.1409 27.9753 23.6632 28.1585 22.5106 28.2943C19.2838 28.6737 16.465 30.6813 15.0148 33.6326C14.4137 34.8555 14.2931 35.53 14.3031 37.6089C14.316 40.3528 14.8343 41.8405 16.4682 43.824C17.5313 45.115 20.3063 46.6212 22.1124 46.8881L23.4687 47.0884L23.6347 49.6385C23.911 53.882 25.4899 57.4533 28.3549 60.3148C30.4008 62.3586 33.1178 63.9556 35.6665 64.6124L37.6803 65.1317V68.1183V71.1047L36.5648 70.8066C35.0725 70.4081 33.4858 70.7444 32.3508 71.6999C30.7849 73.0186 30.6163 73.8183 30.6163 79.9203C30.6163 84.8939 30.6757 85.5563 31.2259 86.6933C32.5577 89.4463 35.0811 89.9406 39.0228 88.2205L41.3954 87.1849L44.5419 92.699C47.0902 97.1654 47.8558 98.2826 48.571 98.5789C50.3615 99.3211 50.8974 98.7774 54.3656 92.699L57.512 87.1849L59.8847 88.2205C63.8264 89.9406 66.3497 89.4463 67.6816 86.6933C68.2317 85.5563 68.2912 84.8939 68.2912 79.9203C68.2912 73.8183 68.1225 73.0186 66.5567 71.6999C65.4217 70.7444 63.8349 70.4081 62.3427 70.8066L61.2271 71.1047V68.0998V65.0949L62.8507 64.7314C65.427 64.1544 68.2953 62.5512 70.2903 60.5734C73.3711 57.519 74.9729 54.0019 75.2663 49.6459L75.4379 47.1028L76.7086 46.9287C79.6399 46.5267 82.5158 44.3874 83.8927 41.5852C84.4926 40.3646 84.615 39.6839 84.6076 37.6089C84.6 35.4667 84.4823 34.8805 83.7932 33.5489C83.0433 32.0998 80.8802 29.6563 80.3474 29.6563C80.2182 29.6563 80.0628 25.9121 80.0022 21.3355C79.895 13.2727 79.8686 12.9543 79.1457 11.0648C78.0769 8.27199 77.0906 6.71563 75.176 4.79964C73.2693 2.8916 71.7228 1.90784 68.9152 0.816856L66.9667 0.0598852L52.6914 0.00539493C44.84 -0.0243537 37.919 0.0719613 37.3112 0.219526ZM68.6335 5.86765C71.3116 7.19249 72.9805 8.89848 74.2765 11.6362L75.2081 13.6038L75.3043 20.8937L75.4005 28.1836H73.7917C72.6467 28.1836 71.9824 28.3458 71.488 28.7461L70.793 29.3087L70.6459 40.4541L70.4987 51.5996L69.5671 53.5671C68.2709 56.3055 66.6023 58.0108 63.9232 59.3357L61.6993 60.4358H49.469H37.2388L35.3257 59.5198C32.5233 58.1779 30.8306 56.5334 29.519 53.8793L28.4088 51.632L28.3178 41.0123C28.2163 29.1868 28.2849 28.6009 29.9944 26.6773L31.0578 25.4808L31.9408 26.6843C33.5523 28.8807 36.3794 30.8527 39.7151 32.1063C41.2627 32.6883 42.0391 32.7307 52.9072 32.8288L64.4545 32.9333L65.1957 32.1917C66.091 31.2957 66.164 30.0029 65.3743 29.0262L64.8121 28.3308L53.3802 28.1836L41.9482 28.0363L40.035 27.1203C37.2338 25.7789 35.5396 24.1336 34.231 21.4842C33.1305 19.2557 33.1229 19.2145 33.0139 15.0058C32.9236 11.5081 32.9936 10.5367 33.4154 9.4313C34.1118 7.60632 35.4743 6.13568 37.2368 5.30566L38.7105 4.61143L52.5601 4.68948L66.4098 4.76754L68.6335 5.86765ZM23.5523 37.6089C23.5523 42.8084 23.5926 42.7153 21.6894 41.9198C18.027 40.3885 17.9855 34.8967 21.6244 33.3106C23.5826 32.4571 23.5523 32.3899 23.5523 37.6089ZM77.986 33.7277C79.4285 34.7936 79.9174 35.7762 79.9174 37.6089C79.9174 38.8907 79.7617 39.5416 79.3105 40.1463C78.4652 41.2794 77.435 41.9875 76.3118 42.2075L75.3552 42.3952V37.6089V32.8226L76.3118 33.0102C76.8381 33.1133 77.5913 33.4361 77.986 33.7277ZM56.5178 69.2364V73.1768L55.6 73.5573C54.8883 73.8522 54.5743 73.8592 54.202 73.5888C52.6429 72.456 51.8402 72.0669 50.7144 71.8979C48.4138 71.5527 46.9354 71.9686 44.7055 73.5888C44.3332 73.8592 44.0191 73.8522 43.3074 73.5573L42.3897 73.1768V69.2364V65.2957H49.4537H56.5178V69.2364ZM39.8143 77.2161C42.1798 78.2349 42.3897 78.3931 42.3897 79.1551C42.3897 79.611 42.5118 80.3061 42.6614 80.6996C42.9245 81.3921 42.8132 81.466 39.1293 83.0477L35.3257 84.6807V79.9916V75.3022L36.2822 75.7045C36.8082 75.9257 38.3979 76.6058 39.8143 77.2161ZM63.5818 79.9851V84.66L59.7855 83.0174C56.1472 81.4434 56.0003 81.3462 56.2535 80.6796C56.3989 80.2973 56.5178 79.6078 56.5178 79.1474C56.5178 78.3595 56.72 78.2237 59.9762 76.8288C61.8785 76.0138 63.4679 75.3387 63.5082 75.3284C63.5486 75.3184 63.5818 77.4137 63.5818 79.9851ZM51.0858 77.2114C52.9593 79.0859 50.7132 82.0201 48.3438 80.7939C47.8602 80.5438 47.3825 80.1247 47.2818 79.8623C46.6684 78.2629 47.8108 76.4883 49.4537 76.4883C50.0271 76.4883 50.6305 76.7554 51.0858 77.2114ZM21.8595 77.8111C19.8451 78.6873 16.553 81.0663 14.5683 83.0798C10.9159 86.7855 8.39458 91.6418 7.52129 96.6529C7.16662 98.6876 7.06949 101.739 7.06949 110.841C7.06949 121.375 7.02534 122.437 6.58854 122.437C4.34394 122.437 1.0418 125.033 0.363357 127.331C-0.121119 128.971 -0.121119 139.465 0.363357 141.106C0.841062 142.724 3.27933 145.164 4.89612 145.642C5.82945 145.918 19.5643 146 64.733 146H123.359L124.081 145.277C125.037 144.321 125.037 142.967 124.081 142.01L123.359 141.287H64.7592H6.1597L5.4374 140.564C4.72069 139.847 4.71481 139.796 4.71481 134.218C4.71481 128.641 4.72069 128.589 5.4374 127.872L6.1597 127.149H73.0005H139.841L140.564 127.872C141.28 128.589 141.286 128.641 141.286 134.218C141.286 139.796 141.28 139.847 140.564 140.564C139.861 141.268 139.723 141.287 135.4 141.287C131.076 141.287 130.939 141.306 130.235 142.01C129.279 142.967 129.279 144.321 130.235 145.277C130.939 145.981 131.074 146 135.426 146C138.073 146 140.387 145.854 141.105 145.642C142.722 145.164 145.16 142.724 145.638 141.106C146.116 139.484 146.122 128.967 145.646 127.374C145.133 125.662 143.043 123.473 141.378 122.905C140.622 122.647 139.73 122.437 139.394 122.437C138.803 122.437 138.787 122.319 138.887 118.476C138.988 114.56 138.98 114.506 138.238 113.763C137.618 113.143 137.209 113.011 135.897 113.011H134.308L134.145 110.14C133.881 105.489 132.325 101.958 129.168 98.8469C127.257 96.9645 124.22 95.2827 121.639 94.678L120.094 94.316V92.605C120.094 91.1812 119.973 90.7727 119.372 90.1712C118.916 89.7152 118.313 89.4481 117.739 89.4481C117.166 89.4481 116.563 89.7152 116.107 90.1712C115.503 90.7759 115.385 91.1791 115.385 92.6371V94.3799L114.134 94.5781C113.446 94.6868 111.813 95.2933 110.504 95.9254C104.982 98.5939 101.7 103.681 101.334 110.14L101.171 113.011H99.5816C98.2701 113.011 97.861 113.143 97.2414 113.763C96.4991 114.506 96.4914 114.56 96.5924 118.476L96.6945 122.437H94.286L91.8771 122.437L91.7671 109.698C91.6637 97.7397 91.6184 96.8231 91.0253 94.7437C89.1169 88.052 84.8937 82.4171 79.2563 79.0411C76.2621 77.2476 74.826 76.9911 73.7587 78.0591C72.4263 79.3925 72.9437 81.0036 75.0491 82.0787L76.1758 82.6539L75.0288 85.4418C71.8512 93.1643 69.6825 104.22 68.826 117.061L68.4675 122.437H49.4378H30.4079L30.2051 118.681C29.4972 105.564 27.0804 93.0112 23.735 85.0727L22.7502 82.7367L23.8813 82.1005C25.9734 80.9238 26.4738 79.3851 25.1843 78.095C24.3649 77.2747 23.3015 77.184 21.8595 77.8111ZM49.4537 85.8877C50.0203 85.8877 50.9822 85.7098 51.5909 85.4924C52.1999 85.275 52.7677 85.21 52.8527 85.3475C53.0122 85.6058 49.7554 91.5099 49.4537 91.5099C49.152 91.5099 45.8952 85.6058 46.0548 85.3475C46.1398 85.21 46.7076 85.275 47.3166 85.4924C47.9253 85.7098 48.8871 85.8877 49.4537 85.8877ZM20.3269 89.4104C23.0369 97.1094 24.8715 107.542 25.4999 118.829L25.7009 122.437H18.7399H11.7788V110.976C11.7788 98.558 11.9357 96.8228 13.3812 93.2586C14.6686 90.084 18.2869 85.2394 18.9071 85.86C19.0516 86.0046 19.6906 87.6022 20.3269 89.4104ZM83.2175 89.0894C83.9474 90.107 84.9349 91.8689 85.4118 93.0047C86.9703 96.7168 87.1286 98.3748 87.1286 110.976V122.437H80.2117H73.2949L73.2963 120.89C73.2987 118.484 74.1134 109.822 74.7401 105.537C75.7276 98.788 77.6864 91.1226 79.513 86.8576L80.0831 85.5266L80.9867 86.3828C81.4839 86.8538 82.4875 88.0717 83.2175 89.0894ZM122.575 99.9986C125.203 101.229 126.951 102.938 128.229 105.524C129.143 107.375 129.312 108.045 129.443 110.343L129.594 113.011H120.857H112.12L111.398 113.734C110.942 114.19 110.675 114.794 110.675 115.368C110.675 115.941 110.942 116.545 111.398 117.001L112.12 117.724H123.171H134.222V119.357C134.222 120.699 134.093 121.12 133.5 121.714L132.777 122.437H117.739H102.702L101.979 121.714C101.386 121.12 101.257 120.699 101.257 119.357V117.724H102.843C103.965 117.724 104.632 117.56 105.124 117.162C105.783 116.628 105.827 116.372 105.978 112.226C106.129 108.113 106.192 107.736 107.057 105.888C108.221 103.398 109.905 101.566 112.108 100.391C114.426 99.1544 115.695 98.8746 118.401 99.0036C120.168 99.0878 121.109 99.312 122.575 99.9986ZM47.8216 104.309C46.3615 105.77 47.396 108.299 49.4537 108.299C50.6637 108.299 51.8084 107.153 51.8084 105.942C51.8084 104.732 50.6637 103.586 49.4537 103.586C48.8804 103.586 48.277 103.853 47.8216 104.309ZM47.8216 113.734C46.3615 115.195 47.396 117.724 49.4537 117.724C50.6637 117.724 51.8084 116.579 51.8084 115.368C51.8084 114.157 50.6637 113.011 49.4537 113.011C48.8804 113.011 48.277 113.279 47.8216 113.734Z" fill="url(#paint0_linear_3041_79339)"/>
<defs>
<linearGradient id="paint0_linear_3041_79339" x1="-4.53482" y1="19.4452" x2="50.2406" y2="158.101" gradientUnits="userSpaceOnUse">
<stop stop-color="#6A50FC"/>
<stop offset="1" stop-color="#9150FC"/>
</linearGradient>
</defs>
</svg>
