<svg width="146" height="116" viewBox="0 0 146 116" fill="none" xmlns="http://www.w3.org/2000/svg">
<path fill-rule="evenodd" clip-rule="evenodd" d="M41.3477 2.40488V4.80976H43.7715H46.1953V7.21463V9.61951H34.0762H21.957V12.0244V14.4293H24.3809H26.8047V62.8098V111.19H20.6738H14.543V95.4541V79.7183L15.4697 80.4078C15.9796 80.7869 17.2933 81.7659 18.3897 82.5827L20.3827 84.068L21.0269 83.2705C21.3813 82.8319 22.0483 81.954 22.5094 81.3197L23.3475 80.1662L19.7973 77.5401L16.2473 74.9139L19.8169 72.2505L23.3862 69.587L22.03 67.7661C21.2841 66.7645 20.5569 65.9401 20.4138 65.9335C20.2706 65.927 18.9586 66.8132 17.498 67.9024C16.0375 68.9917 14.7751 69.8829 14.6927 69.8829C14.6103 69.8829 14.543 68.2915 14.543 66.3463V62.8098H12.1277H9.71242L9.63258 66.3633L9.55273 69.9166L6.86571 67.9194C5.38774 66.8208 4.08771 65.922 3.97707 65.922C3.75323 65.922 1.48909 68.8245 1.26895 69.3932C1.18625 69.6071 2.36993 70.6714 4.18039 72.0111C5.85825 73.2526 7.42062 74.4083 7.65245 74.5798C7.9955 74.8336 7.43146 75.3723 4.60727 77.4886C2.70043 78.9171 1.14062 80.1594 1.14062 80.2491C1.14062 80.446 3.77376 84.0293 3.91833 84.0293C3.97422 84.0293 5.29678 83.0699 6.85744 81.8969L9.69531 79.7647V95.4773V111.19H4.84766H0V113.595V116H73H146V113.595V111.19H141.152H136.305V95.4773V79.7647L139.143 81.8969C140.703 83.0699 142.026 84.0293 142.082 84.0293C142.226 84.0293 144.859 80.446 144.859 80.2491C144.859 80.1594 143.3 78.9171 141.393 77.4886C138.569 75.3723 138.005 74.8336 138.348 74.5798C138.579 74.4083 140.142 73.2526 141.82 72.0111C143.63 70.6714 144.814 69.6071 144.731 69.3932C144.511 68.8245 142.247 65.922 142.023 65.922C141.912 65.922 140.612 66.8208 139.134 67.9194L136.447 69.9166L136.367 66.3633L136.288 62.8098H133.872H131.457V66.3463C131.457 68.2915 131.39 69.8829 131.307 69.8829C131.225 69.8829 129.963 68.9917 128.502 67.9024C127.041 66.8132 125.729 65.927 125.586 65.9335C125.443 65.9401 124.716 66.7645 123.97 67.7661L122.614 69.587L126.179 72.2473L129.744 74.9077L126.395 77.385C124.552 78.7476 122.946 79.9497 122.825 80.0564C122.481 80.36 125.441 84.0782 125.84 83.8437C126.119 83.6804 129.685 81.0659 131.101 79.9877C131.385 79.7712 131.457 82.9072 131.457 95.4533V111.19H125.326H119.195V62.8098V14.4293H121.619H124.043V12.0244V9.61951H111.924H99.8047V7.21463V4.80976H102.229H104.652V2.40488V0H73H41.3477V2.40488ZM94.8145 58V111.049L91.1787 111.128L87.543 111.207V103.583C87.543 99.3894 87.4631 95.7523 87.3659 95.5005C86.8911 94.2732 86.2355 94.2146 73 94.2146C59.7645 94.2146 59.1089 94.2732 58.6341 95.5005C58.5369 95.7523 58.457 99.3894 58.457 103.583V111.207L54.8213 111.128L51.1855 111.049L51.1123 58.2829C51.0721 29.2617 51.1006 5.35722 51.1753 5.16172C51.2834 4.87964 55.8128 4.82136 73.063 4.87879L94.8145 4.95122V58ZM56.0808 9.80822C55.9762 9.91178 55.8906 11.5669 55.8906 13.4863V16.9756H58.3145H60.7383V13.2976V9.61951H58.5047C57.2759 9.61951 56.1852 9.70439 56.0808 9.80822ZM65.7761 9.80822C65.6715 9.91178 65.5859 11.5669 65.5859 13.4863V16.9756H68.0098H70.4336V13.2976V9.61951H68.2C66.9712 9.61951 65.8805 9.70439 65.7761 9.80822ZM75.5664 13.2862V16.9756H77.9988H80.4312L80.3513 13.3683L80.2715 9.76098L77.9189 9.67893L75.5664 9.59659V13.2862ZM85.2617 13.2862V16.9756H87.6941H90.1265L90.0466 13.3683L89.9668 9.76098L87.6143 9.67893L85.2617 9.59659V13.2862ZM46.1953 62.8098V111.19H38.9238H31.6523V62.8098V14.4293H38.9238H46.1953V62.8098ZM114.348 62.8098V111.19H107.076H99.8047V62.8098V14.4293H107.076H114.348V62.8098ZM36.5 25.4634V29.1415H38.9238H41.3477V25.4634V21.7854H38.9238H36.5V25.4634ZM55.9534 25.3927L56.0332 29L58.3857 29.082L60.7383 29.1644V25.4747V21.7854H58.3059H55.8735L55.9534 25.3927ZM65.6487 25.3927L65.7285 29L68.0811 29.082L70.4336 29.1644V25.4747V21.7854H68.0012H65.5688L65.6487 25.3927ZM75.5664 25.4747V29.1644L77.9189 29.082L80.2715 29L80.3513 25.3927L80.4312 21.7854H77.9988H75.5664V25.4747ZM85.2617 25.4747V29.1644L87.6143 29.082L89.9668 29L90.0466 25.3927L90.1265 21.7854H87.6941H85.2617V25.4747ZM104.652 25.4634V29.1415H107.076H109.5V25.4634V21.7854H107.076H104.652V25.4634ZM36.5 37.4878V41.0244H38.9238H41.3477V37.4878V33.9512H38.9238H36.5V37.4878ZM55.8906 37.4878V41.0244H58.3145H60.7383V37.4878V33.9512H58.3145H55.8906V37.4878ZM65.5859 37.4878V41.0244H68.0098H70.4336V37.4878V33.9512H68.0098H65.5859V37.4878ZM75.5664 37.4878V41.0244H77.9902H80.4141V37.4878V33.9512H77.9902H75.5664V37.4878ZM85.2617 37.4878V41.0244H87.6855H90.1094V37.4878V33.9512H87.6855H85.2617V37.4878ZM104.652 37.4878V41.0244H107.076H109.5V37.4878V33.9512H107.076H104.652V37.4878ZM36.5 49.5122V53.1902H38.9238H41.3477V49.5122V45.8341H38.9238H36.5V49.5122ZM56.0808 46.0229C55.9762 46.1264 55.8906 47.7815 55.8906 49.7009V53.1902H58.3145H60.7383V49.5122V45.8341H58.5047C57.2759 45.8341 56.1852 45.919 56.0808 46.0229ZM65.7761 46.0229C65.6715 46.1264 65.5859 47.7815 65.5859 49.7009V53.1902H68.0098H70.4336V49.5122V45.8341H68.2C66.9712 45.8341 65.8805 45.919 65.7761 46.0229ZM75.5664 49.5009V53.1902H77.9988H80.4312L80.3513 49.5829L80.2715 45.9756L77.9189 45.8936L75.5664 45.8112V49.5009ZM85.2617 49.5009V53.1902H87.6941H90.1265L90.0466 49.5829L89.9668 45.9756L87.6143 45.8936L85.2617 45.8112V49.5009ZM104.652 49.5122V53.1902H107.076H109.5V49.5122V45.8341H107.076H104.652V49.5122ZM36.5 61.678V65.3561H38.9238H41.3477V61.678V58H38.9238H36.5V61.678ZM55.9534 61.6073L56.0332 65.2146L58.3857 65.2967L60.7383 65.379V61.6894V58H58.3059H55.8735L55.9534 61.6073ZM65.6487 61.6073L65.7285 65.2146L68.0811 65.2967L70.4336 65.379V61.6894V58H68.0012H65.5688L65.6487 61.6073ZM75.5664 61.6894V65.379L77.9189 65.2967L80.2715 65.2146L80.3513 61.6073L80.4312 58H77.9988H75.5664V61.6894ZM85.2617 61.6894V65.379L87.6143 65.2967L89.9668 65.2146L90.0466 61.6073L90.1265 58H87.6941H85.2617V61.6894ZM104.652 61.678V65.3561H107.076H109.5V61.678V58H107.076H104.652V61.678ZM36.5 73.7024V77.239H38.9238H41.3477V73.7024V70.1659H38.9238H36.5V73.7024ZM55.8906 73.7024V77.239H58.3145H60.7383V73.7024V70.1659H58.3145H55.8906V73.7024ZM65.5859 73.7024V77.239H68.0098H70.4336V73.7024V70.1659H68.0098H65.5859V73.7024ZM75.5664 73.7024V77.239H77.9902H80.4141V73.7024V70.1659H77.9902H75.5664V73.7024ZM85.2617 73.7024V77.239H87.6855H90.1094V73.7024V70.1659H87.6855H85.2617V73.7024ZM104.652 73.7024V77.239H107.076H109.5V73.7024V70.1659H107.076H104.652V73.7024ZM36.5 85.7268V89.4049H38.9238H41.3477V85.7268V82.0488H38.9238H36.5V85.7268ZM56.0808 82.2375C55.9762 82.341 55.8906 83.9962 55.8906 85.9155V89.4049H58.3145H60.7383V85.7268V82.0488H58.5047C57.2759 82.0488 56.1852 82.1337 56.0808 82.2375ZM65.7761 82.2375C65.6715 82.341 65.5859 83.9962 65.5859 85.9155V89.4049H68.0098H70.4336V85.7268V82.0488H68.2C66.9712 82.0488 65.8805 82.1337 65.7761 82.2375ZM75.5664 85.7155V89.4049H77.9988H80.4312L80.3513 85.7976L80.2715 82.1902L77.9189 82.1082L75.5664 82.0259V85.7155ZM85.2617 85.7155V89.4049H87.6941H90.1265L90.0466 85.7976L89.9668 82.1902L87.6143 82.1082L85.2617 82.0259V85.7155ZM104.652 85.7268V89.4049H107.076H109.5V85.7268V82.0488H107.076H104.652V85.7268ZM36.5 97.8927V101.571H38.9238H41.3477V97.8927V94.2146H38.9238H36.5V97.8927ZM104.652 97.8927V101.571H107.076H109.5V97.8927V94.2146H107.076H104.652V97.8927ZM70.4336 105.107V111.19H66.8691H63.3047V105.107V99.0244H66.8691H70.4336V105.107ZM82.6953 105.107V111.19H79.1309H75.5664V105.107V99.0244H79.1309H82.6953V105.107Z" fill="url(#paint0_linear_3041_79362)"/>
<defs>
<linearGradient id="paint0_linear_3041_79362" x1="-4.53482" y1="15.4496" x2="31.8543" y2="131.385" gradientUnits="userSpaceOnUse">
<stop stop-color="#6A50FC"/>
<stop offset="1" stop-color="#9150FC"/>
</linearGradient>
</defs>
</svg>
