<svg width="87" height="138" viewBox="0 0 87 138" fill="none" xmlns="http://www.w3.org/2000/svg">
<path fill-rule="evenodd" clip-rule="evenodd" d="M52.4953 0.812772C44.9486 1.88969 37.4783 6.24951 32.9196 12.2377C30.1719 15.8471 27.8733 21.1935 27.1854 25.5749L26.8773 27.5365L21.3432 27.4646L15.8089 27.3924L11.6018 15.9864C9.28807 9.71346 7.16388 4.32807 6.88168 4.01919C6.18199 3.25356 4.97137 3.29581 4.14475 4.11439C3.78019 4.47542 3.4853 4.98673 3.48962 5.25095C3.49394 5.5149 5.29623 10.6048 7.49496 16.5617L11.4922 27.3924L10.4503 27.7004C8.99453 28.131 8.15603 28.7303 7.64861 29.7018C7.40908 30.1605 5.80095 38.1318 4.07508 47.4163L0.937134 64.2969L0.943344 68.7094C0.949015 72.7497 1.01221 73.3238 1.69002 75.5156C3.72969 82.1085 8.35317 87.6268 15.2415 91.6903C18.272 93.478 22.6757 95.4011 25.7925 96.2977L27.7912 96.873L27.7212 109.709L27.651 122.545L21.98 124.11C13.0501 126.575 11.9399 126.949 10.9248 127.832C8.13875 130.254 8.78929 135.169 12.1165 136.836C13.2821 137.42 13.557 137.438 21.3322 137.438C28.7601 137.438 29.392 137.401 29.9704 136.937C30.8376 136.242 30.8376 134.622 29.9704 133.926C29.3931 133.464 28.7652 133.426 21.5544 133.426C14.1273 133.426 13.7495 133.402 13.483 132.909C13.1019 132.203 13.1311 131.143 13.541 130.812C14.1784 130.296 28.6151 126.435 31.0358 126.133C32.8189 125.91 34.0797 125.908 35.8199 126.126C38.528 126.465 52.572 130.312 53.1345 130.869C53.5996 131.33 53.6193 132.49 53.1713 133.024C52.8858 133.364 51.6644 133.426 45.2073 133.426C37.9004 133.426 37.5507 133.449 36.8691 133.98C36.353 134.382 36.1575 134.781 36.1575 135.432C36.1575 136.082 36.353 136.481 36.8691 136.883C37.5523 137.416 37.8963 137.438 45.5603 137.438C53.0341 137.438 53.612 137.403 54.6754 136.893C56.6227 135.96 57.9978 133.166 57.5906 130.971C57.3411 129.626 56.252 127.922 55.2509 127.309C54.4481 126.818 40.3789 122.729 39.4912 122.729C39.192 122.729 39.128 120.451 39.128 109.806V96.8818L42.166 95.8915C45.9734 94.6507 50.1578 92.6749 53.1548 90.7035C55.8863 88.9066 59.7839 85.2766 61.4288 82.9974C62.9891 80.8355 64.6434 77.3558 65.3606 74.7265C66.1932 71.6738 66.2016 66.2566 65.3801 62.0366C65.052 60.3521 64.8746 58.9022 64.9856 58.8147C65.0968 58.727 65.8559 58.4318 66.6728 58.1587C74.4485 55.5602 81.3982 49.0018 84.4967 41.3391C86.2293 37.0541 86.484 35.6264 86.484 30.2003C86.484 24.7983 86.2645 23.5516 84.5275 19.0915C80.8932 9.75919 71.7964 2.57724 61.5192 0.926695C58.7834 0.487317 55.101 0.440785 52.4953 0.812772ZM61.034 4.92014C71.1648 6.67712 78.944 13.6802 81.8432 23.6532C82.382 25.507 82.4619 26.3684 82.4498 30.2003C82.4338 35.165 82.0504 37.0892 80.3496 40.7344C78.3502 45.0196 74.963 48.9361 70.9674 51.5828C69.1329 52.7979 64.8819 54.8034 64.1406 54.8034C63.991 54.8034 63.3429 51.0551 63.4725 50.9409C63.5246 50.8949 64.52 50.4243 65.6844 49.895C70.881 47.5329 74.8315 43.5111 76.9827 38.3931C77.4239 37.3435 77.8519 35.8684 77.934 35.1148C78.0604 33.9557 77.9948 33.657 77.509 33.1759C76.8636 32.5368 75.6592 32.4322 74.9403 32.9529C74.6775 33.1428 74.1836 34.1357 73.8423 35.1592C73.4286 36.4003 73.0986 36.9902 72.8518 36.9308C72.3522 36.8113 61.0202 30.3696 61.0113 30.2003C61.0018 30.0219 72.6622 23.381 72.9852 23.381C73.124 23.381 73.4618 24.0429 73.7362 24.8518C74.5485 27.2477 76.0064 27.9347 77.3834 26.5711C77.9851 25.9753 78.0539 25.7365 77.8997 24.7815C77.1247 19.9823 72.1685 13.7668 67.0147 11.1308C58.9792 7.02076 50.2518 7.85112 42.9573 13.4194C39.636 15.9549 36.4165 21.1327 35.4748 25.4535L35.023 27.5261H33.0249C30.6901 27.5261 30.7646 27.6876 31.5672 24.3721C33.6517 15.7618 40.2617 8.6122 48.6699 5.87244C52.7306 4.54949 57.0005 4.22056 61.034 4.92014ZM54.7907 19.7927V26.7674L53.9131 26.2456C53.4302 25.9584 51.5164 24.8524 49.6598 23.7875C47.8033 22.7226 45.4639 21.3777 44.4614 20.799C43.4588 20.2203 42.6386 19.629 42.6386 19.4849C42.6386 19.341 43.4312 18.4572 44.3999 17.5212C46.9048 15.101 51.4249 12.8728 53.9131 12.8322L54.7907 12.8177V19.7927ZM61.5419 13.2132C63.8913 13.8289 66.7981 15.4315 68.7076 17.1642C71.4834 19.683 71.5774 19.3969 67.1443 21.9299C65.0285 23.139 62.2948 24.7101 61.0693 25.4212L58.8414 26.7142V19.7659V12.8177L59.4491 12.8209C59.7834 12.8225 60.725 12.9993 61.5419 13.2132ZM44.1738 25.2861C46.1514 26.4077 47.7695 27.3704 47.7695 27.4255C47.7695 27.4809 45.8227 27.5261 43.4436 27.5261H39.1177L39.2852 26.7906C39.5979 25.4156 40.3062 23.2473 40.4426 23.2473C40.5174 23.2473 42.1963 24.1648 44.1738 25.2861ZM15.1497 37.2871C16.2944 40.3758 17.2361 43.0356 17.2426 43.1977C17.2496 43.3752 16.4092 43.5568 15.1286 43.6547C13.9593 43.7437 12.1282 44.0138 11.0588 44.2548C9.98965 44.4957 9.04071 44.6196 8.95051 44.53C8.78308 44.3644 10.9391 32.1878 11.2135 31.7479C11.2961 31.6155 11.7474 31.5441 12.2162 31.5893C13.0666 31.6709 13.073 31.6834 15.1497 37.2871ZM55.7362 32.1391C56.0216 33.3179 58.5652 47.4104 58.5015 47.4593C58.4655 47.4869 57.4642 47.8728 56.276 48.3172C50.1602 50.6045 44.2281 50.9843 38.5879 49.4492C37.474 49.146 34.8005 48.0656 32.6469 47.0486C28.9569 45.3058 24.5039 43.8411 22.8906 43.8398C22.5004 43.8392 22.0535 43.6865 21.8976 43.5004C21.5949 43.1394 17.5242 32.2523 17.5242 31.8038C17.5242 31.6294 24.102 31.5374 36.5574 31.5374H55.5906L55.7362 32.1391ZM65.6612 37.5703C68.3711 39.1235 70.6925 40.4961 70.8199 40.6208C71.1448 40.9393 69.0225 43.1431 67.0455 44.5404C65.2761 45.7906 62.9502 46.9274 62.6896 46.6691C62.5373 46.5185 60.4725 35.7601 60.4652 35.0808C60.4633 34.8971 60.523 34.7465 60.5978 34.7465C60.6726 34.7465 62.951 36.0173 65.6612 37.5703ZM24.394 62.399C28.9183 74.6609 29.9299 77.1683 30.5305 77.6101C31.7995 78.5434 33.4597 77.6922 33.4538 76.1115C33.4519 75.6437 31.2097 69.1884 28.4709 61.7657C25.7323 54.3431 23.546 48.2162 23.6127 48.1498C23.9073 47.8581 27.4066 49.0826 30.7565 50.6494C36.9071 53.5264 40.088 54.3201 45.4741 54.322C49.4649 54.3233 52.9852 53.7206 56.8272 52.3775C58.1139 51.9277 59.2087 51.6015 59.2603 51.6523C59.3116 51.7034 59.9305 54.8098 60.6359 58.5559C62.5238 68.584 62.4328 72.2817 60.176 77.2103C58.1958 81.5351 53.9879 85.7481 48.5797 88.8205C46.3898 90.0646 41.4736 92.0189 38.8909 92.672C36.1043 93.3767 32.0241 93.535 29.3755 93.0413C27.001 92.5987 23.7842 91.4894 20.788 90.0801C13.1071 86.4672 8.00399 81.3821 5.83444 75.1795C5.15824 73.2465 4.99999 72.3135 4.89575 69.6454C4.77801 66.6283 4.86173 65.9341 6.29676 58.0373C7.13607 53.4178 7.88139 49.5447 7.95269 49.4305C8.11417 49.1717 10.6072 48.4437 12.9334 47.976C13.8989 47.7821 15.6533 47.6441 16.8326 47.6698L18.9763 47.7166L24.394 62.399ZM35.4456 60.7322C34.854 61.0156 34.2672 62.0043 34.2672 62.7172C34.2672 62.9376 34.5656 63.4131 34.9301 63.7741C35.4546 64.2937 35.8707 64.4306 36.9255 64.4306C38.4445 64.4306 39.2776 63.9019 39.549 62.7659C39.8104 61.6721 38.4621 60.4128 37.0559 60.4374C36.4875 60.4473 35.7629 60.58 35.4456 60.7322ZM42.907 67.8735C41.5511 68.3142 40.5512 68.9656 39.5541 70.0588C38.1737 71.5717 37.6941 72.7973 37.6749 74.8602C37.6136 81.4664 45.8168 84.6038 50.2936 79.6861C51.7092 78.1316 52.1796 76.9276 52.1796 74.8602C52.1796 73.8734 51.9966 72.701 51.7562 72.1485C51.1718 70.8055 49.5089 69.048 48.1929 68.3826C47.001 67.7799 44.0655 67.4972 42.907 67.8735ZM46.638 72.1929C47.8732 72.9385 48.4592 74.3812 48.0612 75.6967C47.382 77.9412 44.681 78.8365 42.9473 77.3919C41.8639 76.4891 41.4207 75.1474 41.8152 73.9635C42.5147 71.865 44.7412 71.0475 46.638 72.1929ZM35.0773 109.625V121.927H33.457H31.8367V109.625V97.3238H33.457H35.0773V109.625Z" fill="url(#paint0_linear_3031_79010)"/>
<defs>
<linearGradient id="paint0_linear_3031_79010" x1="-1.71998" y1="18.7923" x2="66.1503" y2="126.169" gradientUnits="userSpaceOnUse">
<stop stop-color="#6A50FC"/>
<stop offset="1" stop-color="#9150FC"/>
</linearGradient>
</defs>
</svg>
