<svg width="26" height="26" fill="none" xmlns="http://www.w3.org/2000/svg"><path fill-rule="evenodd" clip-rule="evenodd" d="M25.24 13.29c0-.904-.081-1.774-.232-2.608H13v4.932h6.862a5.865 5.865 0 0 1-2.544 3.848v3.199h4.12c2.411-2.22 3.802-5.488 3.802-9.371z" fill="#4285F4"/><path fill-rule="evenodd" clip-rule="evenodd" d="M13 25.75c3.443 0 6.329-1.141 8.438-3.089l-4.12-3.199c-1.142.765-2.603 1.217-4.318 1.217-3.32 0-6.132-2.242-7.134-5.256h-4.26v3.303A12.745 12.745 0 0 0 13 25.75z" fill="#34A853"/><path fill-rule="evenodd" clip-rule="evenodd" d="M5.866 15.423a7.664 7.664 0 0 1-.4-2.423c0-.84.145-1.657.4-2.422V7.274h-4.26A12.745 12.745 0 0 0 .25 13c0 2.058.493 4.005 1.356 5.726l4.26-3.303z" fill="#FBBC05"/><path fill-rule="evenodd" clip-rule="evenodd" d="M13 5.321c1.872 0 3.553.643 4.874 1.907l3.657-3.657C19.323 1.513 16.437.25 13.001.25A12.745 12.745 0 0 0 1.605 7.274l4.26 3.304C6.868 7.564 9.679 5.32 13 5.32z" fill="#EA4335"/></svg>