<svg width="28" height="28" fill="none" xmlns="http://www.w3.org/2000/svg"><path d="M0 9.392C0 6.07 0 4.409.657 3.144A5.833 5.833 0 0 1 3.144.657C4.41 0 6.07 0 9.392 0h9.216c3.322 0 4.983 0 6.248.657a5.833 5.833 0 0 1 2.487 2.487C28 4.41 28 6.07 28 9.392v9.216c0 3.322 0 4.983-.657 6.248a5.833 5.833 0 0 1-2.487 2.487C23.59 28 21.93 28 18.608 28H9.392c-3.322 0-4.983 0-6.248-.657a5.833 5.833 0 0 1-2.487-2.487C0 23.59 0 21.93 0 18.608V9.392z" fill="url(#a)"/><path d="m19.445 17.889.622-3.89h-3.734v-2.721c0-1.09.39-1.945 2.1-1.945h1.79V5.755c-1.012-.155-2.1-.31-3.112-.31-3.189 0-5.444 1.944-5.444 5.444v3.11h-3.5v3.89h3.5v10.11h4.666V17.89h3.112z" fill="#fff"/><defs><linearGradient id="a" x1="14" y1="27.182" x2="14" y2="0" gradientUnits="userSpaceOnUse"><stop stop-color="#0062E0"/><stop offset="1" stop-color="#19AFFF"/></linearGradient></defs></svg>