<svg width="87" height="57" viewBox="0 0 87 57" fill="none" xmlns="http://www.w3.org/2000/svg">
<path d="M26.3938 31.595C26.3572 31.5125 26.3021 31.4401 26.2331 31.3839C26.1641 31.3277 26.0831 31.2892 25.9968 31.2716C25.9105 31.2541 25.8214 31.2579 25.7369 31.2829C25.6524 31.3078 25.5748 31.3532 25.5106 31.4152C24.3286 32.568 23.2472 33.7187 22.0015 34.629C20.695 35.5984 19.2506 36.3526 17.7198 36.8648C15.7691 37.4936 14.2656 36.5052 13.685 34.4657C13.4232 33.541 13.2798 32.5875 13.1145 31.5888C13.0984 31.4921 13.0585 31.4013 12.9985 31.3251C12.9385 31.249 12.8606 31.1901 12.7721 31.154C12.6837 31.118 12.5877 31.1061 12.4935 31.1194C12.3993 31.1328 12.31 31.1709 12.2342 31.2302C11.4127 31.8703 10.6181 32.5228 9.72794 32.9769C8.36875 33.6817 6.91396 34.2818 5.43926 34.5828C2.86425 35.1078 1.16252 33.6653 1.0022 30.9395C0.761232 26.8399 1.50008 22.8431 3.23965 19.206C4.68448 16.1863 6.66801 13.4348 8.48625 10.6144C9.0837 9.68973 9.92311 8.93352 11.1519 9.61164C12.1934 10.187 12.7032 11.5309 12.1715 12.7906C11.5924 14.1548 10.8974 15.4634 10.0944 16.701C8.03915 19.8707 6.56644 23.2603 6.0606 27.0598V27.068C5.99986 27.5376 6.50969 27.8561 6.90301 27.6126C7.03598 27.531 7.16461 27.4422 7.28836 27.3465C11.5133 24.0052 14.5952 19.6714 17.2458 14.9852C18.1042 13.4666 18.7504 11.8207 19.5142 10.2435C19.8014 9.63346 20.1288 9.04439 20.494 8.48042C21.0695 7.61839 21.8761 7.14473 22.8768 7.56907C23.8238 7.96669 24.3037 8.82051 24.1802 9.86234C24.0587 10.8898 23.8706 11.9275 23.527 12.8913C21.9687 17.262 20.3267 21.601 18.7574 25.9676C18.2983 27.2447 17.8383 28.5455 18.0504 30.0158C18.0653 30.1127 18.104 30.204 18.1627 30.2811C18.2215 30.3582 18.2985 30.4184 18.3862 30.4561C18.474 30.4938 18.5696 30.5077 18.6641 30.4965C18.7585 30.4852 18.8486 30.4492 18.9257 30.3918C22.4665 27.7687 25.2676 24.7265 26.0702 20.0084C27.1306 13.7769 29.5483 8.14547 33.7962 3.4942C34.6394 2.58729 35.6676 1.88536 36.8063 1.4393C38.9312 0.622477 40.7803 1.92015 41.088 4.25451C41.8677 10.1654 40.1311 15.3664 36.6699 19.9807C35.5537 21.4684 34.062 22.652 32.7616 23.999C32.0825 24.7018 31.3885 25.4015 30.802 26.1834C30.078 27.1502 30.0213 28.227 30.8697 29.1537C31.6961 30.0548 32.7944 30.1545 33.7633 29.5483C34.5599 29.051 35.3764 28.3657 35.8305 27.553C39.1165 21.6749 42.277 15.725 45.554 9.84282C46.5109 8.12492 47.66 6.50977 48.827 4.93058C49.5061 4.01204 50.4202 3.27638 51.6639 3.96888C52.571 4.47542 52.9583 5.84501 52.3858 7.11596C51.173 9.82432 49.8277 12.47 48.5641 15.1537C47.7008 16.9867 47.0834 18.8926 46.8644 21.1129C46.8552 21.2233 46.8773 21.334 46.9279 21.4316C46.9785 21.5293 47.0555 21.6097 47.1495 21.6631C47.2436 21.7165 47.3506 21.7406 47.4576 21.7325C47.5647 21.7244 47.6671 21.6844 47.7526 21.6174C48.2166 21.2547 48.6368 20.9218 49.0341 20.5601C53.4453 16.5531 56.552 11.6429 58.5226 5.93131C58.9311 4.74902 59.4975 3.63134 60.2054 2.61059C60.8765 1.65095 61.95 1.37765 63.0283 1.95714C64.1067 2.53662 64.2452 3.6103 63.9345 4.67269C62.4558 9.73596 60.9273 14.7838 59.4128 19.8358C59.1848 20.5982 58.9478 21.3575 58.6799 22.2195C58.6472 22.3245 58.6446 22.4371 58.6725 22.5437C58.7004 22.6502 58.7577 22.7461 58.8373 22.8198C58.9169 22.8935 59.0155 22.9418 59.1212 22.9589C59.2268 22.976 59.335 22.9611 59.4327 22.9161C60.5569 22.3962 61.5427 21.939 62.5325 21.492C67.8428 19.0919 73.2597 17.0062 79.0181 16.0733C81.1882 15.7367 83.3733 15.5128 85.5651 15.4024C85.9375 15.3808 86.3249 15.6654 86.7122 15.9305C86.8248 16.0086 86.9058 16.1265 86.9399 16.2621C86.9741 16.3976 86.9589 16.5413 86.8974 16.6661C86.6445 17.1901 86.4095 17.7593 86.0162 17.9247C83.9908 18.7714 81.8341 19.2943 79.8057 20.1276C72.5616 23.099 65.3504 26.1546 58.1193 29.1609C56.3887 29.8802 55.2854 31.1573 54.4988 32.8865C51.6848 39.0707 48.356 44.9148 43.5187 49.6904C40.8301 52.3464 37.822 54.5585 34.2373 55.7103C32.9432 56.1248 31.58 56.2588 30.2334 56.1038C27.756 55.7873 26.4127 53.3122 26.9633 50.5555C27.5608 47.5759 29.0544 45.0977 30.9463 42.8558C35.9818 36.8966 42.1754 32.4786 48.8539 28.7417C50.1095 28.0379 51.2437 27.256 52.0482 26.0293C52.119 25.92 52.1512 25.7889 52.1392 25.6581C52.1272 25.5272 52.0719 25.4046 51.9825 25.311C51.8932 25.2173 51.7752 25.1583 51.6486 25.1439C51.522 25.1295 51.3945 25.1606 51.2875 25.232C48.6627 27.0012 46.0598 28.0965 43.1492 25.5936C43.0871 25.5393 43.0141 25.4997 42.9354 25.4778C42.8568 25.4558 42.7744 25.452 42.6942 25.4666C42.614 25.4812 42.5378 25.5139 42.4712 25.5623C42.4046 25.6107 42.3492 25.6737 42.3088 25.7467C41.6178 27.0197 40.9586 28.2794 40.2267 29.4908C39.0746 31.4259 37.4921 33.05 35.6104 34.2283C32.8223 35.9801 28.2668 35.6739 26.3938 31.595ZM47.3045 36.613C47.3696 36.5046 47.3976 36.3768 47.3843 36.2499C47.3709 36.1231 47.3168 36.0046 47.2307 35.9131C47.1445 35.8216 47.0312 35.7624 46.9087 35.745C46.7863 35.7275 46.6616 35.7528 46.5547 35.8168C42.9212 38.032 37.4167 42.562 35.4501 45.0998C34.4436 46.4073 33.5193 47.7801 32.6829 49.2096C32.5206 49.486 32.5525 49.8836 32.5834 50.2833C32.596 50.4303 32.6633 50.5667 32.7711 50.6637C32.8789 50.7608 33.0189 50.8111 33.1619 50.8042C33.5303 50.7877 33.8967 50.7662 34.1785 50.5987C39.7926 47.2441 43.8144 42.339 47.3045 36.613V36.613ZM31.4592 18.3511C34.1278 15.6397 36.1392 10.9278 35.9838 7.88039C35.9771 7.76883 35.9391 7.66171 35.8743 7.57211C35.8095 7.4825 35.7209 7.4143 35.6192 7.37583C35.5175 7.33736 35.4071 7.33029 35.3016 7.35549C35.1961 7.38068 35.0999 7.43705 35.0249 7.5177C32.3523 10.4244 30.7681 13.7615 30.5202 17.8949C30.5118 18.0107 30.5376 18.1263 30.5943 18.2265C30.651 18.3268 30.7358 18.4069 30.8376 18.4564C30.9393 18.5058 31.0532 18.5222 31.1642 18.5034C31.2752 18.4846 31.378 18.4315 31.4592 18.3511V18.3511Z" fill="#DD4686"/>
<path d="M11.1558 6.15119C9.5716 6.15119 8.36774 4.86688 8.37571 3.19317C8.38666 1.53794 9.64429 0.16835 11.1538 0.169377C12.6634 0.170404 13.927 1.54308 13.93 3.19214C13.933 4.88538 12.7451 6.15119 11.1558 6.15119Z" fill="#DD4686"/>
<path d="M23.525 6.14605C21.9269 6.13989 20.7429 4.88023 20.7469 3.19213C20.7469 1.55438 22.0234 0.16629 23.5201 0.16629C25.0167 0.16629 26.3022 1.55541 26.3081 3.187C26.3171 4.85558 25.0993 6.14605 23.525 6.14605Z" fill="#DD4686"/>
</svg>
