<svg width="120" height="120" fill="none" xmlns="http://www.w3.org/2000/svg"><path d="M114.19 66.492c-3.238 9.814-10.215 20.573-20.484 24.075-15.514 5.294-16.906 18.017-45.056 17.93-4.11.006-8.21-.434-12.225-1.313a47.157 47.157 0 0 1-5.789-1.68c-16.68-6.016-25.812-20.325-27.12-35.616-1.716-20.112 11.969-30.256 20.88-36.24 8.911-5.983 19.087-28.188 46.769-28.32A54.895 54.895 0 0 1 83.729 6.67c9.398 2.16 19.07 7.36 24.881 15.288.434.595.852 1.2 1.255 1.829 7.845 12.199 8.741 29.323 4.325 42.705z" fill="url(#a)"/><path opacity=".7" d="M114.19 66.492c-3.238 9.814-10.215 20.573-20.484 24.075-15.514 5.294-16.906 18.017-45.056 17.93-4.11.006-8.21-.434-12.225-1.313a47.157 47.157 0 0 1-5.789-1.68c-16.68-6.016-25.812-20.325-27.12-35.616-1.716-20.112 11.969-30.256 20.88-36.24 8.911-5.983 19.087-28.188 46.769-28.32A54.895 54.895 0 0 1 83.729 6.67c9.398 2.16 19.07 7.36 24.881 15.288.434.595.852 1.2 1.255 1.829 7.845 12.199 8.741 29.323 4.325 42.705z" fill="#fff"/><path d="M115.51 110.688H3.816a.12.12 0 0 1-.084-.204.126.126 0 0 1 .084-.036H115.51a.128.128 0 0 1 .084.036.126.126 0 0 1 .036.084.118.118 0 0 1-.036.085.116.116 0 0 1-.084.035z" fill="#263238"/><path d="m97.214 21.907 9.536 1.973-2.566 2.935-6.97-4.908z" fill="#fff"/><path d="M104.184 26.934a.111.111 0 0 1-.067-.021l-6.972-4.91a.12.12 0 0 1 .094-.214l9.535 1.97c.02.006.039.016.054.03a.115.115 0 0 1 .034.052c.007.02.009.04.005.06a.114.114 0 0 1-.029.055l-2.563 2.935a.116.116 0 0 1-.091.043zm-6.427-4.8 6.403 4.522 2.359-2.7-8.762-1.822z" fill="#263238"/><path d="m97.214 21.907 3.2 8.969 2.82-3.14-6.02-5.829z" fill="#fff"/><path d="M100.414 30.996h-.024a.12.12 0 0 1-.089-.08l-3.2-8.97a.12.12 0 0 1 .049-.142.12.12 0 0 1 .148.016l6.017 5.83a.117.117 0 0 1 0 .166l-2.813 3.144a.114.114 0 0 1-.088.036zm-2.914-8.64 2.959 8.299 2.607-2.907-5.566-5.392z" fill="#263238"/><path d="m104.184 26.815-.216 2.259-.734-1.337-6.02-5.83 6.97 4.908z" fill="#fff"/><path d="M103.968 29.193a.12.12 0 0 1-.062-.016.128.128 0 0 1-.044-.046l-.72-1.32-6-5.82a.117.117 0 0 1 0-.16.118.118 0 0 1 .161-.022l6.96 4.91a.112.112 0 0 1 .051.108l-.216 2.258a.125.125 0 0 1-.031.069.119.119 0 0 1-.065.037l-.034.002zM98.4 22.89l4.913 4.761a.083.083 0 0 1 .021.029l.55.996.173-1.8-5.657-3.986z" fill="#263238"/><path d="m103.968 29.073-1.241-.703.507-.634.734 1.337z" fill="#fff"/><path d="M103.968 29.193a.131.131 0 0 1-.06-.015l-1.238-.705a.121.121 0 0 1-.04-.034.118.118 0 0 1-.02-.048.112.112 0 0 1 .024-.096l.506-.634a.11.11 0 0 1 .046-.036.111.111 0 0 1 .057-.01c.02.003.038.01.055.02a.13.13 0 0 1 .039.043l.737 1.337c.012.023.017.05.013.076a.12.12 0 0 1-.119.102zm-1.058-.86.748.428-.444-.81-.304.383zM8.609 101.693a.12.12 0 0 1-.107-.081.122.122 0 0 1-.006-.047c0-.016.024-.439.13-1.219a.113.113 0 0 1 .045-.079.112.112 0 0 1 .042-.02.123.123 0 0 1 .047-.002.119.119 0 0 1 .103.135c-.103.768-.13 1.2-.13 1.2a.12.12 0 0 1-.124.113zm.314-2.4h-.021a.116.116 0 0 1-.096-.137c.064-.387.139-.787.22-1.188a.122.122 0 0 1 .097-.096.122.122 0 0 1 .144.096.123.123 0 0 1 0 .048c-.08.398-.154.797-.221 1.18a.118.118 0 0 1-.123.094v.003zm.48-2.36h-.029a.12.12 0 0 1-.088-.144c.086-.371.18-.763.285-1.17a.12.12 0 0 1 .22-.031c.016.027.02.06.013.09-.106.406-.2.795-.286 1.164a.12.12 0 0 1-.117.09l.002.001zm.598-2.328h-.034a.119.119 0 0 1-.086-.102.117.117 0 0 1 .005-.046c.103-.372.218-.759.338-1.155a.122.122 0 0 1 .151-.079.12.12 0 0 1 .08.149c-.12.396-.24.78-.339 1.15a.122.122 0 0 1-.118.081l.003.003zm.703-2.296a.099.099 0 0 1-.036 0 .118.118 0 0 1-.077-.151c.123-.372.254-.75.392-1.138a.12.12 0 0 1 .15-.075.122.122 0 0 1 .075.154 48.1 48.1 0 0 0-.389 1.133.123.123 0 0 1-.117.074l.002.003zm.804-2.263a.095.095 0 0 1-.043 0 .118.118 0 0 1-.07-.154c.14-.367.286-.74.44-1.12a.119.119 0 0 1 .11-.09.121.121 0 0 1 .092.036.121.121 0 0 1 .033.093.121.121 0 0 1-.015.049c-.15.38-.297.751-.434 1.116a.124.124 0 0 1-.115.067l.002.002zm.895-2.23a.103.103 0 0 1-.045 0 .119.119 0 0 1-.066-.064.119.119 0 0 1 0-.092c.157-.362.315-.72.48-1.102a.118.118 0 0 1 .067-.064.12.12 0 0 1 .092.002.122.122 0 0 1 .06.16c-.16.37-.32.736-.48 1.097a.118.118 0 0 1-.11.06l.002.003zm.984-2.189a.13.13 0 0 1-.05 0 .12.12 0 0 1-.058-.16c.168-.356.344-.72.524-1.08a.122.122 0 0 1 .16-.056.118.118 0 0 1 .061.069.12.12 0 0 1-.005.092c-.18.361-.354.72-.524 1.078a.118.118 0 0 1-.11.055l.002.002zm1.068-2.16a.11.11 0 0 1-.055-.014.12.12 0 0 1-.053-.161c.185-.35.372-.706.567-1.06a.12.12 0 1 1 .21.114c-.194.355-.38.706-.563 1.056a.12.12 0 0 1-.108.072l.002-.007zM15.6 81.36a.113.113 0 0 1-.06-.017.116.116 0 0 1-.056-.072.119.119 0 0 1 .013-.091c.194-.343.396-.691.605-1.04a.116.116 0 0 1 .073-.054.118.118 0 0 1 .09.014.113.113 0 0 1 .056.073.117.117 0 0 1-.015.09c-.204.348-.406.694-.6 1.037a.126.126 0 0 1-.106.06zm1.226-2.064a.131.131 0 0 1-.064-.017.123.123 0 0 1-.039-.165c.208-.34.423-.679.643-1.018a.118.118 0 0 1 .166-.034.12.12 0 0 1 .036.166c-.218.338-.431.674-.64 1.01a.116.116 0 0 1-.102.065v-.007zm1.299-2.016a.12.12 0 0 1-.099-.187c.221-.33.447-.661.677-.994a.122.122 0 0 1 .168-.029.12.12 0 0 1 .03.166c-.24.331-.457.662-.675.989a.123.123 0 0 1-.101.055zm1.37-1.97a.125.125 0 0 1-.07-.022.123.123 0 0 1-.026-.168c.24-.322.48-.646.72-.96a.122.122 0 0 1 .2.01.118.118 0 0 1-.008.134c-.24.324-.48.645-.72.96a.118.118 0 0 1-.096.053v-.007zm1.44-1.92a.108.108 0 0 1-.074-.027.12.12 0 0 1-.022-.168c.24-.312.48-.626.747-.943a.121.121 0 0 1 .127-.04.118.118 0 0 1 .072.058.12.12 0 0 1-.012.133c-.255.314-.502.626-.744.94a.124.124 0 0 1-.094.054v-.008zm1.503-1.87a.12.12 0 0 1-.091-.197c.254-.305.51-.612.775-.917a.122.122 0 0 1 .17-.012.117.117 0 0 1 0 .168c-.262.305-.52.61-.773.915a.122.122 0 0 1-.081.043zm1.565-1.82a.13.13 0 0 1-.08-.028.122.122 0 0 1 0-.17c.264-.298.533-.593.807-.89a.12.12 0 0 1 .17-.008.12.12 0 0 1 .007.17c-.273.296-.541.592-.804.888a.123.123 0 0 1-.103.046l.003-.007zm1.624-1.763a.123.123 0 0 1-.081-.034.12.12 0 0 1 0-.17c.273-.288.552-.576.835-.864a.119.119 0 0 1 .134-.035.118.118 0 0 1 .069.067.121.121 0 0 1-.033.136c-.28.288-.559.576-.83.861a.12.12 0 0 1-.094.046v-.007zm1.68-1.714a.13.13 0 0 1-.084-.034.12.12 0 0 1 0-.17c.284-.28.57-.56.862-.838a.122.122 0 0 1 .17 0 .119.119 0 0 1 .036.086.12.12 0 0 1-.036.085 85.46 85.46 0 0 0-.896.872.12.12 0 0 1-.052.016v-.017zm1.736-1.658a.12.12 0 0 1-.116-.146.12.12 0 0 1 .034-.06c.29-.271.585-.541.886-.812a.119.119 0 0 1 .13-.026.12.12 0 0 1 .04.194c-.3.269-.593.54-.883.809a.122.122 0 0 1-.094.048l.003-.007zm1.783-1.603a.12.12 0 0 1-.118-.15.12.12 0 0 1 .039-.062c.297-.261.602-.523.91-.785a.119.119 0 0 1 .087-.028.122.122 0 0 1 .105.084.122.122 0 0 1-.037.13c-.307.258-.61.52-.91.78a.12.12 0 0 1-.076.038v-.008zm1.828-1.553a.123.123 0 0 1-.093-.044.12.12 0 0 1 .017-.168c.307-.254.619-.504.933-.756a.118.118 0 0 1 .041-.022c.015-.005.031-.006.047-.005a.119.119 0 0 1 .08.044.122.122 0 0 1-.017.17c-.314.24-.626.502-.93.754a.116.116 0 0 1-.078.034v-.007zm1.875-1.495a.113.113 0 0 1-.094-.049.12.12 0 0 1 .02-.168c.32-.244.64-.484.96-.72a.119.119 0 0 1 .133-.007.12.12 0 0 1 .01.2l-.96.72a.123.123 0 0 1-.07.03v-.007zm1.92-1.44a.12.12 0 0 1-.112-.157.12.12 0 0 1 .042-.06c.32-.24.646-.48.972-.703a.122.122 0 0 1 .168.027.121.121 0 0 1 .02.09.12.12 0 0 1-.049.078c-.326.24-.65.48-.96.7a.112.112 0 0 1-.086.027l.005-.002zm1.956-1.392a.115.115 0 0 1-.099-.05.123.123 0 0 1 .03-.169c.328-.225.657-.451.993-.677a.12.12 0 0 1 .185.076.12.12 0 0 1-.05.123c-.334.226-.664.452-.992.677a.116.116 0 0 1-.072.022l.005-.003zm1.99-1.337a.122.122 0 0 1-.101-.055.12.12 0 0 1 .036-.166c.333-.22.67-.436 1.01-.65a.12.12 0 0 1 .166.035.122.122 0 0 1-.039.166c-.339.216-.674.433-1.005.65a.138.138 0 0 1-.072.022l.005-.002zm2.025-1.287a.127.127 0 0 1-.103-.057.12.12 0 0 1 .04-.166c.338-.21.68-.417 1.026-.624a.12.12 0 0 1 .165.132.12.12 0 0 1-.043.072l-1.023.624a.12.12 0 0 1-.067.022l.005-.003zm2.057-1.236a.123.123 0 0 1-.121-.104.119.119 0 0 1 .058-.119c.344-.202.692-.402 1.042-.6a.116.116 0 0 1 .09-.013.118.118 0 0 1 .073.056.123.123 0 0 1-.045.166c-.35.197-.695.396-1.037.598a.114.114 0 0 1-.065.019l.005-.003zm2.083-1.185a.122.122 0 0 1-.115-.154.115.115 0 0 1 .057-.072l1.054-.576a.12.12 0 1 1 .115.211c-.355.192-.705.382-1.05.574a.108.108 0 0 1-.06.02v-.003zm2.114-1.138a.123.123 0 0 1-.108-.065.12.12 0 0 1 .05-.16c.354-.185.72-.37 1.069-.553a.12.12 0 0 1 .16.053.118.118 0 0 1-.052.161c-.358.182-.72.367-1.063.55a.118.118 0 0 1-.06.017l.005-.003zm2.136-1.09a.12.12 0 0 1-.052-.225c.358-.178.718-.354 1.08-.528a.118.118 0 0 1 .13.018c.012.01.021.023.028.037a.118.118 0 0 1-.055.16l-1.075.526a.116.116 0 0 1-.06.015l.005-.002zm2.16-1.041a.115.115 0 0 1-.108-.067.12.12 0 0 1 .058-.161l1.09-.504a.118.118 0 0 1 .095-.007.119.119 0 0 1 .08.111.119.119 0 0 1-.077.114c-.365.16-.727.328-1.087.504a.125.125 0 0 1-.053.012l.002-.002zm2.182-.996a.12.12 0 0 1-.104-.173.12.12 0 0 1 .056-.055c.365-.163.72-.322 1.1-.48a.12.12 0 0 1 .16.154.12.12 0 0 1-.065.067c-.37.16-.735.32-1.096.48a.126.126 0 0 1-.053.01l.002-.003zm2.203-.96a.115.115 0 0 1-.11-.075.119.119 0 0 1 0-.091.119.119 0 0 1 .065-.065c.366-.16.736-.312 1.108-.458a.116.116 0 0 1 .131.026.12.12 0 0 1-.04.195c-.372.15-.742.303-1.108.458a.104.104 0 0 1-.04.022l-.006-.012zm2.22-.907a.123.123 0 0 1-.11-.075.12.12 0 0 1 .067-.156c.37-.148.742-.292 1.119-.439a.12.12 0 0 1 .161.115.117.117 0 0 1-.075.108c-.375.147-.747.29-1.116.44a.142.142 0 0 1-.048.019l.002-.012zm2.24-.864a.125.125 0 0 1-.113-.08.12.12 0 0 1 .07-.153l1.125-.418a.12.12 0 0 1 .154.072.118.118 0 0 1-.07.154c-.38.138-.755.277-1.126.417a.114.114 0 0 1-.043.02l.003-.012zm2.253-.823a.119.119 0 0 1-.113-.082.115.115 0 0 1 .072-.151c.375-.135.754-.267 1.133-.399a.126.126 0 1 1 .08.24c-.38.13-.757.262-1.133.396a.11.11 0 0 1-.041.008l.002-.012zm2.268-.785a.12.12 0 0 1-.08-.21.117.117 0 0 1 .042-.023c.377-.128.757-.254 1.14-.377a.125.125 0 1 1 .074.24l-1.14.377a.113.113 0 0 1-.038 0l.002-.007zm2.28-.744a.121.121 0 0 1-.036-.24l1.145-.358a.117.117 0 0 1 .151.08.12.12 0 0 1-.08.148l-1.156.377a.098.098 0 0 1-.026.005l.002-.012zm2.292-.706a.118.118 0 0 1-.104-.176.122.122 0 0 1 .07-.06l1.153-.337a.125.125 0 0 1 .067.24l-1.152.35a.095.095 0 0 1-.036 0l.002-.017zm2.304-.667a.125.125 0 0 1-.115-.089.122.122 0 0 1 .084-.149l1.157-.319a.124.124 0 1 1 .062.24l-1.154.322-.034-.005zm2.316-.634a.123.123 0 0 1-.118-.089.12.12 0 0 1 .087-.146c.384-.103.773-.204 1.162-.305a.123.123 0 0 1 .135.184.124.124 0 0 1-.075.056l-1.16.303-.03-.003zm2.323-.597a.121.121 0 0 1-.028-.24l1.166-.286a.123.123 0 1 1 .055.24l-1.164.286h-.029zm2.333-.564a.12.12 0 0 1-.029-.238l1.171-.269a.123.123 0 0 1 .053.24l-1.169.27-.026-.003zm2.338-.533a.116.116 0 0 1-.116-.094.118.118 0 0 1 .092-.141l1.173-.255a.12.12 0 0 1 .142.092.123.123 0 0 1-.091.143l-1.174.253-.026.002zm2.347-.497a.12.12 0 1 1-.024-.24l1.178-.24a.12.12 0 0 1 .14.096.114.114 0 0 1-.05.123.116.116 0 0 1-.044.016l-1.176.24-.024.005zm2.354-.48a.118.118 0 0 1-.117-.098.122.122 0 0 1 .093-.142l1.181-.22a.117.117 0 0 1 .14.095.12.12 0 0 1-.097.14c-.393.072-.787.146-1.178.223l-.022.002zm2.36-.44a.121.121 0 0 1-.118-.063.12.12 0 0 1 .05-.163.12.12 0 0 1 .046-.013l1.183-.209a.122.122 0 1 1 .04.24l-1.18.206-.022.003zm2.364-.407a.121.121 0 0 1-.13-.11.121.121 0 0 1 .065-.117.12.12 0 0 1 .045-.013l1.186-.192a.122.122 0 0 1 .115.192.121.121 0 0 1-.08.048l-1.182.194-.02-.002zm2.368-.382a.119.119 0 0 1-.087-.029.12.12 0 0 1 .07-.21l1.186-.18a.122.122 0 0 1 .116.191.121.121 0 0 1-.08.048c-.398.058-.792.118-1.185.18h-.02zm2.374-.352a.119.119 0 0 1-.087-.03.12.12 0 0 1 .07-.21c.394-.056.792-.113 1.2-.166a.12.12 0 0 1 .136.104.121.121 0 0 1-.105.136c-.398.053-.794.11-1.188.165h-.026zm2.378-.325a.119.119 0 0 1-.087-.029.12.12 0 0 1 .07-.21l1.2-.154a.123.123 0 0 1 .09.024.122.122 0 0 1 .022.17.124.124 0 0 1-.08.046c-.399.048-.795.1-1.2.151l-.015.002zm2.379-.3a.122.122 0 0 1-.087-.03.116.116 0 0 1-.039-.084.116.116 0 0 1 .031-.086.119.119 0 0 1 .083-.04l1.2-.139a.122.122 0 0 1 .089.025c.012.01.023.022.03.036a.12.12 0 0 1-.091.18l-1.2.14-.016-.002zm2.385-.273a.12.12 0 1 1-.014-.24l1.2-.127a.121.121 0 0 1 .088.025c.024.02.04.049.044.08a.124.124 0 0 1-.004.047.131.131 0 0 1-.059.072.118.118 0 0 1-.045.013l-1.2.127-.01.003zm2.386-.24a.12.12 0 1 1-.012-.24c.398-.042.798-.08 1.2-.115a.12.12 0 0 1 .088.026.12.12 0 0 1 .017.17.119.119 0 0 1-.081.044l-1.2.115h-.012zm2.4-.226a.121.121 0 0 1-.085-.035.122.122 0 0 1-.035-.085c0-.032.013-.062.035-.085a.12.12 0 0 1 .085-.035l1.2-.105a.124.124 0 0 1 .088.028.118.118 0 0 1 .041.082.105.105 0 0 1-.005.047.118.118 0 0 1-.105.083l-1.2.103-.019.002zm2.4-.204a.119.119 0 0 1-.12-.11.12.12 0 0 1 .03-.087.123.123 0 0 1 .08-.043l1.2-.09a.116.116 0 0 1 .087.028c.012.01.022.022.029.036.007.015.011.03.011.046a.106.106 0 0 1-.005.046.118.118 0 0 1-.105.083l-1.2.091h-.007zm2.4-.18a.119.119 0 0 1-.007-.238l1.2-.08a.12.12 0 1 1 .014.24l-1.2.08-.007-.002zm2.4-.156a.122.122 0 0 1-.114-.159.111.111 0 0 1 .024-.04.116.116 0 0 1 .083-.04l1.2-.073a.114.114 0 0 1 .087.03c.012.01.022.023.029.037.006.015.01.03.011.046a.122.122 0 0 1-.006.047.12.12 0 0 1-.062.069.117.117 0 0 1-.045.011c-.401.024-.799.046-1.2.072h-.007z" fill="#263238"/><path d="M63.024 99.576h-.197a.12.12 0 1 1 0-.24h1.197a.11.11 0 0 1 .123.117.12.12 0 0 1-.033.086.123.123 0 0 1-.084.037h-1.006zm-1.397-.017c-.4-.01-.8-.024-1.2-.043a.123.123 0 0 1-.104-.173.12.12 0 0 1 .068-.06.117.117 0 0 1 .046-.007c.4.019.8.033 1.2.043a.12.12 0 1 1 0 .24h-.01zm3.6-.026a.12.12 0 1 1 0-.24c.399-.017.797-.037 1.2-.063a.118.118 0 0 1 .127.113.117.117 0 0 1-.11.127c-.4.026-.802.046-1.2.063h-.017zm-6-.09c-.4-.026-.799-.06-1.2-.095a.122.122 0 0 1-.108-.132.125.125 0 0 1 .132-.108c.396.036.795.07 1.2.096a.122.122 0 0 1 .113.13.12.12 0 0 1-.134.11h-.003zm8.4-.06a.122.122 0 0 1-.114-.156.119.119 0 0 1 .105-.083 74.56 74.56 0 0 0 1.2-.113.122.122 0 0 1 .088.027.12.12 0 0 1 .04.128.122.122 0 0 1-.06.071.121.121 0 0 1-.044.014 48.41 48.41 0 0 1-1.2.115l-.015-.002zm-10.785-.16c-.401-.046-.797-.096-1.2-.151a.12.12 0 0 1-.104-.135.122.122 0 0 1 .137-.103c.394.055.792.106 1.188.151a.12.12 0 0 1-.014.24l-.007-.002zm13.173-.094a.12.12 0 0 1-.061-.223.118.118 0 0 1 .045-.014c.395-.05.791-.106 1.185-.166a.121.121 0 1 1 .036.24c-.396.06-.792.115-1.2.166l-.005-.003zm-15.552-.24h-.019a48.982 48.982 0 0 1-1.186-.204.122.122 0 0 1 .044-.24c.393.072.787.14 1.18.204a.12.12 0 1 1-.019.24zm17.923-.122a.12.12 0 0 1-.019-.24c.394-.07.785-.142 1.176-.219a.122.122 0 1 1 .048.24c-.393.077-.79.152-1.183.219h-.022zm-20.284-.312h-.022a64.045 64.045 0 0 1-1.176-.26.123.123 0 1 1 .055-.24c.389.092.778.178 1.169.26a.12.12 0 0 1 .094.141.122.122 0 0 1-.125.106l.005-.007zm22.641-.149a.12.12 0 0 1-.026-.24c.389-.086.78-.175 1.166-.269a.123.123 0 0 1 .147.09.12.12 0 0 1-.09.143c-.39.096-.78.185-1.173.271l-.024.005zm-24.986-.386h-.029a45.855 45.855 0 0 1-1.162-.312.126.126 0 0 1-.075-.058.124.124 0 0 1 .14-.182c.384.11.768.213 1.157.312a.122.122 0 0 1 .087.146.12.12 0 0 1-.118.094zm27.314-.168a.12.12 0 0 1-.105-.181.122.122 0 0 1 .074-.057c.386-.1.77-.209 1.152-.32a.125.125 0 0 1 .067.24c-.384.114-.77.22-1.159.323l-.029-.005zm-29.625-.48h-.034c-.384-.12-.766-.244-1.147-.37a.12.12 0 0 1 .077-.228c.379.128.759.25 1.14.367a.123.123 0 0 1 .079.151.12.12 0 0 1-.115.073v.007zm31.92-.183a.122.122 0 0 1-.116-.084.123.123 0 0 1 .08-.15c.381-.12.76-.24 1.137-.373a.123.123 0 0 1 .154.075.12.12 0 0 1-.035.13.121.121 0 0 1-.042.023c-.38.127-.76.25-1.142.372l-.036.007zm-34.205-.58a.112.112 0 0 1-.04 0c-.38-.137-.755-.279-1.129-.425a.12.12 0 1 1 .089-.224c.372.147.744.286 1.12.423a.12.12 0 0 1 .073.153.126.126 0 0 1-.104.065l-.01.007zm36.48-.19a.122.122 0 0 1-.14-.1.123.123 0 0 1 .099-.14c.374-.136.748-.278 1.12-.425a.12.12 0 0 1 .157.07.121.121 0 0 1-.07.156c-.374.144-.75.285-1.125.425a.12.12 0 0 1-.034.007l-.007.007zm-38.715-.684a.104.104 0 0 1-.045 0c-.372-.154-.74-.315-1.104-.48a.123.123 0 0 1-.064-.067.12.12 0 0 1 .162-.154c.363.166.72.324 1.097.48a.118.118 0 0 1 .066.066.122.122 0 0 1-.001.093.118.118 0 0 1-.103.055l-.008.007zm40.95-.19a.122.122 0 0 1-.111-.074.12.12 0 0 1 .065-.156c.37-.16.737-.32 1.101-.48a.122.122 0 0 1 .169.108.12.12 0 0 1-.073.113l-1.104.48c-.013.002-.027.003-.04.002l-.008.007zm-43.138-.794a.13.13 0 0 1-.053 0 56.22 56.22 0 0 1-1.078-.535.119.119 0 0 1-.06-.07.119.119 0 0 1 .009-.092.12.12 0 0 1 .162-.052c.355.183.72.358 1.07.53a.122.122 0 1 1-.05.24v-.021zm45.338-.173a.12.12 0 0 1-.115-.094.12.12 0 0 1 .065-.134c.361-.168.722-.34 1.082-.513a.12.12 0 0 1 .167.147.12.12 0 0 1-.061.069c-.362.175-.724.347-1.088.516a.125.125 0 0 1-.043.002l-.007.007zm-47.467-.926a.12.12 0 0 1-.058-.015 43.97 43.97 0 0 1-1.049-.59.12.12 0 0 1 .12-.207c.344.197.694.394 1.044.586a.123.123 0 0 1 .049.163.126.126 0 0 1-.106.063zm49.634-.13a.12.12 0 0 1-.055-.228 81.93 81.93 0 0 0 1.06-.554.123.123 0 0 1 .164.048.118.118 0 0 1 .009.092.12.12 0 0 1-.06.07c-.351.191-.707.377-1.065.558a.11.11 0 0 1-.053.014zm-51.71-1.073a.12.12 0 0 1-.063-.019 45.961 45.961 0 0 1-1.015-.643.12.12 0 0 1-.036-.166.122.122 0 0 1 .168-.036c.329.216.667.432 1.008.641a.12.12 0 0 1 .041.166.125.125 0 0 1-.103.057zm53.825-.062a.128.128 0 0 1-.106-.063.123.123 0 0 1 .046-.163c.347-.197.693-.396 1.039-.597a.117.117 0 0 1 .163.04.122.122 0 0 1-.04.166c-.346.205-.694.405-1.045.6a.123.123 0 0 1-.057.017zm2.066-1.222a.12.12 0 0 1-.062-.223c.338-.209.676-.422 1.01-.64a.122.122 0 0 1 .09-.018.119.119 0 0 1 .077.052.12.12 0 0 1-.001.134.122.122 0 0 1-.034.033c-.336.218-.677.432-1.015.643a.135.135 0 0 1-.065.02zm-57.898-.028a.122.122 0 0 1-.07-.02 48.017 48.017 0 0 1-.978-.698.12.12 0 1 1 .141-.195c.32.24.648.48.975.694a.12.12 0 0 1 .046.134.12.12 0 0 1-.114.085zm59.912-1.277a.115.115 0 0 1-.099-.05.122.122 0 0 1-.02-.091.12.12 0 0 1 .051-.078c.33-.223.658-.453.982-.684a.12.12 0 0 1 .134-.003.12.12 0 0 1 .038.164.116.116 0 0 1-.033.034c-.32.232-.649.461-.986.688a.115.115 0 0 1-.067.02zm-61.846-.137a.108.108 0 0 1-.072-.026c-.317-.24-.634-.497-.938-.75a.118.118 0 0 1-.017-.167.116.116 0 0 1 .08-.044.12.12 0 0 1 .088.027c.305.24.62.502.933.746a.118.118 0 0 1 .022.168.128.128 0 0 1-.096.044v.002zm63.8-1.255a.123.123 0 0 1-.097-.048.12.12 0 0 1 .024-.168l.96-.72a.12.12 0 0 1 .163.026.12.12 0 0 1-.016.163c-.315.24-.634.48-.96.72a.137.137 0 0 1-.075.024v.003zm-65.65-.267a.124.124 0 0 1-.08-.028c-.3-.262-.602-.53-.895-.8a.12.12 0 0 1-.007-.17.12.12 0 0 1 .17-.007c.29.269.59.535.89.796a.118.118 0 0 1 .013.169.116.116 0 0 1-.091.038v.002zm67.536-1.221a.115.115 0 0 1-.092-.043.12.12 0 0 1-.028-.088.117.117 0 0 1 .043-.08c.309-.255.614-.513.914-.773a.122.122 0 0 1 .133-.017.122.122 0 0 1 .061.07.12.12 0 0 1-.035.13c-.303.26-.61.518-.92.774a.13.13 0 0 1-.076.027zm-69.298-.403a.117.117 0 0 1-.084-.034 35.247 35.247 0 0 1-.847-.847.118.118 0 0 1-.034-.086.12.12 0 0 1 .122-.119c.032 0 .062.014.085.037.273.28.556.566.842.844a.12.12 0 0 1 .035.084.12.12 0 0 1-.035.085.122.122 0 0 1-.084.038v-.002zm71.112-1.167a.12.12 0 0 1-.079-.209c.294-.269.585-.54.873-.816a.139.139 0 0 1 .039-.026.125.125 0 0 1 .093 0 .126.126 0 0 1 .065.065.12.12 0 0 1-.026.13c-.288.278-.581.551-.879.82a.117.117 0 0 1-.086.038v-.002zm-72.782-.552a.11.11 0 0 1-.087-.038 35.121 35.121 0 0 1-.801-.898.12.12 0 1 1 .18-.156c.259.298.528.598.796.893a.116.116 0 0 1 0 .168.114.114 0 0 1-.088.033v-.002zm74.517-1.106a.119.119 0 0 1-.086-.034.123.123 0 0 1-.035-.085c0-.032.013-.063.035-.085.28-.283.557-.57.833-.86a.12.12 0 0 1 .201.08.12.12 0 0 1-.026.084c-.275.293-.555.581-.838.866a.123.123 0 0 1-.084.036v-.002zm-76.08-.706a.121.121 0 0 1-.093-.043c-.24-.307-.504-.624-.75-.943a.12.12 0 0 1 .19-.147c.24.317.495.632.744.936a.119.119 0 0 1 .028.089.12.12 0 0 1-.044.082.122.122 0 0 1-.082.028l.007-.002zm77.731-1.04a.113.113 0 0 1-.114-.116.121.121 0 0 1 .035-.085c.264-.295.528-.6.785-.902a.12.12 0 0 1 .201.07.117.117 0 0 1-.019.084c-.256.304-.523.612-.789.91a.126.126 0 0 1-.047.034.124.124 0 0 1-.059.008l.007-.002zm-79.2-.858a.115.115 0 0 1-.095-.05c-.24-.325-.48-.656-.694-.982a.12.12 0 0 1-.002-.135.12.12 0 0 1 .033-.033.117.117 0 0 1 .133-.002.12.12 0 0 1 .033.033c.223.326.456.655.69.977a.123.123 0 0 1-.026.168.118.118 0 0 1-.076.026l.005-.002zm80.746-.975a.12.12 0 0 1-.11-.068c-.01-.02-.013-.044-.01-.067a.117.117 0 0 1 .026-.062c.24-.312.495-.628.732-.945a.119.119 0 0 1 .214.055.118.118 0 0 1-.022.089c-.24.317-.48.638-.736.96a.122.122 0 0 1-.099.04l.005-.002zM22.918 79.07a.122.122 0 0 1-.101-.055 47.3 47.3 0 0 1-.636-1.02.121.121 0 0 1 .006-.134.12.12 0 0 1 .167-.026.12.12 0 0 1 .03.035c.205.338.418.68.634 1.015a.118.118 0 0 1-.035.166.12.12 0 0 1-.065.02zm83.541-.914a.12.12 0 0 1-.069-.022.125.125 0 0 1-.049-.078.124.124 0 0 1 .02-.09c.24-.326.458-.657.677-.986a.112.112 0 0 1 .032-.038.116.116 0 0 1 .094-.024c.016.003.032.01.046.018a.129.129 0 0 1 .052.082.104.104 0 0 1-.003.05.12.12 0 0 1-.022.044c-.219.33-.447.665-.679.993a.12.12 0 0 1-.099.05zm-84.782-1.14a.122.122 0 0 1-.106-.06l-.163-.29a29.045 29.045 0 0 1-.418-.764.117.117 0 0 1 .049-.16.12.12 0 0 1 .163.047c.136.257.276.51.415.761l.163.288a.118.118 0 0 1-.043.163.138.138 0 0 1-.06.015zm86.109-.862a.122.122 0 0 1-.064-.017.121.121 0 0 1-.053-.075.125.125 0 0 1 .014-.09c.211-.343.418-.69.615-1.027a.112.112 0 0 1 .072-.057.118.118 0 0 1 .091.013.116.116 0 0 1 .056.073.116.116 0 0 1-.011.09c-.199.341-.405.69-.619 1.033a.117.117 0 0 1-.042.042.117.117 0 0 1-.059.015zm-87.24-1.253a.122.122 0 0 1-.107-.067c-.185-.372-.358-.74-.514-1.092a.12.12 0 0 1 .062-.158.122.122 0 0 1 .159.062c.153.348.326.72.508 1.08a.121.121 0 0 1-.017.133.12.12 0 0 1-.038.028.11.11 0 0 1-.052.014zm88.44-.825a.125.125 0 0 1-.057-.015.121.121 0 0 1-.057-.072.12.12 0 0 1 .009-.09c.187-.354.372-.72.547-1.064a.123.123 0 0 1 .161-.053.116.116 0 0 1 .037.029.11.11 0 0 1 .024.04.122.122 0 0 1-.006.092c-.178.355-.362.72-.552 1.068a.119.119 0 0 1-.106.065zm-89.412-1.37a.115.115 0 0 1-.11-.078 19.124 19.124 0 0 1-.4-1.14.125.125 0 1 1 .24-.072c.115.368.24.747.393 1.126a.121.121 0 0 1-.07.156l-.052.007zm90.48-.778a.124.124 0 0 1-.112-.08.125.125 0 0 1 .002-.09c.166-.36.326-.72.48-1.095a.114.114 0 0 1 .026-.04.12.12 0 0 1 .195.134c-.156.37-.319.739-.48 1.099a.12.12 0 0 1-.044.053.12.12 0 0 1-.067.019zm-91.2-1.51a.123.123 0 0 1-.117-.094 23.482 23.482 0 0 1-.122-.561.122.122 0 0 1 .097-.143.121.121 0 0 1 .125.053.122.122 0 0 1 .018.044c.035.185.074.37.117.552a.117.117 0 0 1-.089.144l-.028.005zm92.129-.7a.092.092 0 0 1-.043 0 .121.121 0 0 1-.07-.154c.144-.375.286-.751.416-1.123a.122.122 0 0 1 .064-.073.125.125 0 0 1 .096-.007c.032.011.059.034.073.064a.13.13 0 0 1 .007.097c-.135.372-.274.754-.418 1.128a.12.12 0 0 1-.05.052.121.121 0 0 1-.07.015h-.005zm.799-2.264h-.036a.118.118 0 0 1-.069-.06.117.117 0 0 1-.007-.091c.12-.38.24-.763.348-1.145a.12.12 0 0 1 .022-.043.123.123 0 0 1 .131-.043.126.126 0 0 1 .044.022.126.126 0 0 1 .043.132c-.111.383-.24.77-.351 1.149a.12.12 0 0 1-.12.08h-.005zm.668-2.304h-.029a.115.115 0 0 1-.042-.02.117.117 0 0 1-.047-.08.123.123 0 0 1 .002-.046c.099-.382.192-.773.284-1.162a.12.12 0 0 1 .051-.076.115.115 0 0 1 .044-.016.115.115 0 0 1 .046 0 .13.13 0 0 1 .076.053.136.136 0 0 1 .017.045.124.124 0 0 1-.002.047c-.088.391-.184.785-.283 1.169a.12.12 0 0 1-.113.086h-.004zm.535-2.34h-.024a.113.113 0 0 1-.077-.05.117.117 0 0 1-.017-.091c.077-.384.149-.78.216-1.176a.122.122 0 0 1 .22-.05.122.122 0 0 1 .02.09 40.18 40.18 0 0 1-.218 1.184.123.123 0 0 1-.115.094h-.005zm.403-2.366h-.017a.125.125 0 0 1-.079-.048.111.111 0 0 1-.019-.042.123.123 0 0 1-.003-.047c.056-.394.108-.79.154-1.186a.12.12 0 0 1 .045-.081.116.116 0 0 1 .088-.026.119.119 0 0 1 .081.045.124.124 0 0 1 .026.089 52.42 52.42 0 0 1-.154 1.2.114.114 0 0 1-.042.068.121.121 0 0 1-.075.028h-.005zm.278-2.384h-.012a.12.12 0 0 1-.08-.042.125.125 0 0 1-.028-.087c.036-.398.065-.797.092-1.2 0-.016.003-.032.01-.046a.116.116 0 0 1 .028-.038.113.113 0 0 1 .089-.027.116.116 0 0 1 .105.08c.005.016.007.032.005.048-.024.398-.055.799-.091 1.2a.116.116 0 0 1-.034.078.118.118 0 0 1-.079.034h-.005zm.152-2.4a.118.118 0 0 1-.084-.038.108.108 0 0 1-.024-.04.122.122 0 0 1-.008-.046c.015-.399.024-.799.029-1.2a.126.126 0 0 1 .007-.047.123.123 0 0 1 .026-.04.11.11 0 0 1 .087-.033.122.122 0 0 1 .12.122c0 .402-.009.802-.029 1.2a.13.13 0 0 1-.007.048.131.131 0 0 1-.026.04.123.123 0 0 1-.087.038l-.004-.004zm.026-2.4a.121.121 0 0 1-.083-.035.119.119 0 0 1-.037-.082c0-.398-.014-.797-.031-1.2a.12.12 0 0 1 .032-.085.122.122 0 0 1 .17-.006.12.12 0 0 1 .028.038c.006.014.01.03.01.046.017.4.026.801.031 1.2a.119.119 0 0 1-.008.045.122.122 0 0 1-.064.066.116.116 0 0 1-.046.009l-.002.005zm-.084-2.38a.117.117 0 0 1-.082-.033.118.118 0 0 1-.038-.08 51.127 51.127 0 0 0-.089-1.2.122.122 0 0 1 .063-.117.122.122 0 0 1 .045-.013.118.118 0 0 1 .13.108c.036.401.065.8.091 1.2a.122.122 0 0 1-.006.047.11.11 0 0 1-.024.04.116.116 0 0 1-.083.04l-.007.008zm-.211-2.4a.122.122 0 0 1-.079-.031.126.126 0 0 1-.039-.075 48.6 48.6 0 0 0-.149-1.2.126.126 0 0 1 .023-.09.124.124 0 0 1 .081-.047.122.122 0 0 1 .134.104c.055.398.103.794.149 1.2a.12.12 0 0 1-.106.131l-.014.008zm-.324-2.379a.12.12 0 0 1-.12-.1 51.39 51.39 0 0 0-.204-1.179.119.119 0 0 1 .02-.091.12.12 0 0 1 .169-.03.122.122 0 0 1 .051.078c.074.393.144.787.206 1.183a.107.107 0 0 1-.001.047.115.115 0 0 1-.019.043.125.125 0 0 1-.034.033.129.129 0 0 1-.044.016h-.024zm-.442-2.359a.117.117 0 0 1-.115-.093l-.024-.104c-.074-.355-.156-.72-.24-1.063a.122.122 0 0 1 .015-.091.12.12 0 0 1 .074-.055.12.12 0 0 1 .144.089c.086.352.17.72.24 1.07l.021.103a.122.122 0 0 1 .002.047.133.133 0 0 1-.017.043.125.125 0 0 1-.033.033.113.113 0 0 1-.043.019l-.024.002zm-.569-2.33a.12.12 0 0 1-.115-.089c-.11-.389-.225-.775-.345-1.145a.122.122 0 0 1 .079-.151.123.123 0 0 1 .151.08c.12.371.24.76.346 1.151a.124.124 0 0 1 .003.047.103.103 0 0 1-.014.045.126.126 0 0 1-.073.057l-.032.005zm-.736-2.292a.123.123 0 0 1-.113-.08 26.23 26.23 0 0 0-.432-1.113.123.123 0 0 1-.01-.046.124.124 0 0 1 .035-.086.127.127 0 0 1 .04-.026.122.122 0 0 1 .156.064c.151.365.297.744.436 1.123a.123.123 0 0 1-.072.156.109.109 0 0 1-.04.008zm-.92-2.218a.119.119 0 0 1-.064-.017.12.12 0 0 1-.044-.05c-.172-.367-.352-.72-.535-1.068a.119.119 0 0 1-.013-.045.123.123 0 0 1 .004-.047.12.12 0 0 1 .06-.071.113.113 0 0 1 .091-.009.113.113 0 0 1 .069.06c.185.345.368.707.54 1.077.007.014.011.03.012.045a.121.121 0 0 1-.031.086.126.126 0 0 1-.038.027.101.101 0 0 1-.051.017v-.005zM109.44 34.8a.124.124 0 0 1-.103-.058 19.167 19.167 0 0 0-.646-1.003.12.12 0 0 1 .029-.166.123.123 0 0 1 .043-.019.117.117 0 0 1 .091.017c.014.01.025.02.034.033.223.325.444.665.655 1.013.011.019.016.04.016.06a.116.116 0 0 1-.016.06.123.123 0 0 1-.103.062zm-1.363-1.973a.117.117 0 0 1-.052-.012.112.112 0 0 1-.042-.034c-.24-.314-.506-.619-.77-.91a.114.114 0 0 1-.027-.04.13.13 0 0 1-.009-.047c0-.017.004-.033.011-.048a.11.11 0 0 1 .028-.039.122.122 0 0 1 .137-.017.12.12 0 0 1 .037.03c.267.294.531.606.78.922.01.013.018.027.022.042a.106.106 0 0 1 .004.047.114.114 0 0 1-.045.08.121.121 0 0 1-.086.019l.012.007zm-1.613-1.774a.126.126 0 0 1-.084-.033c-.288-.276-.588-.54-.893-.787a.124.124 0 0 1-.042-.082.127.127 0 0 1 .025-.089.124.124 0 0 1 .081-.043.118.118 0 0 1 .087.026c.31.24.615.521.908.8a.122.122 0 0 1 .035.085.121.121 0 0 1-.035.085.13.13 0 0 1-.094.031l.012.007z" fill="#263238"/><path d="M70.654 10.755H8.914c-.993 0-1.798.805-1.798 1.797v61.196c0 .992.805 1.797 1.798 1.797h61.74c.992 0 1.797-.805 1.797-1.797V12.552c0-.992-.805-1.797-1.797-1.797z" fill="#263238"/><path d="M72.228 9.247h-61.74c-.993 0-1.798.805-1.798 1.798V72.24c0 .993.805 1.797 1.798 1.797h61.74c.993 0 1.798-.804 1.798-1.797V11.045c0-.993-.805-1.798-1.798-1.798z" fill="url(#b)"/><path d="M72.24 74.16H10.486a1.92 1.92 0 0 1-1.92-1.92v-61.2a1.92 1.92 0 0 1 1.92-1.92H72.24a1.92 1.92 0 0 1 1.92 1.92v61.2a1.92 1.92 0 0 1-1.92 1.92zM10.486 9.36a1.68 1.68 0 0 0-1.68 1.68v61.2a1.68 1.68 0 0 0 1.68 1.68H72.24a1.68 1.68 0 0 0 1.68-1.68v-61.2a1.68 1.68 0 0 0-1.68-1.68H10.486z" fill="#263238"/><path d="M57.672 47.69h-32.59a2.952 2.952 0 0 0-2.952 2.952v1.112a2.952 2.952 0 0 0 2.952 2.952h32.59a2.952 2.952 0 0 0 2.952-2.952v-1.112a2.952 2.952 0 0 0-2.952-2.952z" fill="#fff"/><path d="M57.674 54.828H25.082a3.075 3.075 0 0 1-3.072-3.072V50.64a3.077 3.077 0 0 1 3.072-3.072h32.592a3.076 3.076 0 0 1 3.07 3.072v1.114a3.074 3.074 0 0 1-3.07 3.074zm-32.592-7.017a2.836 2.836 0 0 0-2.832 2.83v1.113a2.836 2.836 0 0 0 2.832 2.832h32.592a2.834 2.834 0 0 0 2.83-2.832V50.64a2.835 2.835 0 0 0-2.83-2.832l-32.592.003z" fill="#263238"/><path d="M57.672 33.593h-32.59a2.952 2.952 0 0 0-2.952 2.952v1.111a2.952 2.952 0 0 0 2.952 2.952h32.59a2.952 2.952 0 0 0 2.952-2.952v-1.111a2.952 2.952 0 0 0-2.952-2.952z" fill="#fff"/><path d="M57.674 40.728H25.082a3.075 3.075 0 0 1-3.072-3.072v-1.114a3.074 3.074 0 0 1 3.072-3.07h32.592a3.074 3.074 0 0 1 3.07 3.07v1.114a3.074 3.074 0 0 1-3.07 3.072zm-32.592-7.015a2.834 2.834 0 0 0-2.832 2.83v1.113a2.836 2.836 0 0 0 2.832 2.832h32.592a2.834 2.834 0 0 0 2.83-2.832v-1.114a2.832 2.832 0 0 0-2.83-2.83H25.082zM51.504 59.023H31.253a2.952 2.952 0 0 0-2.952 2.952v1.112a2.952 2.952 0 0 0 2.952 2.952h20.251a2.952 2.952 0 0 0 2.952-2.952v-1.112a2.952 2.952 0 0 0-2.952-2.952zM74.023 14.414v-3.12a2.049 2.049 0 0 0-2.05-2.052H10.74a2.05 2.05 0 0 0-2.05 2.052v3.12h65.333z" fill="#263238"/><path d="M74.025 14.535H8.69a.12.12 0 0 1-.12-.12v-3.12a2.174 2.174 0 0 1 2.16-2.16h61.243a2.174 2.174 0 0 1 2.172 2.16v3.12a.12.12 0 0 1-.12.12zm-65.215-.24h65.096V11.3a1.934 1.934 0 0 0-1.933-1.92h-61.23a1.934 1.934 0 0 0-1.92 1.92l-.013 2.995z" fill="#263238"/><path d="M64.56 13.102a.948.948 0 1 0 0-1.896.948.948 0 0 0 0 1.896z" fill="#fff"/><path d="M64.56 13.222a1.067 1.067 0 1 1 0-2.135 1.067 1.067 0 0 1 0 2.135zm0-1.896a.828.828 0 1 0 0 1.656.828.828 0 0 0 0-1.656z" fill="#263238"/><path d="M67.76 13.102a.948.948 0 1 0 0-1.896.948.948 0 0 0 0 1.896z" fill="#fff"/><path d="M67.76 13.222a1.068 1.068 0 1 1-.001-2.135 1.068 1.068 0 0 1 0 2.135zm0-1.896a.828.828 0 1 0 0 1.656.828.828 0 0 0 0-1.656z" fill="#263238"/><path d="M71.904 12.153a.96.96 0 1 0-1.92 0 .96.96 0 0 0 1.92 0z" fill="#fff"/><path d="M70.956 13.222a1.067 1.067 0 1 1 0-2.135 1.067 1.067 0 0 1 0 2.135zm0-1.896a.828.828 0 1 0 0 1.656.828.828 0 0 0 0-1.656zM25.88 51.913l-.315-.19.396-.557-.593-.225.132-.341.564.3-.06-.69h.396l-.065.69.571-.3.125.34-.59.24.4.553-.326.19-.32-.627-.316.617zM27.871 51.913l-.314-.19.396-.557-.59-.225.129-.341.564.3-.06-.69h.405l-.064.69.57-.3.126.34-.59.24.4.553-.326.19-.32-.627-.326.617zM29.865 51.913l-.316-.19.396-.557-.59-.225.129-.341.566.3-.06-.69h.406l-.067.69.57-.3.126.34-.59.24.4.553-.324.19-.322-.627-.324.617zM31.858 51.913l-.317-.19.396-.557-.59-.225.129-.341.566.3-.06-.69h.418l-.065.69.569-.3.127.34-.593.24.401.553-.324.19-.321-.627-.336.617zM33.84 51.913l-.317-.19.396-.557-.59-.225.13-.341.566.3-.06-.69h.405l-.064.69.57-.3.126.34-.59.24.398.553-.324.19-.322-.627-.324.617zM35.842 51.913l-.315-.19.394-.557-.59-.225.129-.341.566.3-.06-.69h.406l-.065.69.571-.3.125.34-.59.24.4.553-.326.19-.32-.627-.325.617zM37.834 51.913l-.315-.19.394-.557-.59-.225.131-.341.564.3-.06-.69h.406l-.065.69.571-.3.125.34-.59.24.4.553-.326.19-.32-.637-.325.627zM39.825 51.913l-.314-.19.396-.557-.59-.225.13-.341.563.3-.06-.69h.406l-.065.69.571-.3.125.34-.59.24.4.553-.326.19-.32-.627-.326.617zM41.818 51.913l-.315-.19.396-.557-.59-.225.13-.341.566.3-.06-.69h.405l-.067.69.571-.3.125.34-.59.24.4.553-.323.19-.322-.627-.326.617zM43.812 51.913l-.317-.19.396-.557-.59-.225.13-.341.566.3-.06-.69h.405l-.064.69.568-.3.125.34-.59.24.4.553-.323.19-.322-.627-.324.617zM45.804 51.913l-.317-.19.396-.557-.59-.225.13-.341.566.3-.06-.69h.405l-.065.69.572-.3.124.34-.59.24.398.553-.324.19-.321-.627-.324.617zM47.796 51.913l-.315-.19.394-.557-.59-.225.13-.341.566.3-.06-.69h.405l-.065.69.572-.3.125.34-.59.24.4.553-.327.19-.321-.627-.324.617zM49.788 51.913l-.314-.19.393-.557-.59-.225.132-.341.564.3-.06-.69h.406l-.065.69.57-.3.126.34-.59.24.4.553-.326.19-.32-.627-.326.617zM51.78 51.913l-.314-.19.396-.557-.593-.225.132-.341.564.3-.06-.69h.415l-.065.69.571-.3.125.34-.59.24.4.553-.326.19-.319-.627-.336.617zM53.772 51.913l-.314-.19.396-.557-.59-.225.129-.341.566.3-.062-.69h.405l-.064.69.57-.3.126.34-.59.24.4.553-.326.19-.32-.627-.326.617zM55.766 51.913l-.316-.19.395-.557-.59-.225.13-.341.566.3-.06-.69h.406l-.067.69.57-.3.126.34-.59.24.4.553-.324.19-.322-.627-.324.617zM25.88 37.812l-.315-.19.396-.556-.593-.226.132-.34.564.301-.06-.69h.396l-.065.69.571-.302.125.34-.59.24.4.553-.326.19-.32-.627-.316.617zM27.871 37.812l-.314-.19.396-.556-.593-.226.13-.34.564.301-.06-.69h.405l-.065.69.572-.302.124.34-.59.24.4.553-.326.19-.319-.627-.324.617zM29.865 37.812l-.316-.19.396-.556-.59-.226.129-.34.566.301-.06-.69h.406l-.067.69.57-.302.126.34-.59.24.4.553-.324.19-.322-.627-.324.617zM31.858 37.812l-.317-.19.396-.556-.59-.226.129-.34.566.301-.06-.69h.418l-.065.69.569-.302.127.34-.593.24.401.553-.324.19-.321-.627-.336.617zM33.84 37.812l-.317-.19.396-.556-.59-.226.13-.34.566.301-.06-.69h.405l-.064.69.57-.302.126.34-.59.24.398.553-.324.19-.322-.627-.324.617zM35.842 37.812l-.315-.19.394-.556-.59-.226.129-.34.566.301-.06-.69h.406l-.065.69.571-.302.125.34-.59.24.4.553-.326.19-.32-.627-.325.617zM37.834 37.812l-.315-.19.394-.556-.59-.226.131-.34.564.301-.06-.69h.406l-.065.69.571-.302.125.34-.59.24.4.553-.326.19-.32-.636-.325.626zM39.825 37.812l-.314-.19.396-.556-.59-.226.13-.34.563.301-.06-.69h.406l-.065.69.571-.302.125.34-.59.24.4.553-.326.19-.32-.627-.326.617zM41.818 37.812l-.315-.19.396-.556-.59-.226.13-.34.566.301-.06-.69h.405l-.067.69.571-.302.125.34-.59.24.4.553-.323.19-.322-.627-.326.617zM43.812 37.812l-.317-.19.396-.556-.59-.226.13-.34.566.301-.06-.69h.405l-.064.69.568-.302.125.34-.59.24.4.553-.323.19-.322-.627-.324.617zM45.804 37.812l-.317-.19.396-.556-.59-.226.13-.34.566.301-.06-.69h.405l-.065.69.572-.302.124.34-.59.24.398.553-.324.19-.321-.627-.324.617zM47.796 37.812l-.314-.19.393-.556-.595-.226.13-.34.566.301-.06-.69h.406l-.065.69.571-.302.125.34-.59.24.4.553-.326.19-.322-.627-.319.617zM49.788 37.812l-.314-.19.393-.556-.59-.226.132-.34.564.301-.06-.69h.406l-.065.69.57-.302.126.34-.59.24.4.553-.326.19-.32-.627-.326.617zM51.78 37.812l-.314-.19.396-.556-.593-.226.132-.34.564.301-.06-.69h.415l-.065.69.571-.302.125.34-.59.24.4.553-.326.19-.319-.627-.336.617zM53.772 37.812l-.314-.19.396-.556-.59-.226.129-.34.566.301-.062-.69h.405l-.064.69.57-.302.126.34-.59.24.4.553-.326.19-.32-.627-.326.617zM55.766 37.812l-.316-.19.395-.556-.59-.226.13-.34.566.301-.06-.69h.406l-.067.69.57-.302.126.34-.59.24.4.553-.324.19-.322-.627-.324.617zM35.846 31.68V29.6h.516a.571.571 0 0 1 .3.069.403.403 0 0 1 .164.197c.036.099.053.204.05.31a.66.66 0 0 1-.058.285.422.422 0 0 1-.17.185.544.544 0 0 1-.283.067h-.24v.96l-.279.007zm.29-1.176h.133a.553.553 0 0 0 .211-.024.18.18 0 0 0 .103-.098.54.54 0 0 0 .031-.2.902.902 0 0 0-.024-.24.154.154 0 0 0-.09-.11.532.532 0 0 0-.214-.031h-.137l-.012.703zM36.869 31.68l.441-2.08h.279l.444 2.08h-.274l-.096-.523h-.422l-.101.523h-.271zm.41-.732h.346l-.173-.936-.173.936zM38.734 31.711a.547.547 0 0 1-.298-.077.528.528 0 0 1-.182-.213.905.905 0 0 1-.072-.317l.256-.07c.006.073.018.144.036.214.015.063.045.12.09.168a.223.223 0 0 0 .17.065.218.218 0 0 0 .172-.063.254.254 0 0 0 .058-.18.372.372 0 0 0-.065-.228 1.174 1.174 0 0 0-.16-.172l-.339-.31a.571.571 0 0 1-.151-.194.62.62 0 0 1-.048-.264.481.481 0 0 1 .13-.356.497.497 0 0 1 .357-.124.661.661 0 0 1 .216.03c.06.021.114.055.158.1.045.049.078.107.099.17a.83.83 0 0 1 .05.24l-.24.067a1.088 1.088 0 0 0-.029-.187.297.297 0 0 0-.081-.14.281.281 0 0 0-.334 0 .225.225 0 0 0-.06.17.33.33 0 0 0 .031.157.436.436 0 0 0 .104.127l.352.307c.08.07.151.15.21.24.06.102.091.22.088.339a.52.52 0 0 1-.065.266.426.426 0 0 1-.175.17.558.558 0 0 1-.278.065zM39.95 31.711a.551.551 0 0 1-.3-.077.527.527 0 0 1-.182-.213.905.905 0 0 1-.072-.317l.257-.07c.005.073.017.144.036.214.014.063.045.12.089.168a.226.226 0 0 0 .172.065.216.216 0 0 0 .17-.063.254.254 0 0 0 .058-.18.372.372 0 0 0-.064-.228 1.18 1.18 0 0 0-.161-.172l-.353-.31a.602.602 0 0 1-.151-.194.619.619 0 0 1-.048-.264.48.48 0 0 1 .13-.356.497.497 0 0 1 .357-.124.662.662 0 0 1 .216.03c.06.021.114.055.158.1a.48.48 0 0 1 .099.17.83.83 0 0 1 .05.24l-.24.067a1.097 1.097 0 0 0-.029-.187.298.298 0 0 0-.081-.14.281.281 0 0 0-.334 0 .223.223 0 0 0-.06.17.33.33 0 0 0 .031.157.436.436 0 0 0 .104.127l.352.307c.08.07.151.15.21.24.06.102.091.22.088.339a.52.52 0 0 1-.065.266.427.427 0 0 1-.175.17.554.554 0 0 1-.262.065zM40.944 31.68l-.34-2.08h.24l.222 1.495.281-1.486h.204l.283 1.493.219-1.502h.24l-.336 2.08h-.211l-.288-1.54-.293 1.54h-.22zM43.056 31.712a.604.604 0 0 1-.336-.084.437.437 0 0 1-.18-.24 1.069 1.069 0 0 1-.053-.358v-.79a.974.974 0 0 1 .055-.352.433.433 0 0 1 .178-.226.627.627 0 0 1 .336-.08.612.612 0 0 1 .334.08.451.451 0 0 1 .177.226.97.97 0 0 1 .055.352v.79a.995.995 0 0 1-.055.355.465.465 0 0 1-.177.24.59.59 0 0 1-.334.087zm0-.24a.283.283 0 0 0 .175-.046.251.251 0 0 0 .08-.134.834.834 0 0 0 .021-.202v-.912a.8.8 0 0 0-.022-.2.223.223 0 0 0-.079-.126.283.283 0 0 0-.175-.046.279.279 0 0 0-.175.046.216.216 0 0 0-.082.127.805.805 0 0 0-.021.199v.912c-.001.068.006.136.021.202.012.052.04.1.082.134.05.038.112.057.175.055v-.01zM43.92 31.68v-2.081h.42a.944.944 0 0 1 .343.055.386.386 0 0 1 .202.178c.047.1.069.209.065.319a.794.794 0 0 1-.027.22.397.397 0 0 1-.081.166.316.316 0 0 1-.15.101l.284 1.042h-.279l-.273-.96h-.226v.96h-.278zm.29-1.183h.11a.516.516 0 0 0 .2-.032.209.209 0 0 0 .115-.105.492.492 0 0 0 .036-.21.417.417 0 0 0-.067-.26.335.335 0 0 0-.264-.082h-.13v.689zM45.24 31.68V29.6h.454a.777.777 0 0 1 .364.072c.089.043.157.119.192.21.047.114.07.236.07.358v.764c.003.127-.016.253-.058.374a.432.432 0 0 1-.187.228.663.663 0 0 1-.348.08l-.487-.006zm.29-.209h.166c.08.008.16-.013.226-.06a.288.288 0 0 0 .081-.18c.01-.094.015-.19.015-.285v-.675a1.313 1.313 0 0 0-.022-.264.22.22 0 0 0-.089-.144.403.403 0 0 0-.218-.047h-.159v1.655zM21.655 24.117v-3.329h.864c.196-.003.39.023.579.077.15.044.281.14.37.269a.96.96 0 0 1 .129.535 1.64 1.64 0 0 1-.036.363.743.743 0 0 1-.122.288.592.592 0 0 1-.24.187l.46 1.622h-.696l-.381-1.507h-.24v1.507l-.687-.012zm.68-1.92h.196a.52.52 0 0 0 .27-.043.303.303 0 0 0 .134-.163.862.862 0 0 0 .038-.269.615.615 0 0 0-.084-.35.359.359 0 0 0-.329-.123h-.24l.014.948zM24.04 24.118v-3.329h1.44v.468h-.76v.886h.598v.48h-.598v1.044h.782v.458l-1.461-.007zM26.703 24.164a1.042 1.042 0 0 1-.514-.113.72.72 0 0 1-.31-.34 1.55 1.55 0 0 1-.12-.582l.584-.098c.002.116.016.23.043.343a.4.4 0 0 0 .105.204.24.24 0 0 0 .18.067.187.187 0 0 0 .178-.081.378.378 0 0 0 .048-.19.587.587 0 0 0-.1-.35 1.693 1.693 0 0 0-.267-.286l-.344-.3c-.12-.1-.223-.222-.302-.357a.931.931 0 0 1-.117-.48.807.807 0 0 1 .24-.632.945.945 0 0 1 .66-.22.917.917 0 0 1 .41.081.64.64 0 0 1 .24.22.89.89 0 0 1 .122.3c.024.107.038.214.044.322l-.579.087c0-.1-.014-.19-.026-.267a.389.389 0 0 0-.075-.18.206.206 0 0 0-.168-.067.196.196 0 0 0-.175.09.352.352 0 0 0-.058.194.48.48 0 0 0 .08.29c.064.088.138.169.22.24l.336.295c.14.12.26.26.36.413.106.172.159.372.152.573a.834.834 0 0 1-.108.423.771.771 0 0 1-.298.297.93.93 0 0 1-.441.104zM27.862 24.118v-3.329h1.44v.468h-.773v.886h.595v.48h-.595v1.044h.78v.458l-1.447-.007zM29.976 24.118v-2.822h-.514v-.507h1.702v.506h-.506v2.823h-.682zM32.926 24.118V22.8l-.648-2.01h.636l.357 1.17.329-1.17h.617l-.636 2.01v1.318h-.655zM35.38 24.163a1.098 1.098 0 0 1-.58-.131.72.72 0 0 1-.305-.375 1.649 1.649 0 0 1-.093-.585V21.84a1.633 1.633 0 0 1 .093-.583.72.72 0 0 1 .305-.377 1.389 1.389 0 0 1 1.166 0c.142.085.25.215.307.37.067.186.099.383.094.58v1.244c.005.2-.027.397-.093.585a.72.72 0 0 1-.308.375c-.18.096-.382.14-.585.13zm0-.48a.274.274 0 0 0 .193-.057.294.294 0 0 0 .081-.16c.015-.072.022-.144.022-.217v-1.584a.983.983 0 0 0-.022-.213.294.294 0 0 0-.081-.159.263.263 0 0 0-.192-.06.24.24 0 0 0-.185.06.318.318 0 0 0-.084.159c-.013.07-.02.141-.02.213v1.575c0 .072.006.144.02.216.009.06.037.116.08.16a.266.266 0 0 0 .189.058v.01zM37.757 24.163a1.12 1.12 0 0 1-.588-.13.69.69 0 0 1-.295-.373 1.847 1.847 0 0 1-.085-.593v-2.278h.67v2.371c0 .08.007.16.02.24a.37.37 0 0 0 .08.195.24.24 0 0 0 .198.074.257.257 0 0 0 .199-.074.39.39 0 0 0 .08-.195c.01-.08.016-.16.016-.24v-2.37h.67v2.277c.004.2-.024.4-.084.593a.68.68 0 0 1-.296.374 1.11 1.11 0 0 1-.585.13zM39.194 24.118V20.79h.864c.195-.003.39.023.576.077a.664.664 0 0 1 .37.269.96.96 0 0 1 .13.535c0 .122-.01.243-.034.363a.72.72 0 0 1-.125.276.584.584 0 0 1-.24.187l.46 1.622H40.5l-.382-1.507h-.24v1.507h-.684zm.68-1.92h.206a.536.536 0 0 0 .26-.053.3.3 0 0 0 .131-.163.792.792 0 0 0 .04-.269.595.595 0 0 0-.086-.35.354.354 0 0 0-.314-.122h-.24l.002.957zM42.605 24.117V20.79h1.058a.943.943 0 0 1 .48.112c.127.076.226.19.283.327.065.165.096.341.091.518.01.194-.03.387-.12.56a.671.671 0 0 1-.33.285c-.154.06-.317.088-.48.084h-.308v1.44l-.674.002zm.679-1.92h.24a.454.454 0 0 0 .228-.048.24.24 0 0 0 .11-.15.98.98 0 0 0 .03-.262 1.088 1.088 0 0 0-.025-.255.254.254 0 0 0-.1-.16.413.413 0 0 0-.24-.058h-.24l-.003.933zM44.525 24.118l.645-3.329h.752l.638 3.329h-.624l-.12-.72h-.526l-.127.72h-.638zm.835-1.145h.4l-.2-1.344-.2 1.344zM47.738 24.164a1.042 1.042 0 0 1-.513-.113.72.72 0 0 1-.31-.34 1.55 1.55 0 0 1-.12-.582l.583-.098c.002.116.017.23.044.343a.4.4 0 0 0 .105.204.24.24 0 0 0 .18.067.187.187 0 0 0 .178-.081.378.378 0 0 0 .048-.19.589.589 0 0 0-.101-.35 1.778 1.778 0 0 0-.264-.286l-.346-.3c-.12-.1-.223-.222-.302-.357a.931.931 0 0 1-.118-.48.807.807 0 0 1 .24-.632.945.945 0 0 1 .66-.22.917.917 0 0 1 .41.081.64.64 0 0 1 .24.22.89.89 0 0 1 .128.31c.024.106.038.214.043.322l-.578.087a2.526 2.526 0 0 0-.027-.267.366.366 0 0 0-.074-.18.206.206 0 0 0-.168-.067.196.196 0 0 0-.175.089.352.352 0 0 0-.058.194.48.48 0 0 0 .08.29c.063.089.137.17.22.24l.336.296c.14.12.26.258.36.412.106.173.158.372.151.574a.834.834 0 0 1-.11.41.772.772 0 0 1-.298.298.93.93 0 0 1-.444.106zM49.761 24.164a1.036 1.036 0 0 1-.513-.113.72.72 0 0 1-.31-.34 1.596 1.596 0 0 1-.122-.582l.583-.098c.005.115.02.23.043.343a.422.422 0 0 0 .108.204.242.242 0 0 0 .178.067.186.186 0 0 0 .18-.081.376.376 0 0 0 .048-.19.588.588 0 0 0-.1-.35 1.7 1.7 0 0 0-.267-.286l-.346-.3a1.439 1.439 0 0 1-.302-.357.96.96 0 0 1-.116-.48.805.805 0 0 1 .24-.632.941.941 0 0 1 .66-.22.933.933 0 0 1 .41.081c.099.052.182.128.24.22.06.092.103.194.126.3.023.107.038.214.043.322l-.58.087a2.48 2.48 0 0 0-.027-.267.345.345 0 0 0-.075-.18.196.196 0 0 0-.165-.067.202.202 0 0 0-.178.09.353.353 0 0 0-.057.194.48.48 0 0 0 .081.29c.064.088.137.168.218.24l.339.295c.139.12.26.26.36.413.103.173.155.372.149.573a.854.854 0 0 1-.106.423.77.77 0 0 1-.297.297.927.927 0 0 1-.445.104zM51.274 24.118l-.432-3.329h.576l.24 2.035.292-2.03h.456l.305 2.026.24-2.03h.567l-.428 3.328h-.576l-.324-2.107-.31 2.107h-.606zM54.785 24.164a1.097 1.097 0 0 1-.581-.132.72.72 0 0 1-.305-.375 1.646 1.646 0 0 1-.093-.585V21.84a1.633 1.633 0 0 1 .093-.584.72.72 0 0 1 .305-.376c.179-.093.38-.137.58-.128.204-.01.406.035.586.13a.72.72 0 0 1 .31.365c.067.186.098.383.094.58v1.244c.004.199-.028.398-.094.585a.72.72 0 0 1-.307.375 1.11 1.11 0 0 1-.588.132zm0-.48a.273.273 0 0 0 .192-.058.298.298 0 0 0 .084-.16c.013-.072.019-.144.019-.217v-1.584c0-.071-.006-.143-.02-.213a.298.298 0 0 0-.083-.159.264.264 0 0 0-.192-.06.252.252 0 0 0-.185.06.294.294 0 0 0-.082.159.989.989 0 0 0-.021.213v1.575c0 .072.006.145.019.216.009.06.037.117.08.16a.271.271 0 0 0 .189.058v.01zM56.222 24.118V20.79h.864c.196-.003.391.023.579.077.15.044.281.14.37.269a.96.96 0 0 1 .129.535 1.64 1.64 0 0 1-.036.363.74.74 0 0 1-.122.276.593.593 0 0 1-.24.187l.46 1.622h-.696l-.381-1.507h-.24v1.507h-.687zm.68-1.92h.196a.52.52 0 0 0 .26-.053.302.302 0 0 0 .134-.163.862.862 0 0 0 .038-.269.614.614 0 0 0-.084-.35.357.357 0 0 0-.314-.122h-.24l.01.957zM58.608 24.118v-3.33h.814c.225-.01.45.028.66.111.15.066.27.188.333.341a1.5 1.5 0 0 1 .099.593v1.2c.007.207-.026.415-.099.61a.647.647 0 0 1-.331.35 1.475 1.475 0 0 1-.646.113l-.83.012zm.677-.48h.144a.48.48 0 0 0 .268-.058.262.262 0 0 0 .101-.178c.016-.096.023-.193.022-.29v-1.366a1.202 1.202 0 0 0-.026-.276.26.26 0 0 0-.108-.156.539.539 0 0 0-.262-.048h-.144l.005 2.372z" fill="#263238"/><path d="M30.54 63.854a.735.735 0 0 1-.406-.096.497.497 0 0 1-.208-.269 1.2 1.2 0 0 1-.06-.398v-.83c-.004-.14.017-.278.06-.41a.48.48 0 0 1 .208-.267.757.757 0 0 1 .406-.094.765.765 0 0 1 .389.084.45.45 0 0 1 .199.24c.04.112.06.231.058.35v.193h-.466v-.216c.003-.05.003-.1 0-.15a.24.24 0 0 0-.048-.114.17.17 0 0 0-.132-.044.179.179 0 0 0-.137.046.214.214 0 0 0-.053.118.847.847 0 0 0 0 .16v1.05c0 .056.005.112.015.167.008.042.029.081.06.11a.183.183 0 0 0 .127.04.169.169 0 0 0 .13-.044.219.219 0 0 0 .048-.118 1.128 1.128 0 0 0 0-.156v-.225h.456v.19c.002.12-.018.242-.058.357a.48.48 0 0 1-.197.24.721.721 0 0 1-.391.086zM31.478 63.824V61.52h.48v.947h.406v-.947h.48v2.303h-.48v-1.02h-.406v1.02h-.48zM33.067 63.824l.447-2.304h.52l.444 2.303h-.437l-.081-.506h-.36l-.089.507h-.444zm.571-.792h.276l-.139-.932-.137.931zM34.694 63.824V61.52h.327l.513 1.2v-1.2h.387v2.303h-.312l-.514-1.274v1.275h-.4zM36.86 63.859a.624.624 0 0 1-.37-.098.535.535 0 0 1-.195-.279 1.395 1.395 0 0 1-.057-.42v-.773a1.412 1.412 0 0 1 .057-.427.52.52 0 0 1 .211-.276.751.751 0 0 1 .406-.096.79.79 0 0 1 .391.084.48.48 0 0 1 .207.24.945.945 0 0 1 .062.358v.134h-.458v-.163a1.078 1.078 0 0 0 0-.16.178.178 0 0 0-.053-.109.185.185 0 0 0-.132-.04.177.177 0 0 0-.137.047.258.258 0 0 0-.055.125 1.137 1.137 0 0 0 0 .161v1.02a.782.782 0 0 0 .017.175c.008.046.03.088.064.12a.2.2 0 0 0 .135.04.192.192 0 0 0 .137-.045.24.24 0 0 0 .067-.122.815.815 0 0 0 .017-.178v-.24h-.224v-.297h.648v1.183h-.307l-.029-.206a.441.441 0 0 1-.136.172.396.396 0 0 1-.267.07zM37.898 63.824V61.52h1.004v.323h-.533v.612h.413v.327h-.413v.72h.54v.317l-1.01.005zM39.857 63.823V61.52h.72a.657.657 0 0 1 .34.08.48.48 0 0 1 .195.225.89.89 0 0 1 .062.358.742.742 0 0 1-.084.388.465.465 0 0 1-.228.197.9.9 0 0 1-.333.058h-.21v.998h-.462zm.48-1.327h.165a.312.312 0 0 0 .159-.034.16.16 0 0 0 .074-.103.913.913 0 0 0 .005-.36.18.18 0 0 0-.07-.11.293.293 0 0 0-.17-.039h-.18l.017.646zM41.184 63.824l.449-2.304h.52l.445 2.303h-.437l-.082-.506h-.364l-.09.507h-.44zm.574-.792h.276l-.14-.932-.136.931zM43.411 63.855a.72.72 0 0 1-.358-.077.504.504 0 0 1-.213-.24 1.069 1.069 0 0 1-.084-.401l.403-.07c.002.081.013.162.031.24.01.054.036.104.075.142a.161.161 0 0 0 .122.048.131.131 0 0 0 .125-.058.253.253 0 0 0 .031-.13.403.403 0 0 0-.07-.24 1.228 1.228 0 0 0-.182-.196l-.24-.209a1.01 1.01 0 0 1-.209-.24.648.648 0 0 1-.081-.333.556.556 0 0 1 .168-.437.64.64 0 0 1 .456-.154.624.624 0 0 1 .285.058.454.454 0 0 1 .17.151c.041.064.07.135.087.209.017.073.026.148.029.223l-.4.06a1.788 1.788 0 0 0-.02-.185.24.24 0 0 0-.05-.125.14.14 0 0 0-.116-.045.135.135 0 0 0-.122.06.24.24 0 0 0-.04.134.333.333 0 0 0 .057.202c.043.06.094.115.15.163l.24.206c.095.083.176.18.24.286a.72.72 0 0 1 .104.396.572.572 0 0 1-.074.293.519.519 0 0 1-.207.206.634.634 0 0 1-.307.063zM44.81 63.855a.72.72 0 0 1-.355-.077.497.497 0 0 1-.216-.24 1.068 1.068 0 0 1-.084-.401l.406-.07c0 .081.01.162.029.24.01.054.036.103.074.142a.165.165 0 0 0 .125.048.127.127 0 0 0 .122-.058.256.256 0 0 0 .034-.13.42.42 0 0 0-.07-.24 1.261 1.261 0 0 0-.184-.196l-.24-.209a.959.959 0 0 1-.212-.24.647.647 0 0 1-.079-.334.56.56 0 0 1 .166-.436.644.644 0 0 1 .456-.154.617.617 0 0 1 .285.058c.07.034.13.086.173.15.04.065.068.136.084.21.016.073.027.148.031.223l-.403.06a1.847 1.847 0 0 0-.017-.185.24.24 0 0 0-.053-.125.161.161 0 0 0-.24.015.24.24 0 0 0-.038.134.333.333 0 0 0 .055.202c.044.06.095.115.151.163l.24.206c.094.083.175.18.24.286a.72.72 0 0 1 .106.396.596.596 0 0 1-.074.293.533.533 0 0 1-.207.206.643.643 0 0 1-.305.063zM45.857 63.824l-.298-2.304h.399l.158 1.408.202-1.406h.316l.212 1.404.158-1.407h.394l-.298 2.305h-.396l-.226-1.46-.213 1.46h-.408zM48.288 63.854a.747.747 0 0 1-.4-.09.509.509 0 0 1-.215-.26 1.202 1.202 0 0 1-.062-.406v-.859a1.168 1.168 0 0 1 .063-.403.492.492 0 0 1 .213-.257.77.77 0 0 1 .4-.089c.142-.006.281.025.407.09a.51.51 0 0 1 .213.256c.046.13.067.266.063.403v.86c.004.137-.018.275-.063.405a.509.509 0 0 1-.213.26.764.764 0 0 1-.406.09zm0-.338a.185.185 0 0 0 .134-.04.218.218 0 0 0 .058-.116.715.715 0 0 0 .014-.149v-1.09c0-.05-.004-.1-.014-.148a.24.24 0 0 0-.055-.11.194.194 0 0 0-.135-.041.175.175 0 0 0-.127.04.214.214 0 0 0-.057.11.729.729 0 0 0-.015.15v1.09a.973.973 0 0 0 0 .148c.008.041.027.08.055.11a.177.177 0 0 0 .142.046zM49.284 63.823v-2.304h.598c.134-.003.269.014.398.053.105.03.196.096.257.187.066.111.098.24.09.37.002.084-.007.169-.026.252a.454.454 0 0 1-.084.19.4.4 0 0 1-.172.129l.319 1.123h-.48l-.264-1.044h-.163v1.044h-.473zm.48-1.322h.134a.373.373 0 0 0 .18-.036.218.218 0 0 0 .094-.113.59.59 0 0 0 .026-.188.424.424 0 0 0-.057-.24.24.24 0 0 0-.219-.084h-.158v.66zM50.935 63.823V61.52h.562c.156-.006.312.02.458.075a.446.446 0 0 1 .24.24c.05.13.074.27.07.41v.84c.004.143-.02.286-.07.42a.464.464 0 0 1-.228.24 1.043 1.043 0 0 1-.449.077l-.583.002zm.48-.326h.1a.325.325 0 0 0 .186-.04.185.185 0 0 0 .07-.123c.01-.067.014-.134.014-.202v-.96a.84.84 0 0 0-.017-.192.165.165 0 0 0-.075-.105.352.352 0 0 0-.18-.034h-.098v1.656z" fill="#EAE9EA"/><path d="M31.709 45.741a.57.57 0 0 1-.343-.09.48.48 0 0 1-.168-.24 1.145 1.145 0 0 1-.049-.349v-.734a1.2 1.2 0 0 1 .049-.367.44.44 0 0 1 .168-.24.61.61 0 0 1 .343-.084.579.579 0 0 1 .31.072c.075.047.133.12.163.204a.914.914 0 0 1 .05.321v.163h-.274v-.146a1.693 1.693 0 0 0 0-.204.24.24 0 0 0-.062-.137.334.334 0 0 0-.353 0 .24.24 0 0 0-.072.149 1.246 1.246 0 0 0-.017.223v.826a.973.973 0 0 0 .024.24.216.216 0 0 0 .087.13.275.275 0 0 0 .158.038.24.24 0 0 0 .17-.053.239.239 0 0 0 .063-.144c.01-.072.015-.144.014-.216v-.154h.274v.154c.002.113-.013.225-.046.334a.438.438 0 0 1-.158.228.554.554 0 0 1-.331.076zM33.04 45.742a.605.605 0 0 1-.335-.081.447.447 0 0 1-.18-.24 1.067 1.067 0 0 1-.053-.358v-.79a.969.969 0 0 1 .055-.352.433.433 0 0 1 .18-.226.613.613 0 0 1 .334-.077.607.607 0 0 1 .333.08.444.444 0 0 1 .18.225c.04.113.058.231.055.35v.792c.002.121-.016.241-.055.356a.481.481 0 0 1-.18.24.586.586 0 0 1-.333.081zm0-.24a.264.264 0 0 0 .176-.048.24.24 0 0 0 .08-.132.84.84 0 0 0 .02-.201v-.912a.804.804 0 0 0-.02-.2.24.24 0 0 0-.08-.13.295.295 0 0 0-.175-.042.3.3 0 0 0-.175.043.24.24 0 0 0-.082.13.951.951 0 0 0-.02.199v.912a.99.99 0 0 0 .02.201.24.24 0 0 0 .081.132c.05.04.112.062.176.06v-.012zM33.893 45.72v-2.08h.199l.59 1.382V43.64h.24v2.08h-.184l-.598-1.42v1.42h-.247zM35.249 45.72v-2.08h.804v.208h-.514v.694h.399v.204h-.399v.974h-.29zM36.269 45.72v-2.08h.285v2.08h-.285zM36.89 45.72v-2.081h.418a.957.957 0 0 1 .346.055.396.396 0 0 1 .201.178c.047.1.07.209.065.319a.898.898 0 0 1-.026.22.415.415 0 0 1-.082.166.308.308 0 0 1-.149.099l.295 1.044h-.278l-.271-.977h-.226v.977h-.293zm.29-1.186h.111a.576.576 0 0 0 .2-.029c.049-.02.09-.057.112-.105a.496.496 0 0 0 .036-.209.41.41 0 0 0-.067-.264.335.335 0 0 0-.264-.08h-.127v.687zM38.218 45.72l.038-2.08h.285l.368 1.68.37-1.68h.28l.04 2.08h-.24l-.02-1.51-.353 1.51h-.166l-.348-1.51-.024 1.51h-.23zM40.505 45.72v-2.08h.516a.599.599 0 0 1 .3.066.413.413 0 0 1 .163.197c.036.1.053.206.05.312a.667.667 0 0 1-.057.286.422.422 0 0 1-.17.184.56.56 0 0 1-.284.065h-.24v.96l-.278.01zm.29-1.176h.135a.54.54 0 0 0 .197-.029.19.19 0 0 0 .103-.098.54.54 0 0 0 .03-.2.91.91 0 0 0-.02-.24.153.153 0 0 0-.092-.11.555.555 0 0 0-.216-.031H40.8l-.005.708zM41.52 45.72l.442-2.08h.278l.444 2.08h-.276l-.094-.525h-.424l-.101.525h-.269zm.41-.732h.348l-.175-.938-.173.938zM43.394 45.742a.48.48 0 0 1-.48-.29.83.83 0 0 1-.072-.315l.257-.07c.005.072.016.144.034.214.015.062.046.12.088.168a.264.264 0 0 0 .344 0 .264.264 0 0 0 .057-.183.365.365 0 0 0-.065-.225 1.185 1.185 0 0 0-.16-.173l-.35-.31a.609.609 0 0 1-.152-.197.646.646 0 0 1-.048-.261.48.48 0 0 1 .13-.355.496.496 0 0 1 .357-.125.66.66 0 0 1 .216.031c.06.02.114.054.159.098a.502.502 0 0 1 .098.168.829.829 0 0 1 .05.24l-.24.068a1.414 1.414 0 0 0-.03-.19.279.279 0 0 0-.082-.137.28.28 0 0 0-.334 0 .22.22 0 0 0-.06.17.334.334 0 0 0 .031.157.48.48 0 0 0 .106.127l.35.307c.08.07.15.15.21.24.06.102.091.22.088.338a.52.52 0 0 1-.065.267.427.427 0 0 1-.175.17.555.555 0 0 1-.262.068zM44.609 45.742a.48.48 0 0 1-.48-.29.88.88 0 0 1-.072-.315l.257-.07c.005.072.016.144.033.214.016.062.047.12.09.168a.264.264 0 0 0 .342 0 .264.264 0 0 0 .058-.183.365.365 0 0 0-.065-.225 1.185 1.185 0 0 0-.16-.173l-.351-.31a.609.609 0 0 1-.151-.197.646.646 0 0 1-.048-.261.48.48 0 0 1 .13-.355.496.496 0 0 1 .357-.125.66.66 0 0 1 .216.031c.06.02.114.054.158.098a.55.55 0 0 1 .101.168.923.923 0 0 1 .048.24l-.24.068a1.116 1.116 0 0 0-.031-.19.279.279 0 0 0-.082-.137.28.28 0 0 0-.333 0 .22.22 0 0 0-.06.17.334.334 0 0 0 .03.157.48.48 0 0 0 .106.127l.35.307c.081.07.152.15.21.24.06.102.092.22.089.338a.52.52 0 0 1-.065.267.427.427 0 0 1-.175.17.555.555 0 0 1-.262.068zM45.6 45.72l-.339-2.08h.24l.224 1.495.28-1.488h.204l.284 1.495.218-1.502h.24l-.334 2.08h-.208l-.29-1.54-.294 1.54H45.6zM47.715 45.742a.606.606 0 0 1-.337-.081.447.447 0 0 1-.18-.24 1.067 1.067 0 0 1-.052-.358v-.79a.971.971 0 0 1 .055-.352.433.433 0 0 1 .18-.226.614.614 0 0 1 .334-.077.607.607 0 0 1 .333.08.458.458 0 0 1 .18.225c.039.113.058.231.055.35v.792c.002.121-.016.241-.055.356a.495.495 0 0 1-.18.24.586.586 0 0 1-.334.081zm0-.24a.267.267 0 0 0 .175-.048.24.24 0 0 0 .079-.132.84.84 0 0 0 .021-.201v-.912a.804.804 0 0 0-.021-.2.24.24 0 0 0-.08-.13.377.377 0 0 0-.35 0 .24.24 0 0 0-.081.13.808.808 0 0 0-.02.2v.912a.843.843 0 0 0 .02.201.24.24 0 0 0 .081.132c.05.04.112.062.175.06v-.012zM48.566 45.72v-2.081h.42a.935.935 0 0 1 .344.055.377.377 0 0 1 .201.178c.047.1.07.209.065.319a.901.901 0 0 1-.024.22.414.414 0 0 1-.084.166.297.297 0 0 1-.149.099l.295 1.044h-.278l-.274-.977h-.225v.977h-.29zm.29-1.186h.104a.587.587 0 0 0 .202-.029.22.22 0 0 0 .112-.105.494.494 0 0 0 .036-.209.425.425 0 0 0-.067-.264.34.34 0 0 0-.264-.08h-.13l.008.687zM49.9 45.72v-2.08h.452a.777.777 0 0 1 .365.072c.088.044.157.12.194.21a.933.933 0 0 1 .058.351v.766c.003.126-.016.252-.058.372a.463.463 0 0 1-.19.24.661.661 0 0 1-.347.079l-.473-.01zm.289-.209h.166c.08.008.16-.014.225-.062a.276.276 0 0 0 .082-.18 2.35 2.35 0 0 0 .014-.283v-.677a1.29 1.29 0 0 0-.022-.261.225.225 0 0 0-.088-.147.406.406 0 0 0-.219-.046h-.158v1.657zM95.04 15.82a7.935 7.935 0 1 1-7.932-7.934 7.896 7.896 0 0 1 7.932 7.934z" fill="#263238"/><path d="M87.103 23.873a8.06 8.06 0 0 1-8.054-8.052 8.051 8.051 0 1 1 8.054 8.052zm0-15.867a7.812 7.812 0 0 0-4.826 13.956 7.715 7.715 0 0 0 4.826 1.68 7.814 7.814 0 0 0 0-15.626v-.01z" fill="#263238"/><path d="M90.415 14.577a3.312 3.312 0 1 0-6.624.005 3.312 3.312 0 0 0 6.624-.005z" fill="#fff"/><path d="M87.103 18.011a3.434 3.434 0 1 1-.004-6.868 3.434 3.434 0 0 1 .004 6.868zm0-6.626a3.194 3.194 0 1 0-.005 6.389 3.194 3.194 0 0 0 .005-6.389z" fill="#263238"/><path d="M92.002 22.056a7.92 7.92 0 0 1-9.8 0 5.016 5.016 0 0 1 9.8 0z" fill="#fff"/><path d="M87.103 23.873a7.94 7.94 0 0 1-4.975-1.724.117.117 0 0 1-.043-.117 5.135 5.135 0 0 1 10.034 0 .117.117 0 0 1-.043.117 8.043 8.043 0 0 1-4.973 1.724zm-4.766-1.865a7.701 7.701 0 0 0 4.766 1.625c1.724 0 3.4-.572 4.764-1.625a4.896 4.896 0 0 0-9.53 0zM82.234 82.435V59.36a10.15 10.15 0 1 1 20.296 0v23.076h4.188V59.36a14.352 14.352 0 0 0-14.337-14.337 14.354 14.354 0 0 0-14.338 14.337v23.076h4.19z" fill="#263238"/><path d="M110.131 72.395H75.958v38.173h34.173V72.396z" fill="#D4D3D4"/><path d="m110.131 75.644-34.173 34.173v.751h3.415l30.758-30.756v-4.168zM75.958 81.902v12.475l21.981-21.981H85.464l-9.506 9.506z" fill="#fff"/><path d="M110.131 110.688H75.958a.122.122 0 0 1-.085-.035.121.121 0 0 1-.035-.085v-38.16a.12.12 0 0 1 .12-.12h34.173a.12.12 0 0 1 .12.12v38.16a.119.119 0 0 1-.12.12zm-34.051-.24h33.931v-37.92H76.08v37.92z" fill="#263238"/><path d="M110.131 72.395h-7.193v38.173h7.193V72.396z" fill="#263238"/><path d="M110.131 110.688h-7.2a.123.123 0 0 1-.085-.035.123.123 0 0 1-.035-.085v-38.16c0-.032.013-.062.035-.085a.12.12 0 0 1 .085-.035h7.2a.12.12 0 0 1 .12.12v38.16a.119.119 0 0 1-.12.12zm-7.073-.24h6.96v-37.92h-6.96v37.92zM90.377 87.5a2.401 2.401 0 1 0-3.331 2.205l-.44 5.2h2.753l-.441-5.2a2.4 2.4 0 0 0 1.459-2.206z" fill="#263238"/><path d="M89.36 95.025h-2.753a.122.122 0 0 1-.115-.08.115.115 0 0 1-.005-.05l.432-5.116a2.515 2.515 0 1 1 2.126 0l.432 5.117a.108.108 0 0 1-.031.091.115.115 0 0 1-.087.038zm-2.624-.24h2.491l-.427-5.07a.12.12 0 0 1 .072-.12 2.275 2.275 0 1 0-1.78 0 .123.123 0 0 1 .074.12l-.43 5.07z" fill="#263238"/><path d="m22.354 87.922-1.86 9.681-2.974 8.854-.735 1.382s-.823 1.2-.91 2.117a1.042 1.042 0 0 0 .889 1.191c.183.026.369.003.54-.068.648-.302.994-1.555 1.123-2.116.13-.562.389-1.556.48-1.901.055-.214.142-.418.26-.605 0 0 5.135-8.551 5.135-8.81 0-.26 2.42-6.57 2.42-6.57l.48.044 1.418 7.04-3.977 8.255s-1.253 1.469-1.166 1.642c.3.388.649.737 1.037 1.039.259.173 1.2 1.68 1.9 1.858.701.177.96.345.823-.216a16.93 16.93 0 0 0-.607-1.68c-.086-.26-.256-2.069-.256-2.069l5.963-7.87-.78-9.725-9.203-1.473z" fill="#fff"/><path d="M16.91 111.286a1.13 1.13 0 0 1-.657-.211 1.206 1.206 0 0 1-.495-1.128c.087-.929.893-2.124.927-2.175l.72-1.373 2.966-8.834 1.855-9.665a.118.118 0 0 1 .135-.096l9.216 1.476a.123.123 0 0 1 .1.11l.778 9.73a.113.113 0 0 1-.024.082l-5.933 7.836c.067.72.188 1.817.24 1.994.027.077.077.207.142.367.187.432.342.876.466 1.33.043.18.067.36-.041.463-.108.103-.312.063-.63-.024a5.117 5.117 0 0 0-.297-.079c-.509-.13-1.104-.871-1.538-1.414a3.62 3.62 0 0 0-.4-.463 5.967 5.967 0 0 1-1.079-1.082c-.035-.075-.122-.24 1.174-1.762l3.96-8.208-1.402-6.919-.295-.026c-.96 2.488-2.352 6.196-2.38 6.448-.03.252-3.6 6.286-5.153 8.864a2.104 2.104 0 0 0-.24.573l-.101.403c-.118.461-.279 1.088-.372 1.496-.194.842-.56 1.905-1.2 2.2-.14.061-.29.09-.442.087zm5.54-23.225-1.839 9.566-2.978 8.88-.742 1.4c-.014.024-.811 1.2-.895 2.073a.96.96 0 0 0 .394.912.866.866 0 0 0 .863.091c.418-.194.802-.936 1.056-2.035.096-.41.257-1.041.375-1.5l.103-.403c.057-.227.15-.444.274-.643 2.01-3.346 5.04-8.443 5.119-8.76 0-.24 1.855-5.11 2.426-6.595a.12.12 0 0 1 .123-.077l.48.043a.125.125 0 0 1 .108.096l1.425 7.044a.12.12 0 0 1 0 .077l-3.977 8.256-.016.026c-.519.607-1.09 1.349-1.14 1.529.291.36.622.686.986.972.17.153.322.324.454.511.39.48.979 1.222 1.41 1.33l.303.081c.13.048.266.075.404.082a.668.668 0 0 0-.032-.24 9.979 9.979 0 0 0-.456-1.294c-.065-.165-.12-.3-.146-.381-.089-.264-.24-1.906-.264-2.093a.13.13 0 0 1 .024-.084l5.935-7.836-.787-9.593-8.99-1.435z" fill="#263238"/><path d="M25.046 109.064c-.49-.431-.957-.888-1.396-1.371-.12.183-.197.324-.173.37.3.388.649.737 1.037 1.039.259.173 1.2 1.68 1.9 1.858.464.115.72.24.821.127-1.404-.37-1.817-1.742-2.189-2.023z" fill="#fff"/><path d="M27.12 111.245a1.82 1.82 0 0 1-.444-.091l-.295-.077c-.51-.129-1.104-.871-1.539-1.413a3.563 3.563 0 0 0-.4-.464 5.967 5.967 0 0 1-1.078-1.082c-.046-.094 0-.218.182-.492a.115.115 0 0 1 .09-.052.12.12 0 0 1 .053.007.118.118 0 0 1 .044.031c.433.478.894.931 1.38 1.356.154.144.285.312.387.496.34.531.809 1.256 1.76 1.505a.12.12 0 0 1 .083.082.112.112 0 0 1 .005.059.119.119 0 0 1-.026.054.241.241 0 0 1-.202.081zm-3.528-3.213c.292.354.622.676.984.96.17.152.322.324.453.511.372.465.924 1.154 1.35 1.313a4.11 4.11 0 0 1-1.083-1.232 1.954 1.954 0 0 0-.326-.434c-.46-.399-.896-.823-1.306-1.272a.644.644 0 0 0-.067.154h-.005z" fill="#263238"/><path d="M18.108 110.002c-.451.454-.98.795-1.54.627-.66-.197-.503-1.2-.327-1.824a3.75 3.75 0 0 0-.365 1.152 1.044 1.044 0 0 0 1.428 1.123c.353-.163.617-.615.804-1.078z" fill="#fff"/><path d="M16.91 111.286c-.236 0-.466-.073-.657-.211a1.202 1.202 0 0 1-.495-1.131c.057-.418.183-.824.375-1.2a.118.118 0 0 1 .062-.067.118.118 0 0 1 .093-.003.119.119 0 0 1 .07.154c-.153.555-.326 1.508.24 1.68.442.132.898-.06 1.426-.588a.125.125 0 0 1 .151-.014.12.12 0 0 1 .046.144c-.24.605-.538.991-.867 1.145a1.06 1.06 0 0 1-.444.091zm-.919-1.236a.96.96 0 0 0 .399.83.866.866 0 0 0 .863.092 1.25 1.25 0 0 0 .48-.5 1.364 1.364 0 0 1-1.2.272.783.783 0 0 1-.542-.694zM22.353 87.922l-1.86 9.681-2.973 8.854s.264.948 1.44.427c.052-.149.12-.292.204-.427 0 0 5.136-8.551 5.136-8.81 0-.26 2.419-6.57 2.419-6.57l.48.044 1.42 7.04-3.976 8.255s.518.871 1.747.55l5.947-7.846-.78-9.725-9.204-1.473z" fill="#263238"/><path d="M25.87 107.16a1.585 1.585 0 0 1-1.33-.676.131.131 0 0 1 0-.116l3.955-8.208-1.401-6.919-.296-.026c-.96 2.489-2.352 6.197-2.38 6.449-.03.252-3.6 6.285-5.153 8.863-.08.128-.145.265-.195.408a.13.13 0 0 1-.064.069 1.295 1.295 0 0 1-1.102.077.972.972 0 0 1-.5-.583.116.116 0 0 1 0-.07l2.977-8.853 1.855-9.665a.118.118 0 0 1 .134-.096l9.207 1.466a.122.122 0 0 1 .1.11l.778 9.73a.113.113 0 0 1-.024.082l-5.947 7.838a.116.116 0 0 1-.065.044c-.179.049-.364.075-.55.076zm-1.088-.748c.128.168.598.679 1.536.453l5.895-7.783-.773-9.586-8.998-1.44-1.838 9.567-2.957 8.832a.74.74 0 0 0 .36.401 1.053 1.053 0 0 0 .854-.063c.054-.14.12-.275.2-.403 2.011-3.346 5.04-8.443 5.119-8.76 0-.24 1.855-5.11 2.426-6.595a.12.12 0 0 1 .123-.077l.48.043a.124.124 0 0 1 .108.096l1.425 7.044a.12.12 0 0 1 0 .077l-3.96 8.194z" fill="#263238"/><path d="m29.652 74.425-1.078.199-4.939 14.362s.936 1.644 3.974 1.617c3.039-.026 3.917-.511 3.917-.511l-.086-8.686 1.245-5.745s-1.927-1.179-3.033-1.236z" fill="#fff"/><path d="M27.53 90.72c-3.01 0-3.96-1.61-3.998-1.68a.118.118 0 0 1 0-.098l4.939-14.359a.115.115 0 0 1 .091-.08l1.078-.198h.029c1.123.055 3.01 1.2 3.088 1.25a.115.115 0 0 1 .056.127l-1.244 5.734.087 8.671a.123.123 0 0 1-.063.108c-.038.02-.943.497-3.974.526h-.089zm-3.77-1.751c.177.254 1.2 1.533 3.84 1.514 2.525-.024 3.547-.367 3.797-.468l-.084-8.606a.09.09 0 0 1 0-.027l1.228-5.664c-.357-.209-1.944-1.116-2.88-1.17l-.993.181-4.908 14.24z" fill="#263238"/><path d="M35.215 70.48a12.22 12.22 0 0 1-.07 1.5c-.067.183-.408.433-.408.594 0 .16.387.794.32.96-.068.165-.752.34-.752.34s-.568 1.114-.842 1.227c-.274.113-1.342-.432-1.342-.432l-.614 1.891s-.271.523-1.296.362c-1.025-.16-1.387-.544-1.44-.794-.053-.25-.158-.32-.022-.593.137-.273.341-.864.341-.864l1.296-2.729.204-1.25s.456-.886 2.139-1.068c1.682-.182 2.486.857 2.486.857z" fill="#fff"/><path d="M30.578 77.067c-.128-.001-.257-.012-.384-.032-1.039-.163-1.473-.569-1.533-.892a1.192 1.192 0 0 0-.044-.164.552.552 0 0 1 .032-.504c.132-.261.333-.844.336-.85l1.293-2.726.202-1.233a.216.216 0 0 1 0-.036c.02-.039.504-.946 2.232-1.133 1.728-.187 2.551.866 2.587.912.016.02.024.046.024.072.011.515-.014 1.031-.077 1.543-.055.116-.13.22-.223.31-.065.072-.175.194-.178.24.034.113.078.223.13.329.149.33.24.54.18.671-.077.176-.5.32-.78.397-.14.268-.597 1.12-.876 1.238-.278.117-.96-.204-1.318-.374l-.57 1.754c-.006.038-.245.478-1.033.478zm.135-6.341-.2 1.228a.135.135 0 0 1 0 .034l-1.296 2.729c0 .012-.203.59-.34.866a.321.321 0 0 0-.02.32c.022.064.04.13.053.196.034.188.353.547 1.332.699.915.141 1.162-.284 1.171-.303l.608-1.867a.123.123 0 0 1 .067-.074.114.114 0 0 1 .1 0c.493.24 1.11.48 1.241.427.133-.053.517-.655.78-1.171a.126.126 0 0 1 .077-.063c.24-.049.468-.142.672-.276-.04-.166-.099-.328-.177-.48a1.346 1.346 0 0 1-.151-.427.72.72 0 0 1 .24-.4c.07-.072.131-.153.18-.24.05-.471.07-.944.06-1.417-.145-.168-.896-.945-2.348-.787-1.452.159-1.98.895-2.042 1.006h-.007z" fill="#263238"/><path d="M34.032 74.057a.061.061 0 0 1-.029 0 .806.806 0 0 1-.658-.648.12.12 0 0 1 .238-.026.588.588 0 0 0 .48.444.123.123 0 0 1 .074.055.12.12 0 0 1 .012.091.122.122 0 0 1-.117.084zM34.692 72a.123.123 0 0 1-.094-.043.588.588 0 0 0-.554-.211.122.122 0 0 1-.154-.128.119.119 0 0 1 .087-.102.824.824 0 0 1 .809.287.125.125 0 0 1-.017.17.134.134 0 0 1-.077.027zM34.349 72.41c-.027.116-.11.197-.19.18-.079-.016-.125-.124-.1-.24.023-.115.107-.199.189-.182.082.017.125.125.1.243zM32.121 74.665l-.66-.59.48 1.228.18-.638z" fill="#263238"/><path d="M31.939 75.423a.12.12 0 0 1-.11-.077l-.48-1.228a.12.12 0 0 1 .043-.142.12.12 0 0 1 .149 0l.66.59a.118.118 0 0 1 .033.123l-.18.636a.122.122 0 0 1-.11.089l-.005.01zm-.182-.924.165.427.065-.22-.23-.207zM31.68 71.574a9.89 9.89 0 0 0 1.18-.48c.24-.161-.088-.684.116-.864.204-.18 1.092-.274 1.57-.116.477.159.499.524.96.456.46-.067 1.022-.432.772-1.07a2.197 2.197 0 0 0-1.615-1.25c-.614-.068-1.25.09-2.047 0-.797-.092-1.613-.387-2.047.48-.435.866-.795 1.797-.636 2.25.158.454.228 1.026.41 1.117.182.091 1.337-.523 1.337-.523z" fill="#263238"/><path d="M30.367 72.221a.22.22 0 0 1-.096-.02c-.168-.083-.24-.361-.333-.72-.041-.155-.082-.316-.135-.465-.146-.42.063-1.185.643-2.345.404-.808 1.116-.7 1.803-.595.122.02.24.039.365.053.379.034.76.034 1.14 0 .301-.026.605-.026.907 0a2.297 2.297 0 0 1 1.711 1.325.801.801 0 0 1-.031.72 1.176 1.176 0 0 1-.835.511.679.679 0 0 1-.62-.216 1.062 1.062 0 0 0-.39-.24c-.454-.151-1.294-.053-1.44.089-.049.043-.025.185 0 .31.033.196.071.441-.126.566-.388.188-.789.348-1.2.48-.499.264-1.094.547-1.363.547zm1.186-3.972a.896.896 0 0 0-.893.535c-.674 1.347-.72 1.92-.631 2.16.055.159.098.324.141.48.056.21.137.526.21.562.11.014.72-.255 1.23-.52h.02a9.44 9.44 0 0 0 1.156-.464c.058-.038.044-.158.015-.324-.029-.166-.065-.398.084-.53.24-.224 1.2-.3 1.68-.137.179.06.343.158.48.288a.45.45 0 0 0 .427.16.96.96 0 0 0 .665-.393.567.567 0 0 0 .014-.511 2.069 2.069 0 0 0-1.514-1.176 4.994 4.994 0 0 0-.867 0 6.71 6.71 0 0 1-1.18 0c-.125-.015-.24-.034-.375-.053a4.482 4.482 0 0 0-.662-.077z" fill="#263238"/><path d="M31.78 71.89s-.09-1.09-.568-.886c-.478.204-.432 1.25-.137 1.454a.413.413 0 0 0 .547-.112" fill="#fff"/><path d="M31.282 72.648a.48.48 0 0 1-.274-.091c-.22-.151-.302-.583-.266-.931a.833.833 0 0 1 .424-.732.363.363 0 0 1 .344.016c.316.19.384.89.39.96a.12.12 0 1 1-.24.022c-.02-.254-.114-.689-.275-.787a.123.123 0 0 0-.125 0 .624.624 0 0 0-.28.535.895.895 0 0 0 .165.72c.199.14.374-.08.381-.089a.12.12 0 0 1 .08-.045.121.121 0 0 1 .12.06.12.12 0 0 1-.01.134.595.595 0 0 1-.434.228z" fill="#263238"/><path d="M28.438 76.645 23.89 91.402s-1.184-.931-1.841-1.57c-.658-.638-.819-.818-.819-.818l1.637-3.614.295-1.16-4.8 3.185-.818-1.615 4.08-3.638s2.5-6.936 2.66-7.027c.158-.092 4.708-.704 4.708-.704l-.555 2.204z" fill="#D4D3D4"/><path d="M23.89 91.522a.123.123 0 0 1-.075-.027s-1.2-.943-1.85-1.577c-.65-.633-.819-.818-.826-.825a.118.118 0 0 1-.02-.127l1.638-3.617.213-.838-4.54 3.012a.122.122 0 0 1-.173-.045l-.819-1.616a.12.12 0 0 1 .027-.144l4.049-3.619c2.505-6.948 2.654-7.032 2.702-7.06.163-.094 3.377-.536 4.752-.72a.122.122 0 0 1 .105.038.125.125 0 0 1 .027.11l-.54 2.206L24 91.44a.12.12 0 0 1-.08.08l-.03.002zm-2.518-2.53c.089.094.305.314.758.754.516.499 1.366 1.188 1.697 1.452L28.32 76.61l.502-2.03c-1.719.24-4.162.58-4.474.665-.216.374-1.68 4.337-2.62 6.96a.143.143 0 0 1-.035.05l-4 3.576.72 1.411 4.684-3.108a.12.12 0 0 1 .18.057.115.115 0 0 1 .003.07l-.298 1.179-1.61 3.552z" fill="#263238"/><path d="M29.417 74.053s-.684-.183-1.025.158c-.341.34-1.591 2.139-1.272 2.319.319.18 1.18-.296 1.18-.296l.137.41.98-2.591z" fill="#fff"/><path d="M28.438 76.764a.12.12 0 0 1-.11-.084l-.092-.274c-.28.14-.876.399-1.174.228a.216.216 0 0 1-.108-.172c-.064-.48 1.068-2.048 1.356-2.336.387-.386 1.11-.199 1.14-.192a.12.12 0 0 1 .075.063.112.112 0 0 1 0 .096l-.965 2.592a.12.12 0 0 1-.122.079zm.57-2.64a.744.744 0 0 0-.53.173c-.403.403-1.38 1.92-1.289 2.143.169.091.72-.125 1.054-.31a.12.12 0 0 1 .103 0 .122.122 0 0 1 .07.072l.029.09.808-2.144a1.732 1.732 0 0 0-.244-.026v.002zM23.162 84.36h-.026a.119.119 0 0 1-.092-.095.118.118 0 0 1 0-.046l1.48-6.8a.123.123 0 0 1 .143-.093.119.119 0 0 1 .093.097.119.119 0 0 1-.002.047l-1.478 6.794a.122.122 0 0 1-.118.096zM26.96 80.288h-.02l-2.32-.41a.113.113 0 0 1-.078-.05.11.11 0 0 1-.019-.09l.137-.75a.114.114 0 0 1 .087-.095.116.116 0 0 1 .045-.002l2.297.271a.12.12 0 0 1 .103.135.113.113 0 0 1-.044.08.116.116 0 0 1-.088.023l-2.184-.26-.096.522 2.093.37.086-.306a.12.12 0 0 1 .056-.071.116.116 0 0 1 .09-.01.12.12 0 0 1 .084.146l-.112.41a.122.122 0 0 1-.118.087z" fill="#263238"/><path d="M24.444 78.401a.12.12 0 0 1-.118-.098c0-.055-.24-1.366-.297-2.093a.12.12 0 0 1 .24-.02c.053.72.295 2.055.297 2.07a.122.122 0 0 1-.098.139l-.024.002zM24.206 78.64s-.403-.676-.674-1.106a.122.122 0 0 1 .13-.181.117.117 0 0 1 .074.054c.271.432.677 1.109.677 1.109l-.207.125z" fill="#263238"/><path d="M31.507 76.56s-1.118 4.7-1.09 6.132c.03 1.433.406 9.027.406 9.027s1.457-.271 1.702-.353l1.188-.377s-1.65-5.352-1.65-5.539c0-.187.298-1.46.298-1.46s.975 2.19 1.11 2.35c.134.161 3.856 1.841 3.856 1.841l.331-1.975-2.352-2.16s-.51-4.08-.51-4.404c0-.324.133-2.378.133-2.378l-2.944-2.324-.478 1.62z" fill="#D4D3D4"/><path d="M30.82 91.831a.123.123 0 0 1-.074-.026.112.112 0 0 1-.043-.089c0-.077-.379-7.61-.405-9.029-.027-1.418 1.048-5.97 1.094-6.163l.48-1.622a.12.12 0 0 1 .077-.082.12.12 0 0 1 .113.022l2.944 2.323a.117.117 0 0 1 .046.1c0 .022-.134 2.055-.134 2.372 0 .24.326 2.926.506 4.346l2.318 2.132a.12.12 0 0 1 .036.108l-.338 1.97a.12.12 0 0 1-.06.086.123.123 0 0 1-.108 0c-1.126-.506-3.76-1.706-3.9-1.872-.14-.165-.684-1.396-.977-2.05-.103.457-.216.982-.216 1.083.024.195.996 3.399 1.644 5.503a.12.12 0 0 1-.079.15s-.943.297-1.186.378c-.242.082-1.658.344-1.718.356l-.02.004zm.805-15.247c-.034.14-1.114 4.714-1.087 6.099.024 1.308.345 7.85.398 8.88.48-.09 1.375-.264 1.55-.322.176-.058.819-.262 1.078-.343-.425-1.375-1.62-5.28-1.62-5.46 0-.18.271-1.356.302-1.488a.115.115 0 0 1 .106-.091.125.125 0 0 1 .12.07c.372.837.996 2.207 1.09 2.322.146.128 2.272 1.112 3.672 1.745l.295-1.759-2.302-2.117a.113.113 0 0 1-.038-.074c-.022-.166-.514-4.08-.514-4.419 0-.338.108-1.97.13-2.323L32.05 75.13l-.425 1.454z" fill="#263238"/><path d="M40.517 87.51s-1.179.256-1.481.285a3.457 3.457 0 0 1-1.135-.12c-.257-.091-.756-.288-.756-.288a.806.806 0 0 1-.03-.468c.075-.165.48-.151.48-.151l2.557.257.365.484z" fill="#fff"/><path d="M38.849 87.925c-.334 0-.666-.045-.987-.137-.259-.091-.76-.288-.76-.288a.121.121 0 0 1-.07-.072.918.918 0 0 1-.026-.56c.103-.227.518-.222.597-.22l2.563.257a.133.133 0 0 1 .084.048l.363.48a.118.118 0 0 1-.018.162.124.124 0 0 1-.054.027c-.048 0-1.188.257-1.493.288-.06.01-.127.015-.2.015zm-1.606-.627c.134.053.494.192.698.264.353.096.718.135 1.083.116.22-.024.943-.173 1.284-.24l-.218-.29-2.504-.267c-.156 0-.34.033-.362.081a.633.633 0 0 0 .02.336zM32.361 84.103h-.03a.122.122 0 0 1-.085-.149l1.325-4.8a.123.123 0 0 1 .104-.09.124.124 0 0 1 .124.06.122.122 0 0 1 .012.095l-1.325 4.8a.12.12 0 0 1-.124.084zM32.685 81.185h-.03l-1.405-.379a.118.118 0 0 1-.089-.13l.082-.65a.126.126 0 0 1 .053-.084.123.123 0 0 1 .096-.017l1.593.406a.12.12 0 0 1 .09.1.12.12 0 0 1-.003.046.117.117 0 0 1-.144.087l-1.464-.372-.05.41 1.303.35a.12.12 0 1 1-.032.24v-.007z" fill="#263238"/><path d="M33.173 81.346a.124.124 0 0 1-.07-.022.12.12 0 0 1-.029-.166l.811-1.164a.12.12 0 1 1 .197.14l-.811 1.161a.118.118 0 0 1-.098.05z" fill="#263238"/><path d="m31.39 77.309.297-.298s.674.783.811.54c.137-.242.403-.864.187-1.89-.216-1.028-.564-.997-.564-.997l-.614 1.896-.118.749z" fill="#fff"/><path d="M32.42 77.717c-.217 0-.546-.319-.738-.53l-.208.206a.12.12 0 0 1-.14.022.117.117 0 0 1-.062-.125l.118-.756.619-1.906a.115.115 0 0 1 .103-.081c.074 0 .466.012.691 1.09.214 1.015-.033 1.68-.201 1.972a.203.203 0 0 1-.161.108h-.022zm-.74-.825a.119.119 0 0 1 .086.04c.17.222.382.407.624.545a2.606 2.606 0 0 0 .166-1.793c-.115-.55-.271-.78-.37-.861l-.576 1.766-.057.375.036-.039a.13.13 0 0 1 .091-.033z" fill="#263238"/><path d="m46.545 88.21-1.42 9.6-3.257 9.343s-1.123 1.2-1.44 2.559c-.317 1.358.58 1.44 1.046 1.084.466-.355 1.589-3.333 1.627-3.487.039-.153 4.899-8.429 4.97-8.534.073-.106 2.4-6.903 2.4-6.903l1.705 6.67 3.533 9.698s.24 1.668.816 2.328c.576.66 1.44 1.124 1.588.543.15-.581.039-1.591-.388-2.055a17.08 17.08 0 0 1-1.085-1.44l-1.241-10.003-.768-9.36-8.086-.043z" fill="#fff"/><path d="M57.782 111.487c-.41 0-.96-.42-1.348-.847-.579-.655-.816-2.208-.843-2.378l-3.511-9.68-1.608-6.29c-.756 2.199-2.215 6.44-2.287 6.547-.041.063-4.831 8.218-4.951 8.504-.027.115-1.16 3.163-1.68 3.547a.878.878 0 0 1-.96.091c-.226-.146-.454-.48-.27-1.301.296-1.296 1.297-2.429 1.44-2.594l3.248-9.322 1.414-9.573a.122.122 0 0 1 .12-.101l8.085.045a.12.12 0 0 1 .12.11l.768 9.36 1.236 9.97c.328.484.681.951 1.059 1.397.453.495.583 1.539.415 2.16a.433.433 0 0 1-.324.339.505.505 0 0 1-.123.016zm-7.305-19.735a.12.12 0 0 1 .11.091l1.707 6.668 3.523 9.681v.024c0 .017.24 1.639.785 2.263.43.48.972.824 1.236.761.045-.012.112-.041.148-.168.152-.566.03-1.519-.362-1.944-.39-.46-.756-.94-1.094-1.44a.109.109 0 0 1-.022-.053l-1.24-10.003-.76-9.25-7.871-.045-1.404 9.492-3.262 9.36a.123.123 0 0 1-.026.043s-1.107 1.2-1.407 2.503c-.12.528-.06.898.166 1.047a.645.645 0 0 0 .694-.084c.42-.315 1.528-3.209 1.584-3.423.055-.213 4.932-8.498 4.977-8.565.082-.163 1.476-4.203 2.4-6.874a.123.123 0 0 1 .118-.084z" fill="#263238"/><path d="m55.4 97.61-.769-9.36-8.085-.045-1.421 9.6-2.573 7.382 1.495.464c1.423-2.458 3.97-6.792 4.025-6.876.055-.084 2.4-6.903 2.4-6.903l1.704 6.67 2.798 7.68 1.428-.48-1.003-8.131z" fill="#263238"/><path d="M54.98 106.347a.122.122 0 0 1-.114-.08l-2.798-7.68-1.608-6.29c-.756 2.198-2.215 6.44-2.287 6.547-.072.108-2.573 4.356-4.013 6.867a.12.12 0 0 1-.14.055l-1.495-.463a.125.125 0 0 1-.072-.063.111.111 0 0 1 0-.093l2.573-7.383 1.414-9.573a.123.123 0 0 1 .12-.101l8.085.045a.12.12 0 0 1 .12.11l.768 9.36 1.008 8.132a.116.116 0 0 1-.017.078.114.114 0 0 1-.064.049l-1.428.48-.053.003zm-4.503-14.595a.12.12 0 0 1 .11.091l1.706 6.668 2.758 7.569 1.227-.413-.999-8.037-.758-9.245-7.872-.046-1.404 9.492-2.54 7.289 1.287.396c1.425-2.46 3.922-6.72 3.98-6.799.08-.163 1.475-4.202 2.4-6.874a.123.123 0 0 1 .105-.09zM41.482 110.791c.24-.18.66-1.07 1.012-1.908l-.818.941-.96-.271.168-.982c-.195.358-.343.74-.44 1.135-.32 1.359.572 1.436 1.038 1.085z" fill="#263238"/><path d="M40.968 111.089a.687.687 0 0 1-.382-.108c-.225-.146-.453-.48-.268-1.301.098-.406.25-.797.45-1.164a.12.12 0 0 1 .224.075l-.149.873.792.224.768-.884a.12.12 0 0 1 .154-.023.12.12 0 0 1 .048.148c-.48 1.135-.833 1.795-1.051 1.961-.17.125-.375.195-.586.199zm-.38-1.507c-.014.05-.026.101-.038.151-.12.528-.06.898.166 1.047a.647.647 0 0 0 .694-.084c.067-.051.254-.264.66-1.143l-.31.348a.117.117 0 0 1-.122.039l-.96-.272a.125.125 0 0 1-.089-.086zM58.114 111.103c.153-.583.038-1.591-.39-2.054l-.09-.106.208 1.306-.775.271-1.231-1.629c.122.54.346 1.279.689 1.68.58.648 1.433 1.113 1.589.532z" fill="#263238"/><path d="M57.782 111.487c-.41 0-.96-.42-1.348-.847-.39-.427-.588-1.162-.72-1.723a.117.117 0 0 1 .063-.141.117.117 0 0 1 .148.042l1.18 1.56.598-.208-.192-1.2a.12.12 0 0 1 .067-.128.123.123 0 0 1 .142.032l.089.1c.453.495.583 1.539.415 2.16a.434.434 0 0 1-.324.339.517.517 0 0 1-.118.014zm-1.68-2.033c.099.372.27.72.502 1.025.43.48.972.823 1.236.761.045-.012.113-.041.149-.168a2.696 2.696 0 0 0-.166-1.646l.127.804a.12.12 0 0 1-.079.132l-.766.278a.116.116 0 0 1-.073.001.118.118 0 0 1-.06-.042l-.87-1.145z" fill="#263238"/><path d="M46.545 88.21s1.666 2.945 3.977 3.077c2.311.131 4.109-3.032 4.109-3.032l-7.934-.316-.152.27z" fill="#fff"/><path d="M50.666 91.411h-.15c-2.35-.134-4.006-3.017-4.08-3.139a.127.127 0 0 1 0-.118l.15-.27a.122.122 0 0 1 .11-.06l7.935.316a.123.123 0 0 1 .1.063.12.12 0 0 1 0 .117c-.069.123-1.78 3.091-4.065 3.091zm-3.984-3.204c.24.408 1.805 2.842 3.84 2.96 1.92.11 3.483-2.16 3.893-2.801l-7.658-.305-.075.146z" fill="#263238"/><path d="M49.164 77.04s-2.604 1.267-2.619 1.44c-.014.173-1.766 7.114-1.766 7.114s-.622 1.39.16 1.826c.783.437 2.18-1.013 2.18-1.013l-.574 1.815c1.375.62 2.855.98 4.361 1.056 1.92.098 3.725-1.01 3.725-1.01l-.276-1.92s1.613 1.086 2.187.834c.573-.252 1.005-.765 1.005-1.108 0-.344-.273-.437-.734-.944-.461-.506-1.217-3.01-1.217-3.01s-.643-3.443-.804-3.72c-.16-.275-2.16-1.17-2.16-1.17l-3.468-.19z" fill="#D4D3D4"/><path d="M51.156 89.393H50.9a12.323 12.323 0 0 1-4.41-1.073.118.118 0 0 1-.06-.141l.436-1.38c-.48.417-1.378 1.058-1.987.72-.867-.48-.24-1.92-.211-1.978.592-2.367 1.73-6.922 1.756-7.082 0-.073.032-.224 2.686-1.515a.1.1 0 0 1 .058-.012l3.47.185a.093.093 0 0 1 .043 0c.48.213 2.045.933 2.213 1.221.168.288.72 3.18.818 3.759.257.845.84 2.568 1.2 2.952.144.158.274.278.377.374.24.219.389.363.389.648 0 .41-.48.96-1.078 1.217-.499.22-1.593-.396-2.078-.698l.24 1.646a.117.117 0 0 1-.055.118c-.084.048-1.707 1.039-3.552 1.039zm-4.464-1.248a12.19 12.19 0 0 0 4.221 1c1.68.085 3.248-.758 3.6-.96l-.264-1.826a.123.123 0 0 1 .053-.12.12.12 0 0 1 .132 0c.603.406 1.697.99 2.071.823.552-.24.934-.72.934-.998 0-.173-.08-.257-.312-.48-.106-.098-.24-.223-.391-.389-.48-.52-1.2-2.952-1.243-3.055-.24-1.337-.684-3.509-.792-3.696-.108-.187-1.126-.681-2.086-1.114l-3.415-.163c-.96.48-2.362 1.186-2.53 1.35-.108.491-1.589 6.402-1.761 7.094-.015.033-.576 1.315.1 1.691.574.322 1.664-.607 2.036-.99a.12.12 0 0 1 .198.04c.01.026.011.053.003.08l-.554 1.713z" fill="#263238"/><path d="M47.12 86.515h-.02a.12.12 0 0 1-.098-.14l.873-5.15-.444-1.355a.123.123 0 0 1 .077-.152.125.125 0 0 1 .154.077l.45 1.382a.155.155 0 0 1 0 .058l-.88 5.182a.12.12 0 0 1-.113.098zM54.355 86.467a.12.12 0 0 1-.12-.11l-.324-5.189a.214.214 0 0 1 0-.04l.32-1.09a.12.12 0 0 1 .102-.086.12.12 0 0 1 .046.004.117.117 0 0 1 .087.102.118.118 0 0 1-.005.047l-.312 1.068.33 5.167a.116.116 0 0 1-.028.088.118.118 0 0 1-.084.04h-.012zM51.02 88.193a16.396 16.396 0 0 1-4.306-.566.12.12 0 0 1-.07-.197.122.122 0 0 1 .09-.041c.017 0 .034.003.05.01.04 0 3.92 1.17 7.72.105a.124.124 0 0 1 .152.088.124.124 0 0 1-.087.152c-1.158.31-2.352.461-3.55.45z" fill="#263238"/><path d="M17.834 83.876c-.291.06-.579.136-.861.228-.152.077-.178.382-.382.509-.204.127-.506.305-.329.432.178.127.547.22.72-.029.183-.223.437-.377.72-.434" fill="#fff"/><path d="M16.66 85.291a.842.842 0 0 1-.48-.15.216.216 0 0 1-.1-.18c0-.171.211-.298.41-.423l.029-.02a.576.576 0 0 0 .173-.24.545.545 0 0 1 .228-.278c.291-.1.588-.18.89-.24a.121.121 0 0 1 .124.05.119.119 0 0 1 .018.044.116.116 0 0 1-.048.123.118.118 0 0 1-.043.018 6.876 6.876 0 0 0-.836.219.482.482 0 0 0-.11.165.76.76 0 0 1-.26.341l-.028.02a1.328 1.328 0 0 0-.29.215c.139.092.427.176.559 0 .185-.252.698-.537.857-.48a.119.119 0 0 1 .067.064.116.116 0 0 1 0 .092.123.123 0 0 1-.135.075c-.23.07-.436.203-.595.384a.508.508 0 0 1-.43.201z" fill="#263238"/><path d="M43.625 87.36a.886.886 0 0 1-.43-.141 1.398 1.398 0 0 0-.554-.206c-.144-.034-.096-.161.11-.24.257-.07.53-.059.78.03.104.043.201.102.286.176l-.192.382z" fill="#fff"/><path d="M43.625 87.483a.992.992 0 0 1-.497-.169 1.185 1.185 0 0 0-.48-.175h-.036a.202.202 0 0 1-.178-.175c0-.113.094-.223.272-.293.286-.08.59-.068.868.034.12.046.23.115.324.201a.125.125 0 0 1 .024.14l-.192.381a.118.118 0 0 1-.105.055zm-.886-.572c.191.033.373.106.533.216a.688.688 0 0 0 .283.108l.11-.22a.885.885 0 0 0-.182-.097 1.182 1.182 0 0 0-.689-.03l-.055.023z" fill="#263238"/><path d="M78.01 84.895H34.258v2.021H78.01v-2.02z" fill="url(#c)"/><path d="M78 87.036H34.258a.12.12 0 0 1-.12-.12v-2.02a.12.12 0 0 1 .12-.12H78a.12.12 0 0 1 .12.12v2.02a.12.12 0 0 1-.12.12zm-43.63-.24h43.517v-1.78h-43.51l-.007 1.78z" fill="#263238"/><path d="M26.376 76.827a9.083 9.083 0 1 0-.004 18.165 9.083 9.083 0 0 0 .004-18.165zm0 15.785a6.706 6.706 0 1 1-.004-13.412 6.706 6.706 0 0 1 .004 13.412z" fill="url(#d)"/><path d="M26.376 95.107a9.201 9.201 0 1 1 9.2-9.201 9.212 9.212 0 0 1-9.2 9.201zm0-18.16a8.962 8.962 0 1 0 8.96 8.959 8.971 8.971 0 0 0-8.96-8.96zm0 15.784a6.825 6.825 0 1 1 6.823-6.825 6.833 6.833 0 0 1-6.823 6.825zm0-13.408a6.585 6.585 0 1 0-.005 13.17 6.585 6.585 0 0 0 .005-13.17z" fill="#263238"/><path d="M70.142 84.895v9.478H72v-.053a2.2 2.2 0 0 1 4.401 0v.053H78v-9.478h-7.858z" fill="url(#e)"/><path d="M78 94.493h-1.606a.115.115 0 0 1-.086-.036.12.12 0 0 1-.034-.086v-.03a2.082 2.082 0 1 0-4.159-.02v.05a.11.11 0 0 1-.033.086.116.116 0 0 1-.087.036h-1.862a.12.12 0 0 1-.12-.12v-9.478a.12.12 0 0 1 .12-.12H78a.12.12 0 0 1 .12.12v9.478a.12.12 0 0 1-.12.12zm-1.483-.24h1.363v-9.238h-7.618v9.238h1.623a2.32 2.32 0 0 1 4.639 0h-.007z" fill="#263238"/><path d="M59.916 84.895v5.441h1.068v-.03a1.262 1.262 0 1 1 2.525 0v.03h.921v-5.44h-4.514z" fill="url(#f)"/><path d="M64.43 90.456h-.921a.122.122 0 0 1-.087-.036.121.121 0 0 1-.033-.089l.12-.026h-.12a1.142 1.142 0 0 0-2.285 0c0 .067-.053.151-.12.151h-1.068a.12.12 0 0 1-.12-.12v-5.44a.12.12 0 0 1 .12-.12h4.514a.12.12 0 0 1 .12.12v5.44a.12.12 0 0 1-.12.12zm-.804-.24h.694v-5.2h-4.284v5.2h.83a1.383 1.383 0 0 1 2.76 0zM52.337 69.89s.63-.516.343-1.031c-.288-.516-1.548-1.28-2.064-1.09-.516.19-1.529 1.262-1.606 1.663-.076.4.72.96.879.977.158.017 1.454-.747 2.448-.519z" fill="#263238"/><path d="M49.896 70.53h-.022a1.937 1.937 0 0 1-.833-.64.615.615 0 0 1-.148-.48c.086-.455 1.14-1.552 1.68-1.751.588-.221 1.92.605 2.21 1.142.331.598-.343 1.16-.374 1.183a.111.111 0 0 1-.101.024c-.696-.16-1.57.202-2.04.394a1.288 1.288 0 0 1-.372.127zm.912-2.67a.475.475 0 0 0-.151.022c-.48.182-1.464 1.229-1.53 1.574-.057.305.649.807.779.833.021 0 .153-.06.273-.108.48-.199 1.366-.564 2.122-.42.124-.117.48-.492.276-.842-.245-.44-1.253-1.059-1.77-1.059z" fill="#263238"/><path d="M51.093 69.72s-2.064.574-2.64 1.68c-.576 1.106-.611 1.356-.288 1.891.325.535 1.129 1.493 1.875 1.875.746.381 3.12-.173 3.12-.173s.72-.324.96-.898c.24-.573.744-1.377.4-2.237-.343-.859-1.874-2.044-2.351-2.179a2.285 2.285 0 0 0-1.075.041z" fill="#263238"/><path d="M50.88 75.42a2.061 2.061 0 0 1-.888-.146c-.758-.389-1.58-1.354-1.92-1.92-.372-.61-.279-.927.283-2.009.588-1.14 2.616-1.716 2.71-1.742.37-.104.76-.117 1.137-.039.54.152 2.079 1.37 2.43 2.25.304.76-.013 1.458-.267 2.018-.048.108-.096.21-.135.307-.24.612-.986.96-1.017.96-.766.182-1.547.29-2.333.321zm.878-5.669c-.215.003-.43.032-.638.09-.022 0-2.023.573-2.566 1.622-.578 1.118-.573 1.308-.29 1.773.326.54 1.109 1.462 1.826 1.83.579.297 2.386-.032 3.034-.18 0 0 .665-.31.871-.829.04-.098.089-.204.14-.317.24-.518.527-1.164.26-1.83-.33-.834-1.845-1.988-2.27-2.108a1.439 1.439 0 0 0-.371-.05h.004z" fill="#263238"/><path d="M52.596 71.17s-1.03.633-1.558 1.003a5.166 5.166 0 0 1-1.161.58.687.687 0 0 0-.37.766c.106.555.305 2.47.305 2.47l-.358.778 1.532 1.68 1.214-1.584.132-.819s1.109-.686 1.135-.844c.026-.159.343-2.48.317-2.72-.026-.24-1.188-1.31-1.188-1.31z" fill="#fff"/><path d="M50.986 78.576a.126.126 0 0 1-.09-.038l-1.53-1.68a.12.12 0 0 1-.02-.132l.344-.747c-.027-.257-.204-1.92-.3-2.426a.804.804 0 0 1 .439-.9c.403-.14.787-.332 1.142-.569.523-.367 1.553-1 1.563-1.006a.115.115 0 0 1 .144.015c.36.333 1.2 1.14 1.226 1.394.026.255-.302 2.652-.317 2.75 0 .053-.036.21-1.145.9l-.122.764a.162.162 0 0 1-.024.055l-1.214 1.584a.114.114 0 0 1-.092.046l-.004-.01zm-1.39-1.831 1.382 1.524 1.11-1.44.126-.79a.115.115 0 0 1 .056-.081 6.426 6.426 0 0 0 1.084-.78c.027-.17.334-2.46.312-2.67-.03-.129-.573-.7-1.084-1.182-.24.153-1.04.645-1.474.96-.373.249-.776.45-1.2.597a.564.564 0 0 0-.29.629c.105.552.3 2.4.307 2.48a.11.11 0 0 1 0 .062l-.329.69z" fill="#263238"/><path d="M52.49 74.4a.125.125 0 0 1-.117-.088.125.125 0 0 1 .084-.149 1.41 1.41 0 0 0 .48-.223c0-.055-.147-.24-.197-.315-.087-.105-.13-.158-.13-.225s.048-.519.058-.605a.125.125 0 0 1 .134-.108.123.123 0 0 1 .106.134c-.022.178-.05.468-.058.557l.075.096c.15.185.377.466.172.646-.17.125-.36.219-.564.276l-.043.005zM52.404 74.92a.843.843 0 0 1-.583-.357.12.12 0 0 1 .111-.166c.032 0 .063.013.085.035.26.274.406.257.44.228a.116.116 0 0 1 .084-.035.117.117 0 0 1 .084.035.119.119 0 0 1 .026.131.12.12 0 0 1-.026.04.308.308 0 0 1-.224.09l.003-.002zM52.332 76.054a1.922 1.922 0 0 1-.607-.158c-.173-.115-.67-.5-.67-.5l.975 1.68.17-.206.132-.816z" fill="#263238"/><path d="M52.03 77.199a.113.113 0 0 1-.094-.06l-.974-1.68a.12.12 0 0 1 .177-.156s.495.381.663.492c.174.079.36.127.552.141a.114.114 0 0 1 .084.046c.02.026.028.059.024.091l-.132.819a.158.158 0 0 1-.027.057l-.17.207a.12.12 0 0 1-.103.043zm-.574-1.359.593 1.02.038-.048.108-.664a1.568 1.568 0 0 1-.537-.164.803.803 0 0 1-.202-.144z" fill="#263238"/><path d="M50.08 73.255s-.362-1.09-.784-.48c-.422.61.24 1.474.574 1.455" fill="#fff"/><path d="M49.86 74.352c-.24 0-.502-.271-.648-.528a1.027 1.027 0 0 1-.012-1.104.43.43 0 0 1 .41-.24c.339.048.547.627.586.744a.12.12 0 0 1-.075.151.12.12 0 0 1-.15-.076c-.077-.224-.24-.562-.394-.581-.065 0-.132.067-.178.134a.822.822 0 0 0 .026.86c.152.268.353.405.44.405a.12.12 0 0 1 .014.24l-.02-.005zM51.83 73.429c.09 0 .163-.104.163-.23 0-.128-.073-.231-.163-.231-.09 0-.163.103-.163.23s.073.23.163.23zM53.263 73.429c.09 0 .163-.104.163-.23 0-.128-.073-.231-.163-.231-.09 0-.163.103-.163.23s.073.23.163.23zM51.4 72.822a.12.12 0 0 1-.086-.204.784.784 0 0 1 .948-.096.12.12 0 1 1-.12.208.542.542 0 0 0-.657.058.118.118 0 0 1-.084.034zM53.58 72.898a.122.122 0 0 1-.118-.086.193.193 0 0 0-.1-.135.553.553 0 0 0-.37.022.12.12 0 1 1-.089-.223c.18-.075.38-.08.564-.015a.449.449 0 0 1 .228.284.119.119 0 0 1-.042.127.12.12 0 0 1-.042.021.07.07 0 0 1-.031.005z" fill="#263238"/><path d="m49.45 76.182 1.339 1.701-.92.994-1.032-1.855.612-.84z" fill="#fff"/><path d="M49.87 78.996h-.015a.12.12 0 0 1-.089-.062l-1.032-1.853a.115.115 0 0 1 0-.13l.612-.84a.117.117 0 0 1 .095-.047.116.116 0 0 1 .095.048l1.344 1.696a.12.12 0 0 1 0 .156l-.922.996a.122.122 0 0 1-.088.036zm-.89-1.956.914 1.642.736-.797-1.176-1.495-.475.65z" fill="#263238"/><path d="m50.789 77.883.197.573-.466-.23.269-.343z" fill="#fff"/><path d="M50.986 78.576a.107.107 0 0 1-.053 0l-.466-.24a.13.13 0 0 1-.065-.082.113.113 0 0 1 .024-.098l.267-.346a.123.123 0 0 1 .173-.016.118.118 0 0 1 .035.052l.197.574a.12.12 0 0 1-.033.13.12.12 0 0 1-.08.026zm-.281-.391.072.036-.032-.091-.04.055z" fill="#263238"/><path d="m51.266 77.595.65 1.282.994-1.683-.67-.535-.974.936z" fill="#fff"/><path d="M51.917 78.997a.123.123 0 0 1-.104-.065l-.65-1.282a.12.12 0 0 1 .024-.141l.974-.936a.12.12 0 0 1 .159 0l.67.535a.125.125 0 0 1 .028.156l-.993 1.68a.12.12 0 0 1-.108.053zm-.504-1.375.51 1.005.831-1.404-.506-.403-.835.802z" fill="#263238"/><path d="m51.266 77.595-.28.861.47-.458-.19-.403z" fill="#fff"/><path d="M50.986 78.576a.116.116 0 0 1-.113-.077.118.118 0 0 1 0-.078l.278-.862a.126.126 0 0 1 .108-.084.117.117 0 0 1 .115.07l.192.4a.117.117 0 0 1-.026.137l-.48.46a.125.125 0 0 1-.075.034zm.302-.657-.038.113.062-.06-.024-.053z" fill="#263238"/><path d="M43.694 86.4s-.27.77-.197.876c.075.106.341.24.413 0 .072-.24.144-.816.05-.977-.093-.16-.266.101-.266.101z" fill="#fff"/><path d="M43.745 87.54a.462.462 0 0 1-.344-.187c-.03-.043-.112-.156.178-.986v-.024c.034-.05.149-.216.295-.216a.206.206 0 0 1 .173.11c.13.216.029.845-.036 1.07a.288.288 0 0 1-.24.24l-.026-.006zm.057-1.08c-.1.25-.166.51-.197.776.042.036.094.059.15.065.016 0 .03-.024.04-.058.08-.278.104-.57.072-.857a.334.334 0 0 0-.065.075z" fill="#263238"/><path d="M44.121 86.64s-.268.77-.194.879c.075.108.34.24.413 0 .072-.24.144-.819.048-.977-.096-.159-.267.098-.267.098z" fill="#fff"/><path d="M44.174 87.778a.48.48 0 0 1-.343-.184c-.031-.044-.113-.159.178-.99v-.023c.033-.05.148-.214.292-.214a.2.2 0 0 1 .176.108c.13.216.029.845-.036 1.073a.289.289 0 0 1-.24.226.198.198 0 0 1-.027.004zm.058-1.077c-.1.248-.166.507-.197.773.04.039.093.062.149.064.017 0 .031-.021.04-.057.079-.279.103-.57.073-.857a.417.417 0 0 0-.065.077z" fill="#263238"/><path d="M44.678 86.614s-.268.77-.194.876c.074.106.34.24.413 0 .072-.24.144-.816.048-.974-.096-.159-.267.098-.267.098z" fill="#fff"/><path d="M44.731 87.747a.479.479 0 0 1-.345-.187c-.03-.04-.11-.156.18-.987a.073.073 0 0 1 .012-.023c.033-.05.148-.214.292-.214a.2.2 0 0 1 .176.108c.13.216.028.845-.036 1.07a.291.291 0 0 1-.24.228l-.039.005zm.055-1.08a3.1 3.1 0 0 0-.194.775c.042.037.094.06.149.065.017 0 .031-.024.04-.058a2.29 2.29 0 0 0 .073-.856.413.413 0 0 0-.068.074z" fill="#263238"/><path d="M45.12 86.75s-.206.656-.149.745c.058.089.26.209.315 0 .072-.27.084-.553.035-.828-.07-.142-.201.084-.201.084z" fill="#fff"/><path d="M45.163 87.73a.37.37 0 0 1-.29-.17c-.027-.041-.087-.138.134-.846v-.023c.034-.058.127-.195.252-.195a.177.177 0 0 1 .158.106c.108.199 0 .77-.026.914a.24.24 0 0 1-.204.211l-.024.003zm.07-.93c-.075.211-.125.43-.15.651a.194.194 0 0 0 .078.039v-.031c.051-.217.073-.44.064-.663l.008.005z" fill="#263238"/><path d="M17.52 85.232s-.814-.154-.886-.031c-.072.122-.113.497.149.528.262.03.814-.02.929-.18.115-.161-.192-.317-.192-.317z" fill="#fff"/><path d="M16.937 85.855c-.06.004-.12.004-.18 0a.323.323 0 0 1-.264-.182.618.618 0 0 1 .024-.523c.033-.056.115-.197 1.012-.027h.032c.038.022.24.125.278.288a.255.255 0 0 1-.04.207c-.133.182-.572.237-.862.237zm-.221-.573a.373.373 0 0 0 0 .273.087.087 0 0 0 .077.053c.293.034.75-.04.816-.13 0-.03-.06-.09-.135-.131a2.642 2.642 0 0 0-.758-.065z" fill="#263238"/><path d="M17.431 85.843s-.811-.156-.886-.03c-.074.124-.11.496.152.525.261.029.81-.017.928-.18.118-.163-.194-.315-.194-.315z" fill="#fff"/><path d="M16.862 86.468c-.06.003-.12.003-.18 0a.33.33 0 0 1-.264-.185.61.61 0 0 1 .024-.523c.032-.053.116-.195 1.013-.024h.031a.54.54 0 0 1 .276.288.242.242 0 0 1-.04.204c-.13.184-.57.24-.86.24zm-.223-.576a.403.403 0 0 0 0 .276.092.092 0 0 0 .077.052c.295.032.753-.04.818-.132 0-.028-.062-.09-.134-.13a2.78 2.78 0 0 0-.76-.066z" fill="#263238"/><path d="M17.652 86.55s-.811-.154-.886-.032c-.074.122-.11.497.151.528.262.031.812-.02.93-.18.117-.16-.195-.317-.195-.317z" fill="#fff"/><path d="M17.083 87.174h-.18a.33.33 0 0 1-.264-.185.62.62 0 0 1 .024-.523c.031-.053.118-.197 1.013-.027h.031c.038.022.24.127.276.288a.24.24 0 0 1-.04.207c-.13.187-.57.24-.86.24zm-.223-.574a.396.396 0 0 0 0 .274.091.091 0 0 0 .079.052c.293.034.751-.038.816-.13 0-.03-.067-.095-.134-.131a2.638 2.638 0 0 0-.761-.065z" fill="#263238"/><path d="M17.676 87.154s-.682-.1-.744 0c-.063.101-.106.382.113.399.218.016.686-.032.787-.159.1-.127-.156-.24-.156-.24z" fill="#fff"/><path d="M17.134 87.672h-.099a.279.279 0 0 1-.24-.158.48.48 0 0 1 .038-.427c.032-.048.106-.159.862-.048h.031c.048.019.212.098.24.24a.216.216 0 0 1-.043.187c-.13.163-.56.206-.79.206zm-.113-.436a.24.24 0 0 0 0 .167s0 .024.045.027c.23.016.459-.02.672-.103a.34.34 0 0 0-.084-.058 2.664 2.664 0 0 0-.633-.034z" fill="#263238"/><path d="M57.799 86.4s.269.77.194.876c-.074.106-.34.24-.412 0-.072-.24-.144-.816-.048-.977.096-.16.266.101.266.101z" fill="#fff"/><path d="M57.746 87.54h-.05a.29.29 0 0 1-.24-.24c-.065-.226-.166-.855-.036-1.07a.206.206 0 0 1 .173-.11c.144 0 .259.165.293.215l.012.024c.29.83.208.943.177.987a.462.462 0 0 1-.329.194zm-.122-1.155c-.03.288-.006.579.072.857a.06.06 0 0 0 .04.058.24.24 0 0 0 .16-.087 4.058 4.058 0 0 0-.207-.753.403.403 0 0 0-.065-.075z" fill="#263238"/><path d="M57.36 86.64s.269.77.194.879c-.074.108-.34.24-.413 0-.072-.24-.144-.819-.048-.977.096-.159.267.098.267.098z" fill="#fff"/><path d="M57.317 87.778a.177.177 0 0 1-.05 0 .289.289 0 0 1-.24-.226c-.066-.228-.166-.857-.037-1.073a.199.199 0 0 1 .175-.108c.14 0 .262.163.296.214v.024c.29.83.209.945.18.989a.48.48 0 0 1-.324.18zm-.123-1.155a2.27 2.27 0 0 0 .072.857c0 .036.024.055.041.057a.21.21 0 0 0 .158-.084 4.121 4.121 0 0 0-.204-.753.424.424 0 0 0-.067-.077z" fill="#263238"/><path d="M56.813 86.614s.27.77.194.876c-.077.106-.34.24-.413 0-.072-.24-.144-.816-.048-.974.096-.159.267.098.267.098z" fill="#fff"/><path d="M56.76 87.747h-.05a.29.29 0 0 1-.24-.228c-.065-.225-.166-.854-.037-1.07a.2.2 0 0 1 .176-.108c.144 0 .259.163.292.213.006.008.01.016.012.024.29.83.21.946.18.987a.48.48 0 0 1-.333.182zm-.12-1.154c-.032.287-.008.578.07.857.011.033.023.052.04.057a.24.24 0 0 0 .159-.086 4.174 4.174 0 0 0-.204-.754.673.673 0 0 0-.065-.074z" fill="#263238"/><path d="M56.369 86.75s.206.656.149.745c-.058.089-.26.209-.312 0a1.87 1.87 0 0 1-.039-.828c.072-.142.202.084.202.084z" fill="#fff"/><path d="M56.328 87.73h-.036a.24.24 0 0 1-.204-.211c-.036-.144-.132-.72-.026-.914a.177.177 0 0 1 .16-.106c.123 0 .216.137.24.194v.024c.223.708.161.804.135.845a.37.37 0 0 1-.27.168zm-.072-.933a2.46 2.46 0 0 0 .065.662.092.092 0 0 0 .014.036.191.191 0 0 0 .082-.065 4.465 4.465 0 0 0-.159-.629l-.002-.004zM37.327 88.294a.12.12 0 0 1-.117-.094l-.272-1.24a.123.123 0 0 1 .24-.051l.274 1.238a.12.12 0 0 1-.091.144l-.034.003z" fill="#263238"/><path d="m39.242 87.699 1.546-.221.72-.622s.262-.823.302-.924a.19.19 0 0 0-.136-.244.19.19 0 0 0-.104.004c-.199.06-.259.36-.259.36s-.16-.561-.321-.439a.45.45 0 0 0-.18.281s-.262-.322-.382-.22a.8.8 0 0 0-.16.4s-.303-.24-.402-.1c-.098.138 0 .38 0 .38l.12.48-.201.04-.843.04" fill="#fff"/><path d="M39.242 87.818a.12.12 0 0 1-.122-.158.12.12 0 0 1 .105-.082l1.512-.216.67-.578c.053-.166.257-.804.293-.898a.085.085 0 0 0-.02-.072s-.023-.026-.074 0c-.105.032-.165.21-.177.27a.12.12 0 1 1-.24 0 1.177 1.177 0 0 0-.161-.359.336.336 0 0 0-.108.18.12.12 0 0 1-.211.06.66.66 0 0 0-.24-.196.96.96 0 0 0-.099.319.116.116 0 0 1-.074.094.117.117 0 0 1-.118-.017.504.504 0 0 0-.24-.118c-.036.058 0 .2.024.26l.125.498a.11.11 0 0 1-.014.092.117.117 0 0 1-.08.055l-.199.038-.861.044a.118.118 0 0 1-.125-.116.122.122 0 0 1 .113-.125l.904-.052-.09-.36a.548.548 0 0 1 .019-.48.215.215 0 0 1 .153-.091.48.48 0 0 1 .264.064.62.62 0 0 1 .166-.297.207.207 0 0 1 .153-.046c.1.021.192.07.264.142a.65.65 0 0 1 .15-.161.195.195 0 0 1 .18-.029.48.48 0 0 1 .222.252.413.413 0 0 1 .216-.16.302.302 0 0 1 .399.23.32.32 0 0 1-.012.17c-.032.08-.226.687-.298.915a.122.122 0 0 1-.036.055l-.72.621a.136.136 0 0 1-.062.03l-1.546.22-.005.002z" fill="#263238"/><path d="M40.8 87.6a.125.125 0 0 1-.084-.033.12.12 0 0 1 0-.17c.089-.256.148-.52.178-.79-.02-.055-.173-.617-.19-.679a.122.122 0 0 1 .133-.151.12.12 0 0 1 .1.089c.067.24.17.633.187.681-.01.353-.09.7-.24 1.02a.129.129 0 0 1-.084.034zM41.405 87.017a.112.112 0 0 1-.041 0 .119.119 0 0 1-.078-.11.12.12 0 0 1 .008-.046 1.76 1.76 0 0 0-.098-.763.12.12 0 0 1 .228-.074c.022.067.2.648.094.924a.118.118 0 0 1-.113.07zM40.428 87.574a.12.12 0 0 1-.106-.175c.064-.25.095-.508.092-.766l-.255-.506a.123.123 0 0 1 .053-.161.12.12 0 0 1 .16.053l.27.532a.143.143 0 0 1 0 .058c.004.305-.035.609-.118.903a.12.12 0 0 1-.096.062zM39.998 87.214a.122.122 0 0 1-.12-.113v-.259a.117.117 0 0 1 .068-.114.116.116 0 0 1 .045-.01.118.118 0 0 1 .127.112v.26a.117.117 0 0 1-.067.113.116.116 0 0 1-.045.011h-.008zM38.988 87.562a.119.119 0 0 1-.098-.05.48.48 0 0 1 .052-.646.119.119 0 0 1 .132-.027.12.12 0 0 1 .073.112.123.123 0 0 1-.034.085.24.24 0 0 0-.017.331.12.12 0 0 1-.029.166.125.125 0 0 1-.079.029z" fill="#263238"/><defs><linearGradient id="a" x1="116.836" y1="5.326" x2="-12.706" y2="32.856" gradientUnits="userSpaceOnUse"><stop stop-color="#7D66AD"/><stop offset=".503" stop-color="#AD5699"/><stop offset="1" stop-color="#DD4786"/></linearGradient><linearGradient id="b" x1="74.026" y1="9.247" x2="-1.083" y2="23.883" gradientUnits="userSpaceOnUse"><stop stop-color="#7D66AD"/><stop offset=".503" stop-color="#AD5699"/><stop offset="1" stop-color="#DD4786"/></linearGradient><linearGradient id="c" x1="78.01" y1="84.895" x2="75.188" y2="96.7" gradientUnits="userSpaceOnUse"><stop stop-color="#7D66AD"/><stop offset=".503" stop-color="#AD5699"/><stop offset="1" stop-color="#DD4786"/></linearGradient><linearGradient id="d" x1="35.455" y1="76.827" x2="14.562" y2="80.864" gradientUnits="userSpaceOnUse"><stop stop-color="#7D66AD"/><stop offset=".503" stop-color="#AD5699"/><stop offset="1" stop-color="#DD4786"/></linearGradient><linearGradient id="e" x1="78" y1="84.895" x2="68.859" y2="86.36" gradientUnits="userSpaceOnUse"><stop stop-color="#7D66AD"/><stop offset=".503" stop-color="#AD5699"/><stop offset="1" stop-color="#DD4786"/></linearGradient><linearGradient id="f" x1="64.43" y1="84.895" x2="59.179" y2="85.737" gradientUnits="userSpaceOnUse"><stop stop-color="#7D66AD"/><stop offset=".503" stop-color="#AD5699"/><stop offset="1" stop-color="#DD4786"/></linearGradient></defs></svg>