<svg width="120" height="120" fill="none" xmlns="http://www.w3.org/2000/svg"><path d="M114.19 66.492c-3.238 9.814-10.215 20.573-20.484 24.075-15.514 5.294-16.906 18.017-45.055 17.93-4.111.006-8.21-.434-12.226-1.313a47.157 47.157 0 0 1-5.789-1.68c-16.68-6.016-25.812-20.325-27.12-35.616-1.716-20.112 11.969-30.256 20.88-36.24 8.911-5.983 19.087-28.188 46.769-28.32A54.895 54.895 0 0 1 83.729 6.67c9.398 2.16 19.07 7.36 24.881 15.288.434.595.852 1.2 1.255 1.829 7.846 12.199 8.741 29.323 4.325 42.705z" fill="url(#a)"/><path opacity=".7" d="M114.19 66.492c-3.238 9.814-10.215 20.573-20.484 24.075-15.514 5.294-16.906 18.017-45.055 17.93-4.111.006-8.21-.434-12.226-1.313a47.157 47.157 0 0 1-5.789-1.68c-16.68-6.016-25.812-20.325-27.12-35.616-1.716-20.112 11.969-30.256 20.88-36.24 8.911-5.983 19.087-28.188 46.769-28.32A54.895 54.895 0 0 1 83.729 6.67c9.398 2.16 19.07 7.36 24.881 15.288.434.595.852 1.2 1.255 1.829 7.846 12.199 8.741 29.323 4.325 42.705z" fill="#fff"/><path d="M115.509 110.687H3.816a.12.12 0 0 1-.084-.204.126.126 0 0 1 .084-.036h111.693a.12.12 0 0 1 .12.12.117.117 0 0 1-.035.085.117.117 0 0 1-.085.035z" fill="#263238"/><path d="m97.214 21.906 9.536 1.973-2.566 2.935-6.97-4.908z" fill="#fff"/><path d="M104.184 26.934a.114.114 0 0 1-.068-.021l-6.972-4.91a.12.12 0 0 1 .094-.214l9.535 1.97a.128.128 0 0 1 .089.082.115.115 0 0 1-.024.115l-2.563 2.935a.115.115 0 0 1-.091.043zm-6.428-4.8 6.404 4.522 2.359-2.7-8.763-1.822z" fill="#263238"/><path d="m97.214 21.906 3.2 8.969 2.82-3.14-6.02-5.829z" fill="#fff"/><path d="M100.413 30.996h-.024a.12.12 0 0 1-.054-.028.111.111 0 0 1-.034-.052l-3.2-8.97a.12.12 0 0 1 .048-.142.12.12 0 0 1 .15.016l6.016 5.83a.117.117 0 0 1 0 .166l-2.813 3.144a.114.114 0 0 1-.089.036zm-2.913-8.64 2.959 8.299 2.606-2.907-5.565-5.392z" fill="#263238"/><path d="m104.184 26.814-.216 2.259-.734-1.337-6.02-5.83 6.97 4.908z" fill="#fff"/><path d="M103.968 29.192a.12.12 0 0 1-.106-.062l-.72-1.32-6-5.82a.118.118 0 0 1 0-.16.118.118 0 0 1 .16-.022l6.961 4.91a.112.112 0 0 1 .041.047c.008.019.012.04.009.061l-.216 2.258a.117.117 0 0 1-.096.106l-.033.002zM98.4 22.888l4.913 4.761a.083.083 0 0 1 .021.029l.55.996.173-1.8-5.657-3.986z" fill="#263238"/><path d="m103.968 29.073-1.241-.703.506-.634.735 1.337z" fill="#fff"/><path d="M103.968 29.193a.128.128 0 0 1-.06-.015l-1.239-.705a.118.118 0 0 1-.06-.082.124.124 0 0 1 .001-.05.126.126 0 0 1 .023-.046l.507-.634a.114.114 0 0 1 .103-.046.12.12 0 0 1 .093.063l.737 1.337c.013.023.018.05.014.076a.126.126 0 0 1-.035.068.126.126 0 0 1-.084.034zm-1.059-.86.749.428-.444-.81-.305.383zM8.609 101.692a.12.12 0 0 1-.113-.128c0-.016.024-.439.13-1.219a.119.119 0 0 1 .045-.079.112.112 0 0 1 .042-.02.123.123 0 0 1 .047-.002.119.119 0 0 1 .103.135c-.103.768-.13 1.2-.13 1.2a.12.12 0 0 1-.124.113zm.314-2.4h-.022a.115.115 0 0 1-.096-.137c.065-.386.14-.787.221-1.188a.122.122 0 0 1 .188-.078.123.123 0 0 1 .052.126c-.079.398-.153.797-.22 1.18a.118.118 0 0 1-.123.094v.003zm.48-2.36h-.029a.12.12 0 0 1-.089-.144c.087-.371.18-.763.286-1.17a.12.12 0 0 1 .22-.031c.015.027.02.06.013.09-.106.406-.2.795-.286 1.164a.12.12 0 0 1-.117.09l.002.002zm.598-2.328h-.034a.117.117 0 0 1-.082-.148c.104-.372.219-.759.339-1.155a.123.123 0 0 1 .151-.079.12.12 0 0 1 .08.149c-.12.396-.24.78-.34 1.15a.122.122 0 0 1-.117.081l.003.002zm.703-2.296a.095.095 0 0 1-.036 0 .119.119 0 0 1-.083-.105.117.117 0 0 1 .006-.047c.123-.37.254-.75.391-1.137a.12.12 0 0 1 .151-.075.122.122 0 0 1 .075.154 48.1 48.1 0 0 0-.389 1.133.122.122 0 0 1-.118.074l.003.003zm.804-2.264a.093.093 0 0 1-.043 0 .118.118 0 0 1-.078-.107c0-.016.002-.031.008-.046.14-.367.286-.74.44-1.12a.12.12 0 0 1 .229-.01.12.12 0 0 1-.009.098c-.151.38-.298.751-.434 1.116a.124.124 0 0 1-.116.067l.003.002zm.895-2.23a.103.103 0 0 1-.046 0 .118.118 0 0 1-.074-.11c0-.015.003-.03.01-.045.156-.363.314-.72.48-1.102a.122.122 0 0 1 .066-.064.12.12 0 0 1 .092.002.122.122 0 0 1 .06.16c-.16.37-.32.736-.48 1.097a.118.118 0 0 1-.11.06l.002.003zm.984-2.188a.13.13 0 0 1-.05 0 .12.12 0 0 1-.058-.16c.168-.356.343-.72.523-1.08a.123.123 0 0 1 .161-.056.12.12 0 0 1 .055.16c-.179.363-.353.722-.523 1.079a.117.117 0 0 1-.11.055l.002.002zm1.068-2.16a.111.111 0 0 1-.055-.014.12.12 0 0 1-.053-.161c.185-.35.372-.706.566-1.06a.12.12 0 0 1 .212.114c-.195.356-.382.706-.564 1.056a.12.12 0 0 1-.108.072l.002-.007zM15.6 81.36a.114.114 0 0 1-.06-.017.12.12 0 0 1-.056-.072.117.117 0 0 1 .013-.091c.194-.343.396-.691.604-1.04a.119.119 0 0 1 .12-.056c.015.002.03.008.044.016a.116.116 0 0 1 .057.12.115.115 0 0 1-.017.043c-.204.348-.405.694-.6 1.037a.124.124 0 0 1-.105.06zm1.226-2.064a.13.13 0 0 1-.065-.017.123.123 0 0 1-.038-.166c.208-.339.422-.678.643-1.017a.117.117 0 0 1 .166-.034.12.12 0 0 1 .036.166c-.218.337-.431.674-.641 1.01a.114.114 0 0 1-.1.065v-.007zm1.299-2.016a.12.12 0 0 1-.099-.187c.221-.33.447-.661.677-.994a.123.123 0 0 1 .168-.029.12.12 0 0 1 .029.166c-.24.331-.456.662-.675.989a.123.123 0 0 1-.1.055zm1.37-1.97a.125.125 0 0 1-.07-.022.122.122 0 0 1-.026-.168c.24-.322.48-.646.72-.96a.123.123 0 0 1 .168-.024.116.116 0 0 1 .048.079.117.117 0 0 1-.024.089c-.24.324-.48.645-.72.96a.118.118 0 0 1-.096.053v-.008zm1.44-1.92a.108.108 0 0 1-.074-.027.12.12 0 0 1-.022-.168c.24-.312.48-.626.746-.943a.122.122 0 0 1 .081-.044.121.121 0 0 1 .119.062.12.12 0 0 1-.012.133c-.255.314-.502.626-.744.94a.121.121 0 0 1-.094.054v-.008zm1.502-1.87a.12.12 0 0 1-.09-.197c.254-.305.51-.612.774-.917a.123.123 0 0 1 .17-.012.116.116 0 0 1 .036.084.117.117 0 0 1-.035.084c-.262.305-.521.61-.773.915a.122.122 0 0 1-.082.043zm1.565-1.82a.13.13 0 0 1-.079-.028.123.123 0 0 1 0-.17c.264-.298.533-.593.806-.89a.122.122 0 0 1 .084-.04.12.12 0 0 1 .094.202c-.274.296-.542.592-.804.888a.121.121 0 0 1-.103.046l.002-.007zm1.625-1.763a.123.123 0 0 1-.082-.034.12.12 0 0 1 0-.17c.274-.288.552-.576.836-.864a.121.121 0 0 1 .134-.035.12.12 0 0 1 .066.164.12.12 0 0 1-.03.039c-.28.288-.56.576-.83.861a.117.117 0 0 1-.094.046v-.007zm1.68-1.714a.13.13 0 0 1-.084-.033.12.12 0 0 1 0-.17c.283-.28.57-.56.862-.839a.122.122 0 0 1 .196.04.12.12 0 0 1-.026.13 85.46 85.46 0 0 0-.896.873.12.12 0 0 1-.052.016v-.017zm1.735-1.658a.12.12 0 0 1-.081-.207c.29-.27.584-.54.885-.81a.12.12 0 0 1 .17 0 .12.12 0 0 1 0 .167c-.3.269-.592.54-.883.809a.12.12 0 0 1-.093.048l.002-.007zm1.783-1.603a.12.12 0 0 1-.079-.212c.298-.261.603-.523.91-.785a.12.12 0 0 1 .193.056.118.118 0 0 1-.008.092.121.121 0 0 1-.03.037c-.306.26-.609.521-.909.78a.12.12 0 0 1-.077.039v-.008zm1.83-1.553a.122.122 0 0 1-.094-.044.12.12 0 0 1 .016-.167c.308-.255.62-.505.934-.757a.118.118 0 0 1 .168.017.122.122 0 0 1-.017.17c-.314.24-.626.502-.931.754a.115.115 0 0 1-.077.034v-.007zm1.874-1.495a.114.114 0 0 1-.094-.048.12.12 0 0 1 .02-.169c.32-.244.64-.484.96-.72a.12.12 0 0 1 .132-.007.121.121 0 0 1 .058.12.12.12 0 0 1-.047.08l-.96.72a.122.122 0 0 1-.07.03v-.006zm1.92-1.44a.12.12 0 0 1-.07-.216c.32-.24.646-.48.972-.704a.122.122 0 0 1 .168.027.12.12 0 0 1-.029.168c-.326.24-.65.48-.96.7a.112.112 0 0 1-.086.027l.005-.003zm1.956-1.392a.115.115 0 0 1-.099-.05.123.123 0 0 1 .029-.169c.329-.226.658-.451.994-.677a.12.12 0 0 1 .134.2c-.333.225-.663.45-.991.676a.116.116 0 0 1-.072.022l.005-.002zm1.99-1.337a.123.123 0 0 1-.102-.056.12.12 0 0 1 .036-.165c.333-.22.67-.436 1.01-.65a.12.12 0 0 1 .166.035.123.123 0 0 1-.038.166c-.34.216-.674.433-1.006.65a.136.136 0 0 1-.072.022l.005-.002zm2.025-1.287a.125.125 0 0 1-.103-.057.12.12 0 0 1 .005-.134.121.121 0 0 1 .035-.032c.338-.21.68-.418 1.025-.624a.12.12 0 0 1 .123.204l-1.023.624a.12.12 0 0 1-.067.022l.005-.003zm2.057-1.236a.123.123 0 0 1-.122-.104.117.117 0 0 1 .06-.119c.343-.201.69-.401 1.04-.6a.118.118 0 0 1 .164.043.122.122 0 0 1-.046.166c-.348.197-.694.396-1.036.598a.112.112 0 0 1-.065.019l.005-.003zm2.083-1.185a.123.123 0 0 1-.115-.154.12.12 0 0 1 .057-.072l1.054-.576a.12.12 0 1 1 .115.211c-.355.192-.706.382-1.051.574a.108.108 0 0 1-.06.02v-.003zm2.114-1.138a.122.122 0 0 1-.108-.065.12.12 0 0 1 .05-.16c.353-.185.72-.37 1.069-.553a.12.12 0 0 1 .145.186.118.118 0 0 1-.037.028c-.358.182-.72.367-1.064.55a.117.117 0 0 1-.06.017l.005-.003zm2.136-1.09a.12.12 0 0 1-.053-.225c.359-.178.719-.354 1.08-.528a.117.117 0 0 1 .131.018c.012.01.021.023.028.037a.118.118 0 0 1 .007.092.118.118 0 0 1-.062.069l-1.076.526a.115.115 0 0 1-.06.014l.005-.002zm2.16-1.041a.115.115 0 0 1-.108-.067.121.121 0 0 1 .058-.161l1.09-.504a.121.121 0 0 1 .094-.007.118.118 0 0 1 .07.064.12.12 0 0 1-.025.135.12.12 0 0 1-.041.026c-.365.16-.727.328-1.087.504a.125.125 0 0 1-.053.012l.002-.002zm2.182-.996a.12.12 0 0 1-.113-.095.12.12 0 0 1 .065-.133c.365-.163.72-.322 1.099-.48a.12.12 0 0 1 .16.154.12.12 0 0 1-.064.067c-.37.16-.735.32-1.097.48a.124.124 0 0 1-.053.01l.003-.003zm2.203-.96a.116.116 0 0 1-.11-.075.119.119 0 0 1 .025-.13.117.117 0 0 1 .04-.026c.366-.16.735-.312 1.108-.458a.117.117 0 0 1 .13.026.12.12 0 0 1-.04.195c-.371.15-.741.303-1.107.458a.102.102 0 0 1-.041.022l-.005-.012zm2.22-.907a.122.122 0 0 1-.11-.075.121.121 0 0 1 .027-.13.12.12 0 0 1 .04-.026c.37-.148.741-.293 1.118-.439a.12.12 0 0 1 .154.07.119.119 0 0 1-.002.09.116.116 0 0 1-.065.063c-.375.147-.747.29-1.116.44a.14.14 0 0 1-.048.019l.002-.012zm2.24-.864a.125.125 0 0 1-.114-.08.12.12 0 0 1 .07-.153l1.126-.418a.12.12 0 0 1 .153.072.117.117 0 0 1-.03.13.117.117 0 0 1-.04.024c-.379.137-.754.277-1.125.417a.112.112 0 0 1-.043.02l.002-.012zm2.253-.823a.117.117 0 0 1-.113-.082.118.118 0 0 1 .004-.091.115.115 0 0 1 .068-.06c.374-.135.754-.267 1.133-.399a.127.127 0 0 1 .16.08.126.126 0 0 1-.081.16c-.38.13-.757.262-1.133.396a.11.11 0 0 1-.04.008l.002-.012zm2.268-.785a.12.12 0 0 1-.08-.21.117.117 0 0 1 .041-.023c.378-.128.758-.254 1.14-.377a.126.126 0 1 1 .075.24l-1.14.377a.113.113 0 0 1-.039 0l.003-.007zm2.28-.744a.121.121 0 1 1-.036-.24l1.145-.358a.117.117 0 0 1 .15.08.12.12 0 0 1-.078.148l-1.157.377a.095.095 0 0 1-.027.005l.003-.012zm2.292-.706a.118.118 0 0 1-.113-.084.122.122 0 0 1 .08-.151l1.151-.339a.125.125 0 0 1 .067.24l-1.152.35a.095.095 0 0 1-.036 0l.003-.016zm2.304-.667a.125.125 0 0 1-.115-.089.123.123 0 0 1 .084-.149l1.156-.319a.124.124 0 0 1 .138.183.124.124 0 0 1-.075.057l-1.155.322-.033-.005zm2.316-.634a.122.122 0 0 1-.118-.088.121.121 0 0 1 .013-.092.122.122 0 0 1 .074-.055c.384-.103.772-.204 1.161-.305a.124.124 0 1 1 .06.24l-1.159.303-.031-.003zm2.323-.597a.12.12 0 0 1-.029-.24l1.167-.286a.124.124 0 0 1 .149.14.123.123 0 0 1-.094.1l-1.164.286h-.029zm2.333-.564a.12.12 0 0 1-.118-.094.12.12 0 0 1 .089-.144l1.171-.269a.123.123 0 1 1 .053.24l-1.169.27-.026-.003zm2.337-.533a.115.115 0 0 1-.115-.094.118.118 0 0 1 .091-.141l1.174-.255a.12.12 0 0 1 .142.092.123.123 0 0 1-.092.144l-1.173.252-.027.002zm2.348-.497a.12.12 0 0 1-.132-.108.121.121 0 0 1 .108-.132l1.178-.24a.12.12 0 0 1 .14.096.114.114 0 0 1-.05.122.117.117 0 0 1-.044.017l-1.176.24-.024.005zm2.354-.48a.118.118 0 0 1-.118-.098.122.122 0 0 1 .094-.142l1.18-.22a.118.118 0 0 1 .14.095.12.12 0 0 1-.096.14c-.394.072-.787.146-1.178.223l-.022.002zm2.36-.44a.121.121 0 0 1-.132-.108.121.121 0 0 1 .065-.118.12.12 0 0 1 .045-.013l1.183-.209a.122.122 0 1 1 .04.24l-1.18.206-.022.003zm2.363-.407a.119.119 0 0 1-.087-.028.119.119 0 0 1-.037-.13.121.121 0 0 1 .105-.082l1.186-.192a.121.121 0 1 1 .036.24l-1.184.194-.019-.002zm2.369-.382a.12.12 0 1 1-.017-.24l1.186-.18a.121.121 0 1 1 .036.24c-.399.058-.792.118-1.186.18h-.019zm2.374-.352a.12.12 0 0 1-.017-.24c.393-.056.792-.113 1.2-.166a.121.121 0 0 1 .031.24c-.398.053-.794.11-1.188.166h-.026zm2.378-.325a.12.12 0 0 1-.017-.24l1.2-.153a.123.123 0 0 1 .09.024.122.122 0 0 1 .022.17.123.123 0 0 1-.081.046c-.398.048-.794.1-1.2.151l-.014.003zm2.378-.3a.121.121 0 0 1-.126-.114.125.125 0 0 1 .031-.086.123.123 0 0 1 .083-.04l1.2-.139a.122.122 0 0 1 .09.025.129.129 0 0 1 .045.08.124.124 0 0 1-.025.09.122.122 0 0 1-.081.045l-1.2.142-.017-.003zm2.386-.273a.12.12 0 1 1-.014-.24l1.2-.127a.121.121 0 0 1 .132.106.124.124 0 0 1-.063.118.123.123 0 0 1-.045.013l-1.2.127-.01.003zm2.386-.24a.121.121 0 0 1-.087-.031.116.116 0 0 1-.039-.083.116.116 0 0 1 .031-.087.119.119 0 0 1 .083-.04c.398-.04.798-.08 1.2-.114a.12.12 0 0 1 .024.24l-1.2.115h-.012zm2.4-.226a.12.12 0 0 1-.12-.12.12.12 0 0 1 .12-.12l1.2-.105a.117.117 0 0 1 .087.028c.012.01.022.023.029.037a.122.122 0 0 1 .008.092.12.12 0 0 1-.105.083l-1.2.103-.019.002zm2.4-.204a.119.119 0 0 1-.091-.197.128.128 0 0 1 .081-.043l1.2-.09a.12.12 0 0 1 .087.028.118.118 0 0 1 .04.082.106.106 0 0 1-.005.046.12.12 0 0 1-.105.083l-1.2.091h-.007zm2.4-.18a.119.119 0 0 1-.12-.11.112.112 0 0 1 .029-.088.107.107 0 0 1 .038-.028.116.116 0 0 1 .045-.011l1.2-.082a.12.12 0 0 1 .128.113.125.125 0 0 1-.03.087.132.132 0 0 1-.038.028.117.117 0 0 1-.045.012l-1.2.082-.007-.003zm2.4-.156a.122.122 0 0 1-.114-.159.11.11 0 0 1 .024-.04.114.114 0 0 1 .082-.04l1.2-.073a.118.118 0 0 1 .121.16.124.124 0 0 1-.023.04.132.132 0 0 1-.038.029.115.115 0 0 1-.045.011c-.401.024-.799.046-1.2.072h-.007z" fill="#263238"/><path d="M63.024 99.575h-.197a.12.12 0 1 1 0-.24h1.197a.11.11 0 0 1 .123.117.119.119 0 0 1-.033.086.12.12 0 0 1-.084.037h-1.006zm-1.397-.017c-.4-.01-.8-.024-1.2-.043a.122.122 0 0 1-.104-.173.119.119 0 0 1 .114-.067c.4.019.8.033 1.2.043a.12.12 0 0 1 0 .24h-.01zm3.6-.027a.12.12 0 1 1 0-.24c.399-.016.797-.035 1.2-.062a.117.117 0 0 1 .088.03.12.12 0 0 1 .04.083.117.117 0 0 1-.066.115.117.117 0 0 1-.045.012c-.4.027-.802.046-1.2.063h-.017zm-6-.088c-.4-.027-.799-.06-1.2-.096a.122.122 0 0 1-.108-.132.124.124 0 0 1 .132-.108c.396.036.795.07 1.2.096a.123.123 0 0 1 .113.13.12.12 0 0 1-.134.11h-.003zm8.4-.06a.122.122 0 0 1-.114-.157.119.119 0 0 1 .06-.07.121.121 0 0 1 .045-.013 74.56 74.56 0 0 0 1.2-.113.122.122 0 0 1 .118.063.121.121 0 0 1-.013.133.12.12 0 0 1-.081.044 48.41 48.41 0 0 1-1.2.115l-.015-.002zm-10.785-.161c-.401-.046-.797-.096-1.2-.151a.12.12 0 0 1-.104-.135.122.122 0 0 1 .137-.103c.394.055.792.106 1.188.151a.12.12 0 0 1-.014.24l-.007-.002zm13.173-.094a.12.12 0 0 1-.061-.223.118.118 0 0 1 .045-.014c.395-.05.791-.106 1.185-.166a.121.121 0 1 1 .036.24c-.396.06-.792.115-1.2.166l-.005-.003zm-15.552-.24h-.019a48.982 48.982 0 0 1-1.186-.204.122.122 0 1 1 .044-.24c.393.072.787.14 1.18.204a.12.12 0 0 1-.019.24zm17.923-.122a.12.12 0 0 1-.1-.198.12.12 0 0 1 .081-.042c.394-.07.785-.142 1.176-.218a.123.123 0 0 1 .048.24c-.393.076-.79.15-1.183.218h-.022zm-20.284-.312h-.022a64.045 64.045 0 0 1-1.176-.26.123.123 0 1 1 .055-.24c.389.092.778.178 1.169.26a.119.119 0 0 1 .076.051.12.12 0 0 1 .018.09.122.122 0 0 1-.125.106l.005-.007zm22.641-.149a.12.12 0 0 1-.026-.24c.389-.086.78-.175 1.166-.269a.123.123 0 0 1 .147.09.12.12 0 0 1-.09.143c-.39.096-.78.185-1.173.271l-.024.005zm-24.986-.386h-.029a45.855 45.855 0 0 1-1.162-.312.122.122 0 0 1-.075-.058.125.125 0 0 1 .01-.138.123.123 0 0 1 .082-.047.126.126 0 0 1 .048.003c.384.11.768.213 1.157.312a.123.123 0 0 1 .044.214.12.12 0 0 1-.075.026zm27.314-.168a.12.12 0 0 1-.105-.181.123.123 0 0 1 .074-.057c.386-.1.77-.209 1.152-.32a.125.125 0 0 1 .067.24c-.384.114-.77.22-1.159.322l-.029-.004zm-29.625-.48h-.034c-.384-.12-.766-.243-1.147-.37a.12.12 0 1 1 .077-.228c.379.128.759.25 1.14.367a.123.123 0 0 1 .079.151.12.12 0 0 1-.115.072v.008zm31.92-.183a.122.122 0 0 1-.116-.084.123.123 0 0 1 .08-.15c.381-.12.76-.24 1.137-.373a.123.123 0 0 1 .154.075.12.12 0 0 1-.077.153c-.38.126-.76.25-1.142.372l-.036.007zm-34.205-.58a.112.112 0 0 1-.04 0c-.38-.137-.755-.279-1.129-.425a.12.12 0 1 1 .089-.224c.372.147.744.286 1.12.423a.12.12 0 0 1 .073.154.126.126 0 0 1-.104.064l-.01.007zm36.48-.19a.12.12 0 0 1-.124-.055.122.122 0 0 1 .083-.185c.374-.136.748-.278 1.12-.425a.121.121 0 0 1 .157.07.121.121 0 0 1-.07.156c-.374.144-.75.285-1.125.424a.12.12 0 0 1-.034.008l-.007.007zm-38.715-.684a.104.104 0 0 1-.045 0c-.372-.154-.74-.314-1.104-.48a.121.121 0 0 1-.072-.114.12.12 0 0 1 .078-.11.12.12 0 0 1 .092.003c.363.166.72.324 1.097.48a.121.121 0 0 1 .075.112.123.123 0 0 1-.01.046.118.118 0 0 1-.103.056l-.008.007zm40.95-.19a.122.122 0 0 1-.111-.074.12.12 0 0 1 .065-.156c.37-.16.737-.32 1.101-.48a.122.122 0 0 1 .169.108.12.12 0 0 1-.073.113l-1.104.48a.163.163 0 0 1-.04.002l-.008.007zm-43.138-.794a.13.13 0 0 1-.053 0 56.22 56.22 0 0 1-1.078-.535.12.12 0 0 1-.022-.199.12.12 0 0 1 .133-.015c.355.183.72.358 1.07.53a.123.123 0 0 1-.05.24v-.021zm45.338-.173a.12.12 0 0 1-.115-.094.12.12 0 0 1 .065-.134c.361-.168.722-.34 1.082-.513a.12.12 0 0 1 .106.215c-.362.177-.724.349-1.088.517a.125.125 0 0 1-.043.002l-.007.007zm-47.467-.926a.119.119 0 0 1-.058-.015 43.97 43.97 0 0 1-1.049-.59.12.12 0 0 1 .034-.211.12.12 0 0 1 .086.005c.344.196.694.393 1.044.585a.123.123 0 0 1 .049.163.125.125 0 0 1-.106.063zm49.634-.13a.12.12 0 0 1-.12-.092.12.12 0 0 1 .065-.136 81.93 81.93 0 0 0 1.06-.554.123.123 0 0 1 .164.048.118.118 0 0 1 .009.092.12.12 0 0 1-.06.07c-.351.191-.707.377-1.065.558a.11.11 0 0 1-.053.014zm-51.71-1.073a.12.12 0 0 1-.063-.019 45.961 45.961 0 0 1-1.015-.643.12.12 0 0 1-.036-.166.122.122 0 0 1 .168-.036c.329.216.667.432 1.008.641a.12.12 0 0 1 .041.166.124.124 0 0 1-.103.057zm53.825-.062a.127.127 0 0 1-.106-.063.122.122 0 0 1 .046-.163c.347-.197.693-.396 1.039-.597a.117.117 0 0 1 .163.04.122.122 0 0 1-.04.166c-.346.205-.694.405-1.045.6a.123.123 0 0 1-.057.017zm2.066-1.222a.12.12 0 0 1-.062-.223c.338-.209.676-.422 1.01-.64a.124.124 0 0 1 .09-.018.12.12 0 0 1 .042.219c-.336.218-.677.432-1.015.643a.135.135 0 0 1-.065.02zm-57.898-.028a.121.121 0 0 1-.07-.02 48.017 48.017 0 0 1-.978-.698.12.12 0 1 1 .141-.194c.32.24.648.48.975.693a.12.12 0 0 1-.068.219zm59.912-1.277a.115.115 0 0 1-.099-.05.121.121 0 0 1-.002-.135.12.12 0 0 1 .033-.034c.33-.223.658-.453.982-.684a.121.121 0 0 1 .134-.003.12.12 0 0 1 .038.164.115.115 0 0 1-.033.034c-.32.232-.649.461-.986.689a.115.115 0 0 1-.067.019zm-61.846-.137a.108.108 0 0 1-.072-.026c-.317-.24-.634-.497-.938-.75a.119.119 0 0 1-.044-.08.117.117 0 0 1 .027-.087.116.116 0 0 1 .127-.04.118.118 0 0 1 .04.023c.306.24.62.501.934.746a.12.12 0 0 1 .047.08.118.118 0 0 1-.025.088.126.126 0 0 1-.096.044v.002zm63.8-1.255a.123.123 0 0 1-.097-.048.12.12 0 0 1 .024-.168l.96-.72a.12.12 0 0 1 .147.19c-.315.24-.634.48-.96.72a.137.137 0 0 1-.075.023v.003zm-65.65-.267a.124.124 0 0 1-.08-.028c-.3-.262-.602-.53-.895-.8a.12.12 0 0 1-.007-.17.12.12 0 0 1 .17-.007c.29.269.59.535.89.796a.12.12 0 0 1 .042.082.117.117 0 0 1-.12.125v.002zm67.536-1.221a.115.115 0 0 1-.092-.044.12.12 0 0 1-.028-.086.117.117 0 0 1 .043-.081c.309-.255.614-.513.914-.773a.12.12 0 0 1 .133-.017.12.12 0 0 1 .026.2c-.303.26-.61.518-.92.774a.13.13 0 0 1-.076.027zm-69.298-.404a.117.117 0 0 1-.084-.033 35.247 35.247 0 0 1-.847-.847.118.118 0 0 1-.034-.086.12.12 0 0 1 .122-.119c.032 0 .062.014.085.037.273.28.556.566.842.844a.12.12 0 0 1 .035.085.119.119 0 0 1-.035.084.122.122 0 0 1-.084.038v-.002zm71.112-1.166a.12.12 0 0 1-.079-.209c.294-.268.585-.54.873-.816a.139.139 0 0 1 .039-.026.125.125 0 0 1 .093 0 .126.126 0 0 1 .065.065.118.118 0 0 1-.026.13c-.288.278-.581.551-.879.82a.117.117 0 0 1-.086.038v-.002zm-72.782-.552a.11.11 0 0 1-.087-.038 35.121 35.121 0 0 1-.801-.898.12.12 0 1 1 .18-.156c.259.298.528.598.796.893a.115.115 0 0 1 0 .168.114.114 0 0 1-.088.034v-.003zm74.517-1.106a.117.117 0 0 1-.086-.034.123.123 0 0 1-.035-.085c0-.032.013-.062.035-.085.28-.284.557-.57.833-.86a.12.12 0 0 1 .201.08.12.12 0 0 1-.026.084c-.275.292-.555.581-.838.866a.123.123 0 0 1-.084.036v-.002zm-76.08-.706a.12.12 0 0 1-.093-.043c-.24-.307-.504-.624-.75-.943a.12.12 0 0 1 .19-.147c.24.317.495.632.744.936a.12.12 0 0 1 .014.134.118.118 0 0 1-.03.037.122.122 0 0 1-.082.029l.007-.003zm77.731-1.04a.114.114 0 0 1-.079-.031.121.121 0 0 1 0-.17c.264-.295.528-.6.785-.902a.12.12 0 0 1 .182.153c-.256.305-.523.612-.789.91a.126.126 0 0 1-.047.035.123.123 0 0 1-.059.008l.007-.002zm-79.2-.858a.115.115 0 0 1-.095-.05c-.24-.325-.48-.656-.694-.982a.12.12 0 0 1 .074-.187.118.118 0 0 1 .123.05c.223.326.456.655.69.977a.123.123 0 0 1-.026.168.117.117 0 0 1-.076.026l.005-.002zm80.746-.975a.121.121 0 0 1-.11-.068c-.01-.02-.013-.044-.01-.067a.117.117 0 0 1 .026-.061c.24-.313.495-.63.732-.946a.119.119 0 0 1 .214.055.118.118 0 0 1-.022.089c-.24.317-.48.638-.736.96a.131.131 0 0 1-.045.032.12.12 0 0 1-.054.009l.005-.003zM22.918 79.07a.122.122 0 0 1-.101-.055 47.3 47.3 0 0 1-.636-1.02.12.12 0 0 1 .13-.18.118.118 0 0 1 .074.055c.204.338.417.68.633 1.015a.12.12 0 0 1 .018.09.118.118 0 0 1-.053.076.12.12 0 0 1-.065.02zm83.541-.914a.12.12 0 0 1-.069-.022.124.124 0 0 1-.049-.078.124.124 0 0 1 .02-.09c.24-.326.458-.657.677-.986a.118.118 0 0 1 .126-.062.117.117 0 0 1 .08.053c.009.015.015.03.018.047a.103.103 0 0 1-.003.05.12.12 0 0 1-.022.044c-.219.33-.447.664-.679.993a.12.12 0 0 1-.099.05zm-84.782-1.14a.121.121 0 0 1-.106-.06l-.163-.29a29.045 29.045 0 0 1-.418-.764.117.117 0 0 1 .049-.16.12.12 0 0 1 .163.047c.136.257.276.51.415.761l.163.288a.118.118 0 0 1-.043.163.136.136 0 0 1-.06.015zm86.109-.862a.122.122 0 0 1-.064-.017.12.12 0 0 1-.053-.075.125.125 0 0 1 .014-.09c.211-.344.418-.69.615-1.028a.112.112 0 0 1 .072-.056.118.118 0 0 1 .091.013.116.116 0 0 1 .056.072.116.116 0 0 1-.011.092c-.199.34-.405.688-.619 1.032a.117.117 0 0 1-.042.042.116.116 0 0 1-.059.015zM20.546 74.9a.123.123 0 0 1-.107-.067c-.185-.372-.358-.74-.514-1.092a.12.12 0 0 1 .062-.158.122.122 0 0 1 .159.062c.153.348.326.72.508 1.08a.121.121 0 0 1-.017.133.118.118 0 0 1-.038.028.11.11 0 0 1-.052.014zm88.44-.825a.125.125 0 0 1-.057-.015.12.12 0 0 1-.057-.072.12.12 0 0 1 .009-.09c.187-.354.372-.72.547-1.064a.123.123 0 0 1 .161-.053.116.116 0 0 1 .037.028.11.11 0 0 1 .024.041.122.122 0 0 1-.006.092c-.178.355-.362.72-.552 1.068a.119.119 0 0 1-.106.065zm-89.412-1.37a.115.115 0 0 1-.11-.078 19.124 19.124 0 0 1-.4-1.14.125.125 0 1 1 .24-.072c.115.368.24.747.393 1.126a.121.121 0 0 1-.07.156l-.052.007zm90.48-.778a.124.124 0 0 1-.112-.08.125.125 0 0 1 .002-.09c.166-.36.326-.72.48-1.095a.113.113 0 0 1 .026-.04.114.114 0 0 1 .039-.028.122.122 0 0 1 .134.027.11.11 0 0 1 .025.04.11.11 0 0 1 .008.048.108.108 0 0 1-.011.046c-.156.37-.319.74-.48 1.1a.12.12 0 0 1-.044.053.12.12 0 0 1-.067.019zm-91.2-1.51a.122.122 0 0 1-.117-.094 23.482 23.482 0 0 1-.122-.561.121.121 0 0 1 .053-.125.122.122 0 0 1 .187.08c.035.184.074.369.117.551a.118.118 0 0 1-.089.144l-.028.005zm92.129-.7a.092.092 0 0 1-.043 0 .12.12 0 0 1-.07-.154c.144-.375.286-.752.416-1.124a.122.122 0 0 1 .064-.072.125.125 0 0 1 .096-.007c.032.011.059.034.073.064a.13.13 0 0 1 .007.097c-.135.372-.274.754-.418 1.128a.121.121 0 0 1-.12.067h-.005zm.799-2.264h-.036a.118.118 0 0 1-.069-.06.117.117 0 0 1-.007-.091c.12-.38.24-.763.348-1.145a.12.12 0 0 1 .022-.043.125.125 0 0 1 .175-.021.126.126 0 0 1 .043.132c-.111.383-.24.77-.351 1.149a.12.12 0 0 1-.12.08h-.005zm.668-2.304h-.029a.115.115 0 0 1-.042-.02.117.117 0 0 1-.047-.08.123.123 0 0 1 .002-.046c.099-.382.192-.773.284-1.162a.12.12 0 0 1 .051-.075.115.115 0 0 1 .09-.016c.016.003.03.01.043.019.013.009.024.02.033.034a.136.136 0 0 1 .017.044.124.124 0 0 1-.002.047c-.088.391-.184.785-.283 1.169a.12.12 0 0 1-.113.086h-.004zm.535-2.34h-.024a.115.115 0 0 1-.077-.05.116.116 0 0 1-.017-.092c.077-.384.149-.78.216-1.175a.122.122 0 0 1 .22-.05.122.122 0 0 1 .02.09 40.18 40.18 0 0 1-.218 1.184.123.123 0 0 1-.115.094h-.005zm.403-2.366h-.017a.125.125 0 0 1-.079-.048.111.111 0 0 1-.019-.042.124.124 0 0 1-.003-.047c.056-.394.108-.79.154-1.186a.12.12 0 0 1 .045-.081.116.116 0 0 1 .088-.026.122.122 0 0 1 .103.087.124.124 0 0 1 .004.047 52.42 52.42 0 0 1-.154 1.2.121.121 0 0 1-.117.096h-.005zm.278-2.383h-.012a.119.119 0 0 1-.08-.043.125.125 0 0 1-.028-.087c.036-.398.065-.797.092-1.2 0-.016.003-.032.01-.046a.116.116 0 0 1 .028-.038.113.113 0 0 1 .089-.027.116.116 0 0 1 .082.04c.01.013.018.026.023.041.005.015.007.031.005.047-.024.398-.055.799-.091 1.2a.116.116 0 0 1-.113.112h-.005zm.152-2.4a.12.12 0 0 1-.108-.079.122.122 0 0 1-.008-.046c.015-.399.024-.799.029-1.2a.125.125 0 0 1 .007-.047.124.124 0 0 1 .026-.04.112.112 0 0 1 .087-.033.122.122 0 0 1 .12.122c0 .402-.009.802-.029 1.2a.13.13 0 0 1-.007.048.131.131 0 0 1-.065.069.123.123 0 0 1-.048.01l-.004-.005zm.026-2.4a.122.122 0 0 1-.083-.035.12.12 0 0 1-.037-.083c0-.399-.014-.797-.031-1.2a.12.12 0 0 1 .032-.085.123.123 0 0 1 .17-.007c.012.011.021.024.028.039.006.014.01.03.01.046.017.4.026.801.031 1.2a.12.12 0 0 1-.008.046.122.122 0 0 1-.064.065.116.116 0 0 1-.046.009l-.002.005zm-.084-2.381a.118.118 0 0 1-.082-.033.118.118 0 0 1-.038-.08 51.127 51.127 0 0 0-.089-1.2.122.122 0 0 1 .027-.088.114.114 0 0 1 .081-.042.118.118 0 0 1 .13.108c.036.401.065.8.091 1.2a.122.122 0 0 1-.006.047.11.11 0 0 1-.024.04.114.114 0 0 1-.083.04l-.007.008zm-.211-2.4a.122.122 0 0 1-.079-.031.126.126 0 0 1-.039-.075 48.6 48.6 0 0 0-.149-1.2.126.126 0 0 1 .023-.09.124.124 0 0 1 .081-.047.123.123 0 0 1 .088.025c.025.02.041.047.046.078.055.399.103.795.149 1.2a.121.121 0 0 1-.106.133l-.014.007zm-.324-2.379a.12.12 0 0 1-.12-.1 51.39 51.39 0 0 0-.204-1.179.119.119 0 0 1 .02-.091.12.12 0 0 1 .169-.03.122.122 0 0 1 .051.078c.074.394.144.787.206 1.183a.107.107 0 0 1-.001.047.122.122 0 0 1-.097.092h-.024zm-.442-2.359a.117.117 0 0 1-.115-.093l-.024-.104c-.074-.355-.156-.72-.24-1.063a.122.122 0 0 1 .015-.091.12.12 0 0 1 .074-.055.12.12 0 0 1 .144.088c.086.353.17.72.24 1.07l.021.104a.122.122 0 0 1 .002.047.132.132 0 0 1-.017.043.127.127 0 0 1-.033.034.114.114 0 0 1-.043.018l-.024.002zm-.569-2.33a.12.12 0 0 1-.115-.089c-.11-.389-.225-.775-.345-1.145a.122.122 0 0 1 .079-.151.123.123 0 0 1 .151.08c.12.371.24.76.346 1.151a.124.124 0 0 1 .003.047.103.103 0 0 1-.014.045.124.124 0 0 1-.073.057l-.032.005zm-.736-2.292a.122.122 0 0 1-.113-.08 26.23 26.23 0 0 0-.432-1.113.123.123 0 0 1-.01-.046.124.124 0 0 1 .035-.086.13.13 0 0 1 .04-.026.122.122 0 0 1 .156.064c.151.365.297.744.436 1.123a.123.123 0 0 1-.072.157.107.107 0 0 1-.04.007zm-.92-2.218a.118.118 0 0 1-.064-.017.12.12 0 0 1-.044-.05c-.172-.367-.352-.72-.535-1.068a.118.118 0 0 1-.013-.045.124.124 0 0 1 .004-.047.12.12 0 0 1 .06-.071.115.115 0 0 1 .091-.009.113.113 0 0 1 .069.06c.185.345.368.707.54 1.077.007.014.011.03.012.045a.121.121 0 0 1-.031.086.125.125 0 0 1-.038.027.101.101 0 0 1-.051.017V36.9zM109.44 34.8a.123.123 0 0 1-.103-.058 19.167 19.167 0 0 0-.646-1.003.12.12 0 0 1 .029-.166.121.121 0 0 1 .091-.02c.015.004.03.01.043.018.014.01.025.02.034.033.223.325.444.665.655 1.013.011.019.016.04.016.06a.116.116 0 0 1-.016.06.123.123 0 0 1-.103.062zm-1.363-1.973a.117.117 0 0 1-.052-.012.112.112 0 0 1-.042-.034c-.24-.314-.506-.619-.77-.91a.113.113 0 0 1-.027-.04.13.13 0 0 1-.009-.047c0-.017.004-.033.011-.048a.11.11 0 0 1 .028-.039.122.122 0 0 1 .09-.03.116.116 0 0 1 .084.044c.267.293.531.605.78.922.01.012.018.026.022.04a.106.106 0 0 1 .004.048.115.115 0 0 1-.045.08.12.12 0 0 1-.086.019l.012.007zm-1.613-1.774a.126.126 0 0 1-.084-.033c-.288-.276-.588-.54-.893-.787a.124.124 0 0 1-.042-.082.127.127 0 0 1 .025-.089.124.124 0 0 1 .081-.043.118.118 0 0 1 .087.026c.31.24.615.521.908.8a.122.122 0 0 1 0 .17.124.124 0 0 1-.094.031l.012.007z" fill="#263238"/><path d="M70.654 10.754H8.914c-.993 0-1.798.805-1.798 1.798v61.195c0 .993.805 1.797 1.798 1.797h61.74c.993 0 1.797-.804 1.797-1.797V12.552c0-.993-.804-1.798-1.797-1.798z" fill="#263238"/><path d="M72.228 9.246h-61.74c-.993 0-1.798.805-1.798 1.798v61.195c0 .993.805 1.797 1.798 1.797h61.74c.993 0 1.798-.804 1.798-1.797V11.044c0-.993-.805-1.798-1.798-1.798z" fill="url(#b)"/><path d="M72.24 74.16H10.486a1.92 1.92 0 0 1-1.92-1.92v-61.2a1.92 1.92 0 0 1 1.92-1.92H72.24a1.92 1.92 0 0 1 1.92 1.92v61.2a1.92 1.92 0 0 1-1.92 1.92zM10.486 9.36a1.68 1.68 0 0 0-1.68 1.68v61.2a1.68 1.68 0 0 0 1.68 1.68H72.24a1.68 1.68 0 0 0 1.68-1.68v-61.2a1.68 1.68 0 0 0-1.68-1.68H10.486z" fill="#263238"/><path d="M57.672 47.69h-32.59a2.952 2.952 0 0 0-2.952 2.952v1.11a2.952 2.952 0 0 0 2.952 2.953h32.59a2.952 2.952 0 0 0 2.952-2.952v-1.111a2.952 2.952 0 0 0-2.952-2.953z" fill="#fff"/><path d="M57.675 54.826H25.083a3.074 3.074 0 0 1-3.072-3.072v-1.116a3.077 3.077 0 0 1 3.072-3.072h32.592a3.077 3.077 0 0 1 3.07 3.072v1.114a3.074 3.074 0 0 1-3.07 3.074zM25.083 47.81a2.837 2.837 0 0 0-2.832 2.83v1.113a2.837 2.837 0 0 0 2.832 2.832h32.592a2.834 2.834 0 0 0 2.83-2.832v-1.114a2.834 2.834 0 0 0-2.83-2.832l-32.592.003z" fill="#263238"/><path d="M57.672 33.592h-32.59a2.952 2.952 0 0 0-2.952 2.952v1.111a2.952 2.952 0 0 0 2.952 2.952h32.59a2.952 2.952 0 0 0 2.952-2.952v-1.111a2.952 2.952 0 0 0-2.952-2.952z" fill="#fff"/><path d="M57.675 40.728H25.083a3.075 3.075 0 0 1-3.072-3.072v-1.114a3.074 3.074 0 0 1 3.072-3.07h32.592a3.074 3.074 0 0 1 3.07 3.07v1.114a3.074 3.074 0 0 1-3.07 3.072zm-32.592-7.015a2.834 2.834 0 0 0-2.832 2.83v1.113a2.837 2.837 0 0 0 2.832 2.832h32.592a2.835 2.835 0 0 0 2.83-2.832v-1.114a2.832 2.832 0 0 0-2.83-2.83H25.083zM51.504 59.022H31.253a2.952 2.952 0 0 0-2.952 2.952v1.11a2.952 2.952 0 0 0 2.952 2.953h20.251a2.952 2.952 0 0 0 2.952-2.952v-1.111a2.952 2.952 0 0 0-2.952-2.952zM74.023 14.414v-3.12a2.049 2.049 0 0 0-2.05-2.052H10.74a2.05 2.05 0 0 0-2.05 2.052v3.12h65.333z" fill="#263238"/><path d="M74.026 14.533H8.691a.12.12 0 0 1-.12-.12v-3.12a2.174 2.174 0 0 1 2.16-2.16h61.243a2.174 2.174 0 0 1 2.172 2.16v3.12a.12.12 0 0 1-.12.12zm-65.215-.24h65.095v-2.995a1.934 1.934 0 0 0-1.932-1.92H10.743a1.934 1.934 0 0 0-1.92 1.92l-.012 2.995z" fill="#263238"/><path d="M64.56 13.101a.948.948 0 1 0 0-1.896.948.948 0 0 0 0 1.896z" fill="#fff"/><path d="M64.56 13.22a1.069 1.069 0 1 1 0-2.138 1.069 1.069 0 0 1 0 2.138zm0-1.896a.828.828 0 1 0 0 1.655.828.828 0 0 0 0-1.655z" fill="#263238"/><path d="M67.76 13.101a.948.948 0 1 0 0-1.896.948.948 0 0 0 0 1.896z" fill="#fff"/><path d="M67.76 13.22a1.068 1.068 0 1 1 0-2.137 1.068 1.068 0 0 1 0 2.137zm0-1.896a.828.828 0 1 0 0 1.656.828.828 0 0 0 0-1.656z" fill="#263238"/><path d="M71.904 12.153a.96.96 0 1 0-1.92 0 .96.96 0 0 0 1.92 0z" fill="#fff"/><path d="M70.956 13.22a1.069 1.069 0 1 1 0-2.138 1.069 1.069 0 0 1 0 2.138zm0-1.896a.828.828 0 1 0 0 1.655.828.828 0 0 0 0-1.655zM25.88 51.91l-.315-.189.396-.557-.593-.225.132-.341.564.3-.06-.689h.396l-.065.689.572-.3.124.34-.59.24.4.553-.326.19-.319-.627-.317.617zM27.872 51.91l-.315-.189.396-.557-.59-.225.13-.341.563.3-.06-.689h.406l-.065.689.571-.3.125.34-.59.24.4.553-.326.19-.319-.627-.326.617zM29.866 51.91l-.317-.189.396-.557-.59-.225.13-.341.566.3-.06-.689h.405l-.067.689.571-.3.125.34-.59.24.4.553-.324.19-.321-.627-.324.617zM31.858 51.91l-.317-.189.396-.557-.59-.225.13-.341.566.3-.06-.689h.417l-.064.689.568-.3.127.34-.592.24.4.553-.323.19-.322-.627-.336.617zM33.84 51.91l-.317-.189.396-.557-.59-.225.13-.341.566.3-.06-.689h.406l-.065.689.571-.3.125.34-.59.24.398.553-.324.19-.322-.627-.324.617zM35.842 51.91l-.315-.189.394-.557-.59-.225.13-.341.566.3-.06-.689h.405l-.065.689.572-.3.124.34-.59.24.4.553-.326.19-.319-.627-.326.617zM37.834 51.91l-.314-.189.393-.557-.59-.225.132-.341.564.3-.06-.689h.405l-.064.689.57-.3.126.34-.59.24.4.553-.326.19-.32-.637-.326.627zM39.826 51.91l-.315-.189.396-.557-.59-.225.13-.341.563.3-.06-.689h.406l-.065.689.572-.3.124.34-.59.24.4.553-.326.19-.319-.627-.326.617zM41.818 51.91l-.314-.189.396-.557-.59-.225.129-.341.566.3-.06-.689h.406l-.068.689.572-.3.125.34-.59.24.4.553-.324.19-.322-.627-.326.617zM43.812 51.91l-.317-.189.396-.557-.59-.225.13-.341.566.3-.06-.689h.405l-.064.689.568-.3.125.34-.59.24.4.553-.323.19-.322-.627-.324.617zM45.804 51.91l-.317-.189.396-.557-.59-.225.13-.341.566.3-.06-.689h.406l-.065.689.571-.3.125.34-.59.24.398.553-.324.19-.322-.627-.324.617zM47.796 51.91l-.314-.189.394-.557-.59-.225.129-.341.566.3-.06-.689h.406l-.065.689.571-.3.125.34-.59.24.4.553-.326.19-.322-.627-.324.617zM49.788 51.91l-.314-.189.393-.557-.59-.225.132-.341.564.3-.06-.689h.406l-.065.689.57-.3.126.34-.59.24.4.553-.326.19-.32-.627-.326.617zM51.78 51.91l-.314-.189.396-.557-.593-.225.132-.341.564.3-.06-.689h.415l-.065.689.572-.3.124.34-.59.24.4.553-.326.19-.319-.627-.336.617zM53.772 51.91l-.314-.189.396-.557-.59-.225.129-.341.566.3-.062-.689h.405l-.064.689.57-.3.126.34-.59.24.4.553-.326.19-.32-.627-.326.617zM55.767 51.91l-.317-.189.396-.557-.59-.225.129-.341.566.3-.06-.689h.406l-.067.689.571-.3.125.34-.59.24.4.553-.324.19-.321-.627-.324.617zM25.88 37.811l-.315-.19.396-.556-.593-.226.132-.34.564.302-.06-.692h.396l-.065.692.572-.303.124.341-.59.24.4.552-.326.19-.319-.627-.317.617zM27.872 37.811l-.315-.19.396-.556-.593-.226.13-.34.564.302-.06-.692h.406l-.065.692.571-.303.125.341-.59.24.4.552-.326.19-.32-.627-.323.617zM29.866 37.811l-.317-.19.396-.556-.59-.226.13-.34.566.302-.06-.692h.405l-.067.692.571-.303.125.341-.59.24.4.552-.324.19-.321-.627-.324.617zM31.858 37.811l-.317-.19.396-.556-.59-.226.13-.34.566.302-.06-.692h.417l-.064.692.568-.303.127.341-.592.24.4.552-.323.19-.322-.627-.336.617zM33.84 37.811l-.317-.19.396-.556-.59-.226.13-.34.566.302-.06-.692h.406l-.065.692.571-.303.125.341-.59.24.398.552-.324.19-.322-.627-.324.617zM35.842 37.811l-.315-.19.394-.556-.59-.226.13-.34.566.302-.06-.692h.405l-.065.692.572-.303.124.341-.59.24.4.552-.326.19-.319-.627-.326.617zM37.834 37.811l-.314-.19.393-.556-.59-.226.132-.34.564.302-.06-.692h.405l-.064.692.57-.303.126.341-.59.24.4.552-.326.19-.32-.636-.326.626zM39.826 37.811l-.315-.19.396-.556-.59-.226.13-.34.563.302-.06-.692h.406l-.065.692.572-.303.124.341-.59.24.4.552-.326.19-.319-.627-.326.617zM41.818 37.811l-.314-.19.396-.556-.59-.226.129-.34.566.302-.06-.692h.406l-.068.692.572-.303.125.341-.59.24.4.552-.324.19-.322-.627-.326.617zM43.812 37.811l-.317-.19.396-.556-.59-.226.13-.34.566.302-.06-.692h.405l-.064.692.568-.303.125.341-.59.24.4.552-.323.19-.322-.627-.324.617zM45.804 37.811l-.317-.19.396-.556-.59-.226.13-.34.566.302-.06-.692h.406l-.065.692.571-.303.125.341-.59.24.398.552-.324.19-.322-.627-.324.617zM47.796 37.811l-.314-.19.394-.556-.596-.226.13-.34.566.302-.06-.692h.406l-.065.692.571-.303.125.341-.59.24.4.552-.326.19-.322-.627-.319.617zM49.788 37.811l-.314-.19.393-.556-.59-.226.132-.34.564.302-.06-.692h.406l-.065.692.57-.303.126.341-.59.24.4.552-.326.19-.32-.627-.326.617zM51.78 37.811l-.314-.19.396-.556-.593-.226.132-.34.564.302-.06-.692h.415l-.065.692.572-.303.124.341-.59.24.4.552-.326.19-.319-.627-.336.617zM53.772 37.811l-.314-.19.396-.556-.59-.226.129-.34.566.302-.062-.692h.405l-.064.692.57-.303.126.341-.59.24.4.552-.326.19-.32-.627-.326.617zM55.767 37.811l-.317-.19.396-.556-.59-.226.129-.34.566.302-.06-.692h.406l-.067.692.571-.303.125.341-.59.24.4.552-.324.19-.321-.627-.324.617zM35.847 31.679v-2.08h.516a.572.572 0 0 1 .3.069.404.404 0 0 1 .163.197c.036.099.053.204.05.31a.66.66 0 0 1-.057.285.422.422 0 0 1-.17.185.545.545 0 0 1-.284.067h-.24v.96l-.278.007zm.29-1.176h.132a.553.553 0 0 0 .211-.024.18.18 0 0 0 .104-.098.54.54 0 0 0 .03-.2.902.902 0 0 0-.023-.24.153.153 0 0 0-.092-.11.534.534 0 0 0-.213-.031h-.137l-.012.703zM36.87 31.678l.44-2.08h.28l.443 2.08h-.273l-.096-.523h-.423l-.1.523h-.272zm.41-.732h.345l-.173-.936-.172.936zM38.734 31.71a.548.548 0 0 1-.298-.076.53.53 0 0 1-.182-.214.906.906 0 0 1-.072-.317l.256-.07c.006.073.018.144.036.214.015.063.045.12.09.168a.223.223 0 0 0 .17.065.22.22 0 0 0 .172-.063.254.254 0 0 0 .058-.18.371.371 0 0 0-.065-.227 1.164 1.164 0 0 0-.16-.173l-.339-.31a.573.573 0 0 1-.151-.194.62.62 0 0 1-.048-.264.48.48 0 0 1 .13-.355.497.497 0 0 1 .357-.125.656.656 0 0 1 .216.03.41.41 0 0 1 .158.1c.045.049.078.107.099.17a.828.828 0 0 1 .05.24l-.24.067a1.085 1.085 0 0 0-.029-.187.297.297 0 0 0-.081-.14.28.28 0 0 0-.334 0 .224.224 0 0 0-.06.17.33.33 0 0 0 .031.157.439.439 0 0 0 .104.127l.352.307c.08.07.151.151.21.24.06.102.091.22.088.339a.52.52 0 0 1-.065.266.427.427 0 0 1-.175.17.56.56 0 0 1-.278.065zM39.95 31.71a.552.552 0 0 1-.3-.076.529.529 0 0 1-.182-.214.906.906 0 0 1-.072-.317l.257-.07c.005.073.017.144.036.214.014.063.045.12.089.168a.224.224 0 0 0 .172.065.217.217 0 0 0 .17-.063.255.255 0 0 0 .058-.18.372.372 0 0 0-.064-.227 1.17 1.17 0 0 0-.161-.173l-.353-.31a.6.6 0 0 1-.151-.194.62.62 0 0 1-.048-.264.48.48 0 0 1 .13-.355.496.496 0 0 1 .357-.125.657.657 0 0 1 .216.03c.06.021.114.055.158.1a.48.48 0 0 1 .099.17.828.828 0 0 1 .05.24l-.24.067a1.094 1.094 0 0 0-.029-.187.298.298 0 0 0-.081-.14.28.28 0 0 0-.334 0 .223.223 0 0 0-.06.17.33.33 0 0 0 .031.157.439.439 0 0 0 .104.127l.352.307c.08.07.151.151.21.24.06.102.091.22.088.339a.52.52 0 0 1-.065.266.428.428 0 0 1-.175.17.556.556 0 0 1-.262.065zM40.944 31.678l-.34-2.08h.24l.223 1.495.28-1.486h.204l.284 1.493.218-1.502h.24l-.336 2.08h-.211l-.288-1.54-.293 1.54h-.22zM43.056 31.71a.606.606 0 0 1-.336-.084.437.437 0 0 1-.18-.24 1.07 1.07 0 0 1-.053-.358v-.79a.973.973 0 0 1 .055-.352.432.432 0 0 1 .178-.226.626.626 0 0 1 .336-.08.61.61 0 0 1 .334.08.45.45 0 0 1 .177.226c.04.113.059.233.055.352v.79a.996.996 0 0 1-.055.355.465.465 0 0 1-.177.24.59.59 0 0 1-.334.087zm0-.24a.284.284 0 0 0 .175-.046.252.252 0 0 0 .08-.134.834.834 0 0 0 .021-.202v-.912a.8.8 0 0 0-.022-.2.223.223 0 0 0-.079-.126.283.283 0 0 0-.175-.046.278.278 0 0 0-.175.046.216.216 0 0 0-.082.127.804.804 0 0 0-.021.2v.911c-.001.068.006.136.021.202.012.052.04.1.082.134.05.038.112.057.175.055v-.01zM43.92 31.679v-2.081h.42a.942.942 0 0 1 .344.055.386.386 0 0 1 .201.178c.047.1.07.209.065.319a.795.795 0 0 1-.026.22.4.4 0 0 1-.082.166.318.318 0 0 1-.149.101l.283 1.042h-.278l-.274-.96H44.2v.96h-.279zm.29-1.183h.111a.52.52 0 0 0 .2-.032.209.209 0 0 0 .115-.105.494.494 0 0 0 .036-.209.417.417 0 0 0-.068-.262.332.332 0 0 0-.264-.081h-.13v.689zM45.24 31.68v-2.081h.454a.776.776 0 0 1 .365.072c.088.043.156.119.192.21.046.114.07.236.07.358v.764c.003.127-.017.254-.058.374a.432.432 0 0 1-.188.228.661.661 0 0 1-.348.08l-.487-.006zm.29-.21h.166c.08.008.16-.013.226-.06a.288.288 0 0 0 .081-.18c.01-.094.016-.19.015-.285v-.675a1.306 1.306 0 0 0-.022-.264.216.216 0 0 0-.089-.143.404.404 0 0 0-.218-.049h-.158v1.657zM21.655 24.116v-3.328h.864c.196-.004.39.022.579.076.15.044.281.14.37.27a.96.96 0 0 1 .129.534 1.64 1.64 0 0 1-.036.363.743.743 0 0 1-.122.288.594.594 0 0 1-.24.187l.46 1.622h-.696l-.381-1.507h-.24v1.507l-.687-.012zm.68-1.92h.196a.523.523 0 0 0 .27-.043.303.303 0 0 0 .134-.163.863.863 0 0 0 .038-.269.615.615 0 0 0-.084-.35.357.357 0 0 0-.329-.123h-.24l.014.948zM24.041 24.116v-3.329h1.44v.468h-.76v.886h.597v.48h-.598v1.044h.783v.458l-1.462-.007zM26.703 24.163a1.042 1.042 0 0 1-.514-.113.72.72 0 0 1-.31-.34 1.55 1.55 0 0 1-.12-.582l.584-.098c.002.115.016.23.043.343a.4.4 0 0 0 .105.204.24.24 0 0 0 .18.067.187.187 0 0 0 .178-.081.378.378 0 0 0 .048-.19.587.587 0 0 0-.1-.35 1.693 1.693 0 0 0-.267-.286l-.344-.3a1.35 1.35 0 0 1-.302-.358.931.931 0 0 1-.117-.48.807.807 0 0 1 .24-.63.945.945 0 0 1 .66-.222.917.917 0 0 1 .41.082.64.64 0 0 1 .24.22.89.89 0 0 1 .122.3c.024.107.038.214.044.323l-.579.086c0-.1-.014-.19-.026-.267a.389.389 0 0 0-.075-.18.207.207 0 0 0-.168-.067.196.196 0 0 0-.175.09.352.352 0 0 0-.058.194.48.48 0 0 0 .08.29 1.4 1.4 0 0 0 .22.24l.336.295c.14.12.26.26.36.413.106.172.159.372.152.574a.834.834 0 0 1-.108.422.771.771 0 0 1-.298.297.93.93 0 0 1-.441.104zM27.862 24.116v-3.329h1.44v.468h-.773v.886h.595v.48h-.595v1.044h.78v.458l-1.447-.007zM29.976 24.116v-2.822h-.514v-.507h1.702v.507h-.506v2.822h-.682zM32.926 24.116v-1.318l-.648-2.01h.636l.357 1.17.33-1.17h.616l-.636 2.01v1.318h-.655zM35.381 24.162a1.097 1.097 0 0 1-.58-.133.72.72 0 0 1-.306-.374 1.646 1.646 0 0 1-.093-.585v-1.232a1.633 1.633 0 0 1 .093-.583.72.72 0 0 1 .305-.377 1.39 1.39 0 0 1 1.167 0 .72.72 0 0 1 .307.37c.066.186.098.383.093.58v1.244c.005.2-.027.398-.093.585a.72.72 0 0 1-.307.375c-.18.096-.383.14-.586.13zm0-.48a.273.273 0 0 0 .192-.058.296.296 0 0 0 .082-.16 1.03 1.03 0 0 0 .021-.217v-1.584a.995.995 0 0 0-.021-.213.295.295 0 0 0-.082-.159.264.264 0 0 0-.192-.06.24.24 0 0 0-.185.06.317.317 0 0 0-.084.159c-.013.07-.02.142-.019.213v1.575a1.03 1.03 0 0 0 .02.215c.008.061.036.117.078.161a.266.266 0 0 0 .19.058v.01zM37.757 24.162a1.118 1.118 0 0 1-.588-.13.689.689 0 0 1-.295-.375 1.846 1.846 0 0 1-.084-.592v-2.278h.67v2.371c0 .08.006.16.019.24a.37.37 0 0 0 .081.195.24.24 0 0 0 .197.074.257.257 0 0 0 .2-.074.39.39 0 0 0 .079-.195c.011-.08.017-.16.016-.24v-2.37h.67v2.277c.005.2-.024.4-.084.592a.679.679 0 0 1-.295.375c-.18.096-.382.14-.586.13zM39.195 24.116v-3.329h.864c.195-.003.389.023.576.077a.665.665 0 0 1 .37.269.96.96 0 0 1 .129.535c.001.122-.01.243-.034.363a.72.72 0 0 1-.124.276.582.582 0 0 1-.24.187l.46 1.622H40.5l-.381-1.507h-.24v1.507h-.684zm.679-1.92h.206a.535.535 0 0 0 .26-.053.3.3 0 0 0 .132-.163.791.791 0 0 0 .04-.269.595.595 0 0 0-.086-.35.356.356 0 0 0-.314-.122h-.24l.002.957zM42.605 24.116v-3.328h1.058a.944.944 0 0 1 .48.112c.127.077.226.19.284.327.064.165.095.341.09.518a1.1 1.1 0 0 1-.12.56.672.672 0 0 1-.33.285c-.153.06-.316.088-.48.084h-.308v1.44l-.674.002zm.68-1.92h.24a.452.452 0 0 0 .227-.048.24.24 0 0 0 .11-.15.99.99 0 0 0 .03-.262 1.093 1.093 0 0 0-.025-.255.254.254 0 0 0-.1-.16.413.413 0 0 0-.24-.058h-.24l-.003.933zM44.525 24.116l.645-3.329h.752l.638 3.329h-.624l-.12-.72h-.526l-.127.72h-.638zm.835-1.145h.4l-.2-1.344-.2 1.344zM47.739 24.163a1.042 1.042 0 0 1-.514-.113.72.72 0 0 1-.31-.34 1.551 1.551 0 0 1-.12-.582l.584-.098c.002.115.016.23.043.343a.402.402 0 0 0 .105.204.24.24 0 0 0 .18.067.187.187 0 0 0 .178-.081.377.377 0 0 0 .048-.19.587.587 0 0 0-.1-.35 1.774 1.774 0 0 0-.265-.286l-.345-.3c-.121-.1-.224-.222-.303-.358a.932.932 0 0 1-.117-.48.806.806 0 0 1 .24-.63.945.945 0 0 1 .66-.222.916.916 0 0 1 .41.082.64.64 0 0 1 .24.22.89.89 0 0 1 .127.31c.024.106.038.214.043.322l-.578.086a2.477 2.477 0 0 0-.026-.266.364.364 0 0 0-.075-.18.204.204 0 0 0-.168-.067.196.196 0 0 0-.175.089.353.353 0 0 0-.058.194.48.48 0 0 0 .08.29 1.4 1.4 0 0 0 .22.24l.336.296c.14.12.26.258.36.413.106.172.158.371.152.573a.833.833 0 0 1-.11.41.77.77 0 0 1-.298.298.93.93 0 0 1-.444.106zM49.762 24.163a1.038 1.038 0 0 1-.514-.113.72.72 0 0 1-.31-.34 1.597 1.597 0 0 1-.122-.582l.584-.098c.004.115.019.23.043.343a.423.423 0 0 0 .108.204.24.24 0 0 0 .177.067.188.188 0 0 0 .18-.081.377.377 0 0 0 .048-.19.587.587 0 0 0-.1-.35 1.693 1.693 0 0 0-.267-.286l-.345-.3a1.44 1.44 0 0 1-.303-.357.96.96 0 0 1-.115-.48.806.806 0 0 1 .24-.632.94.94 0 0 1 .66-.22.93.93 0 0 1 .41.081c.098.052.181.128.24.221.06.091.102.193.125.3.024.106.038.213.043.322l-.58.086a2.477 2.477 0 0 0-.027-.266.345.345 0 0 0-.074-.18.196.196 0 0 0-.166-.068.201.201 0 0 0-.177.09.353.353 0 0 0-.058.194.48.48 0 0 0 .082.29c.063.088.137.168.218.24l.338.295c.139.12.26.26.36.413.104.173.156.372.15.574a.854.854 0 0 1-.106.422.77.77 0 0 1-.298.298.93.93 0 0 1-.444.103zM51.274 24.116l-.432-3.329h.576l.24 2.035.293-2.03h.456l.304 2.025.24-2.03h.567l-.427 3.329h-.576l-.324-2.107-.31 2.107h-.607zM54.785 24.162a1.096 1.096 0 0 1-.581-.132.72.72 0 0 1-.305-.375 1.646 1.646 0 0 1-.093-.585v-1.231a1.633 1.633 0 0 1 .093-.584.72.72 0 0 1 .305-.376c.179-.093.38-.137.58-.128.204-.01.406.035.586.13a.72.72 0 0 1 .31.365c.067.186.098.383.094.58v1.244c.004.2-.028.398-.094.585a.72.72 0 0 1-.307.375c-.18.097-.384.143-.588.132zm0-.48a.273.273 0 0 0 .192-.058.297.297 0 0 0 .084-.16c.013-.072.019-.144.019-.217v-1.584c0-.071-.006-.143-.02-.213a.298.298 0 0 0-.083-.159.264.264 0 0 0-.192-.06.252.252 0 0 0-.185.06.295.295 0 0 0-.082.159.989.989 0 0 0-.021.213v1.575c0 .072.006.145.019.216.009.06.037.117.08.16a.27.27 0 0 0 .189.058v.01zM56.223 24.116v-3.328h.864c.195-.004.39.022.578.076.15.044.282.14.37.27a.96.96 0 0 1 .13.534 1.64 1.64 0 0 1-.037.363.743.743 0 0 1-.122.276.594.594 0 0 1-.24.187l.46 1.622h-.695l-.382-1.507h-.24v1.507h-.686zm.679-1.92h.197a.521.521 0 0 0 .259-.053.303.303 0 0 0 .134-.163.866.866 0 0 0 .039-.268.615.615 0 0 0-.084-.35.359.359 0 0 0-.315-.123h-.24l.01.957zM58.608 24.118v-3.33h.814c.225-.01.45.028.66.111.151.066.27.188.334.341.072.189.106.39.098.593v1.2c.008.207-.026.415-.098.61a.647.647 0 0 1-.332.35 1.475 1.475 0 0 1-.645.113l-.83.012zm.677-.48h.144a.48.48 0 0 0 .269-.058.26.26 0 0 0 .1-.178c.017-.096.024-.193.022-.29v-1.366a1.202 1.202 0 0 0-.026-.276.26.26 0 0 0-.108-.156.54.54 0 0 0-.262-.048h-.144l.005 2.372z" fill="#263238"/><path d="M30.54 63.853a.735.735 0 0 1-.406-.096.497.497 0 0 1-.208-.268 1.2 1.2 0 0 1-.06-.399v-.83c-.004-.14.017-.278.06-.41a.48.48 0 0 1 .208-.267.758.758 0 0 1 .406-.094.765.765 0 0 1 .389.084.451.451 0 0 1 .199.24c.04.113.06.231.058.35v.193h-.466v-.216c.003-.05.003-.1 0-.15a.24.24 0 0 0-.048-.114.172.172 0 0 0-.132-.043.177.177 0 0 0-.137.045.214.214 0 0 0-.053.118.847.847 0 0 0 0 .16v1.05c0 .056.005.112.015.167.008.043.029.081.06.11a.183.183 0 0 0 .127.04.167.167 0 0 0 .13-.044.218.218 0 0 0 .048-.118 1.128 1.128 0 0 0 0-.156v-.225h.456v.19c.002.12-.018.242-.058.357a.48.48 0 0 1-.197.24.72.72 0 0 1-.391.086zM31.479 63.822v-2.304h.48v.948h.405v-.948h.48v2.304h-.48v-1.02h-.405v1.02h-.48zM33.067 63.822l.447-2.304h.52l.445 2.304h-.437l-.082-.507h-.36l-.089.507h-.444zm.572-.792h.276l-.14-.932-.136.932zM34.695 63.822v-2.304h.326l.514 1.2v-1.2h.386v2.304h-.312l-.513-1.275v1.275h-.401zM36.86 63.858a.624.624 0 0 1-.37-.098.536.536 0 0 1-.194-.279 1.401 1.401 0 0 1-.058-.42v-.773a1.42 1.42 0 0 1 .058-.427.521.521 0 0 1 .21-.276.752.752 0 0 1 .406-.096.79.79 0 0 1 .392.084.479.479 0 0 1 .206.24.941.941 0 0 1 .062.358v.134h-.458v-.163a1.053 1.053 0 0 0 0-.16.177.177 0 0 0-.053-.109.184.184 0 0 0-.132-.04.177.177 0 0 0-.137.047.26.26 0 0 0-.055.125 1.135 1.135 0 0 0 0 .161v1.02c0 .059.005.118.017.175.008.046.03.088.065.12a.2.2 0 0 0 .134.041.192.192 0 0 0 .137-.046.24.24 0 0 0 .067-.122.803.803 0 0 0 .017-.178v-.24h-.223v-.297h.648v1.183h-.307l-.03-.206a.438.438 0 0 1-.136.172.396.396 0 0 1-.266.07zM37.898 63.822v-2.304h1.004v.324h-.533v.612h.413v.326h-.413v.72h.54v.317l-1.01.005zM39.857 63.822v-2.304h.72a.658.658 0 0 1 .34.08.48.48 0 0 1 .195.225.89.89 0 0 1 .063.358.74.74 0 0 1-.084.388.465.465 0 0 1-.229.197.898.898 0 0 1-.333.058h-.209v.998h-.463zm.48-1.327h.165a.31.31 0 0 0 .159-.034.16.16 0 0 0 .074-.103.905.905 0 0 0 .005-.36.18.18 0 0 0-.07-.11.293.293 0 0 0-.17-.039h-.18l.017.646zM41.184 63.822l.449-2.304h.52l.445 2.304h-.437l-.082-.507h-.364l-.09.507h-.44zm.574-.792h.276l-.14-.932-.136.932zM43.412 63.854a.72.72 0 0 1-.358-.077.505.505 0 0 1-.214-.24 1.072 1.072 0 0 1-.084-.401l.404-.07c.002.081.012.162.03.24.01.054.036.104.075.142a.16.16 0 0 0 .123.048.132.132 0 0 0 .124-.058.25.25 0 0 0 .032-.13.403.403 0 0 0-.07-.24 1.236 1.236 0 0 0-.182-.196l-.24-.209a1.01 1.01 0 0 1-.21-.24.648.648 0 0 1-.08-.333.558.558 0 0 1 .167-.437.64.64 0 0 1 .456-.154.624.624 0 0 1 .286.058.453.453 0 0 1 .17.151.66.66 0 0 1 .087.209c.016.073.026.148.028.223l-.4.06a1.735 1.735 0 0 0-.02-.185.239.239 0 0 0-.05-.125.14.14 0 0 0-.115-.045.135.135 0 0 0-.123.06.24.24 0 0 0-.04.134.334.334 0 0 0 .057.202.92.92 0 0 0 .151.163l.24.206c.094.083.175.18.24.286a.72.72 0 0 1 .103.396.57.57 0 0 1-.074.293.52.52 0 0 1-.206.206.633.633 0 0 1-.307.063zM44.81 63.853a.72.72 0 0 1-.355-.076.496.496 0 0 1-.216-.24 1.068 1.068 0 0 1-.084-.401l.406-.07c0 .081.01.162.029.24.01.054.036.103.074.142a.165.165 0 0 0 .125.048.127.127 0 0 0 .122-.058.256.256 0 0 0 .034-.13.42.42 0 0 0-.07-.24 1.261 1.261 0 0 0-.184-.196l-.24-.209a.959.959 0 0 1-.212-.24.647.647 0 0 1-.079-.334.56.56 0 0 1 .166-.436.643.643 0 0 1 .456-.154.618.618 0 0 1 .285.058c.07.034.13.086.173.15.04.065.068.136.084.21.016.073.027.148.031.223l-.403.06a1.847 1.847 0 0 0-.017-.185.24.24 0 0 0-.053-.125.161.161 0 0 0-.24.015.24.24 0 0 0-.038.134.333.333 0 0 0 .055.202c.044.06.095.115.151.163l.24.206c.094.083.175.18.24.286a.72.72 0 0 1 .106.396.596.596 0 0 1-.074.293.533.533 0 0 1-.207.206.642.642 0 0 1-.305.063zM45.857 63.822l-.297-2.304h.398l.158 1.408.202-1.406h.317l.211 1.404.158-1.406h.394l-.298 2.304h-.396l-.225-1.46-.214 1.46h-.408zM48.288 63.853a.747.747 0 0 1-.4-.09.509.509 0 0 1-.214-.26 1.202 1.202 0 0 1-.062-.406v-.859a1.168 1.168 0 0 1 .062-.403.492.492 0 0 1 .214-.257.77.77 0 0 1 .4-.089c.141-.006.28.025.406.09a.51.51 0 0 1 .214.256c.045.13.066.266.062.403v.86c.004.137-.017.275-.062.405a.509.509 0 0 1-.214.26.763.763 0 0 1-.406.09zm0-.338a.185.185 0 0 0 .135-.04.218.218 0 0 0 .057-.116.715.715 0 0 0 .015-.149v-1.09c0-.05-.005-.1-.015-.148a.24.24 0 0 0-.055-.11.194.194 0 0 0-.134-.041.175.175 0 0 0-.127.04.214.214 0 0 0-.058.11.722.722 0 0 0-.014.15v1.09a.973.973 0 0 0 0 .148c.007.041.026.08.055.11a.178.178 0 0 0 .141.046zM49.284 63.822v-2.304h.598c.135-.003.269.014.398.053.105.03.196.096.257.187.066.111.098.24.091.37 0 .084-.008.169-.026.252a.456.456 0 0 1-.084.19.401.401 0 0 1-.173.129l.32 1.123h-.48l-.265-1.044h-.163v1.044h-.473zm.48-1.322h.135a.375.375 0 0 0 .18-.036.22.22 0 0 0 .093-.113.597.597 0 0 0 .027-.187.425.425 0 0 0-.058-.24.24.24 0 0 0-.218-.084h-.159v.66zM50.935 63.822V61.52h.562c.156-.007.312.019.459.074a.446.446 0 0 1 .24.24c.05.13.073.27.07.41v.84c.004.144-.02.286-.07.42a.463.463 0 0 1-.228.24 1.041 1.041 0 0 1-.45.077l-.583.002zm.48-.326h.101a.324.324 0 0 0 .185-.04.184.184 0 0 0 .07-.123c.01-.067.015-.134.014-.202v-.96a.83.83 0 0 0-.017-.192.164.164 0 0 0-.074-.105.351.351 0 0 0-.18-.034h-.099v1.656z" fill="#EAE9EA"/><path d="M31.709 45.74a.572.572 0 0 1-.343-.09.48.48 0 0 1-.168-.24 1.14 1.14 0 0 1-.048-.349v-.734a1.2 1.2 0 0 1 .048-.367.44.44 0 0 1 .168-.24.61.61 0 0 1 .343-.084.578.578 0 0 1 .31.072c.075.047.133.12.163.204a.913.913 0 0 1 .05.321v.164h-.273v-.147a1.693 1.693 0 0 0 0-.204.24.24 0 0 0-.063-.137.333.333 0 0 0-.353 0 .24.24 0 0 0-.072.15 1.245 1.245 0 0 0-.016.222v.826a.974.974 0 0 0 .024.24.216.216 0 0 0 .086.13.277.277 0 0 0 .158.038.24.24 0 0 0 .17-.053.24.24 0 0 0 .063-.144c.01-.072.015-.144.015-.216v-.153h.273v.153c.003.113-.013.226-.045.334a.44.44 0 0 1-.159.228.555.555 0 0 1-.331.076zM33.04 45.74a.605.605 0 0 1-.335-.081.446.446 0 0 1-.18-.24 1.069 1.069 0 0 1-.053-.358v-.79a.974.974 0 0 1 .055-.352.434.434 0 0 1 .18-.226.615.615 0 0 1 .334-.077.607.607 0 0 1 .334.08.444.444 0 0 1 .18.225c.038.113.057.231.055.35v.792c.002.121-.017.241-.056.356a.48.48 0 0 1-.18.24.586.586 0 0 1-.333.081zm0-.24a.264.264 0 0 0 .176-.048.24.24 0 0 0 .08-.132.84.84 0 0 0 .02-.201v-.912a.8.8 0 0 0-.02-.2.24.24 0 0 0-.08-.13.296.296 0 0 0-.175-.042.3.3 0 0 0-.175.043.24.24 0 0 0-.082.13.958.958 0 0 0-.02.199v.912c0 .067.007.135.02.201a.24.24 0 0 0 .082.132c.049.04.111.062.175.06V45.5zM33.893 45.72v-2.081h.2l.59 1.382V43.64h.24v2.08h-.185l-.598-1.42v1.42h-.247zM35.249 45.72v-2.081h.804v.208h-.514v.694h.399v.204h-.399v.974h-.29zM36.269 45.72v-2.081h.286v2.08h-.286zM36.89 45.72v-2.081h.418a.957.957 0 0 1 .346.055.396.396 0 0 1 .201.178c.048.1.07.209.065.319a.898.898 0 0 1-.026.22.412.412 0 0 1-.082.166.307.307 0 0 1-.149.099l.296 1.044h-.279l-.271-.977h-.226v.977h-.292zm.291-1.186h.11a.576.576 0 0 0 .2-.029c.05-.02.09-.057.112-.105a.493.493 0 0 0 .036-.209.41.41 0 0 0-.067-.264.335.335 0 0 0-.264-.08h-.127v.687zM38.218 45.72l.038-2.081h.286l.367 1.68.37-1.68h.28l.041 2.08h-.24l-.021-1.51-.353 1.51h-.166l-.348-1.51-.024 1.51h-.23zM40.505 45.72v-2.08h.516a.599.599 0 0 1 .3.066.413.413 0 0 1 .163.197c.036.1.053.206.05.312a.667.667 0 0 1-.057.286.422.422 0 0 1-.17.184.56.56 0 0 1-.284.065h-.24v.96l-.278.01zm.29-1.176h.135a.54.54 0 0 0 .197-.029.19.19 0 0 0 .103-.098.54.54 0 0 0 .03-.2.91.91 0 0 0-.02-.24.153.153 0 0 0-.092-.11.555.555 0 0 0-.216-.031H40.8l-.005.708zM41.52 45.72l.442-2.081h.278l.444 2.08h-.276l-.094-.525h-.424l-.101.525h-.269zm.41-.733h.348l-.175-.938-.173.938zM43.395 45.742a.48.48 0 0 1-.48-.29.83.83 0 0 1-.072-.315l.257-.07c.005.072.016.144.033.214.016.062.046.12.089.168a.264.264 0 0 0 .343 0 .264.264 0 0 0 .058-.183.365.365 0 0 0-.065-.225 1.185 1.185 0 0 0-.16-.173l-.351-.31a.607.607 0 0 1-.151-.197.644.644 0 0 1-.048-.261.48.48 0 0 1 .13-.355.496.496 0 0 1 .357-.125.66.66 0 0 1 .216.031c.06.02.114.054.158.098a.502.502 0 0 1 .099.168.829.829 0 0 1 .05.24l-.24.068a1.43 1.43 0 0 0-.031-.19.279.279 0 0 0-.082-.137.28.28 0 0 0-.333 0 .221.221 0 0 0-.06.17.332.332 0 0 0 .03.157.48.48 0 0 0 .106.127l.35.307c.081.07.151.15.21.24.06.102.092.22.088.338a.52.52 0 0 1-.064.267.427.427 0 0 1-.176.17.555.555 0 0 1-.261.068zM44.61 45.742a.48.48 0 0 1-.48-.29.88.88 0 0 1-.073-.315l.257-.07c.005.072.016.144.033.214.016.062.047.12.09.168a.264.264 0 0 0 .343 0 .264.264 0 0 0 .057-.183.364.364 0 0 0-.065-.225 1.174 1.174 0 0 0-.16-.173l-.35-.31a.61.61 0 0 1-.152-.197.646.646 0 0 1-.048-.261.481.481 0 0 1 .13-.355.497.497 0 0 1 .357-.125.659.659 0 0 1 .216.031c.06.02.114.054.158.098.044.05.078.107.101.168a.923.923 0 0 1 .048.24l-.24.068a1.106 1.106 0 0 0-.03-.19.278.278 0 0 0-.083-.137.28.28 0 0 0-.333 0 .22.22 0 0 0-.06.17.334.334 0 0 0 .031.157.48.48 0 0 0 .106.127l.35.307c.08.07.15.15.209.24.061.102.092.22.089.338a.52.52 0 0 1-.065.267.426.426 0 0 1-.175.17.555.555 0 0 1-.262.068zM45.6 45.72l-.338-2.081h.24l.223 1.495.28-1.488h.205l.283 1.495.218-1.502h.24l-.333 2.08h-.21l-.29-1.54-.292 1.54H45.6zM47.715 45.74a.605.605 0 0 1-.336-.081.446.446 0 0 1-.18-.24 1.069 1.069 0 0 1-.053-.358v-.79a.974.974 0 0 1 .055-.352.435.435 0 0 1 .18-.226.615.615 0 0 1 .334-.077.607.607 0 0 1 .333.08.458.458 0 0 1 .18.225c.04.113.058.231.055.35v.792c.002.121-.016.241-.055.356a.494.494 0 0 1-.18.24.586.586 0 0 1-.333.081zm0-.24a.266.266 0 0 0 .175-.048.24.24 0 0 0 .08-.132.834.834 0 0 0 .02-.201v-.912a.8.8 0 0 0-.02-.2.24.24 0 0 0-.08-.13.376.376 0 0 0-.35 0 .24.24 0 0 0-.082.13.813.813 0 0 0-.02.2v.912a.848.848 0 0 0 .02.201c.012.052.04.098.081.132.05.04.112.062.176.06V45.5zM48.566 45.72v-2.081h.42a.935.935 0 0 1 .344.055.377.377 0 0 1 .201.178c.047.1.07.209.065.319a.901.901 0 0 1-.024.22.414.414 0 0 1-.084.166.297.297 0 0 1-.149.099l.295 1.044h-.278l-.274-.977h-.225v.977h-.29zm.29-1.186h.104a.587.587 0 0 0 .202-.029.22.22 0 0 0 .112-.105.494.494 0 0 0 .036-.209.425.425 0 0 0-.067-.264.34.34 0 0 0-.264-.08h-.13l.008.687zM49.9 45.718v-2.08h.452a.774.774 0 0 1 .365.072c.088.044.157.12.194.21a.932.932 0 0 1 .058.351v.766c.003.126-.016.252-.058.372a.464.464 0 0 1-.19.24.663.663 0 0 1-.347.079l-.473-.01zm.289-.208h.166c.08.007.16-.015.225-.063a.276.276 0 0 0 .082-.18 2.35 2.35 0 0 0 .014-.283v-.677a1.29 1.29 0 0 0-.022-.261.225.225 0 0 0-.088-.147.406.406 0 0 0-.219-.045h-.158v1.656zM95.04 15.821a7.934 7.934 0 1 1-7.932-7.934 7.895 7.895 0 0 1 7.932 7.934z" fill="#263238"/><path d="M87.103 23.873a8.059 8.059 0 0 1-8.054-8.052 8.052 8.052 0 1 1 8.054 8.053zm0-15.866a7.812 7.812 0 0 0-4.826 13.956 7.713 7.713 0 0 0 4.826 1.68 7.814 7.814 0 0 0 0-15.626v-.01z" fill="#263238"/><path d="M90.415 14.58a3.313 3.313 0 1 0-6.625.004 3.313 3.313 0 0 0 6.625-.005z" fill="#fff"/><path d="M87.103 18.013a3.434 3.434 0 1 1-.005-6.868 3.434 3.434 0 0 1 .005 6.868zm0-6.626a3.195 3.195 0 1 0-.004 6.39 3.195 3.195 0 0 0 .004-6.39z" fill="#263238"/><path d="M92.002 22.057a7.92 7.92 0 0 1-9.8 0 5.017 5.017 0 0 1 9.8 0z" fill="#fff"/><path d="M87.103 23.873a7.94 7.94 0 0 1-4.975-1.724.119.119 0 0 1-.043-.117 5.136 5.136 0 0 1 10.034 0 .118.118 0 0 1-.043.117 8.043 8.043 0 0 1-4.973 1.724zm-4.766-1.865a7.702 7.702 0 0 0 4.766 1.625c1.724 0 3.4-.572 4.764-1.625a4.896 4.896 0 0 0-9.53 0zM82.233 82.435V59.36a10.15 10.15 0 1 1 20.297 0v23.076h4.188V59.36a14.352 14.352 0 0 0-14.337-14.337 14.354 14.354 0 0 0-14.338 14.337v23.076h4.19z" fill="#263238"/><path d="M110.131 72.397H75.957v38.171h34.174V72.397z" fill="#D4D3D4"/><path d="m110.131 75.643-34.174 34.173v.751h3.416l30.758-30.756v-4.168zM75.957 81.903v12.475L97.94 72.397H85.464l-9.507 9.506z" fill="#fff"/><path d="M110.131 110.687H75.957a.12.12 0 0 1-.12-.12v-38.16a.12.12 0 0 1 .12-.12h34.174a.12.12 0 0 1 .12.12v38.16a.123.123 0 0 1-.035.085.123.123 0 0 1-.085.035zm-34.051-.24h33.931v-37.92H76.08v37.92z" fill="#263238"/><path d="M110.131 72.397h-7.193v38.171h7.193V72.397z" fill="#263238"/><path d="M110.131 110.687h-7.2a.123.123 0 0 1-.085-.035.123.123 0 0 1-.035-.085v-38.16a.12.12 0 0 1 .12-.12h7.2a.12.12 0 0 1 .12.12v38.16a.123.123 0 0 1-.035.085.123.123 0 0 1-.085.035zm-7.073-.24h6.96v-37.92h-6.96v37.92zM90.377 87.498a2.401 2.401 0 1 0-3.331 2.206l-.44 5.2h2.753l-.442-5.2a2.4 2.4 0 0 0 1.46-2.206z" fill="#263238"/><path d="M89.36 95.025h-2.754a.121.121 0 0 1-.114-.08.115.115 0 0 1-.006-.05l.432-5.116a2.515 2.515 0 1 1 2.127 0l.432 5.117a.108.108 0 0 1-.032.091.115.115 0 0 1-.086.038zm-2.624-.24h2.491l-.427-5.07a.12.12 0 0 1 .072-.12 2.275 2.275 0 1 0-1.78 0 .123.123 0 0 1 .073.12l-.43 5.07z" fill="#263238"/><path d="m22.353 87.922-1.86 9.681-2.973 8.854-.735 1.382s-.823 1.2-.91 2.117a1.043 1.043 0 0 0 1.429 1.123c.648-.302.993-1.555 1.123-2.116.13-.562.389-1.556.48-1.901.055-.214.142-.418.26-.605 0 0 5.135-8.551 5.135-8.81 0-.26 2.42-6.57 2.42-6.57l.48.044 1.418 7.04-3.977 8.255s-1.253 1.469-1.166 1.642c.3.388.649.737 1.036 1.039.26.173 1.2 1.68 1.901 1.858.7.177.96.345.823-.216a16.981 16.981 0 0 0-.607-1.68c-.086-.26-.257-2.069-.257-2.069l5.964-7.87-.78-9.725-9.204-1.473z" fill="#fff"/><path d="M16.91 111.286c-.235 0-.465-.074-.657-.211a1.206 1.206 0 0 1-.495-1.128c.087-.929.893-2.124.927-2.175l.72-1.373 2.966-8.834 1.856-9.665a.118.118 0 0 1 .134-.096l9.216 1.476a.123.123 0 0 1 .1.11l.778 9.73a.113.113 0 0 1-.024.082l-5.932 7.836c.067.72.187 1.817.24 1.994.026.077.076.207.141.367.187.432.343.876.466 1.33.043.18.067.36-.041.463-.108.103-.312.063-.629-.024a5.117 5.117 0 0 0-.297-.079c-.51-.13-1.105-.871-1.539-1.414a3.605 3.605 0 0 0-.4-.463 5.97 5.97 0 0 1-1.078-1.082c-.036-.075-.123-.24 1.173-1.762l3.96-8.208-1.401-6.919-.296-.026c-.96 2.488-2.351 6.196-2.38 6.448-.03.252-3.6 6.286-5.153 8.864a2.107 2.107 0 0 0-.24.573l-.1.403c-.119.461-.28 1.088-.373 1.496-.194.842-.56 1.905-1.2 2.2-.14.061-.29.09-.442.087zm5.54-23.225-1.839 9.566-2.978 8.88-.742 1.4c-.014.024-.81 1.2-.895 2.073a.96.96 0 0 0 .394.912.866.866 0 0 0 .864.091c.417-.194.801-.936 1.056-2.035.096-.41.257-1.041.374-1.5l.103-.403c.058-.227.15-.444.274-.643 2.011-3.346 5.04-8.443 5.12-8.76 0-.24 1.854-5.11 2.425-6.595a.12.12 0 0 1 .123-.077l.48.043a.125.125 0 0 1 .108.096l1.425 7.044a.12.12 0 0 1 0 .077l-3.976 8.256-.017.026c-.518.607-1.09 1.349-1.14 1.529.291.36.622.686.986.972.17.153.323.324.454.511.391.48.98 1.222 1.411 1.33l.302.081c.13.048.266.075.404.082a.668.668 0 0 0-.032-.24 9.964 9.964 0 0 0-.456-1.294c-.064-.165-.12-.3-.146-.381-.089-.264-.24-1.906-.264-2.093a.13.13 0 0 1 .024-.084l5.935-7.836-.787-9.593-8.99-1.435z" fill="#263238"/><path d="M25.046 109.062c-.49-.431-.957-.888-1.397-1.371-.12.183-.196.324-.172.37.3.388.649.738 1.036 1.039.26.173 1.2 1.68 1.901 1.858.463.115.72.24.821.127-1.404-.37-1.817-1.742-2.189-2.023z" fill="#fff"/><path d="M27.12 111.244a1.82 1.82 0 0 1-.444-.091l-.295-.077c-.509-.129-1.104-.871-1.538-1.413a3.547 3.547 0 0 0-.401-.464 5.97 5.97 0 0 1-1.078-1.082c-.046-.094 0-.218.183-.492a.114.114 0 0 1 .09-.052.119.119 0 0 1 .053.007.118.118 0 0 1 .044.031c.432.478.893.931 1.38 1.356.153.144.284.312.386.496.34.531.809 1.256 1.76 1.505a.12.12 0 0 1 .083.082.112.112 0 0 1 .005.059.118.118 0 0 1-.026.054.241.241 0 0 1-.202.081zm-3.528-3.213c.292.355.622.676.984.96.17.152.322.324.454.511.372.465.924 1.154 1.348 1.313a4.111 4.111 0 0 1-1.082-1.232 1.95 1.95 0 0 0-.326-.434c-.46-.398-.896-.823-1.306-1.272a.652.652 0 0 0-.067.154h-.005z" fill="#263238"/><path d="M18.108 110c-.451.454-.98.795-1.541.627-.66-.197-.502-1.2-.326-1.824a3.758 3.758 0 0 0-.365 1.152 1.045 1.045 0 0 0 1.428 1.123c.353-.163.617-.614.804-1.078z" fill="#fff"/><path d="M16.91 111.284c-.236 0-.466-.073-.657-.211a1.202 1.202 0 0 1-.495-1.131c.057-.418.183-.824.375-1.2a.121.121 0 0 1 .062-.067.118.118 0 0 1 .093-.003.119.119 0 0 1 .07.154c-.153.555-.326 1.508.24 1.68.442.132.898-.06 1.426-.588a.125.125 0 0 1 .151-.014.12.12 0 0 1 .046.144c-.24.605-.538.991-.867 1.145a1.06 1.06 0 0 1-.444.091zm-.919-1.236a.96.96 0 0 0 .399.83.866.866 0 0 0 .863.092 1.25 1.25 0 0 0 .48-.5 1.365 1.365 0 0 1-1.2.272.783.783 0 0 1-.542-.694zM22.354 87.922l-1.86 9.681-2.974 8.854s.264.948 1.44.427a2.19 2.19 0 0 1 .204-.427s5.136-8.551 5.136-8.81c0-.26 2.42-6.57 2.42-6.57l.48.044 1.42 7.04-3.977 8.255s.519.871 1.747.55l5.948-7.846-.78-9.725-9.204-1.473z" fill="#263238"/><path d="M25.87 107.158a1.585 1.585 0 0 1-1.33-.676.131.131 0 0 1 0-.116l3.955-8.208-1.401-6.919-.296-.026c-.96 2.489-2.352 6.197-2.38 6.449-.03.252-3.6 6.285-5.153 8.863-.08.128-.145.265-.195.408a.13.13 0 0 1-.064.069 1.295 1.295 0 0 1-1.102.077.972.972 0 0 1-.5-.583.116.116 0 0 1 0-.07l2.977-8.853 1.855-9.665a.118.118 0 0 1 .134-.096l9.207 1.466a.123.123 0 0 1 .1.11l.778 9.73a.113.113 0 0 1-.024.082l-5.947 7.838a.116.116 0 0 1-.065.044c-.179.049-.364.075-.55.076zm-1.088-.748c.128.168.598.679 1.536.453l5.895-7.783-.773-9.586-8.998-1.44-1.838 9.567-2.957 8.832a.74.74 0 0 0 .36.401 1.053 1.053 0 0 0 .854-.063c.054-.14.12-.275.2-.403 2.011-3.346 5.04-8.443 5.119-8.76 0-.24 1.855-5.11 2.426-6.595a.12.12 0 0 1 .123-.077l.48.043a.125.125 0 0 1 .108.096l1.425 7.044a.12.12 0 0 1 0 .077l-3.96 8.194z" fill="#263238"/><path d="m29.652 74.424-1.078.199-4.939 14.362s.936 1.644 3.975 1.617c3.038-.026 3.916-.511 3.916-.511l-.086-8.686 1.246-5.745s-1.927-1.179-3.034-1.236z" fill="#fff"/><path d="M27.53 90.719c-3.01 0-3.96-1.61-3.998-1.68a.118.118 0 0 1 0-.099l4.939-14.359a.116.116 0 0 1 .091-.08l1.078-.198h.029c1.123.055 3.01 1.2 3.088 1.25a.116.116 0 0 1 .056.127l-1.244 5.734.087 8.671a.124.124 0 0 1-.063.108c-.038.02-.943.497-3.974.526h-.089zm-3.77-1.752c.177.254 1.2 1.533 3.84 1.514 2.525-.024 3.547-.367 3.797-.468l-.084-8.606a.09.09 0 0 1 0-.027l1.228-5.664c-.357-.209-1.944-1.116-2.88-1.17l-.993.181-4.908 14.24z" fill="#263238"/><path d="M35.215 70.48a12.22 12.22 0 0 1-.07 1.5c-.067.182-.408.432-.408.593 0 .16.387.794.32.96-.068.165-.752.34-.752.34s-.568 1.114-.842 1.227c-.274.113-1.342-.432-1.342-.432l-.614 1.891s-.271.523-1.296.362c-1.025-.16-1.387-.544-1.44-.794-.053-.25-.158-.32-.022-.593.137-.273.341-.864.341-.864l1.296-2.729.204-1.25s.456-.886 2.139-1.068c1.682-.182 2.486.857 2.486.857z" fill="#fff"/><path d="M30.578 77.067c-.128-.001-.257-.012-.384-.032-1.04-.163-1.473-.569-1.534-.892a1.206 1.206 0 0 0-.043-.164.551.551 0 0 1 .031-.504c.133-.261.334-.844.337-.85l1.293-2.726.202-1.233a.197.197 0 0 1 0-.036c.019-.039.504-.946 2.232-1.133 1.728-.187 2.55.866 2.587.912.015.02.024.046.024.072.011.515-.015 1.031-.077 1.543-.055.116-.13.22-.223.31-.065.072-.175.194-.178.24.034.113.077.223.13.329.149.33.24.54.18.671-.077.176-.5.32-.78.397-.14.268-.598 1.12-.876 1.238-.279.117-.96-.204-1.318-.374l-.57 1.754c-.006.038-.246.478-1.033.478zm.134-6.341-.199 1.228a.145.145 0 0 1 0 .034l-1.296 2.729c0 .012-.204.59-.34.866a.32.32 0 0 0-.02.32c.022.064.04.13.053.196.034.188.353.547 1.332.699.915.141 1.162-.284 1.171-.303l.607-1.867a.121.121 0 0 1 .068-.074.114.114 0 0 1 .1 0c.492.24 1.11.48 1.241.427.132-.053.516-.655.78-1.171a.125.125 0 0 1 .077-.063c.24-.049.468-.142.672-.276-.04-.166-.1-.328-.177-.48a1.34 1.34 0 0 1-.152-.427.72.72 0 0 1 .24-.4c.071-.072.132-.153.18-.24.05-.471.07-.944.06-1.417-.144-.168-.895-.945-2.347-.787-1.452.159-1.98.895-2.042 1.006h-.008z" fill="#263238"/><path d="M34.032 74.056a.061.061 0 0 1-.029 0 .806.806 0 0 1-.658-.648.12.12 0 0 1 .194-.106.12.12 0 0 1 .044.08.588.588 0 0 0 .48.444.12.12 0 0 1 .09.1.12.12 0 0 1-.004.046.122.122 0 0 1-.117.084zM34.692 72a.123.123 0 0 1-.094-.043.588.588 0 0 0-.554-.211.122.122 0 0 1-.154-.128.119.119 0 0 1 .087-.102.824.824 0 0 1 .809.287.125.125 0 0 1-.017.17.134.134 0 0 1-.077.027zM34.349 72.41c-.027.116-.11.197-.19.18-.08-.016-.125-.124-.1-.24.023-.115.107-.199.189-.182.081.017.125.125.1.243zM32.121 74.663l-.66-.59.48 1.228.18-.638z" fill="#263238"/><path d="M31.94 75.422a.12.12 0 0 1-.111-.076l-.48-1.23a.12.12 0 0 1 .043-.14.12.12 0 0 1 .149 0l.66.59a.117.117 0 0 1 .033.122l-.18.636a.123.123 0 0 1-.11.089l-.005.01zm-.183-.924.165.427.065-.22-.23-.207zM31.68 71.572a9.873 9.873 0 0 0 1.18-.48c.24-.161-.088-.684.116-.864.204-.18 1.092-.274 1.57-.116.477.159.499.524.96.456.46-.067 1.022-.432.772-1.07a2.196 2.196 0 0 0-1.615-1.25c-.614-.068-1.25.09-2.047 0-.797-.092-1.613-.387-2.047.48-.435.866-.795 1.797-.636 2.25.158.454.228 1.026.41 1.117.182.091 1.337-.523 1.337-.523z" fill="#263238"/><path d="M30.367 72.221a.22.22 0 0 1-.096-.02c-.168-.083-.24-.361-.334-.72-.04-.155-.081-.316-.134-.465-.146-.42.062-1.185.643-2.345.403-.808 1.116-.7 1.802-.595.123.02.24.039.365.053.38.034.761.034 1.14 0 .302-.026.606-.026.907 0a2.296 2.296 0 0 1 1.712 1.325.801.801 0 0 1-.032.72 1.176 1.176 0 0 1-.835.511.679.679 0 0 1-.619-.216 1.06 1.06 0 0 0-.391-.24c-.454-.151-1.294-.053-1.44.089-.048.043-.024.185 0 .31.034.196.072.441-.125.566-.388.188-.79.348-1.2.48-.5.264-1.094.547-1.363.547zm1.185-3.972a.896.896 0 0 0-.892.535c-.675 1.347-.72 1.92-.631 2.16.055.159.098.324.141.48.055.21.137.526.209.562.11.014.72-.255 1.231-.52h.02a9.433 9.433 0 0 0 1.156-.464c.058-.038.043-.158.014-.324-.028-.166-.064-.398.085-.53.24-.224 1.2-.3 1.68-.137.179.06.343.158.48.288a.45.45 0 0 0 .427.16.96.96 0 0 0 .664-.393.567.567 0 0 0 .015-.511 2.069 2.069 0 0 0-1.515-1.176 4.994 4.994 0 0 0-.866 0 6.71 6.71 0 0 1-1.18 0c-.126-.015-.24-.034-.375-.053a4.482 4.482 0 0 0-.663-.077z" fill="#263238"/><path d="M31.78 71.89s-.09-1.09-.568-.886c-.478.204-.432 1.25-.137 1.454a.413.413 0 0 0 .547-.112" fill="#fff"/><path d="M31.282 72.647a.48.48 0 0 1-.274-.091c-.22-.151-.302-.583-.266-.931a.833.833 0 0 1 .424-.732.362.362 0 0 1 .344.016c.316.19.384.89.39.96a.12.12 0 1 1-.24.022c-.02-.254-.114-.689-.275-.787a.123.123 0 0 0-.125 0 .624.624 0 0 0-.28.535.895.895 0 0 0 .165.72c.199.14.374-.08.381-.089a.122.122 0 0 1 .08-.045.12.12 0 0 1 .09.025.122.122 0 0 1 .045.08.12.12 0 0 1-.025.09.597.597 0 0 1-.434.227z" fill="#263238"/><path d="M28.438 76.643 23.89 91.4s-1.184-.931-1.841-1.57c-.658-.638-.819-.818-.819-.818l1.637-3.614.295-1.16-4.8 3.185-.818-1.615 4.08-3.638s2.5-6.936 2.66-7.027c.158-.091 4.708-.704 4.708-.704l-.555 2.204z" fill="#D4D3D4"/><path d="M23.89 91.52a.122.122 0 0 1-.075-.026s-1.2-.943-1.85-1.577c-.65-.633-.819-.818-.826-.825a.118.118 0 0 1-.02-.127l1.637-3.617.214-.838-4.54 3.012a.122.122 0 0 1-.174-.045l-.818-1.616a.12.12 0 0 1 .027-.144l4.048-3.619c2.506-6.948 2.655-7.032 2.703-7.06.163-.094 3.377-.536 4.752-.72a.122.122 0 0 1 .105.038.125.125 0 0 1 .027.11l-.54 2.206L24 91.439a.12.12 0 0 1-.08.08l-.03.002zm-2.518-2.529c.088.094.305.314.758.754.516.499 1.366 1.188 1.697 1.452l4.493-14.588.501-2.03c-1.718.24-4.161.58-4.473.665-.216.374-1.68 4.337-2.621 6.96a.144.144 0 0 1-.034.05l-4 3.576.72 1.411 4.684-3.108a.12.12 0 0 1 .18.057.116.116 0 0 1 .003.07l-.298 1.179-1.61 3.552z" fill="#263238"/><path d="M29.417 74.05s-.684-.182-1.025.16c-.34.34-1.591 2.138-1.272 2.318.32.18 1.18-.296 1.18-.296l.138.41.979-2.591z" fill="#fff"/><path d="M28.438 76.764a.12.12 0 0 1-.11-.084l-.092-.274c-.28.14-.876.399-1.174.228a.216.216 0 0 1-.108-.172c-.064-.48 1.068-2.048 1.356-2.336.387-.386 1.11-.199 1.14-.192a.12.12 0 0 1 .075.063.112.112 0 0 1 0 .096l-.965 2.592a.12.12 0 0 1-.122.079zm.57-2.64a.744.744 0 0 0-.53.173c-.403.403-1.38 1.92-1.289 2.143.169.091.72-.125 1.054-.31a.12.12 0 0 1 .103 0 .122.122 0 0 1 .07.072l.029.09.808-2.144a1.732 1.732 0 0 0-.244-.026v.002zM23.162 84.36h-.026a.117.117 0 0 1-.091-.142l1.478-6.8a.123.123 0 0 1 .144-.093.12.12 0 0 1 .091.144l-1.478 6.794a.123.123 0 0 1-.118.096zM26.96 80.287h-.02l-2.32-.41a.111.111 0 0 1-.078-.05.11.11 0 0 1-.019-.09l.137-.75a.115.115 0 0 1 .132-.097l2.297.271a.12.12 0 0 1 .103.135.113.113 0 0 1-.044.08.117.117 0 0 1-.088.023l-2.184-.26-.096.522 2.093.37.086-.306a.119.119 0 0 1 .1-.085.12.12 0 0 1 .13.15l-.112.41a.122.122 0 0 1-.118.087z" fill="#263238"/><path d="M24.444 78.4a.12.12 0 0 1-.118-.1c0-.054-.24-1.365-.297-2.092a.12.12 0 0 1 .11-.13.12.12 0 0 1 .13.11c.053.72.295 2.055.297 2.07a.123.123 0 0 1-.098.139l-.024.002zM24.206 78.64s-.403-.676-.674-1.106a.122.122 0 0 1 .082-.183.12.12 0 0 1 .09.021.12.12 0 0 1 .032.035c.271.432.677 1.109.677 1.109l-.207.125z" fill="#263238"/><path d="M31.507 76.56s-1.118 4.699-1.09 6.132c.03 1.432.406 9.026.406 9.026s1.457-.271 1.702-.353l1.188-.377s-1.65-5.352-1.65-5.539c0-.187.298-1.46.298-1.46s.975 2.19 1.11 2.35c.134.161 3.856 1.841 3.856 1.841l.331-1.975-2.352-2.16s-.51-4.08-.51-4.404c0-.324.133-2.378.133-2.378l-2.944-2.324-.478 1.62z" fill="#D4D3D4"/><path d="M30.82 91.831a.123.123 0 0 1-.074-.026.113.113 0 0 1-.043-.089c0-.077-.38-7.61-.406-9.029-.026-1.418 1.05-5.97 1.095-6.163l.48-1.622a.121.121 0 0 1 .077-.082.12.12 0 0 1 .112.022l2.945 2.323a.117.117 0 0 1 .046.1c0 .022-.135 2.055-.135 2.372 0 .24.327 2.926.507 4.346l2.318 2.132a.12.12 0 0 1 .036.108l-.338 1.97a.12.12 0 0 1-.06.086.123.123 0 0 1-.108 0c-1.126-.506-3.761-1.706-3.9-1.872-.14-.165-.684-1.396-.977-2.05-.103.457-.216.982-.216 1.083.024.195.996 3.399 1.644 5.503a.12.12 0 0 1-.08.15s-.942.297-1.185.378c-.242.082-1.658.344-1.718.356l-.02.004zm.805-15.247c-.034.14-1.114 4.714-1.088 6.099.024 1.308.346 7.85.399 8.88.48-.09 1.375-.264 1.55-.322.175-.058.819-.262 1.078-.343-.425-1.375-1.62-5.28-1.62-5.46 0-.18.271-1.356.302-1.488a.115.115 0 0 1 .106-.091.124.124 0 0 1 .12.07c.372.837.996 2.207 1.09 2.322.146.128 2.272 1.112 3.671 1.745l.296-1.759-2.302-2.117a.112.112 0 0 1-.038-.074c-.022-.166-.514-4.08-.514-4.419 0-.338.108-1.97.13-2.323l-2.756-2.174-.424 1.454z" fill="#263238"/><path d="M40.517 87.507s-1.178.257-1.48.286a3.455 3.455 0 0 1-1.136-.12c-.257-.091-.756-.288-.756-.288a.807.807 0 0 1-.029-.468c.075-.166.48-.151.48-.151l2.556.257.365.484z" fill="#fff"/><path d="M38.849 87.924c-.334 0-.666-.045-.987-.137-.259-.091-.76-.288-.76-.288a.121.121 0 0 1-.07-.072.918.918 0 0 1-.026-.56c.103-.227.518-.222.597-.22l2.563.257a.132.132 0 0 1 .084.048l.363.48a.118.118 0 0 1-.018.162.124.124 0 0 1-.054.027c-.048 0-1.188.257-1.493.288-.06.01-.127.015-.2.015zm-1.606-.627c.134.053.494.192.698.264.353.096.718.135 1.083.116.22-.024.943-.173 1.284-.24l-.218-.29-2.504-.267c-.156 0-.34.033-.362.081a.633.633 0 0 0 .02.336zM32.361 84.103h-.03a.122.122 0 0 1-.085-.149l1.325-4.8a.123.123 0 0 1 .104-.09.124.124 0 0 1 .124.06.122.122 0 0 1 .012.095l-1.325 4.8a.12.12 0 0 1-.124.084zM32.686 81.183h-.032l-1.404-.379a.118.118 0 0 1-.088-.13l.081-.65a.13.13 0 0 1 .053-.084.122.122 0 0 1 .096-.017l1.594.406a.12.12 0 0 1-.012.235.117.117 0 0 1-.046-.002l-1.464-.372-.05.41 1.303.35a.121.121 0 0 1-.031.24v-.007z" fill="#263238"/><path d="M33.173 81.346a.125.125 0 0 1-.07-.022.12.12 0 0 1-.029-.166l.812-1.164a.12.12 0 0 1 .196.14l-.81 1.161a.117.117 0 0 1-.1.05z" fill="#263238"/><path d="m31.39 77.309.297-.298s.675.783.811.54c.137-.242.404-.864.188-1.89-.216-1.028-.564-.997-.564-.997l-.615 1.896-.117.749z" fill="#fff"/><path d="M32.419 77.715c-.216 0-.545-.319-.737-.53l-.209.206a.12.12 0 0 1-.19-.03.119.119 0 0 1-.011-.073l.117-.756.62-1.906a.116.116 0 0 1 .103-.081c.074 0 .465.012.69 1.09.215 1.015-.033 1.68-.2 1.972a.2.2 0 0 1-.161.108h-.022zm-.74-.825a.117.117 0 0 1 .087.04c.17.222.382.407.624.545a2.606 2.606 0 0 0 .166-1.792c-.115-.55-.271-.78-.37-.862l-.576 1.766-.058.375.037-.039a.13.13 0 0 1 .09-.033z" fill="#263238"/><path d="m46.546 88.209-1.421 9.6-3.257 9.343s-1.123 1.2-1.44 2.559c-.317 1.358.58 1.44 1.046 1.084.466-.355 1.59-3.333 1.628-3.487.038-.153 4.898-8.429 4.97-8.534.072-.106 2.4-6.903 2.4-6.903l1.704 6.67 3.533 9.698s.24 1.668.816 2.328c.576.66 1.44 1.124 1.589.543.148-.581.038-1.591-.39-2.055-.385-.46-.748-.941-1.084-1.44L55.4 97.612l-.769-9.36-8.085-.043z" fill="#fff"/><path d="M57.782 111.487c-.41 0-.96-.42-1.349-.847-.578-.655-.816-2.208-.842-2.378l-3.511-9.68-1.608-6.29c-.756 2.199-2.215 6.44-2.287 6.547-.041.063-4.832 8.218-4.952 8.504-.026.115-1.159 3.163-1.68 3.547a.878.878 0 0 1-.96.091c-.225-.146-.453-.48-.268-1.301.295-1.296 1.296-2.429 1.44-2.594l3.247-9.322 1.413-9.573a.122.122 0 0 1 .12-.101l8.086.045a.12.12 0 0 1 .12.11l.768 9.36 1.236 9.97c.328.484.681.951 1.058 1.397.454.495.584 1.539.416 2.16a.434.434 0 0 1-.324.339.506.506 0 0 1-.123.016zm-7.305-19.735a.12.12 0 0 1 .11.091l1.706 6.668 3.524 9.681v.024c0 .017.24 1.639.784 2.263.43.48.972.824 1.236.761.046-.012.113-.041.15-.168.15-.566.028-1.519-.363-1.944-.39-.46-.756-.94-1.095-1.44a.108.108 0 0 1-.021-.053l-1.241-10.003-.758-9.25-7.872-.045-1.404 9.492-3.262 9.36a.125.125 0 0 1-.026.043s-1.107 1.2-1.407 2.503c-.12.528-.06.898.166 1.047a.645.645 0 0 0 .693-.084c.42-.315 1.53-3.209 1.584-3.423.056-.213 4.932-8.498 4.978-8.565.082-.163 1.476-4.203 2.4-6.874a.122.122 0 0 1 .118-.084z" fill="#263238"/><path d="m55.399 97.61-.768-9.36-8.086-.045-1.42 9.6-2.573 7.382 1.495.464c1.423-2.458 3.97-6.792 4.025-6.876.055-.084 2.4-6.903 2.4-6.903l1.704 6.67 2.798 7.68 1.428-.48-1.003-8.131z" fill="#263238"/><path d="M54.979 106.347a.121.121 0 0 1-.113-.08l-2.798-7.68-1.608-6.29c-.756 2.198-2.215 6.44-2.288 6.547-.072.108-2.572 4.356-4.012 6.867a.12.12 0 0 1-.14.055l-1.495-.463a.123.123 0 0 1-.072-.063.11.11 0 0 1-.01-.047c0-.016.004-.032.01-.046l2.573-7.383 1.414-9.573a.122.122 0 0 1 .12-.101l8.085.045a.12.12 0 0 1 .12.11l.768 9.36 1.008 8.132a.116.116 0 0 1-.017.078.113.113 0 0 1-.064.049l-1.428.48-.053.003zm-4.502-14.595a.12.12 0 0 1 .11.091l1.706 6.668 2.758 7.569 1.226-.413-.998-8.037-.759-9.245-7.872-.046-1.404 9.492-2.539 7.289 1.287.396c1.425-2.46 3.921-6.72 3.979-6.799.082-.163 1.476-4.202 2.4-6.874a.123.123 0 0 1 .105-.09zM41.482 110.79c.24-.18.66-1.07 1.012-1.908l-.818.941-.96-.271.168-.982c-.195.358-.343.74-.44 1.136-.32 1.358.572 1.435 1.038 1.084z" fill="#263238"/><path d="M40.968 111.088a.688.688 0 0 1-.382-.108c-.225-.146-.453-.48-.268-1.301a4.75 4.75 0 0 1 .45-1.164.12.12 0 0 1 .224.075l-.149.873.792.224.768-.884a.122.122 0 0 1 .073-.04.123.123 0 0 1 .133.082.12.12 0 0 1-.004.083c-.48 1.135-.833 1.795-1.051 1.961-.17.125-.375.195-.586.199zm-.38-1.507c-.014.05-.026.101-.038.151-.12.528-.06.898.166 1.047a.647.647 0 0 0 .694-.084c.067-.051.254-.264.66-1.143l-.31.348a.117.117 0 0 1-.122.039l-.96-.272a.126.126 0 0 1-.089-.086zM58.114 111.103c.153-.583.038-1.591-.39-2.054l-.09-.106.208 1.306-.775.271-1.231-1.629c.122.54.346 1.279.689 1.68.58.648 1.433 1.113 1.589.532z" fill="#263238"/><path d="M57.782 111.486c-.41 0-.96-.42-1.348-.847-.39-.427-.588-1.161-.72-1.723a.117.117 0 0 1 .062-.141.117.117 0 0 1 .083-.007c.027.008.05.026.066.05l1.18 1.56.598-.209-.192-1.2a.119.119 0 0 1 .209-.096l.089.101c.454.494.583 1.538.415 2.16a.434.434 0 0 1-.324.338.517.517 0 0 1-.117.014zm-1.68-2.032c.1.371.27.719.502 1.024.43.48.972.824 1.236.761.046-.012.113-.041.149-.168a2.696 2.696 0 0 0-.166-1.646l.127.804a.119.119 0 0 1-.015.08.125.125 0 0 1-.064.052l-.765.278a.116.116 0 0 1-.074.001.118.118 0 0 1-.06-.042l-.87-1.144z" fill="#263238"/><path d="M46.545 88.209s1.666 2.944 3.977 3.076c2.311.133 4.109-3.03 4.109-3.03l-7.934-.317-.152.27z" fill="#fff"/><path d="M50.666 91.41h-.15c-2.35-.134-4.006-3.016-4.08-3.139a.127.127 0 0 1 0-.117l.15-.272a.123.123 0 0 1 .11-.06l7.935.317a.123.123 0 0 1 .101.063.12.12 0 0 1 0 .117c-.07.123-1.78 3.091-4.066 3.091zm-3.983-3.204c.24.408 1.804 2.842 3.84 2.96 1.92.11 3.482-2.16 3.892-2.801l-7.658-.305-.075.146z" fill="#263238"/><path d="M49.164 77.04s-2.604 1.266-2.619 1.44c-.014.172-1.766 7.113-1.766 7.113s-.622 1.39.16 1.826c.783.437 2.18-1.013 2.18-1.013l-.574 1.815c1.375.621 2.855.98 4.361 1.056 1.92.098 3.725-1.01 3.725-1.01l-.276-1.92s1.613 1.087 2.187.835c.573-.252 1.005-.766 1.005-1.11 0-.343-.273-.436-.734-.943-.461-.506-1.217-3.01-1.217-3.01s-.643-3.443-.804-3.72c-.16-.275-2.16-1.17-2.16-1.17l-3.468-.19z" fill="#D4D3D4"/><path d="M51.156 89.393H50.9a12.323 12.323 0 0 1-4.41-1.073.118.118 0 0 1-.06-.141l.436-1.38c-.48.417-1.378 1.058-1.987.72-.867-.48-.24-1.92-.211-1.978.592-2.367 1.73-6.922 1.756-7.082 0-.073.032-.224 2.686-1.515a.1.1 0 0 1 .058-.012l3.47.185a.093.093 0 0 1 .043 0c.48.213 2.045.933 2.213 1.221.168.288.72 3.18.818 3.759.257.845.84 2.568 1.2 2.952.144.158.274.278.377.374.24.219.389.363.389.648 0 .41-.48.96-1.078 1.217-.499.22-1.593-.396-2.078-.698l.24 1.646a.117.117 0 0 1-.055.118c-.084.048-1.707 1.039-3.552 1.039zm-4.464-1.248a12.19 12.19 0 0 0 4.221 1c1.68.085 3.248-.758 3.6-.96l-.264-1.826a.123.123 0 0 1 .053-.12.12.12 0 0 1 .132 0c.603.406 1.697.99 2.071.823.552-.24.934-.72.934-.998 0-.173-.08-.257-.312-.48-.106-.098-.24-.223-.391-.389-.48-.52-1.2-2.952-1.243-3.055-.24-1.337-.684-3.509-.792-3.696-.108-.187-1.126-.681-2.086-1.114l-3.415-.163c-.96.48-2.362 1.186-2.53 1.35-.108.491-1.589 6.402-1.761 7.094-.015.033-.576 1.315.1 1.691.574.322 1.664-.607 2.036-.99a.12.12 0 0 1 .198.04c.01.026.011.053.003.08l-.554 1.713z" fill="#263238"/><path d="M47.119 86.515h-.02a.12.12 0 0 1-.098-.14l.874-5.15-.444-1.355a.123.123 0 0 1 .077-.152.125.125 0 0 1 .153.077l.451 1.382a.155.155 0 0 1 0 .058l-.88 5.182a.12.12 0 0 1-.113.098zM54.355 86.467a.12.12 0 0 1-.12-.11l-.324-5.189a.214.214 0 0 1 0-.04l.32-1.09a.12.12 0 0 1 .102-.086.12.12 0 0 1 .046.004.117.117 0 0 1 .087.102.118.118 0 0 1-.005.047l-.312 1.068.33 5.167a.116.116 0 0 1-.028.088.118.118 0 0 1-.084.04h-.012zM51.02 88.193a16.397 16.397 0 0 1-4.306-.566.119.119 0 0 1-.098-.103.12.12 0 0 1 .167-.125c.041 0 3.922 1.17 7.721.105a.124.124 0 1 1 .065.24c-1.158.31-2.352.461-3.55.45z" fill="#263238"/><path d="M17.834 83.875c-.291.06-.579.136-.861.228-.152.077-.178.382-.382.509-.204.127-.506.305-.329.432.178.127.547.22.72-.029.183-.223.437-.377.72-.434" fill="#fff"/><path d="M16.66 85.291a.842.842 0 0 1-.48-.15.216.216 0 0 1-.1-.18c0-.171.211-.298.41-.423l.03-.02a.577.577 0 0 0 .172-.24.545.545 0 0 1 .228-.278c.291-.1.589-.18.89-.24a.12.12 0 0 1 .094.217.117.117 0 0 1-.043.018 6.871 6.871 0 0 0-.835.219.48.48 0 0 0-.11.165.76.76 0 0 1-.26.341l-.029.02a1.326 1.326 0 0 0-.29.215c.14.092.427.176.56 0 .184-.252.698-.537.856-.48a.12.12 0 0 1 .067.064.118.118 0 0 1 0 .092.123.123 0 0 1-.134.075c-.23.07-.437.203-.596.384a.509.509 0 0 1-.43.201z" fill="#263238"/><path d="M43.624 87.36a.887.887 0 0 1-.43-.142 1.397 1.397 0 0 0-.553-.206c-.145-.034-.096-.161.11-.24.257-.07.53-.059.78.03.104.043.2.102.285.176l-.192.382z" fill="#fff"/><path d="M43.624 87.483a.992.992 0 0 1-.496-.169 1.186 1.186 0 0 0-.48-.175h-.036a.202.202 0 0 1-.178-.175c0-.113.094-.223.271-.293.286-.08.59-.068.87.034.119.046.228.115.323.201a.125.125 0 0 1 .024.14l-.192.381a.118.118 0 0 1-.105.055zm-.885-.572c.191.033.373.106.533.216a.688.688 0 0 0 .283.108l.11-.22a.887.887 0 0 0-.182-.097 1.182 1.182 0 0 0-.689-.03l-.055.023z" fill="#263238"/><path d="M78.01 84.894H34.256v2.021H78.01v-2.02z" fill="url(#c)"/><path d="M78 87.036H34.258a.12.12 0 0 1-.12-.12v-2.02a.12.12 0 0 1 .12-.12H78a.12.12 0 0 1 .12.12v2.02a.12.12 0 0 1-.12.12zm-43.63-.24h43.517v-1.78h-43.51l-.007 1.78z" fill="#263238"/><path d="M26.376 76.826a9.082 9.082 0 1 0-.005 18.164 9.082 9.082 0 0 0 .005-18.164zm0 15.785a6.705 6.705 0 1 1-.005-13.41 6.705 6.705 0 0 1 .005 13.41z" fill="url(#d)"/><path d="M26.376 95.106a9.201 9.201 0 1 1 9.2-9.201 9.211 9.211 0 0 1-9.2 9.201zm0-18.16a8.962 8.962 0 1 0 8.96 8.959 8.971 8.971 0 0 0-8.96-8.96zm0 15.784a6.826 6.826 0 1 1 6.823-6.825 6.833 6.833 0 0 1-6.823 6.825zm0-13.409a6.586 6.586 0 1 0-.005 13.173 6.586 6.586 0 0 0 .005-13.172z" fill="#263238"/><path d="M70.142 84.894v9.478H72v-.053a2.201 2.201 0 0 1 4.401 0v.053H78v-9.478h-7.858z" fill="url(#e)"/><path d="M78 94.493h-1.606a.115.115 0 0 1-.086-.036.12.12 0 0 1-.034-.086v-.03a2.082 2.082 0 1 0-4.159-.02v.05a.11.11 0 0 1-.033.086.116.116 0 0 1-.087.036h-1.862a.12.12 0 0 1-.12-.12v-9.478a.12.12 0 0 1 .12-.12H78a.12.12 0 0 1 .12.12v9.478a.12.12 0 0 1-.12.12zm-1.483-.24h1.363v-9.238h-7.618v9.238h1.623a2.32 2.32 0 0 1 4.639 0h-.007z" fill="#263238"/><path d="M59.916 84.894v5.441h1.068v-.03a1.262 1.262 0 1 1 2.525 0v.03h.921v-5.44h-4.514z" fill="url(#f)"/><path d="M64.43 90.456h-.921a.122.122 0 0 1-.087-.036.121.121 0 0 1-.033-.089l.12-.026h-.12a1.142 1.142 0 0 0-2.285 0c0 .067-.053.151-.12.151h-1.068a.12.12 0 0 1-.12-.12v-5.44a.12.12 0 0 1 .12-.12h4.514a.12.12 0 0 1 .12.12v5.44a.12.12 0 0 1-.12.12zm-.804-.24h.694v-5.2h-4.284v5.2h.83a1.383 1.383 0 0 1 2.76 0zM52.337 69.89s.63-.516.343-1.032c-.288-.517-1.548-1.28-2.064-1.09-.516.19-1.53 1.262-1.606 1.663-.077.4.72.96.879.977.158.017 1.454-.746 2.447-.519z" fill="#263238"/><path d="M49.896 70.528h-.022a1.936 1.936 0 0 1-.833-.638.615.615 0 0 1-.148-.48c.086-.456 1.14-1.553 1.68-1.752.588-.221 1.92.605 2.21 1.142.331.598-.343 1.16-.374 1.183a.11.11 0 0 1-.101.024c-.696-.16-1.57.202-2.04.394a1.288 1.288 0 0 1-.372.127zm.912-2.669a.48.48 0 0 0-.151.022c-.48.182-1.464 1.229-1.53 1.574-.057.305.649.807.779.833.021 0 .153-.06.273-.108.48-.199 1.366-.564 2.122-.42.124-.117.48-.492.276-.842-.245-.44-1.253-1.059-1.77-1.059z" fill="#263238"/><path d="M51.093 69.72s-2.064.573-2.64 1.68c-.576 1.105-.611 1.355-.288 1.89.325.535 1.129 1.493 1.875 1.875.746.381 3.12-.173 3.12-.173s.72-.324.96-.898c.24-.573.744-1.377.4-2.236-.343-.86-1.874-2.045-2.351-2.18a2.286 2.286 0 0 0-1.075.041z" fill="#263238"/><path d="M50.88 75.42a2.061 2.061 0 0 1-.888-.146c-.758-.389-1.58-1.354-1.92-1.92-.372-.61-.279-.927.283-2.009.588-1.14 2.616-1.716 2.71-1.742.37-.104.76-.117 1.137-.039.54.152 2.079 1.37 2.43 2.25.304.76-.013 1.458-.267 2.018-.048.108-.096.21-.135.307-.24.612-.986.96-1.017.96-.766.182-1.547.29-2.333.321zm.878-5.669c-.215.003-.43.032-.638.09-.022 0-2.023.573-2.566 1.622-.578 1.118-.573 1.308-.29 1.773.326.54 1.109 1.462 1.826 1.83.579.297 2.386-.032 3.034-.18 0 0 .665-.31.871-.829.04-.098.089-.204.14-.317.24-.518.527-1.164.26-1.83-.33-.834-1.845-1.988-2.27-2.108a1.439 1.439 0 0 0-.371-.05h.004z" fill="#263238"/><path d="M52.596 71.17s-1.03.633-1.558 1.003a5.166 5.166 0 0 1-1.161.58.687.687 0 0 0-.37.766c.105.555.305 2.47.305 2.47l-.358.778 1.531 1.68 1.215-1.584.132-.819s1.108-.686 1.135-.844c.026-.159.343-2.48.317-2.72-.027-.24-1.188-1.31-1.188-1.31z" fill="#fff"/><path d="M50.985 78.575a.127.127 0 0 1-.088-.038l-1.532-1.68a.12.12 0 0 1-.019-.132l.343-.747c-.026-.257-.204-1.92-.3-2.426a.804.804 0 0 1 .44-.9 5.07 5.07 0 0 0 1.142-.569c.523-.367 1.553-1 1.562-1.006a.115.115 0 0 1 .144.015c.36.333 1.2 1.14 1.227 1.394.026.255-.303 2.652-.317 2.75 0 .053-.036.21-1.145.9l-.122.764a.161.161 0 0 1-.024.055l-1.215 1.584a.114.114 0 0 1-.09.046l-.006-.01zm-1.39-1.831 1.383 1.524 1.109-1.44.127-.79a.113.113 0 0 1 .055-.081 6.426 6.426 0 0 0 1.085-.78c.027-.17.334-2.46.312-2.67-.031-.129-.573-.7-1.085-1.182-.24.153-1.039.645-1.473.96a5.28 5.28 0 0 1-1.2.597.564.564 0 0 0-.29.629c.105.552.3 2.4.307 2.48a.11.11 0 0 1 0 .062l-.33.69z" fill="#263238"/><path d="M52.49 74.4a.125.125 0 0 1-.117-.09.125.125 0 0 1 .084-.148c.172-.043.335-.12.48-.223 0-.055-.147-.24-.197-.315-.087-.105-.13-.158-.13-.225s.048-.519.058-.605a.125.125 0 0 1 .134-.108.123.123 0 0 1 .106.134c-.022.178-.05.468-.058.557l.075.096c.15.185.377.466.172.646-.17.125-.36.219-.564.276l-.043.005zM52.404 74.918a.843.843 0 0 1-.583-.356.12.12 0 0 1 .111-.165c.032 0 .063.012.085.034.26.274.406.257.44.228a.116.116 0 0 1 .084-.035.117.117 0 0 1 .084.035.12.12 0 0 1 0 .17.306.306 0 0 1-.224.092l.003-.003zM52.332 76.052a1.917 1.917 0 0 1-.607-.158c-.173-.116-.67-.5-.67-.5l.975 1.68.17-.206.132-.816z" fill="#263238"/><path d="M52.03 77.198a.114.114 0 0 1-.094-.06l-.975-1.68a.12.12 0 0 1 .178-.156s.494.381.662.492c.175.079.361.127.552.141a.114.114 0 0 1 .084.046c.02.026.029.059.024.091l-.132.819a.16.16 0 0 1-.026.057l-.17.207a.121.121 0 0 1-.104.043zm-.574-1.359.593 1.02.038-.048.108-.664a1.568 1.568 0 0 1-.538-.164.803.803 0 0 1-.201-.144z" fill="#263238"/><path d="M50.08 73.255s-.362-1.09-.784-.48c-.423.61.24 1.474.573 1.455" fill="#fff"/><path d="M49.86 74.351c-.24 0-.502-.271-.648-.528a1.027 1.027 0 0 1-.012-1.104.43.43 0 0 1 .41-.24c.339.048.547.627.586.744a.12.12 0 0 1-.075.151.12.12 0 0 1-.15-.076c-.077-.224-.24-.562-.394-.581-.065 0-.132.067-.178.134a.822.822 0 0 0 .026.86c.152.268.353.405.44.405a.12.12 0 0 1 .014.24l-.02-.005zM51.83 73.428c.09 0 .163-.104.163-.23 0-.128-.073-.231-.163-.231-.09 0-.163.103-.163.23s.073.23.163.23zM53.263 73.428c.09 0 .163-.104.163-.23 0-.128-.073-.231-.163-.231-.09 0-.163.103-.163.23s.073.23.163.23zM51.4 72.82a.12.12 0 0 1-.086-.204.784.784 0 0 1 .948-.095.12.12 0 1 1-.12.208.542.542 0 0 0-.658.058.116.116 0 0 1-.084.034zM53.58 72.896a.122.122 0 0 1-.118-.086.193.193 0 0 0-.1-.135.551.551 0 0 0-.37.022.12.12 0 0 1-.09-.223c.18-.075.381-.08.565-.015a.448.448 0 0 1 .228.284.12.12 0 0 1-.115.153z" fill="#263238"/><path d="m49.45 76.18 1.339 1.701-.92.994-1.032-1.855.612-.84z" fill="#fff"/><path d="M49.87 78.995h-.015a.119.119 0 0 1-.089-.062l-1.032-1.853a.115.115 0 0 1 0-.13l.612-.84a.117.117 0 0 1 .095-.047.116.116 0 0 1 .095.047l1.344 1.697a.12.12 0 0 1 0 .156l-.922.996a.122.122 0 0 1-.088.036zm-.89-1.956.914 1.642.736-.797-1.176-1.495-.475.65z" fill="#263238"/><path d="m50.789 77.88.197.575-.466-.23.269-.344z" fill="#fff"/><path d="M50.986 78.576a.107.107 0 0 1-.053 0l-.466-.24a.13.13 0 0 1-.065-.082.113.113 0 0 1 .024-.098l.267-.346a.123.123 0 0 1 .173-.016.118.118 0 0 1 .035.052l.197.574a.12.12 0 0 1-.033.13.12.12 0 0 1-.08.026zm-.281-.391.072.036-.032-.091-.04.055z" fill="#263238"/><path d="m51.266 77.594.65 1.282.994-1.683-.67-.535-.974.936z" fill="#fff"/><path d="M51.917 78.995a.123.123 0 0 1-.104-.065l-.65-1.282a.12.12 0 0 1 .024-.141l.974-.936a.12.12 0 0 1 .159 0l.67.535a.124.124 0 0 1 .028.156l-.993 1.68a.12.12 0 0 1-.108.053zm-.504-1.375.51 1.005.831-1.404-.506-.403-.835.802z" fill="#263238"/><path d="m51.266 77.594-.28.861.47-.458-.19-.403z" fill="#fff"/><path d="M50.986 78.575a.117.117 0 0 1-.113-.156l.278-.862a.125.125 0 0 1 .108-.084.118.118 0 0 1 .115.07l.192.4a.117.117 0 0 1-.026.137l-.48.46a.125.125 0 0 1-.075.034zm.302-.658-.038.113.062-.06-.024-.053z" fill="#263238"/><path d="M43.694 86.4s-.271.77-.197.875c.075.106.341.24.413 0 .072-.24.144-.816.05-.977-.093-.16-.266.101-.266.101z" fill="#fff"/><path d="M43.745 87.539a.464.464 0 0 1-.344-.188c-.03-.043-.112-.156.178-.986v-.024c.034-.05.149-.216.295-.216a.208.208 0 0 1 .173.11c.13.216.029.845-.036 1.07a.288.288 0 0 1-.24.24l-.026-.006zm.057-1.08c-.1.248-.166.509-.197.775.042.036.094.059.15.065.016 0 .03-.024.04-.058.08-.278.104-.57.072-.857a.338.338 0 0 0-.065.075z" fill="#263238"/><path d="M44.121 86.64s-.268.77-.194.879c.075.108.34.24.413 0 .072-.24.144-.819.048-.977-.096-.159-.267.098-.267.098z" fill="#fff"/><path d="M44.174 87.776a.479.479 0 0 1-.343-.184c-.031-.044-.113-.159.178-.99v-.023c.033-.05.148-.214.292-.214a.2.2 0 0 1 .176.108c.13.216.029.845-.036 1.073a.288.288 0 0 1-.24.226.17.17 0 0 1-.027.004zm.058-1.077c-.1.248-.166.508-.197.773.04.039.093.062.149.064.017 0 .031-.021.04-.057.079-.279.103-.57.073-.857a.42.42 0 0 0-.065.077z" fill="#263238"/><path d="M44.678 86.613s-.269.77-.194.876c.074.105.34.24.413 0 .072-.24.144-.816.047-.975-.096-.158-.266.099-.266.099z" fill="#fff"/><path d="M44.73 87.745a.482.482 0 0 1-.345-.187c-.029-.04-.11-.156.18-.986a.074.074 0 0 1 .012-.024c.034-.05.15-.214.293-.214a.199.199 0 0 1 .175.108c.13.216.03.845-.036 1.07a.29.29 0 0 1-.24.228l-.038.005zm.056-1.08c-.098.25-.163.51-.194.775.041.037.093.06.148.065.017 0 .032-.024.041-.057.078-.279.103-.57.072-.857a.417.417 0 0 0-.067.074z" fill="#263238"/><path d="M45.12 86.75s-.206.655-.149.744c.058.089.26.209.315 0 .072-.27.084-.553.035-.828-.07-.142-.201.084-.201.084z" fill="#fff"/><path d="M45.163 87.73a.37.37 0 0 1-.29-.17c-.027-.041-.087-.138.134-.846v-.023c.034-.058.127-.195.252-.195a.177.177 0 0 1 .158.106c.108.199 0 .77-.026.914a.24.24 0 0 1-.204.211l-.024.003zm.07-.93c-.075.211-.125.43-.15.651a.193.193 0 0 0 .078.039v-.031c.05-.217.073-.44.064-.663l.008.005z" fill="#263238"/><path d="M17.52 85.23s-.814-.153-.886-.03c-.072.122-.113.496.149.528.262.03.814-.02.929-.18.115-.161-.192-.317-.192-.317z" fill="#fff"/><path d="M16.937 85.854c-.06.005-.12.005-.18 0a.324.324 0 0 1-.264-.182.618.618 0 0 1 .024-.523c.033-.055.115-.197 1.012-.027h.032c.038.022.24.125.278.288a.255.255 0 0 1-.04.207c-.133.182-.572.237-.862.237zm-.221-.573a.373.373 0 0 0 0 .273.087.087 0 0 0 .077.053c.293.034.75-.04.816-.13 0-.03-.06-.09-.135-.131a2.635 2.635 0 0 0-.758-.065z" fill="#263238"/><path d="M17.431 85.843s-.811-.156-.886-.03c-.074.124-.11.496.152.525.261.029.81-.017.928-.18.118-.163-.194-.315-.194-.315z" fill="#fff"/><path d="M16.862 86.466c-.06.003-.12.003-.18 0a.332.332 0 0 1-.264-.185.61.61 0 0 1 .024-.523c.032-.053.116-.195 1.013-.024h.031a.54.54 0 0 1 .276.288.241.241 0 0 1-.04.204c-.13.185-.57.24-.86.24zm-.223-.576a.403.403 0 0 0 0 .276.09.09 0 0 0 .077.053c.295.03.753-.041.818-.132 0-.03-.062-.092-.134-.13a2.78 2.78 0 0 0-.76-.067z" fill="#263238"/><path d="M17.652 86.547s-.811-.153-.886-.03c-.074.121-.11.496.151.527.262.031.812-.02.93-.18.117-.16-.195-.317-.195-.317z" fill="#fff"/><path d="M17.083 87.173h-.18a.332.332 0 0 1-.264-.185.62.62 0 0 1 .024-.523c.031-.053.118-.197 1.013-.027h.031c.038.022.24.127.276.288a.24.24 0 0 1-.04.207c-.13.187-.57.24-.86.24zm-.223-.574a.396.396 0 0 0 0 .274.091.091 0 0 0 .079.052c.293.034.751-.038.816-.13 0-.03-.067-.095-.134-.131a2.638 2.638 0 0 0-.761-.065z" fill="#263238"/><path d="M17.676 87.152s-.682-.1-.744 0c-.063.101-.106.382.113.399.218.016.686-.032.787-.159.1-.127-.156-.24-.156-.24z" fill="#fff"/><path d="M17.134 87.671h-.099a.279.279 0 0 1-.24-.158.48.48 0 0 1 .039-.427c.03-.048.105-.159.861-.048h.032c.047.019.21.098.24.24a.216.216 0 0 1-.044.187c-.13.163-.559.206-.79.206zm-.113-.437a.24.24 0 0 0 0 .169s0 .023.046.026c.228.016.458-.02.671-.103a.343.343 0 0 0-.084-.058 2.668 2.668 0 0 0-.633-.034z" fill="#263238"/><path d="M57.799 86.4s.269.77.194.875c-.074.106-.34.24-.412 0-.072-.24-.144-.816-.048-.977.096-.16.266.101.266.101z" fill="#fff"/><path d="M57.746 87.54h-.05a.29.29 0 0 1-.24-.24c-.065-.226-.166-.855-.036-1.07a.206.206 0 0 1 .173-.11c.144 0 .259.165.292.215l.012.024c.29.83.21.943.178.987a.463.463 0 0 1-.329.194zm-.122-1.155c-.03.288-.007.579.072.857a.06.06 0 0 0 .04.058.24.24 0 0 0 .159-.087 4.058 4.058 0 0 0-.206-.753.406.406 0 0 0-.065-.075z" fill="#263238"/><path d="M57.36 86.64s.269.77.194.879c-.074.108-.34.24-.412 0-.072-.24-.144-.819-.048-.977.096-.159.266.098.266.098z" fill="#fff"/><path d="M57.316 87.778a.177.177 0 0 1-.05 0 .289.289 0 0 1-.24-.226c-.065-.228-.166-.857-.036-1.073a.199.199 0 0 1 .175-.108c.14 0 .262.163.296.214a.12.12 0 0 1 0 .024c.29.83.208.945.18.989a.48.48 0 0 1-.325.18zm-.122-1.155c-.03.288-.006.578.072.857 0 .036.024.055.04.057a.21.21 0 0 0 .16-.084 4.137 4.137 0 0 0-.205-.753.428.428 0 0 0-.067-.077z" fill="#263238"/><path d="M56.813 86.613s.27.77.194.876c-.077.105-.34.24-.413 0-.072-.24-.144-.816-.048-.975.096-.158.267.099.267.099z" fill="#fff"/><path d="M56.76 87.746h-.05a.29.29 0 0 1-.24-.228c-.065-.225-.166-.854-.037-1.07a.199.199 0 0 1 .176-.108c.144 0 .259.163.292.213.006.008.01.016.012.024.29.83.21.946.18.987a.48.48 0 0 1-.333.182zm-.12-1.154c-.032.287-.008.578.07.857.011.033.023.052.04.057a.24.24 0 0 0 .159-.086 4.174 4.174 0 0 0-.204-.754.683.683 0 0 0-.065-.074z" fill="#263238"/><path d="M56.369 86.75s.206.655.148.744c-.057.089-.259.209-.312 0a1.87 1.87 0 0 1-.038-.828c.072-.142.202.084.202.084z" fill="#fff"/><path d="M56.328 87.73h-.036a.24.24 0 0 1-.204-.212c-.036-.144-.132-.72-.027-.914a.178.178 0 0 1 .161-.106c.122 0 .216.137.24.194v.024c.223.708.16.804.134.845a.37.37 0 0 1-.268.168zm-.072-.934a2.46 2.46 0 0 0 .065.662.089.089 0 0 0 .014.036.191.191 0 0 0 .081-.065 4.465 4.465 0 0 0-.158-.629l-.002-.004zM37.327 88.293a.12.12 0 0 1-.118-.094l-.27-1.24a.123.123 0 1 1 .24-.051l.273 1.238a.122.122 0 0 1-.016.091.121.121 0 0 1-.075.053l-.034.003z" fill="#263238"/><path d="m39.242 87.699 1.546-.221.72-.622s.262-.823.302-.924a.19.19 0 0 0-.136-.244.19.19 0 0 0-.104.004c-.199.06-.259.36-.259.36s-.16-.561-.321-.439a.45.45 0 0 0-.18.281s-.262-.322-.382-.22a.8.8 0 0 0-.16.4s-.303-.24-.402-.1c-.098.138 0 .38 0 .38l.12.48-.201.04-.843.04" fill="#fff"/><path d="M39.242 87.818a.12.12 0 0 1-.017-.24l1.512-.216.67-.578c.053-.166.257-.804.293-.898a.084.084 0 0 0-.02-.072s-.024-.026-.074 0c-.106.032-.166.21-.178.27a.12.12 0 1 1-.24 0 1.174 1.174 0 0 0-.16-.359.336.336 0 0 0-.108.18.12.12 0 0 1-.212.06.66.66 0 0 0-.24-.196.958.958 0 0 0-.098.319.115.115 0 0 1-.074.094.117.117 0 0 1-.118-.017.504.504 0 0 0-.24-.118c-.036.058 0 .2.024.26l.125.498a.109.109 0 0 1-.015.092.117.117 0 0 1-.079.055l-.199.038-.862.044a.117.117 0 0 1-.124-.116.122.122 0 0 1 .112-.125l.905-.052-.091-.36a.546.546 0 0 1 .02-.48.216.216 0 0 1 .153-.091.48.48 0 0 1 .264.064.618.618 0 0 1 .166-.297.206.206 0 0 1 .153-.046c.1.021.191.07.264.142a.653.653 0 0 1 .149-.161.195.195 0 0 1 .18-.029.48.48 0 0 1 .223.252.414.414 0 0 1 .216-.16.302.302 0 0 1 .398.23.319.319 0 0 1-.012.17c-.03.08-.225.687-.297.915a.122.122 0 0 1-.036.055l-.72.621a.136.136 0 0 1-.063.03l-1.545.22-.005.002z" fill="#263238"/><path d="M40.8 87.599a.125.125 0 0 1-.084-.034.12.12 0 0 1 0-.17c.089-.256.148-.52.177-.79-.019-.055-.172-.617-.19-.679a.122.122 0 0 1 .087-.149.12.12 0 0 1 .126.044.12.12 0 0 1 .02.043c.068.24.17.633.188.681-.01.353-.091.7-.24 1.02a.13.13 0 0 1-.084.034zM41.405 87.016a.112.112 0 0 1-.041 0 .12.12 0 0 1-.07-.157 1.76 1.76 0 0 0-.098-.763.12.12 0 0 1 .228-.074c.022.067.2.648.094.924a.117.117 0 0 1-.113.07zM40.428 87.574a.12.12 0 0 1-.106-.175c.064-.25.094-.508.091-.766l-.254-.506a.122.122 0 0 1 .053-.161.12.12 0 0 1 .16.053l.27.532a.147.147 0 0 1 0 .058c.004.305-.036.609-.118.903a.121.121 0 0 1-.096.062zM39.998 87.212a.122.122 0 0 1-.12-.113v-.259a.118.118 0 0 1 .068-.114.12.12 0 0 1 .045-.01.116.116 0 0 1 .088.029.117.117 0 0 1 .04.083v.26a.119.119 0 0 1-.068.113.118.118 0 0 1-.046.011h-.007zM38.988 87.562a.119.119 0 0 1-.098-.05.48.48 0 0 1 .052-.646.119.119 0 0 1 .132-.027.12.12 0 0 1 .073.112.123.123 0 0 1-.034.085.24.24 0 0 0-.017.331.12.12 0 0 1-.029.166.125.125 0 0 1-.079.029z" fill="#263238"/><defs><linearGradient id="a" x1="-.155" y1="19.067" x2="35.883" y2="119.395" gradientUnits="userSpaceOnUse"><stop stop-color="#6A50FC"/><stop offset="1" stop-color="#9150FC"/></linearGradient><linearGradient id="b" x1="6.661" y1="17.875" x2="30.82" y2="79.545" gradientUnits="userSpaceOnUse"><stop stop-color="#6A50FC"/><stop offset="1" stop-color="#9150FC"/></linearGradient><linearGradient id="c" x1="32.898" y1="85.164" x2="32.939" y2="87.382" gradientUnits="userSpaceOnUse"><stop stop-color="#6A50FC"/><stop offset="1" stop-color="#9150FC"/></linearGradient><linearGradient id="d" x1="16.728" y1="79.245" x2="23.542" y2="96.495" gradientUnits="userSpaceOnUse"><stop stop-color="#6A50FC"/><stop offset="1" stop-color="#9150FC"/></linearGradient><linearGradient id="e" x1="69.898" y1="86.157" x2="73.939" y2="94.637" gradientUnits="userSpaceOnUse"><stop stop-color="#6A50FC"/><stop offset="1" stop-color="#9150FC"/></linearGradient><linearGradient id="f" x1="59.776" y1="85.619" x2="62.094" y2="90.489" gradientUnits="userSpaceOnUse"><stop stop-color="#6A50FC"/><stop offset="1" stop-color="#9150FC"/></linearGradient></defs></svg>