<svg width="252" height="178" fill="none" xmlns="http://www.w3.org/2000/svg"><path d="M17.925 177.547s-31.162-32.778-11.311-71.321c19.84-38.543 46.47-19.141 45.205-64.013-1.277-44.871 61.267-48.697 81.17-35.686 19.903 13.021 21.661 21.403 62.764 16.232 41.103-5.17 60.21 33.018 46.712 59.52-15.78 30.953 31.748 33.945-4.364 95.341l-220.176-.073z" fill="#F4F3FF"/><g opacity=".4"><path d="M233.256 62.332c0 1.98-.178 3.93-.523 5.818a32.077 32.077 0 0 1-5.117 12.385c-5.839 8.507-15.644 14.085-26.767 14.085-13.227 0-24.602-7.892-29.645-19.214a33.425 33.425 0 0 1-1.654-4.64 32.043 32.043 0 0 1-1.119-8.424c0-2.356.251-4.66.732-6.87 0-.02.011-.052.021-.073a32.192 32.192 0 0 1 8.727-15.867 33.35 33.35 0 0 1 3.924-3.347c.67-.48 1.35-.938 2.062-1.366a32.314 32.314 0 0 1 16.952-4.764c.826 0 1.642.031 2.448.093a32.31 32.31 0 0 1 16.052 5.682 32.595 32.595 0 0 1 8.884 9.248 31.91 31.91 0 0 1 3.861 8.684 31.673 31.673 0 0 1 1.162 8.57z" fill="#fff"/><path d="M189.84 47.887c-1.298 2.044.544 5.588-3.338 4.619-3.882-.97-6.247-1.397-6.467.75-.22 2.148 2.909 2.148 2.909 4.4 0 2.252-1.402 3.003-3.558 1.929-2.155-1.074-2.773-2.627-5.284-1.658-2.501.97-3.955.323-4.531-1.605a3.035 3.035 0 0 0-.398-.845c0-.02.011-.052.021-.073a32.193 32.193 0 0 1 8.727-15.868 33.431 33.431 0 0 1 3.924-3.346c.67-.48 1.35-.938 2.062-1.366 1.015.042 2.218.417 3.244 1.69 2.26 2.793 3.767 1.396 3.233 4.618-.544 3.221.325 3.649 2.156 3.544 1.831-.104 3.987-.104 4.206 1.293.21 1.387-5.608-.125-6.906 1.918z" fill="#AFCDFB"/><path d="M203.255 67.217s-2.857.917-3.61-1.074c-.753-1.991.105-2.419-2.428-3.003-2.532-.594-2.752-2.304-4.363-2.095-1.612.219-.806.855-2.69 2.252-1.883 1.397-3.61.75-3.557 3.326.052 2.575 2.856 2.981 3.421 4.67.565 1.69-.408 2.419.806 3.701 1.214 1.293 3.474.73 2.428 2.492-1.047 1.772-2.669 3.138-1.863 5.88s.241 2.898 1.612 4.827c1.37 1.929 4.039 2.575 4.447 1.293.408-1.293-1.863-2.982-1.13-4.264.732-1.293 1.936-.407 2.427-2.336.482-1.928 2.449-1.928 2.617-3.273.156-1.345-2.376-3.378-1.403-4.243.973-.855 2.909 1.553 4.416-.595 1.507-2.147.482-3.868 2.051-5.9 1.559-2.034-2.103-2.836-3.181-1.658z" fill="#AEC3FF"/><path d="M233.256 62.33c0 1.981-.178 3.93-.523 5.818a32.078 32.078 0 0 1-5.117 12.385 3.715 3.715 0 0 1-2.596-.073c-4.039-1.605-1.046-5.963.566-8.131 1.611-2.18-2.501-1.21-5.494-3.222s.324-7.413-2.752-6.526c-3.077.886-6.791 2.012-8.57-.97s1.611-3.461.083-5.963c-1.538-2.492.89-3.952 3.956-4.191 3.076-.24 2.668-2.42 6.467-2.742 3.798-.324 3.714 4.514 7.921 4.19 4.207-.322 4.018.647 4.018.647.304-.01.597.052.879.188a31.94 31.94 0 0 1 1.162 8.59zM229.635 47.476c-3.495 1.7-4.897-2.909-7.89-1.532-3.013 1.396-2.48-1.293-4.855-3.003-2.375-1.72-7.116 1.397-6.896-1.293.22-2.68 3.767-1.929 4.531-4.076.754-2.148 4.207-1.606 4.207-1.606.199-.073.408-.125.628-.146a32.595 32.595 0 0 1 8.884 9.248 34.6 34.6 0 0 1 1.391 2.408zM200.189 38.22s1.831-2.637-1.078-3.408c-2.909-.782-2.856.24-5.117 0-2.26-.24-3.149 1.501-1.454 3.409s3.076 5.567 4.604 3.618c1.538-1.95 1.235-3.43 3.045-3.618z" fill="#AFCDFB"/></g><path d="M212.474 57.442v100.501c0 1.762-1.276 3.18-2.846 3.18H64.083c-1.57 0-2.847-1.428-2.847-3.18V57.442c0-1.762 1.277-3.18 2.847-3.18h145.545c1.57-.01 2.846 1.418 2.846 3.18z" fill="#fff"/><rect x="158.405" y="85" width="8.857" height="64.212" rx="4.428" transform="rotate(45 158.405 85)" fill="#F4F4F4"/><rect x="113" y="91.262" width="8.857" height="64.212" rx="4.428" transform="rotate(-45 113 91.262)" fill="#F4F4F4"/><path d="M212.474 57.093v7.59H61.236v-7.59a2.844 2.844 0 0 1 2.847-2.835h145.545a2.844 2.844 0 0 1 2.846 2.835z" fill="#B4A7FD"/><path d="M65.861 59.469a1.328 1.328 0 0 1 2.658 0 1.328 1.328 0 0 1-2.658 0zM71.084 59.469a1.328 1.328 0 0 1 2.657 0 1.328 1.328 0 0 1-2.657 0zM76.44 59.469a1.328 1.328 0 0 1 2.659 0c0 .73-.597 1.324-1.33 1.324a1.322 1.322 0 0 1-1.328-1.324z" fill="#DFEBFD"/><path d="M105.564 70.656c-.199.23-.231.49-.126.772.188.51.795 1.084 1.517 1.658.095.073.168.135.241.198.021.02.042.031.052.052.011.01.032.02.042.041.67.616.419.751 1.612 1.992 1.36 1.418 2.302 1.439 2.563 1.313.231-.114-.23-.855-.743-1.699-.02-.042-.052-.083-.073-.125-.063-.115-.136-.23-.199-.334-.596-1.01-.439-1.49-.303-2.992.115-1.23 1.915-6.85 1.915-6.85l-2.616-.448s-.785 4.473-1.653 5.161c-.461.365-.984.375-1.424.646l-.094.063a2.967 2.967 0 0 0-.711.552z" fill="#FFB27D"/><path d="M105.564 70.66c-.199.23-.231.49-.126.772.23.511.827 1.084 1.517 1.647.095.073.168.146.241.209.021.02.042.031.052.052.011.01.032.02.042.042.67.615.419.75 1.612 1.991 1.36 1.418 2.302 1.439 2.563 1.314.231-.115-.23-.855-.743-1.7a5.788 5.788 0 0 1-2.427-1.782c-.795-1.001-1.329-2.284-1.863-3.076-.063-.01-.094-.02-.157-.031a3.306 3.306 0 0 0-.711.563z" fill="#233862"/><path d="M126.627 69.05c.157.803 1.308.668 2.595.355 1.287-.313.984.062 2.805-.146 1.831-.198 2.386-.876 2.438-1.147.052-.24-.848-.323-1.821-.438-.125-.01-.241-.031-.366-.042-1.088-.135-1.894-.844-2.888-1.417-.942-.543-2.344-2.774-2.344-2.774l-2.501.198s1.318 1.992 1.821 2.857c.303.51.282 1.178.24 1.7-.021.28-.041.573.021.854z" fill="#FFB27D"/><path d="M129.212 69.399c1.287-.313.983.062 2.804-.146 1.831-.198 2.386-.876 2.438-1.147.053-.24-.847-.323-1.821-.438l-.01.02s-1.099.772-2.616.814c-1.235.031-2.553-.323-3.411-.313-.021.282-.042.574.021.855.167.803 1.318.667 2.595.355z" fill="#233862"/><path d="m117.031 53.084-2.344 6.276-3.055 8.195s-.827.083-1.622-.146c-.733-.209-1.57-.761-1.57-.761s.848-8.8 2.438-13.856c.408-1.292.858-2.345 1.36-2.94 2.449-2.887 4.793 3.232 4.793 3.232z" fill="#6A50FC"/><path d="M114.646 43.11c-1.329-.428-4.813-.011-8.58.666a2.558 2.558 0 0 1-2.637-1.188l-9.491-.74s-3.14 6.922-1.424 11.332c.252.647.806 1.053 1.664 1.064 0 0 5.735.01 7.576.01 4.72 0 9.994-3.232 10.674-3.367 1.119-.22 1.559 2.001 2.679 4.337 1.119 2.335 10.485 10.342 10.485 10.342s1.444.01 2.04-.209c.638-.24.879-.552.879-.552s-10.401-20.58-13.865-21.696z" fill="#7C65FF"/><path d="M102.424 14.813a3.387 3.387 0 0 0-1.81-.47c-.293.011-.586-.01-.88-.051-3.62-.532-5.807 4.712-5.932 6.297-.241 2.908-1.78 3.357-3.956 5.17-4.364 3.65-3.087 7.903-.701 9.477 1.434.95 3.955 0 3.955 0 .032.021 6.896-3.815 10.276-5.671 5.065-.72 1.078-13.543-.952-14.752z" fill="#233862"/><path d="M100.54 27.979c.011.01-1.664.583-2.783.083-1.057-.47-1.852-2.2-1.842-2.2.481-.02 1.005-.438 1.413-3.19l.21.073 3.442 1.23s-.251 1.095-.408 2.148c-.147.886-.22 1.73-.032 1.855z" fill="#FFB27D"/><path d="M100.969 23.99s-.136.595-.335 1.7c-1.978-.355-2.825-1.866-3.097-2.94l3.432 1.24z" fill="#ED975D"/><path d="M101.482 25.09s-4.709-.636-4.27-3.545c.44-2.909.126-4.952 3.15-4.681 3.024.281 3.432 1.48 3.527 2.481.094 1.022-1.172 5.838-2.407 5.745z" fill="#FFB27D"/><path d="M103.722 17.746s-3.014 2.586-5.065 2.794c-2.05.209-2.825-.448-2.825-.448s1.203-1.001 1.936-2.607c.21-.48.67-.802 1.193-.844 1.465-.136 4.238-.188 4.761 1.105z" fill="#233862"/><path d="M101.837 17.525s1.005.97 1.329 1.69c.304.698.398 2.355.157 3.012 0 0 1.57-3.044.68-4.514-.941-1.574-2.166-.188-2.166-.188z" fill="#233862"/><path d="M104.496 34.889c-.146 9.487-.042 7.506-1.088 8.403-.251.219-.952.344-1.884.406-2.92.188-8.057-.291-8.245-.823-.67-1.856-.2-2.44-.754-5.286a37.263 37.263 0 0 0-.22-.99c-.47-1.96-.92-2.628.743-5.766 1.507-2.846 3.077-5.16 3.213-5.077 3.976 2.356 4.301.375 4.301.375s4.007 4.129 3.934 8.758z" fill="#AFCDFB"/><path d="m114.678 59.361-3.056 8.194s-.826.084-1.622-.146c-.732-.208-1.569-.76-1.569-.76s.847-8.8 2.438-13.856l3.809 6.568z" fill="#7C65FF"/><path d="M100.561 26.137s4.092.688 4.573 2.45c.481 1.751 2.061 12.417 2.061 12.417s-1.151 1.125-2.113.166c-.963-.959-3.025-9.967-3.025-9.967l-1.496-5.066z" fill="#AFCDFB"/><path d="M101.524 43.697c-2.92.188-8.058-.292-8.246-.823-.67-1.856-.199-2.44-.754-5.286l1.413-3.951s-.23 4.4 1.067 5.556c1.298 1.158 5.337 2.232 5.965 3.201.303.459.502.928.555 1.303z" fill="#95B3EF"/><path d="M98.186 41.847s2.878-.637 3.349-.386c.46.25 1.601 1.178 1.748 1.502.146.323-1.036-.25-1.413-.344-.251-.063-.9.156-1.224.27-1.36.45-2.198.22-2.198.22l-.261-1.262z" fill="#FFB27D"/><path d="M96.26 25.762s-3.871.24-5.21 2.095c-1.884 2.617-5.63 13.783-3.485 15.274 2.417 1.678 10.987.438 10.987.438s.283-1.325-.115-1.971c-.398-.646-6.843-1.678-7.147-1.98-.293-.293 3.725-5.787 3.725-6.673 0-.886 1.245-7.183 1.245-7.183z" fill="#AFCDFB"/><path d="M101.67 42.262s.607.772.806.866c.199.093.325.073.325.073l-.409-.73-.722-.21zM101.524 41.473l1.758.855s-.073.125-.293.115c-.22-.01-.764-.209-.764-.209l-.701-.761z" fill="#FFB27D"/><path d="M116.519 43.46H98.185v.408h18.166l.168-.407z" fill="#233862"/><path d="M102.465 43.868h13.886l4.186-10.342-13.865-.01-4.207 10.352z" fill="#233862"/><path d="M112.846 38.696c.105-.365-.105-.657-.471-.657s-.743.292-.848.657c-.104.365.105.657.471.657.367 0 .743-.292.848-.657z" fill="#fff"/><path d="M63.485 114.611s.283-.636.471-.938c.178-.302.963-1.178 1.099-.98.136.198.67 1.543.387 1.918-.282.376.021 1.032-1.392 1.418l-.565-1.418z" fill="#FFB27D"/><path d="M47.843 110.605s7.2 5.995 10.014 5.432c2.197-.438 5.567-1.585 5.567-1.585l.67 1.721s-3.025 4.086-6.174 4.107c-4.929.042-8.57-2.126-8.57-2.126l-1.507-7.549z" fill="#95B3EF"/><path d="M35.212 173.787s.21 3.357.858 3.409c.084.011 3.307.011 3.307.011l4.112-.021s-.03-.991-1.234-1.199c-1.204-.209-3.213-1.053-3.945-2.638-.754-1.658-3.098.438-3.098.438z" fill="#1C4B8E"/><path d="M34.982 174.022s1.256.417 2.229.417a8.35 8.35 0 0 0 2.082-.292s.24-2.273 1.528-7.266c.68-2.617 1.653-5.985 3.035-10.176 3.819-11.572 4.98-18.338 5.085-18.974.01-.031.01-.052.01-.052l-.01-.011-11.73-5.129s1.454 15.941-.398 22.071c-.261.855-.481 1.856-.67 2.929-1.192 6.641-1.161 16.483-1.161 16.483z" fill="#7C65FF"/><path d="M40.82 166.87c.68-2.617 1.654-5.984 3.035-10.175 3.82-11.572 4.981-18.339 5.086-18.974v-.053l-11.73-5.129s1.454 15.941-.398 22.071c-.283.844 4.007 12.26 4.007 12.26z" fill="#6A50FC"/><path d="M44.378 173.787s.21 3.357.858 3.409c.084.011 3.307.011 3.307.011l4.113-.021s-.032-.991-1.235-1.199c-1.204-.209-3.213-1.053-3.945-2.638-.754-1.658-3.098.438-3.098.438z" fill="#1C4B8E"/><path d="M51.035 132.906s.157 10.332-1.643 23.02c-1.79 12.688-1.183 18.067-1.183 18.067s-1.235.396-1.726.438c-1.266.104-2.564-.292-2.564-.292s-2.564-12.688-1.831-19.037c.732-6.349-3.516-21.789-3.516-21.789l12.463-.407z" fill="#7C65FF"/><path d="m42.715 108.731 2.292 1.501 2.082-.584c.377-.542.482-1.584.492-2.491.01-.897-.084-1.658-.084-1.658l-3.087-1.355-1.15-.511c0 .021.094.938.104 1.074.21 2.398-.649 4.024-.649 4.024z" fill="#FFB27D"/><path d="M51.086 135.781c-2.846 2.742-13.635 2.283-14.304-.74-.66-3.024.722-25.72 5.598-27.148 1.015-.292 6.414 1.438 6.414 1.438s.848 2.21 1.403 5.025c.104.553.418 6.349.659 11.771.115 2.533.199 4.994.25 6.797.032 1.689.043 2.794-.02 2.857z" fill="#AFCDFB"/><path d="M43.584 104.743c.628 1.053 2.825 1.981 3.987 2.409.01-.897-.084-1.658-.084-1.658l-3.087-1.355c-.68-.021-1.099.125-.816.604z" fill="#FCA56B"/><path d="M48.659 105.299s-4.981 1.543-5.902-1.553c-.92-3.107-2.176-4.994.963-6.11 3.139-1.115 4.112-.114 4.667.845.565.959 1.548 6.338.272 6.818z" fill="#FFB27D"/><path d="M48.199 98.179s-.314 3.607-1.068 3.451c-.753-.157-1.58-.49-1.465.594.105 1.084-.732 2.95-1.81 2.95-2.323-.01-4.834-5.932-4.206-7.058 1.83-3.242 11.196-3.899 8.549.063z" fill="#163560"/><path d="M47.466 107.974c-.063-.031-3.704-1.658-4.133-1.512-.43.136-.953 1.439-.953 1.439l6.415 1.449c-.01-.01-.513-1.032-1.33-1.376z" fill="#95B3EF"/><path d="m70.142 125.56-20.415 19.151c-.398.376-.9.49-1.12.261l-.69-.73c-.22-.229-.064-.719.334-1.095l20.416-19.151c.397-.376.9-.49 1.12-.261l.69.73c.21.219.063.719-.335 1.095z" fill="#1F4D84"/><path d="m58.684 136.314-8.957 8.403c-.398.375-.9.49-1.12.26l-.69-.729c-.22-.23-.064-.72.334-1.095l8.957-8.403 1.476 1.564z" fill="#B4A7FD"/><path d="M65.444 118.323a15.925 15.925 0 0 0 4.343 6.964c6.435 6.037 16.564 5.724 22.623-.688 5.975-6.328 5.755-16.232-.44-22.289a5.059 5.059 0 0 0-.25-.24c-6.436-6.037-16.565-5.724-22.614.688-4.08 4.306-5.273 10.279-3.662 15.565zm4.573-14.71a14.76 14.76 0 0 1 13.258-4.41 14.68 14.68 0 0 1 7.576 3.774c5.933 5.557 6.216 14.846.638 20.757a14.61 14.61 0 0 1-7.325 4.222c-4.656 1.095-9.763-.083-13.509-3.596-5.933-5.547-6.216-14.836-.638-20.747z" fill="#1F4D84"/><path d="M91.488 123.738a14.61 14.61 0 0 1-7.325 4.222c-4.656 1.095-9.763-.083-13.509-3.597-5.933-5.557-6.215-14.846-.638-20.757a14.761 14.761 0 0 1 13.258-4.41c2.752.47 5.389 1.731 7.576 3.774 5.933 5.567 6.216 14.867.638 20.768z" fill="#F4F3FF" opacity=".5"/><path d="M51.096 132.926c-11.249-7.986-10.317-18.641-10.317-18.641 4.112 2.315 8.193 7.423 10.066 11.854.115 2.533.21 4.994.251 6.787z" fill="#95B3EF"/><path d="M62.199 129.296c.795-.187 1.329-.782 1.433-.886 0 0 .335.021-.052.74-.031.063-.105.219-.157.324-.02.041.01.093.063.104.46.031.92-.146 1.8.042.125.02.157.312.157.437-.01.209.01.449-.241.761-.147.188-.534.386-1.423.741-.335.135-1.298.031-2.198-.271l-.722-.334.22-1.334.178.041c.293.052.649-.292.942-.365z" fill="#FFB27D"/><path d="M44.274 109.344s-10.108 1.918 2.972 16.503c2.092 2.336 13.394 5.369 13.394 5.369s1.15-.969.565-1.761c0 0-7.785-5.63-9.491-6.527-.774-.406-2.993-8.987-4.249-11.051-1.245-2.075-3.191-2.533-3.191-2.533z" fill="#AFCDFB"/><path d="M63.758 114.777s.335-.626.398-.959c.063-.334.481-1.303.649-1.47.073-.073.293.021.324.313.01.125-.052.365-.167.636-.178.448-.147 1.063-.21 1.261-.157.511-.994.219-.994.219z" fill="#FFB27D"/><path d="M226.434 177.467h-51.033c-7.116-8.111-5.232-19.068 4.206-28.305 1.183-1.157 3.464-1.981 5.923-2.564 4.531-1.074 9.659-1.314 9.7-1.335.011-.01 2.711-2.189 4.333-4.139 5.043-6.088 9.334-5.557 9.334-5.557 5.137-1 9.522-1.292 12.776.511 3.014 1.668 5.054 5.15 5.818 11.531.147 1.209.241 2.523.293 3.941.189 5.181 1.214 9.789 1.821 13.688.89 5.641 1.517 9.936-3.171 12.229z" fill="#7C65FF"/><path d="M219.141 142.562c-3.119 1.689-3.464 7.266-8.351 8.705-4.886 1.439-13.174 1.314-17.872 6.391-4.531 4.9-9.533-7.569-7.388-11.072 4.531-1.074 9.658-1.314 9.7-1.335.011-.01 2.71-2.189 4.332-4.139 5.044-6.088 9.334-5.556 9.334-5.556 5.138-1.001 9.523-1.293 12.777.511 3.589 3.68.586 4.806-2.532 6.495z" fill="#6A50FC"/><path d="M185.373 166.693s.9 2.377.712 3.253c-.189.886.125 2.585-.241 3.357-.356.761-1.004 1.876-.377 2.158.241.104 2.972-2.023 3.129-2.648.157-.626.272-2.471.795-3.472.524-1.001.084-1.814-.68-2.179-.764-.365-1.821-2.377-1.821-2.377l-1.517 1.908z" fill="#FFB27D"/><path d="M199.992 144.182s-14.933-.917-16.858 1.053c-2.03 2.075 1.276 22.53 1.276 22.53s4.05.114 4.364-.949c0 0-.764-9.904-.126-11.614.628-1.71.231-4.087.231-4.087s7.921 1.178 10.432.573c2.522-.594.681-7.506.681-7.506z" fill="#233862"/><path d="M203.601 133.266c0 .01-2.197 5.119-3.275 5.661-1.078.542-4.96 4.993-5.797 4.921-.838-.073.858.907.858.907s6.906-3.357 7.304-3.556c.397-.198 2.469-3.607 2.762-5.337.293-1.731-1.852-2.596-1.852-2.596zM182.621 170.608s-.848 2.388-1.57 2.951c-.712.552-1.58 2.064-2.354 2.408-.775.355-1.978.793-1.685 1.408.115.229 3.579.365 4.102-.011.523-.375 1.81-1.71 2.856-2.147 1.047-.428 1.235-1.335.89-2.096-.345-.771.146-2.992.146-2.992l-2.385.479z" fill="#FFB27D"/><path d="M208.101 130.993c-.314-.365 7.764.542 8.842 4.649 0 0 6.215-4.879.512-8.986-1.967-1.418-2.166-2.94-2.459-4.337-.282-1.387-2.249-5.38-5.671-3.399 0 0-1.559.01-2.543.855-2.239 1.949-4.688 14.272 1.319 11.218z" fill="#163560"/><path d="M206.532 144.898s-16.23 1.648-17.664 3.305c-1.423 1.648-7.021 23.124-7.021 23.124s1.653.918 3.16.063c0 0 4.29-7.288 6.195-9.571 1.904-2.283 2.605-9.341 2.919-9.414.314-.073 10.485 1.407 13.991-1.272 3.505-2.69-1.58-6.235-1.58-6.235z" fill="#2A4E96"/><path d="M215.562 130.222s-3.871-1.72-8.779-.927c-1.005.156-1.904.49-2.626 1.668-1.015 1.668-1.486 2.554-1.486 2.554s.094.771 1.486 1.386c-.377 1.377.345 3.785-.314 4.723-.67.938-4.793 3.253-4.992 4.546-.376 2.366 7.053 6.662 9.271 6.203 6.352-1.324 10.684-18.339 7.44-20.153z" fill="#F8DAE7"/><path d="M213.374 125.343s.764-1.501.869-2.721c.073-.876-.67-4.035-3.851-3.263 0 0-.931.177-1.747.854-.66.532-1.57 1.648-.178 4.327l.387.917 4.52-.114z" fill="#163560"/><path d="M209.011 130.405c-.324.334-.199 1.459 1.308 1.376.984-.052 3.108-1.272 2.909-2.116-.094-.396-.858-1.429-1.036-3.806l-.178.053-3.014.844s.147.959.22 1.856c.063.761-.073 1.647-.209 1.793z" fill="#FFB27D"/><path d="M209 126.751s.147.959.22 1.855c1.706-.187 2.491-1.814 2.794-2.7l-3.014.845z" fill="#F4A269"/><path d="M208.937 128.138s3.945-.99 3.286-3.429c-.659-2.44-.586-4.212-3.139-3.681-2.543.532-2.784 1.595-2.763 2.461.031.865 1.57 4.848 2.616 4.649z" fill="#FFB27D"/><path d="M207.284 121.456s1.329 2.513 3.83 2.784c1.465.156 1.862 1.116 1.862 1.116s-.439-2.742-1.172-4.421c-.01 0-4.081-1.063-4.52.521z" fill="#163560"/><path d="M207.734 121.789s-.868.876-1.13 1.501c-.398.918.377 2.846.691 3.263 0 0-1.842-3.106-1.225-4.451.66-1.418 1.664-.313 1.664-.313z" fill="#163560"/><path d="M195.712 144.427s-.785.834-.879.876c-.524.24-1.172.104-1.497.177-.314.084-.261-.114-.031-.281.23-.157.805-.094.575-.157-.23-.062-1.507-.292-1.988-.167-.753.198-1.35-.031-1.402-.114-.052-.073 1.726-.939 2.239-.918.513.031 1.967-.042 1.967-.042l1.016.626zM216.901 131.754s4.897 11.009 3.537 12.625c-1.35 1.606-10.768-.344-10.768-.344l.293-1.022s6.928-.427 7.419-.563c.712-.198-3.505-7.923-3.505-7.923l3.024-2.773z" fill="#FFB27D"/><path d="M215.07 130.043c.115 0 1.58.48 2.637 2.554 1.036 2.033 1.412 3.024 1.412 3.024s-4.572 3.534-6.393 2.231c-1.831-1.303.669-7.851 2.344-7.809z" fill="#F8DAE7"/><path d="M210.769 142.967s-.785-.512-1.109-.783c-.314-.282-2.166-.501-2.156-.323 0 .188 1.078.438 1.193.626.115.187.775.949 1.329.949.555 0 .743-.469.743-.469z" fill="#FFB27D"/><path d="m208.613 144.615-2.113-.303c-.314-.041-.639-.302-.712-.584l-1.161-4.107c-.084-.282.115-.469.429-.428l2.113.303c.314.041.639.302.712.583l1.161 4.108c.084.282-.115.469-.429.428z" fill="#1F4A91"/><path d="m208.174 144.552-2.114-.302c-.314-.042-.639-.303-.712-.584l-1.161-4.108c-.084-.281.115-.469.429-.427l2.113.302c.314.042.639.302.712.584l1.162 4.108c.083.281-.116.469-.429.427z" fill="#233862"/><path d="M204.543 139.661c-.032-.115.042-.198.178-.177.136.021.261.125.293.24.031.114-.042.198-.178.177-.126-.021-.262-.125-.293-.24z" fill="#1F4A91"/><path d="M209.66 144.032s-1.423.021-1.789-.062c-.356-.084-1.277-1.221-1.026-1.503.157-.177 1.005.146 1.413.136.408 0 1.465-.584 2.187.615.083.136-.785.814-.785.814z" fill="#FFB27D"/><path d="M215.792 146.742s-1.538 1.439-7.974 1.637c-6.435.208-14.827 7.287-14.901 9.289-.073 2.002 12.955 5.036 13.164 4.754.199-.281 8.267-7.193 8.267-7.193l1.444-8.487z" fill="#7C65FF"/><path d="M229.616 165.215c-7.158-8.903-21.871 3.232-25.669 2.888-3.495-.312 6.823-12.489 19.62-14.293 5.18-.73 3.935-6.057 3.935-6.224.146 1.209.24 2.523.293 3.941.188 5.181 1.214 9.789 1.821 13.688z" fill="#6A50FC"/><path d="m248.314 178-244.097-.084a.292.292 0 0 1-.293-.292v-.156c0-.167.136-.292.293-.292l244.097.083c.168 0 .293.136.293.292v.157c.011.156-.125.292-.293.292z" fill="#2E3552"/><path d="m147.482 42.62 13.949 2.877-8.936-6.923-.607 2.002-3.453.407-.953 1.636z" fill="#95B3EF"/><path d="m161.431 45.495-11.333-6.745-11.437-1.293 22.77 8.038z" fill="#E1DCFE"/><path d="m152.495 38.573 8.936 6.923-6.603-10.363-2.333 3.44z" fill="#E1DCFE"/><path d="m59.876 81.717-13.938 2.867 8.936-6.912.596 2.002 3.464.396.942 1.647z" fill="#95B3EF"/><path d="m45.938 84.582 11.322-6.734 11.437-1.293-22.76 8.027z" fill="#E1DCFE"/><path d="m54.874 77.67-8.937 6.913 6.603-10.352 2.334 3.44z" fill="#E1DCFE"/></svg>