<svg width="206" height="213" fill="none" xmlns="http://www.w3.org/2000/svg"><path d="m72.304 185.085-56.814-4.318V20.903l56.814-4.21v168.392z" fill="url(#a)"/><path d="M20.994 79.193v67.939h-1.107v17.392h52.417v-85.33h-51.31z" fill="#D8DEE8"/><path d="M89.305 5.04s.054 36.779 8.302 53.656c8.248 16.885 11.35 33.318 5.145 42.938-6.205 9.62-30.45-5.06-30.45-5.06s-11.443 8.077-16.612 25.344c-5.168 17.267-38.783 31.658-46.025 26.793-7.242-4.864-4.14-135.198-4.14-135.198l83.78-8.474z" fill="#fff"/><path d="M8.113 158.62s20.37 9.495 35.782.725c15.412-8.778 28.407-24.549 28.407-24.549s15.677 9.605 24.096 9.067c8.419-.538 14.648-27.558 14.648-27.558s13.938-6.93 20.144-20.985c6.205-14.056 25.257-29.366 35.68-32.57 10.43-3.204 16.55 2.783 16.55 2.783l-2.588 122.515-160.947 8.427L8.113 158.62z" fill="#fff"/><path d="M99.845 9.615s-5.488 25.195 0 31.876c5.488 6.681 9.675 25.796 11.203 30.98 1.528 5.184 13.424 16.519 19.629 6.197 6.205-10.321 15.513-17.852 20.167-21.328 4.654-3.477 34.129-7.048 35.68-9.659 1.552-2.611 2.588-32.242 2.588-32.242L99.845 9.614z" fill="url(#b)"/><path d="M111.047 175.903h66.262v-149.8h-66.262v149.8z" fill="url(#c)"/><path d="M171.939 169.06V32.84h-60.891L92.783 84.275l18.265 84.785h60.891z" fill="#D8DEE8"/><path d="M89.305 5.04s.054 36.779 8.302 53.656c8.248 16.885 11.35 33.318 5.145 42.938-6.205 9.62-30.45-5.06-30.45-5.06s-11.443 8.077-16.612 25.344c-5.168 17.267-38.783 31.658-46.025 26.793-7.242-4.864-4.14-135.198-4.14-135.198l83.78-8.474z" fill="#fff"/><path d="M8.113 158.62s20.37 9.495 35.782.725c15.412-8.778 28.407-24.549 28.407-24.549s15.677 9.605 24.096 9.067c8.419-.538 14.648-27.558 14.648-27.558s13.938-6.93 20.144-20.985c6.205-14.056 25.257-29.366 35.68-32.57 10.43-3.204 16.55 2.783 16.55 2.783l-2.588 122.515-160.947 8.427L8.113 158.62zM99.845 9.615s-5.488 25.195 0 31.876c5.488 6.681 9.675 25.796 11.203 30.98 1.528 5.184 13.424 16.519 19.629 6.197 6.205-10.321 15.513-17.852 20.167-21.328 4.654-3.477 34.129-7.048 35.68-9.659 1.552-2.611 2.588-32.242 2.588-32.242L99.845 9.614z" fill="#fff"/><path d="m111.047 175.902-38.744 9.183V16.693l38.744 9.41v6.735l-7.25 14.398-2.214 118.969 9.464 2.853v6.844z" fill="url(#d)"/><path d="M111.047 146.236V34.596l-13.643-4.678-6.766-1.489-1.17-.14v68.118H72.304v49.829h38.744z" fill="#97A6B7"/><path d="M89.305 5.04s.054 36.779 8.302 53.656c8.248 16.885 11.35 33.318 5.145 42.938-6.205 9.62-30.45-5.06-30.45-5.06s-11.443 8.077-16.612 25.344c-5.168 17.267-38.783 31.658-46.025 26.793-7.242-4.864-4.14-135.198-4.14-135.198l83.78-8.474z" fill="#D8DEE8"/><path d="M8.113 158.62s20.37 9.495 35.782.725c15.412-8.778 28.407-24.549 28.407-24.549s15.677 9.605 24.096 9.067c8.419-.538 14.648-27.558 14.648-27.558s13.938-6.93 20.144-20.985c6.205-14.056 25.257-29.366 35.68-32.57 10.43-3.204 16.55 2.783 16.55 2.783l-2.588 122.515-160.947 8.427L8.113 158.62zM99.845 9.615s-5.488 25.195 0 31.876c5.488 6.681 9.675 25.796 11.203 30.98 1.528 5.184 13.424 16.519 19.629 6.197 6.205-10.321 15.513-17.852 20.167-21.328 4.654-3.477 34.129-7.048 35.68-9.659 1.552-2.611 2.588-32.242 2.588-32.242L99.845 9.614z" fill="#D8DEE8"/><path opacity=".53" d="M142.011 32.842h-1.036v143.056h1.036V32.842z" fill="url(#e)"/><path opacity=".53" d="M46.611 26.139h-1.037v149.768h1.037V26.139z" fill="url(#f)"/><path opacity=".53" d="M171.939 80.724h-60.946l-.062-.016-38.666-9.19-52.34 4.42-.085-1.03 52.503-4.435.078.015 38.689 9.199h60.829v1.037z" fill="url(#g)"/><path d="M31.377 106.964c-.366 0-.733-.172-.967-.483a1.207 1.207 0 0 1 .25-1.684s.468-.343 1.27-.951a1.203 1.203 0 0 1 1.45 1.917c-.818.624-1.286.967-1.286.967a1.248 1.248 0 0 1-.717.234z" fill="url(#h)"/><path d="M134.309 111.649c-.709 0-1.528-.101-2.502-.312a1.2 1.2 0 0 1 .506-2.346c1.162.249 2.082.319 2.635.203a1.195 1.195 0 0 1 1.435.88 1.204 1.204 0 0 1-.874 1.458c-.007 0-.031.008-.039.008-.335.07-.732.109-1.161.109zm3.929-1.115c-.452 0-.881-.249-1.084-.686a1.193 1.193 0 0 1 .569-1.598c.866-.413 1.7-.927 2.479-1.535a1.202 1.202 0 0 1 1.684.21 1.202 1.202 0 0 1-.21 1.684 16.112 16.112 0 0 1-2.924 1.816c-.163.07-.343.109-.514.109zm-9.238-.039c-.125 0-.257-.023-.382-.062a57.618 57.618 0 0 1-3.056-1.138 1.21 1.21 0 0 1-.67-1.567 1.21 1.21 0 0 1 1.567-.67c1.052.42 2.042.787 2.931 1.091a1.2 1.2 0 0 1 .756 1.52 1.223 1.223 0 0 1-1.146.826zm-5.94-2.362a1.17 1.17 0 0 1-.483-.101c-.928-.413-1.918-.865-2.931-1.341a1.202 1.202 0 0 1 1.021-2.175c.998.468 1.964.912 2.876 1.318a1.2 1.2 0 0 1-.483 2.299zm20.19-1.465c-.28 0-.561-.102-.795-.296a1.2 1.2 0 0 1-.109-1.7 18.204 18.204 0 0 0 1.778-2.409 1.207 1.207 0 0 1 1.66-.382c.561.351.733 1.092.382 1.661a20.973 20.973 0 0 1-2.011 2.713 1.192 1.192 0 0 1-.905.413zm-25.974-1.248a1.18 1.18 0 0 1-.53-.124c-.928-.46-1.895-.944-2.869-1.442a1.204 1.204 0 1 1 1.099-2.144c.967.499 1.925.974 2.838 1.426.592.297.841 1.014.545 1.614-.21.421-.639.67-1.083.67zm-82.088-1.348a1.202 1.202 0 0 1-.733-2.152c.757-.584 1.607-1.239 2.519-1.949a1.2 1.2 0 0 1 1.683.203c.406.522.32 1.279-.202 1.684-.92.717-1.77 1.38-2.534 1.964-.218.164-.475.25-.733.25zm76.397-1.559c-.187 0-.382-.047-.561-.141-.944-.499-1.887-.997-2.83-1.512a1.199 1.199 0 0 1-.484-1.63 1.197 1.197 0 0 1 1.63-.483c.935.507 1.871 1.006 2.806 1.497a1.2 1.2 0 0 1 .499 1.622c-.21.413-.624.647-1.06.647zm-71.368-2.378c-.351 0-.702-.156-.944-.452a1.203 1.203 0 0 1 .195-1.692c.803-.639 1.63-1.302 2.48-1.988a1.202 1.202 0 1 1 1.511 1.871c-.857.694-1.691 1.365-2.494 2.004a1.212 1.212 0 0 1-.748.257zm65.755-.663a1.18 1.18 0 0 1-.577-.148 702.43 702.43 0 0 1-2.798-1.559 1.21 1.21 0 0 1-.46-1.637 1.21 1.21 0 0 1 1.637-.46c.92.515 1.847 1.037 2.783 1.551.584.32.795 1.053.467 1.638a1.21 1.21 0 0 1-1.052.615zm-5.574-3.133a1.3 1.3 0 0 1-.6-.156c-.943-.546-1.87-1.076-2.775-1.606a1.207 1.207 0 0 1-.437-1.645 1.207 1.207 0 0 1 1.645-.437c.897.523 1.816 1.053 2.76 1.599a1.2 1.2 0 0 1 .444 1.637 1.17 1.17 0 0 1-1.037.608zm-55.223-.219a1.2 1.2 0 0 1-.764-2.128 297.59 297.59 0 0 0 2.432-2.042 1.2 1.2 0 1 1 1.551 1.832c-.787.67-1.614 1.364-2.456 2.058-.218.187-.49.28-.764.28zm49.704-3c-.21 0-.421-.056-.616-.172-.959-.57-1.879-1.123-2.752-1.645a1.203 1.203 0 0 1 1.248-2.058 427.19 427.19 0 0 0 2.736 1.637 1.204 1.204 0 0 1-.616 2.237zm-44.832-1.131c-.335 0-.67-.14-.905-.413a1.207 1.207 0 0 1 .117-1.7c.827-.725 1.63-1.434 2.37-2.105a1.206 1.206 0 0 1 1.7.086 1.206 1.206 0 0 1-.086 1.7c-.756.686-1.56 1.403-2.401 2.135a1.259 1.259 0 0 1-.795.297zm39.36-2.175c-.219 0-.43-.055-.632-.18a265.737 265.737 0 0 1-2.728-1.699 1.209 1.209 0 0 1-.375-1.66 1.209 1.209 0 0 1 1.66-.375c.804.507 1.708 1.076 2.698 1.684.57.351.74 1.092.398 1.653a1.176 1.176 0 0 1-1.022.577zm-34.636-2.12a1.205 1.205 0 0 1-.834-2.074c.81-.772 1.567-1.52 2.245-2.206a1.205 1.205 0 0 1 1.7-.024c.475.468.483 1.224.023 1.7a93.412 93.412 0 0 1-2.308 2.268 1.18 1.18 0 0 1-.826.335zm29.249-1.318c-.234 0-.468-.07-.67-.21-.515-.344-1.037-.702-1.568-1.069-.35-.241-.709-.49-1.075-.732a1.201 1.201 0 0 1-.312-1.669 1.202 1.202 0 0 1 1.668-.311c.367.249.725.49 1.076.74.53.359 1.044.717 1.551 1.06a1.196 1.196 0 0 1-.67 2.19zm-24.813-3.259c-.281 0-.562-.093-.788-.296a1.215 1.215 0 0 1-.125-1.7c.343-.397.663-.787.944-1.145.382-.491.787-.944 1.208-1.349a1.205 1.205 0 0 1 1.7.031c.46.476.444 1.24-.032 1.7-.335.327-.67.694-.982 1.099-.304.39-.647.81-1.021 1.24-.234.28-.57.42-.904.42zm19.527-.312c-.226 0-.444-.062-.647-.194a62.03 62.03 0 0 0-2.666-1.622 1.2 1.2 0 1 1 1.185-2.09 58.562 58.562 0 0 1 2.783 1.693 1.204 1.204 0 0 1-.655 2.214zm-5.566-3.102a1.17 1.17 0 0 1-.483-.102 18.654 18.654 0 0 0-2.814-.997 1.2 1.2 0 0 1-.865-1.466 1.2 1.2 0 0 1 1.465-.865c1.006.257 2.074.631 3.188 1.122a1.2 1.2 0 0 1 .616 1.583c-.21.46-.647.725-1.107.725zm-9.253-.788a1.204 1.204 0 0 1-.483-2.307 9.48 9.48 0 0 1 3.547-.764 1.201 1.201 0 0 1 .062 2.401 6.955 6.955 0 0 0-2.65.57 1.16 1.16 0 0 1-.476.1z" fill="url(#i)"/><path d="M146.58 101.406a1.17 1.17 0 0 1-.483-.101c-.608-.273-.881-.982-.608-1.583.366-.818.53-1.356.53-1.356.195-.632.873-.99 1.504-.795.632.195.99.865.795 1.504a15.06 15.06 0 0 1-.631 1.622 1.211 1.211 0 0 1-1.107.709z" fill="url(#j)"/><path d="M68.75 34.378c0 14.687-20.581 41.496-29.89 52.87-2.314 2.83-6.649 2.83-8.964 0C20.58 75.874 0 49.065 0 34.378 0 15.396 15.388 0 34.378 0 53.361 0 68.75 15.396 68.75 34.378z" fill="url(#k)"/><path d="M47.933 47.93c7.486-7.486 7.486-19.624 0-27.11-7.486-7.486-19.623-7.486-27.109 0-7.486 7.486-7.486 19.624 0 27.11 7.486 7.486 19.623 7.486 27.11 0z" fill="#fff"/><path d="M34.222 73.139c2.183-14.367 11.67-18.959 10.041-32.523C42.385 24.978 28.54 20.807 28.204 6.892c-.054-2.237.25-4.404.827-6.47C12.582 2.994 0 17.213 0 34.379c0 14.687 20.58 41.496 29.888 52.87a5.77 5.77 0 0 0 5.363 2.058c-1.66-6.291-1.715-11.662-1.029-16.168z" fill="url(#l)" opacity=".3"/><path d="M34.38 111.001a7.024 7.024 0 1 0-.001-14.048 7.024 7.024 0 0 0 0 14.048z" fill="url(#m)"/><path d="M162.809 66.103c0 6.68-9.362 18.88-13.603 24.057a2.636 2.636 0 0 1-4.077 0c-4.241-5.176-13.604-17.376-13.604-24.057 0-8.638 7.001-15.646 15.646-15.646 8.63.008 15.638 7.008 15.638 15.646z" fill="#937AFF"/><path d="M155.798 67.322a8.723 8.723 0 1 0-17.278-2.419 8.723 8.723 0 0 0 17.278 2.42z" fill="#fff"/><path d="M147.093 83.745c.99-6.533 5.309-8.63 4.568-14.797-.857-7.117-7.156-9.011-7.304-15.349a10.28 10.28 0 0 1 .374-2.947c-7.484 1.17-13.206 7.64-13.206 15.451 0 6.681 9.363 18.881 13.604 24.057a2.64 2.64 0 0 0 2.44.936c-.764-2.853-.788-5.301-.476-7.352z" fill="url(#n)" opacity=".3"/><path d="M147.165 100.97a3.196 3.196 0 1 0 0-6.391 3.196 3.196 0 0 0 0 6.391z" fill="url(#o)"/><path d="m120.777 198.762-24.314-.997 6.727-15.771 15.67.928 4.194 6.852-2.277 8.988z" fill="url(#p)"/><path d="M143.588 173.693c.164 0 .32.008.483.024l2.526-.024-.016.99c2.448 1.708 4.148 5.434 4.148 9.76 0 4.498-1.832 8.349-4.444 9.955l-.015.796h-2.69c-3.944 0-7.141-4.81-7.141-10.751.008-5.94 3.204-10.75 7.149-10.75z" fill="url(#q)"/><path d="M146.598 195.194c3.943 0 7.141-4.813 7.141-10.751 0-5.937-3.198-10.75-7.141-10.75-3.944 0-7.141 4.813-7.141 10.75 0 5.938 3.197 10.751 7.141 10.751z" fill="url(#r)"/><path d="M73.817 181.852c.195 0 .398.015.593.031l3.094-.031-.015 1.107c3.001 1.909 5.082 6.088 5.082 10.937 0 5.036-2.245 9.354-5.44 11.147l-.016.897h-3.29c-4.834 0-8.747-5.395-8.747-12.044-.015-6.658 3.906-12.044 8.739-12.044z" fill="url(#s)"/><path d="M77.497 205.94c4.83 0 8.746-5.392 8.746-12.044s-3.916-12.044-8.746-12.044c-4.831 0-8.747 5.392-8.747 12.044s3.916 12.044 8.747 12.044z" fill="url(#t)"/><path d="M107.081 187.443c.195 0 .39.016.577.032l3.048-.032-.016 1.139c2.955 1.956 5.005 6.236 5.005 11.21 0 5.168-2.214 9.588-5.356 11.428l-.015.92h-3.243c-4.755 0-8.614-5.527-8.614-12.348 0-6.822 3.859-12.349 8.614-12.349z" fill="url(#u)"/><path d="M110.706 212.14c4.757 0 8.614-5.529 8.614-12.348 0-6.82-3.857-12.349-8.614-12.349-4.758 0-8.614 5.529-8.614 12.349 0 6.819 3.856 12.348 8.614 12.348z" fill="url(#v)"/><path d="M111.921 206.73c2.674 0 4.841-3.107 4.841-6.938 0-3.832-2.167-6.938-4.841-6.938-2.674 0-4.841 3.106-4.841 6.938 0 3.831 2.167 6.938 4.841 6.938z" fill="#D8DEE8"/><path d="M111.188 206.23c2.269 0 4.109-2.883 4.109-6.439 0-3.557-1.84-6.439-4.109-6.439s-4.108 2.882-4.108 6.439c0 3.556 1.839 6.439 4.108 6.439z" fill="url(#w)"/><path d="M192.965 173.689v12.855c0 3.352-2.939 5.956-6.267 5.543l-31.245-3.835v-14.555l37.512-.008z" fill="url(#x)"/><path d="m178.893 171.908-8.583 13.331a7.612 7.612 0 0 1-5.488 3.437l-28.376 3.407-2.175-14.352 44.622-5.823z" fill="url(#y)"/><path d="M176.922 178.398c.164 0 .32.008.483.024l2.526-.024-.016.99c2.448 1.708 4.148 5.434 4.148 9.761 0 4.498-1.832 8.349-4.444 9.954l-.015.796h-2.69c-3.944 0-7.141-4.81-7.141-10.75.008-5.941 3.204-10.751 7.149-10.751z" fill="url(#z)"/><path d="M179.932 199.899c3.943 0 7.14-4.813 7.14-10.75 0-5.938-3.197-10.751-7.14-10.751-3.944 0-7.141 4.813-7.141 10.751 0 5.937 3.197 10.75 7.141 10.75z" fill="url(#A)"/><path d="M180.929 195.189c2.217 0 4.014-2.705 4.014-6.042 0-3.337-1.797-6.042-4.014-6.042-2.217 0-4.015 2.705-4.015 6.042 0 3.337 1.798 6.042 4.015 6.042z" fill="#D8DEE8"/><path d="M180.321 194.755c1.881 0 3.406-2.51 3.406-5.605 0-3.096-1.525-5.605-3.406-5.605-1.882 0-3.407 2.509-3.407 5.605 0 3.095 1.525 5.605 3.407 5.605z" fill="url(#B)"/><path d="m145.926 181.993 58.295-8.076a1.94 1.94 0 0 0 1.676-1.918v-51.357c0-1.044-.834-1.91-1.879-1.941l-58.084-1.793v65.085h-.008z" fill="url(#C)"/><path d="m100.174 178.4 45.76 3.593v-65.085L102.45 119.2a2.408 2.408 0 0 0-2.276 2.393V178.4z" fill="url(#D)"/><path opacity=".3" d="M166.959 141.829c8.473-10.68 25.32-2.798 33.817-14.78a32.99 32.99 0 0 0 4.178-8.061c.561.343.936.951.936 1.653v51.357a1.94 1.94 0 0 1-1.676 1.918l-52.753 7.304c3.329-3.64 6.673-8.286 9.097-14.102 5.325-12.761.873-18.319 6.401-25.289z" fill="url(#E)"/><path d="M137.086 143.841c1.582 7.086 5.262 27.526 1.154 49.494a3.936 3.936 0 0 1-3.259 3.157l-14.196 2.269s-.14-13.44-6.961-14.321c-6.821-.88-13.214 5.512-13.642 16.597 0 0-14.78 1.988-37.092-3.126 0 0-2.985-.639-4.264-4.015l1.006-15.458a4.767 4.767 0 0 1 1.63-3.282l13.135-11.35s11.935-16.909 15.918-20.175c0 0 2.128-3.407 19.325-3.836 11.842-.296 19.996.491 23.925 1.006a3.915 3.915 0 0 1 3.321 3.04z" fill="url(#F)"/><path opacity=".6" d="m60.588 176.161.655.717c-.28 7.959-2.011 10.774 12.574 12.27 14.586 1.497 14.141-10.75 14.141-10.75l19.131-8.341 15.973-25.148c3.172-2.557 8.707-3.251 12.465-3.415a3.926 3.926 0 0 1 1.567 2.347c1.582 7.086 5.262 27.526 1.153 49.494a3.935 3.935 0 0 1-3.258 3.157l-14.196 2.268s-.14-13.439-6.961-14.32c-6.821-.881-13.214 5.511-13.643 16.597 0 0-14.78 1.988-37.09-3.126 0 0-2.986-.64-4.265-4.015l1.006-15.459a4.7 4.7 0 0 1 .748-2.276z" fill="url(#G)"/><path d="M107.277 166.387a2.54 2.54 0 0 1-2.472 1.2l-30.286-3.71.078-.071s9.909-14.032 14.68-18.997l27.931 1.676a1.275 1.275 0 0 1 1.013 1.941l-10.944 17.961z" fill="url(#H)"/><path opacity=".3" d="M89.245 156.953c8.248-3.243 15.1.601 20.767-3.936 2.183-1.747 3.485-4.163 4.249-6.72l2.939.179a1.275 1.275 0 0 1 1.013 1.941l-10.937 17.961a2.537 2.537 0 0 1-2.471 1.201L79.672 164.5c3.297-4.288 6.696-6.416 9.573-7.547z" fill="#fff"/><path d="M62.474 178.212a.546.546 0 0 1 .538-.483c7.546.062 17.034 1.652 20.183 2.213.592.11.982.686.842 1.271-.616 2.619-1.63 4.397-2.386 5.426a2.948 2.948 0 0 1-2.159 1.208c-2.378.187-7.64.507-10.197-.101-2.268-.538-4.443-1.622-5.612-2.261a2.507 2.507 0 0 1-1.279-1.801c-.28-1.847-.047-4.412.07-5.472z" fill="url(#I)"/><path d="M99.403 178.945a.807.807 0 0 0-.445-1.115c-.67-.249-1.582-.53-2.112-.468-.694.086-6.58 1.614-9.27 2.316a1.798 1.798 0 0 0-1.348 1.847c.117 1.832.811 4.732 3.96 5.059 4.374.445 7.133-3.406 9.215-7.639z" fill="url(#J)"/><path d="M71.112 189.772c11.452 1.598 13.775-2.331 13.775-2.331 2.713.406 6.564-.124 8.746-.506.835-.149 1.638.249 2.105.951.351.53.982 1.06 2.136 1.255 1.879.327 5.075-.39 6.642-.795-2.284 3.126-3.874 7.187-4.085 12.66 0 0-15.03 2.003-37.333-3.111 0 0-2.986-.639-4.264-4.015l.655-10.079c1.161 1.801 4.217 4.934 11.623 5.971z" fill="url(#K)"/><path opacity=".6" d="M89.736 191.761a2.121 2.121 0 0 1 2.323 2.168c-.063 2.72.218 5.566.46 7.491-6.486.016-16.738-.592-29.429-3.508 0 0-2.985-.639-4.264-4.015l.382-5.877c9.144 5.184 24.54 4.318 30.528 3.741z" fill="url(#L)"/><path d="m132.196 147.951-4.116.997a5.658 5.658 0 0 0-3.305 2.277l-10.181 14.85c-.694 1.014.203 2.354 1.403 2.105l17.642-3.734a1.588 1.588 0 0 0 1.263-1.489c.109-2.549.226-8.575-.772-13.751a1.58 1.58 0 0 0-1.934-1.255z" fill="url(#M)"/><defs><linearGradient id="t" x1="86.248" y1="193.892" x2="68.752" y2="193.892" gradientUnits="userSpaceOnUse"><stop stop-color="#311944"/><stop offset="1" stop-color="#6B3976"/></linearGradient><linearGradient id="a" x1="13.726" y1="39.121" x2="105.026" y2="117.097" gradientUnits="userSpaceOnUse"><stop stop-color="#6A50FC"/><stop offset="1" stop-color="#9150FC"/></linearGradient><linearGradient id="c" x1="108.989" y1="46.055" x2="190.699" y2="137.547" gradientUnits="userSpaceOnUse"><stop stop-color="#6A50FC"/><stop offset="1" stop-color="#9150FC"/></linearGradient><linearGradient id="d" x1="71.099" y1="39.121" x2="151.502" y2="85.949" gradientUnits="userSpaceOnUse"><stop stop-color="#6A50FC"/><stop offset="1" stop-color="#9150FC"/></linearGradient><linearGradient id="e" x1="140.976" y1="104.373" x2="142.01" y2="104.373" gradientUnits="userSpaceOnUse"><stop stop-color="#311944"/><stop offset="1" stop-color="#A03976"/></linearGradient><linearGradient id="f" x1="45.578" y1="101.021" x2="46.612" y2="101.021" gradientUnits="userSpaceOnUse"><stop stop-color="#311944"/><stop offset="1" stop-color="#A03976"/></linearGradient><linearGradient id="g" x1="19.84" y1="75.597" x2="171.936" y2="75.597" gradientUnits="userSpaceOnUse"><stop stop-color="#311944"/><stop offset="1" stop-color="#A03976"/></linearGradient><linearGradient id="h" x1="30.17" y1="105.281" x2="148.374" y2="105.281" gradientUnits="userSpaceOnUse"><stop stop-color="#AA80F9"/><stop offset=".996" stop-color="#6165D7"/></linearGradient><linearGradient id="i" x1="30.498" y1="80.612" x2="35.37" y2="119.31" gradientUnits="userSpaceOnUse"><stop stop-color="#6A50FC"/><stop offset="1" stop-color="#9150FC"/></linearGradient><linearGradient id="j" x1="30.148" y1="99.457" x2="148.369" y2="99.457" gradientUnits="userSpaceOnUse"><stop stop-color="#AA80F9"/><stop offset=".996" stop-color="#6165D7"/></linearGradient><linearGradient id="k" x1="-2.135" y1="11.903" x2="37.738" y2="89.547" gradientUnits="userSpaceOnUse"><stop stop-color="#6A50FC"/><stop offset="1" stop-color="#9150FC"/></linearGradient><linearGradient id="l" x1="17.545" y1="26.712" x2="52.164" y2="115.881" gradientUnits="userSpaceOnUse"><stop stop-color="#AA80F9"/><stop offset=".996" stop-color="#6165D7"/></linearGradient><linearGradient id="m" x1="26.919" y1="98.824" x2="32.19" y2="112.165" gradientUnits="userSpaceOnUse"><stop stop-color="#6A50FC"/><stop offset="1" stop-color="#9150FC"/></linearGradient><linearGradient id="n" x1="139.507" y1="62.617" x2="155.26" y2="103.194" gradientUnits="userSpaceOnUse"><stop stop-color="#FF9085"/><stop offset="1" stop-color="#FB6FBB"/></linearGradient><linearGradient id="o" x1="143.77" y1="95.43" x2="146.168" y2="101.5" gradientUnits="userSpaceOnUse"><stop stop-color="#6A50FC"/><stop offset="1" stop-color="#9150FC"/></linearGradient><linearGradient id="p" x1="123.051" y1="190.377" x2="96.46" y2="190.377" gradientUnits="userSpaceOnUse"><stop stop-color="#444B8C"/><stop offset=".996" stop-color="#26264F"/></linearGradient><linearGradient id="q" x1="150.731" y1="184.44" x2="136.45" y2="184.44" gradientUnits="userSpaceOnUse"><stop stop-color="#311944"/><stop offset="1" stop-color="#6B3976"/></linearGradient><linearGradient id="r" x1="153.74" y1="184.44" x2="139.459" y2="184.44" gradientUnits="userSpaceOnUse"><stop stop-color="#311944"/><stop offset="1" stop-color="#6B3976"/></linearGradient><linearGradient id="s" x1="82.562" y1="193.892" x2="65.066" y2="193.892" gradientUnits="userSpaceOnUse"><stop stop-color="#311944"/><stop offset="1" stop-color="#6B3976"/></linearGradient><linearGradient id="b" x1="133.666" y1="7.253" x2="178.846" y2="108.436" gradientUnits="userSpaceOnUse"><stop stop-color="#FCB148"/><stop offset=".052" stop-color="#FDBA46"/><stop offset=".142" stop-color="#FFC244"/><stop offset=".318" stop-color="#FFC444"/><stop offset=".485" stop-color="#FDB946"/><stop offset=".775" stop-color="#F99C4D"/><stop offset=".866" stop-color="#F8924F"/><stop offset="1" stop-color="#F8924F"/></linearGradient><linearGradient id="u" x1="115.692" y1="199.79" x2="98.468" y2="199.79" gradientUnits="userSpaceOnUse"><stop stop-color="#311944"/><stop offset="1" stop-color="#6B3976"/></linearGradient><linearGradient id="v" x1="119.32" y1="199.79" x2="102.096" y2="199.79" gradientUnits="userSpaceOnUse"><stop stop-color="#311944"/><stop offset="1" stop-color="#6B3976"/></linearGradient><linearGradient id="w" x1="105.332" y1="199.156" x2="113.219" y2="200.009" gradientUnits="userSpaceOnUse"><stop offset=".005" stop-color="#D8DEE8"/><stop offset="1" stop-color="#F4F7FA"/></linearGradient><linearGradient id="x" x1="192.966" y1="182.905" x2="155.451" y2="182.905" gradientUnits="userSpaceOnUse"><stop stop-color="#444B8C"/><stop offset=".996" stop-color="#26264F"/></linearGradient><linearGradient id="y" x1="178.897" y1="181.995" x2="134.277" y2="181.995" gradientUnits="userSpaceOnUse"><stop stop-color="#444B8C"/><stop offset=".996" stop-color="#26264F"/></linearGradient><linearGradient id="z" x1="184.06" y1="189.146" x2="169.779" y2="189.146" gradientUnits="userSpaceOnUse"><stop stop-color="#311944"/><stop offset="1" stop-color="#6B3976"/></linearGradient><linearGradient id="A" x1="187.069" y1="189.146" x2="172.788" y2="189.146" gradientUnits="userSpaceOnUse"><stop stop-color="#311944"/><stop offset="1" stop-color="#6B3976"/></linearGradient><linearGradient id="B" x1="173.201" y1="190.107" x2="184.285" y2="188.615" gradientUnits="userSpaceOnUse"><stop offset=".005" stop-color="#D8DEE8"/><stop offset="1" stop-color="#F4F7FA"/></linearGradient><linearGradient id="C" x1="205.896" y1="149.452" x2="145.929" y2="149.452" gradientUnits="userSpaceOnUse"><stop stop-color="#FFC444"/><stop offset=".996" stop-color="#F36F56"/></linearGradient><linearGradient id="D" x1="145.93" y1="149.452" x2="100.173" y2="149.452" gradientUnits="userSpaceOnUse"><stop stop-color="#FFC444"/><stop offset=".996" stop-color="#F36F56"/></linearGradient><linearGradient id="E" x1="205.896" y1="150.105" x2="151.47" y2="150.105" gradientUnits="userSpaceOnUse"><stop stop-color="#FFC444"/><stop offset=".996" stop-color="#F36F56"/></linearGradient><linearGradient id="F" x1="140.116" y1="170.569" x2="58.822" y2="170.569" gradientUnits="userSpaceOnUse"><stop offset=".005" stop-color="#D8DEE8"/><stop offset="1" stop-color="#F4F7FA"/></linearGradient><linearGradient id="G" x1="99.996" y1="172.022" x2="137.51" y2="231.419" gradientUnits="userSpaceOnUse"><stop offset=".005" stop-color="#D8DEE8"/><stop offset="1" stop-color="#F4F7FA"/></linearGradient><linearGradient id="H" x1="118.405" y1="156.203" x2="74.518" y2="156.203" gradientUnits="userSpaceOnUse"><stop stop-color="#444B8C"/><stop offset=".996" stop-color="#26264F"/></linearGradient><linearGradient id="I" x1="73.064" y1="175.218" x2="73.49" y2="200.227" gradientUnits="userSpaceOnUse"><stop stop-color="#444B8C"/><stop offset=".996" stop-color="#26264F"/></linearGradient><linearGradient id="J" x1="96.224" y1="173.993" x2="83.577" y2="196.303" gradientUnits="userSpaceOnUse"><stop stop-color="#FCB148"/><stop offset=".052" stop-color="#FDBA46"/><stop offset=".142" stop-color="#FFC244"/><stop offset=".318" stop-color="#FFC444"/><stop offset=".485" stop-color="#FDB946"/><stop offset=".775" stop-color="#F99C4D"/><stop offset=".866" stop-color="#F8924F"/><stop offset="1" stop-color="#F8924F"/></linearGradient><linearGradient id="K" x1="104.509" y1="192.607" x2="58.822" y2="192.607" gradientUnits="userSpaceOnUse"><stop stop-color="#444B8C"/><stop offset=".996" stop-color="#26264F"/></linearGradient><linearGradient id="L" x1="92.516" y1="194.716" x2="58.822" y2="194.716" gradientUnits="userSpaceOnUse"><stop stop-color="#444B8C"/><stop offset=".996" stop-color="#26264F"/></linearGradient><linearGradient id="M" x1="134.983" y1="158.059" x2="114.358" y2="158.059" gradientUnits="userSpaceOnUse"><stop stop-color="#444B8C"/><stop offset=".996" stop-color="#26264F"/></linearGradient></defs></svg>