<svg width="69" height="78" viewBox="0 0 69 78" fill="none" xmlns="http://www.w3.org/2000/svg">
<path d="M33.0376 4.97438C30.9723 5.43494 29.7111 6.92772 28.9672 9.73986C28.4524 11.8633 28.5682 13.2403 29.0877 17.4286C31.5097 33.7225 42.0232 51.5597 52.0105 56.0279C55.3396 57.5173 55.4537 56.5991 52.4656 50.6339C49.5347 44.4965 47.4647 38.6453 45.3926 29.9252C43.2633 21.3773 40.3867 11.0511 39.5245 9.04351C38.0877 5.88871 35.734 4.34121 33.0376 4.97438Z" fill="#6A50FC"/>
<path d="M8.363 48.704C4.63314 48.4198 2.28242 50.8888 3.71881 53.4699C4.29345 54.617 4.92491 55.0182 8.65562 56.4499C24.4398 63.0369 30.4097 66.3605 39.7104 73.4686C43.2125 76.1628 44.4178 76.5636 43.6705 74.7854C42.8083 72.7778 38.271 66.8711 34.9406 63.6603C26.4423 55.2892 15.4784 49.1577 8.363 48.704Z" fill="#F6F5FF"/>
</svg>
