<svg width="775" height="116" viewBox="0 0 775 116" fill="none" xmlns="http://www.w3.org/2000/svg">
<path d="M760.311 36.2289C759.635 35.6178 758.734 35.0066 757.834 34.3955C725.629 11.4349 650.185 2.00622 586.901 0.260169C512.583 -1.74779 439.39 8.11741 374.305 21.2128C326.561 30.9034 277.691 37.1019 223.191 35.8797C188.734 35.0939 153.827 32.1256 120.271 28.8081C91.2196 25.9272 57.2133 21.0382 28.1615 26.6256C-9.2229 33.8717 -6.97082 47.1417 20.7297 56.8323C71.6266 74.7293 137.162 75.9516 203.148 79.3564C270.71 82.9358 344.353 80.9278 410.564 86.0787C496.593 92.801 575.866 123.532 666.625 114.277C753.555 105.46 800.848 67.9197 760.311 36.2289Z" fill="#F4F3FF"/>
</svg>
