<svg width="198" height="200" fill="none" xmlns="http://www.w3.org/2000/svg"><path d="M96.231 11.01a69990.158 69990.158 0 0 0 20.804 173.993c.313 2.576-1.47 4.852-3.953 5.059a20552.981 20552.981 0 0 0-83.611 8.104c-4.973.242-7.705-2.54-8.019-5.315A80417.41 80417.41 0 0 1 .028 5.053C-.292 2.214 2.112-.226 7.084.017 35.092 2.014 63.101 3.983 91.109 5.93c2.504.164 4.809 2.447 5.123 5.08z" fill="#26264F"/><path d="M100.097 10.887a67125.304 67125.304 0 0 0 20.939 174.742c.314 2.583-1.477 4.873-3.981 5.087a27320.787 27320.787 0 0 0-86.822 7.498c-2.64.235-5.065-1.855-5.393-4.652A85192.675 85192.675 0 0 1 3.295 4.887C2.974 2.034 4.885-.156 7.547.022c29.136 1.94 58.271 3.867 87.407 5.757 2.518.171 4.83 2.468 5.143 5.108z" fill="url(#a)"/><path d="M98.415 20.519a69982.466 69982.466 0 0 0 19.39 162.022c.292 2.419-1.377 4.552-3.717 4.744a26416.658 26416.658 0 0 0-81.65 6.806c-2.46.214-4.722-1.748-5.022-4.344A85211.906 85211.906 0 0 1 7.498 15.611c-.3-2.654 1.484-4.702 3.96-4.56 27.387 1.592 54.775 3.176 82.155 4.738 2.347.136 4.516 2.261 4.802 4.73z" fill="url(#b)"/><path opacity=".3" d="M93.614 15.791c-27.06-1.54-54.127-3.103-81.186-4.68.834 4.809 2.297 10.045 4.751 15.381 8.975 19.476 22.166 20.547 27.324 37.519 5.315 17.485-6.67 22.957-.814 38.738 6.357 17.129 21.938 14.653 30.178 33.437 7.098 16.194-2.04 23.6 5.3 33.438 8.047 10.786 22.936 7.127 38.389 10.786A70324.56 70324.56 0 0 1 98.422 20.514c-.293-2.461-2.461-4.587-4.808-4.723z" fill="url(#c)"/><path d="M54.083 8.598c.107.95-.528 1.677-1.427 1.62-.898-.057-1.712-.87-1.826-1.82-.107-.948.528-1.683 1.427-1.619.899.057 1.72.87 1.826 1.82z" fill="#6E50FC"/><path d="M63.858 61.305c3.459 0 6.263-3.309 6.263-7.39 0-4.082-2.804-7.392-6.263-7.392-3.46 0-6.264 3.31-6.264 7.391 0 4.082 2.804 7.391 6.264 7.391z" fill="url(#d)"/><path d="M88.79 61.305c3.459 0 6.263-3.309 6.263-7.39 0-4.082-2.804-7.392-6.264-7.392-3.46 0-6.264 3.31-6.264 7.391 0 4.082 2.805 7.391 6.264 7.391z" fill="url(#e)"/><path d="M76.256 61.305c3.506 0 6.349-3.309 6.349-7.39 0-4.082-2.843-7.392-6.35-7.392-3.506 0-6.349 3.31-6.349 7.391 0 4.082 2.843 7.391 6.35 7.391z" fill="#D8DEE8"/><path d="M113.725 61.305c3.459 0 6.263-3.309 6.263-7.39 0-4.082-2.804-7.392-6.263-7.392-3.46 0-6.264 3.31-6.264 7.391 0 4.082 2.804 7.391 6.264 7.391z" fill="url(#f)"/><path d="M101.189 61.305c3.507 0 6.35-3.309 6.35-7.39 0-4.082-2.843-7.392-6.35-7.392-3.506 0-6.35 3.31-6.35 7.391 0 4.082 2.844 7.391 6.35 7.391zM126.125 61.305c3.506 0 6.349-3.309 6.349-7.39 0-4.082-2.843-7.392-6.349-7.392-3.507 0-6.35 3.31-6.35 7.391 0 4.082 2.843 7.391 6.35 7.391zM51.324 61.305c3.507 0 6.35-3.309 6.35-7.39 0-4.082-2.843-7.392-6.35-7.392-3.507 0-6.35 3.31-6.35 7.391 0 4.082 2.843 7.391 6.35 7.391z" fill="#D8DEE8"/><path d="M6.242 10.324 45.11 54.912h100.319L96.817 15.974l-90.575-5.65z" fill="url(#g)"/><path d="M6.242 10.324 45.11 54.912h12.57L16.694 10.973l-10.452-.649zM27.922 11.672l42.14 43.24h12.421L39.23 12.378l-11.307-.706zM50.623 13.09l44.303 41.82h12.477L62.102 13.803l-11.479-.713zM85.323 15.255l-11.657-.728 46.243 40.386h12.535l-47.12-39.658z" fill="#F4F7FA"/><path d="M132.459 54.912c.414 3.61 3.032 6.392 6.2 6.392 3.167 0 5.785-2.782 6.199-6.392h-12.399z" fill="url(#h)"/><path opacity=".63" d="M84.781 82.77c-5.422-12.505-19.19-18.576-30.74-13.561-11.55 5.015-16.523 19.212-11.094 31.718 5.422 12.506 19.19 18.577 30.74 13.562 11.55-5.015 16.516-19.212 11.094-31.718zm-17.036 17.822.463 3.524-3.381.442-.428-3.281c-2.326.199-4.651-.129-6.064-.714l.506-4.173c1.556.606 3.689 1.063 5.929.763 1.969-.257 3.217-1.198 3.032-2.575-.171-1.313-1.384-1.998-4.052-2.526-3.86-.756-6.606-2.154-7.049-5.5-.4-3.04 1.427-5.7 5.03-6.913l-.428-3.282 3.381-.442.4 3.04c2.325-.2 3.945.078 5.158.477l-.485 4.03c-.95-.263-2.64-.848-5.13-.52-2.247.293-2.84 1.356-2.718 2.326.15 1.141 1.455 1.705 4.537 2.425 4.302.913 6.207 2.59 6.614 5.7.392 3.075-1.434 5.986-5.315 7.199z" fill="#F4F7FA"/><g opacity=".63" fill="#F4F7FA"><path d="m97.174 150.665-52.886 1.605a3.762 3.762 0 0 1-3.83-3.196l-2.14-14.097a3.757 3.757 0 0 1 3.63-4.323l52.943-1.227a3.763 3.763 0 0 1 3.802 3.196l2.083 13.719c.343 2.225-1.348 4.252-3.602 4.323zM98.95 162.249l-52.85 1.805a3.76 3.76 0 0 1-3.845-3.196l-.021-.136c-.335-2.226 1.348-4.252 3.596-4.323l52.87-1.677a3.764 3.764 0 0 1 3.838 3.196 3.754 3.754 0 0 1-3.588 4.331z"/></g><path d="M109.672 190.51v5.914c0 1.912 11.942 3.46 26.674 3.46s26.675-1.548 26.675-3.46v-5.914h-53.349z" fill="url(#i)"/><path d="M136.346 193.969c14.732 0 26.675-1.549 26.675-3.46s-11.943-3.46-26.675-3.46c-14.732 0-26.674 1.549-26.674 3.46s11.942 3.46 26.674 3.46z" fill="url(#j)"/><path d="M136.347 194.212c-13.048 0-26.689-1.249-26.689-3.653 0-.128.05-.364.179-.364.135 0 .078.179.078.314 0 1.527 10.858 3.225 26.432 3.225 15.581 0 26.432-1.698 26.432-3.225 0-.128.021-.257.157-.257.128 0 .099.179.099.307.008 2.404-13.64 3.653-26.688 3.653z" fill="url(#k)"/><path d="M133.829 190.7c.264-.179.542-.357.841-.536.293-.178.678-.335 1.149-.477.471-.143 1.056-.257 1.755-.35.706-.093 1.584-.136 2.633-.143a34.128 34.128 0 0 1 2.903.1c.906.071 1.698.178 2.39.314.685.143 1.241.314 1.677.521.428.207.684.442.763.713l3.003.029c.221 0 .414.021.578.05.171.035.25.078.25.128v.25l-3.86-.036c-.135.3-.478.578-1.034.835-.549.25-1.256.471-2.119.656l-1.405-.192a2.06 2.06 0 0 1-.314-.072c-.079-.028-.122-.064-.122-.1 0-.05.107-.1.329-.164.221-.064.463-.135.734-.228.272-.093.543-.193.807-.321.264-.121.435-.271.528-.442l-9.118-.093a8.402 8.402 0 0 1-.806.521c-.3.171-.692.321-1.184.456-.493.136-1.106.25-1.834.328-.735.086-1.655.129-2.768.136a27.665 27.665 0 0 1-2.447-.093 17.063 17.063 0 0 1-2.119-.299c-.62-.136-1.127-.3-1.519-.5-.392-.2-.614-.428-.664-.685l-2.475-.028c-.221 0-.414-.022-.585-.05-.171-.036-.257-.079-.257-.129v-.249l3.382.035c.149-.264.456-.485.927-.677a10.781 10.781 0 0 1 1.712-.514l1.135.157c.342.05.513.107.513.171 0 .036-.071.079-.214.129-.143.05-.314.114-.506.185a3.933 3.933 0 0 0-.564.257c-.185.1-.321.207-.414.328l8.319.079zm-8.34.335c.071.164.221.299.449.421.229.121.514.214.856.292.343.079.728.129 1.156.164.428.036.878.05 1.348.05.55 0 1.028-.028 1.434-.071a8.897 8.897 0 0 0 1.071-.178c.306-.079.577-.165.806-.264.228-.1.435-.214.613-.329l-7.733-.085zm19.84-.221c-.072-.164-.236-.307-.492-.435a4.506 4.506 0 0 0-.985-.314 9.79 9.79 0 0 0-1.398-.186 22.159 22.159 0 0 0-1.762-.057c-.571 0-1.063.029-1.477.079a8.027 8.027 0 0 0-1.07.192c-.3.079-.564.178-.771.286a4.877 4.877 0 0 0-.592.349l8.547.086z" fill="#FCB048"/><path d="M136.354 187.42c-11.892 0-24.277 1.049-26.26 3.075.078.071.15.15.214.228 1.669-1.405 11.892-2.825 26.039-2.825 14.511 0 24.898 1.491 26.161 2.932.064-.078.128-.157.2-.228-1.634-2.091-14.247-3.182-26.354-3.182z" fill="url(#l)"/><path d="M102.26 184.295v5.914c0 1.912 11.942 3.46 26.674 3.46s26.674-1.548 26.674-3.46v-5.914H102.26z" fill="url(#m)"/><path d="M128.934 187.754c14.732 0 26.674-1.549 26.674-3.46s-11.942-3.46-26.674-3.46-26.674 1.549-26.674 3.46 11.942 3.46 26.674 3.46z" fill="url(#n)"/><path d="M128.935 187.997c-13.049 0-26.689-1.248-26.689-3.653 0-.135.05-.364.178-.364.136 0 .079.179.079.314 0 1.527 10.858 3.225 26.432 3.225 15.573 0 26.431-1.698 26.431-3.225 0-.135.022-.256.157-.256.136 0 .1.178.1.306 0 2.405-13.64 3.653-26.688 3.653z" fill="url(#o)"/><path d="M126.417 184.487c.264-.179.542-.357.842-.535.293-.179.678-.336 1.149-.478.47-.143 1.055-.257 1.755-.35.706-.093 1.583-.136 2.632-.143a34.256 34.256 0 0 1 2.904.1c.906.072 1.698.179 2.39.314.684.143 1.241.314 1.676.521.428.207.685.442.763.713l3.004.029c.221 0 .414.021.578.05.171.035.249.078.249.128v.25l-3.859-.036c-.136.3-.478.578-1.035.835-.549.25-1.255.471-2.118.656l-1.406-.192a2.12 2.12 0 0 1-.314-.072c-.078-.028-.121-.064-.121-.1 0-.049.107-.099.328-.164.221-.064.464-.135.735-.228.271-.093.542-.193.806-.321.264-.121.435-.271.528-.442l-9.11-.093a8.46 8.46 0 0 1-.806.521c-.3.171-.692.321-1.185.456-.492.136-1.105.25-1.833.329-.735.085-1.655.128-2.768.135a27.274 27.274 0 0 1-2.447-.093 17.063 17.063 0 0 1-2.119-.299c-.621-.136-1.127-.3-1.519-.5-.393-.199-.614-.428-.664-.685l-2.475-.028c-.222 0-.414-.022-.585-.05-.172-.036-.257-.079-.257-.128v-.25l3.381.036c.15-.264.457-.486.928-.678a10.75 10.75 0 0 1 1.712-.514l1.134.157c.343.05.514.107.514.171 0 .036-.071.079-.214.129-.143.05-.314.114-.507.185a4.087 4.087 0 0 0-.563.257c-.186.1-.321.207-.414.328l8.311.079zm-8.34.335c.072.164.222.3.45.421s.514.214.856.292c.342.079.728.129 1.156.164.428.036.877.05 1.348.05.549 0 1.027-.028 1.434-.071a8.878 8.878 0 0 0 1.07-.178c.307-.079.578-.164.806-.264.229-.1.435-.214.614-.328l-7.734-.086zm19.84-.221c-.071-.164-.235-.307-.492-.435a4.513 4.513 0 0 0-.984-.314c-.4-.086-.871-.15-1.399-.186a22.159 22.159 0 0 0-1.762-.057c-.571 0-1.063.029-1.477.079-.413.05-.77.114-1.07.192a3.851 3.851 0 0 0-.77.286 4.802 4.802 0 0 0-.592.349l8.546.086z" fill="#FCB048"/><path d="M128.934 181.205c-11.892 0-24.277 1.049-26.26 3.075.078.071.15.15.214.228 1.669-1.405 11.892-2.825 26.039-2.825 14.511 0 24.898 1.491 26.161 2.932.064-.078.128-.157.2-.228-1.627-2.098-14.247-3.182-26.354-3.182z" fill="url(#p)"/><path d="M108.66 178.098v5.914c0 1.912 11.943 3.46 26.675 3.46 14.731 0 26.674-1.548 26.674-3.46v-5.914H108.66z" fill="url(#q)"/><path d="M135.335 181.557c14.731 0 26.674-1.549 26.674-3.46s-11.943-3.46-26.674-3.46c-14.732 0-26.675 1.549-26.675 3.46s11.943 3.46 26.675 3.46z" fill="url(#r)"/><path d="M135.335 181.8c-13.048 0-26.689-1.249-26.689-3.653 0-.136.05-.364.179-.364.135 0 .078.179.078.314 0 1.527 10.858 3.225 26.432 3.225 15.574 0 26.432-1.698 26.432-3.225 0-.135.021-.257.157-.257.135 0 .1.179.1.307 0 2.411-13.641 3.653-26.689 3.653z" fill="url(#s)"/><path d="M132.816 178.297c.264-.178.542-.356.841-.535.293-.178.678-.335 1.149-.478.471-.143 1.056-.257 1.755-.349.706-.093 1.584-.136 2.633-.143a33.82 33.82 0 0 1 2.903.1c.906.071 1.698.178 2.39.314.685.142 1.241.314 1.677.52.428.207.684.443.763.714l3.003.028c.221 0 .414.022.578.05.171.036.25.079.25.129v.249l-3.86-.035c-.135.299-.478.578-1.034.834-.549.25-1.256.471-2.119.657l-1.405-.193a2.073 2.073 0 0 1-.314-.071c-.079-.029-.122-.064-.122-.1 0-.05.107-.1.329-.164.221-.064.463-.136.734-.228.272-.093.543-.193.807-.321.264-.122.435-.272.528-.443l-9.111-.092a8.213 8.213 0 0 1-.806.52c-.299.172-.692.321-1.184.457-.492.135-1.106.25-1.834.328-.734.086-1.655.128-2.768.136a27.665 27.665 0 0 1-2.447-.093 16.818 16.818 0 0 1-2.118-.3c-.621-.135-1.128-.299-1.52-.499-.392-.2-.614-.428-.663-.685l-2.476-.029a3.46 3.46 0 0 1-.585-.05c-.171-.035-.257-.078-.257-.128v-.25l3.382.036c.15-.264.456-.485.927-.678a10.788 10.788 0 0 1 1.712-.513l1.135.157c.342.05.513.107.513.171 0 .036-.071.078-.214.128-.142.05-.314.114-.506.186a3.983 3.983 0 0 0-.564.257 1.243 1.243 0 0 0-.414.328l8.312.078zm-8.347.336c.071.164.221.299.449.42.229.122.514.214.856.293.343.078.728.128 1.156.164a16.16 16.16 0 0 0 2.782-.021 8.638 8.638 0 0 0 1.07-.179c.307-.078.578-.164.807-.264.228-.1.435-.214.613-.328l-7.733-.085zm19.84-.222c-.072-.164-.236-.306-.493-.435a4.606 4.606 0 0 0-.984-.314 9.96 9.96 0 0 0-1.398-.185 22.159 22.159 0 0 0-1.762-.057c-.571 0-1.063.028-1.477.078-.414.05-.771.114-1.07.193-.3.078-.564.178-.771.285a4.756 4.756 0 0 0-.592.35l8.547.085z" fill="#FCB048"/><path d="M135.337 175.016c-11.893 0-24.278 1.048-26.261 3.074.079.072.15.15.214.229 1.67-1.406 11.893-2.825 26.04-2.825 14.51 0 24.898 1.491 26.16 2.932.065-.079.129-.157.2-.229-1.627-2.097-14.247-3.181-26.353-3.181z" fill="url(#t)"/><path d="M112.541 171.885v5.914c0 1.912 11.942 3.46 26.674 3.46s26.675-1.548 26.675-3.46v-5.914h-53.349z" fill="url(#u)"/><path d="M165.89 171.884c0 1.912-11.943 3.46-26.675 3.46-14.732 0-26.674-1.548-26.674-3.46s11.942-3.46 26.674-3.46 26.675 1.548 26.675 3.46z" fill="url(#v)"/><path d="M139.216 175.587c-13.048 0-26.689-1.249-26.689-3.653 0-.135.05-.364.179-.364.135 0 .078.179.078.314 0 1.527 10.858 3.225 26.432 3.225 15.581 0 26.432-1.698 26.432-3.225 0-.135.021-.257.157-.257.135 0 .1.179.1.307 0 2.411-13.641 3.653-26.689 3.653z" fill="url(#w)"/><path d="M136.698 172.075c.264-.179.542-.357.842-.536.292-.178.677-.335 1.148-.477.471-.143 1.056-.257 1.755-.35.706-.093 1.584-.136 2.633-.143a34.232 34.232 0 0 1 2.903.1c.906.071 1.698.178 2.39.314.685.143 1.241.314 1.677.521.428.207.685.442.763.713l3.003.029a3.3 3.3 0 0 1 .578.05c.172.035.25.078.25.128v.25l-3.86-.036c-.135.3-.478.578-1.034.835-.549.25-1.256.471-2.119.656l-1.405-.192a2.06 2.06 0 0 1-.314-.072c-.079-.028-.121-.064-.121-.1 0-.05.107-.1.328-.164.221-.064.463-.135.735-.228.271-.093.542-.193.806-.321.264-.121.435-.271.528-.442l-9.118-.093a8.402 8.402 0 0 1-.806.521c-.299.171-.692.321-1.184.456-.492.136-1.106.25-1.834.328-.734.086-1.655.129-2.768.136a27.665 27.665 0 0 1-2.447-.093 17.017 17.017 0 0 1-2.118-.299c-.621-.136-1.128-.3-1.52-.5-.392-.2-.614-.428-.663-.685l-2.476-.028c-.221 0-.414-.022-.585-.05-.171-.036-.257-.079-.257-.129v-.249l3.382.035c.15-.264.456-.485.927-.677a10.781 10.781 0 0 1 1.712-.514l1.135.157c.342.05.513.107.513.171 0 .036-.071.079-.214.129-.142.05-.314.114-.506.185a3.983 3.983 0 0 0-.564.257c-.185.1-.321.207-.414.328l8.319.079zm-8.34.342c.071.164.221.3.449.421.229.121.514.214.857.292a8.14 8.14 0 0 0 1.155.164c.428.036.878.05 1.349.05.549 0 1.027-.028 1.434-.071a8.912 8.912 0 0 0 1.07-.178 5.41 5.41 0 0 0 .806-.264c.228-.1.435-.214.613-.328l-7.733-.086zm19.84-.221c-.071-.164-.236-.307-.492-.435a4.506 4.506 0 0 0-.985-.314 9.79 9.79 0 0 0-1.398-.186 22.159 22.159 0 0 0-1.762-.057c-.571 0-1.063.029-1.477.079-.414.05-.77.114-1.07.192-.3.079-.564.179-.771.286a4.877 4.877 0 0 0-.592.349l8.547.086z" fill="#FCB048"/><path d="M139.223 168.801c-11.892 0-24.277 1.048-26.26 3.075.078.071.15.149.214.228 1.669-1.406 11.892-2.825 26.039-2.825 14.511 0 24.898 1.491 26.161 2.932.064-.079.128-.157.2-.228-1.634-2.098-14.254-3.182-26.354-3.182z" fill="url(#x)"/><path d="M109.672 165.184v5.914c0 1.912 11.942 3.46 26.674 3.46s26.675-1.548 26.675-3.46v-5.914h-53.349z" fill="url(#y)"/><path d="M163.021 165.183c0 1.912-11.943 3.46-26.675 3.46-14.732 0-26.674-1.548-26.674-3.46s11.942-3.46 26.674-3.46c14.732-.007 26.675 1.548 26.675 3.46z" fill="url(#z)"/><path d="M136.347 168.88c-13.048 0-26.689-1.249-26.689-3.653 0-.135.05-.364.179-.364.135 0 .078.179.078.314 0 1.527 10.858 3.225 26.432 3.225 15.581 0 26.432-1.698 26.432-3.225 0-.135.021-.257.157-.257.128 0 .099.179.099.307.008 2.411-13.64 3.653-26.688 3.653z" fill="url(#A)"/><path d="M133.829 165.377c.264-.178.542-.356.841-.535.293-.178.678-.335 1.149-.478.471-.142 1.056-.257 1.755-.349.706-.093 1.584-.136 2.633-.143a34.128 34.128 0 0 1 2.903.1c.906.071 1.698.178 2.39.314.685.142 1.241.314 1.677.521.428.206.684.442.763.713l3.003.028c.221 0 .414.022.578.05.171.036.25.079.25.129v.25l-3.86-.036c-.135.3-.478.578-1.034.835-.549.249-1.256.47-2.119.656l-1.405-.193a2.073 2.073 0 0 1-.314-.071c-.079-.029-.122-.064-.122-.1 0-.05.107-.1.329-.164.221-.064.463-.136.734-.228.272-.093.543-.193.807-.321.264-.122.435-.271.528-.443l-9.118-.092a8.213 8.213 0 0 1-.806.52c-.3.172-.692.321-1.184.457-.493.136-1.106.25-1.834.328-.735.086-1.655.129-2.768.136a27.665 27.665 0 0 1-2.447-.093 16.863 16.863 0 0 1-2.119-.3c-.62-.135-1.127-.299-1.519-.499-.392-.2-.614-.428-.664-.685l-2.475-.028c-.221 0-.414-.022-.585-.05-.171-.036-.257-.079-.257-.129v-.25l3.382.036c.149-.264.456-.485.927-.678a10.894 10.894 0 0 1 1.712-.513l1.135.157c.342.05.513.107.513.171 0 .036-.071.078-.214.128-.143.05-.314.114-.506.186a3.933 3.933 0 0 0-.564.257c-.185.1-.321.207-.414.328l8.319.078zm-8.34.336c.071.164.221.299.449.42.229.122.514.215.856.293.343.078.728.128 1.156.164a16.16 16.16 0 0 0 2.782-.021 8.689 8.689 0 0 0 1.071-.179c.306-.078.577-.164.806-.264.228-.1.435-.214.613-.328l-7.733-.085zm19.84-.222c-.072-.164-.236-.306-.492-.435a4.616 4.616 0 0 0-.985-.314 9.946 9.946 0 0 0-1.398-.185 22.159 22.159 0 0 0-1.762-.057c-.571 0-1.063.028-1.477.078-.414.05-.771.114-1.07.193-.3.078-.564.178-.771.285a4.756 4.756 0 0 0-.592.35l8.547.085z" fill="#FCB048"/><path d="M136.354 162.094c-11.892 0-24.277 1.048-26.26 3.075.078.071.15.149.214.228 1.669-1.406 11.892-2.825 26.039-2.825 14.511 0 24.898 1.491 26.161 2.932.064-.079.128-.157.2-.228-1.634-2.098-14.247-3.182-26.354-3.182z" fill="url(#B)"/><path d="M102.26 158.963v5.914c0 1.912 11.942 3.46 26.674 3.46s26.674-1.548 26.674-3.46v-5.914H102.26z" fill="url(#C)"/><path d="M128.934 162.422c14.732 0 26.674-1.549 26.674-3.46s-11.942-3.46-26.674-3.46-26.674 1.549-26.674 3.46 11.942 3.46 26.674 3.46z" fill="url(#D)"/><path d="M128.935 162.665c-13.049 0-26.689-1.249-26.689-3.653 0-.135.05-.364.178-.364.136 0 .079.179.079.314 0 1.527 10.858 3.225 26.432 3.225 15.573 0 26.431-1.698 26.431-3.225 0-.135.022-.256.157-.256.136 0 .1.178.1.306 0 2.412-13.64 3.653-26.688 3.653z" fill="url(#E)"/><path d="M126.417 159.157c.264-.179.542-.357.842-.535.293-.179.678-.336 1.149-.478.47-.143 1.055-.257 1.755-.35.706-.093 1.583-.136 2.632-.143a34.256 34.256 0 0 1 2.904.1c.906.072 1.698.179 2.39.314.684.143 1.241.314 1.676.521.428.207.685.442.763.713l3.004.029c.221 0 .414.021.578.05.171.035.249.078.249.128v.25l-3.859-.036c-.136.3-.478.578-1.035.835-.549.25-1.255.471-2.118.656l-1.406-.192a2.12 2.12 0 0 1-.314-.072c-.078-.028-.121-.064-.121-.1 0-.05.107-.1.328-.164.221-.064.464-.135.735-.228.271-.093.542-.193.806-.321.264-.121.435-.271.528-.442l-9.11-.093a8.66 8.66 0 0 1-.806.521c-.3.171-.692.321-1.185.456a11.64 11.64 0 0 1-1.833.328c-.735.086-1.655.129-2.768.136a27.65 27.65 0 0 1-2.447-.093 17.063 17.063 0 0 1-2.119-.299c-.621-.136-1.127-.3-1.519-.5-.393-.2-.614-.428-.664-.685l-2.475-.028c-.222 0-.414-.022-.585-.05-.172-.036-.257-.079-.257-.129v-.249l3.381.035c.15-.264.457-.485.928-.677a10.75 10.75 0 0 1 1.712-.514l1.134.157c.343.05.514.107.514.171 0 .036-.071.079-.214.129-.143.05-.314.114-.507.185a3.972 3.972 0 0 0-.563.257c-.186.1-.321.207-.414.328l8.311.079zm-8.34.342c.072.164.222.3.45.421s.514.214.856.292c.342.079.728.129 1.156.165.428.035.877.049 1.348.049.549 0 1.027-.028 1.434-.071a8.878 8.878 0 0 0 1.07-.178c.307-.079.578-.164.806-.264.229-.1.435-.214.614-.328l-7.734-.086zm19.84-.221c-.071-.164-.235-.307-.492-.435a4.513 4.513 0 0 0-.984-.314c-.4-.086-.871-.15-1.399-.186a22.643 22.643 0 0 0-1.762-.057c-.571 0-1.063.029-1.477.079-.413.05-.77.114-1.07.192a3.851 3.851 0 0 0-.77.286 4.802 4.802 0 0 0-.592.349l8.546.086z" fill="#FCB048"/><path d="M128.934 155.879c-11.892 0-24.277 1.049-26.26 3.075.078.071.15.149.214.228 1.669-1.405 11.892-2.825 26.039-2.825 14.511 0 24.898 1.491 26.161 2.932.064-.078.128-.157.2-.228-1.627-2.098-14.247-3.182-26.354-3.182z" fill="url(#F)"/><path d="M108.66 152.768v5.914c0 1.912 11.943 3.46 26.675 3.46 14.731 0 26.674-1.548 26.674-3.46v-5.914H108.66z" fill="url(#G)"/><path d="M162.009 152.769c0 1.912-11.943 3.46-26.674 3.46-14.732 0-26.675-1.548-26.675-3.46s11.943-3.46 26.675-3.46c14.731 0 26.674 1.548 26.674 3.46z" fill="url(#H)"/><path d="M135.335 156.472c-13.048 0-26.689-1.249-26.689-3.653 0-.136.05-.364.179-.364.135 0 .078.178.078.314 0 1.527 10.858 3.225 26.432 3.225 15.574 0 26.432-1.698 26.432-3.225 0-.136.021-.257.157-.257.135 0 .1.178.1.307 0 2.404-13.641 3.653-26.689 3.653z" fill="url(#I)"/><path d="M132.816 152.959c.264-.178.542-.356.841-.535.293-.178.678-.335 1.149-.478.471-.142 1.056-.257 1.755-.349.706-.093 1.584-.136 2.633-.143a34.232 34.232 0 0 1 2.903.1c.906.071 1.698.178 2.39.314.685.142 1.241.314 1.677.521.428.206.684.442.763.713l3.003.029c.221 0 .414.021.578.049.171.036.25.079.25.129v.25l-3.86-.036c-.135.3-.478.578-1.034.835-.549.249-1.256.47-2.119.656l-1.405-.193a1.958 1.958 0 0 1-.314-.071c-.079-.029-.122-.064-.122-.1 0-.05.107-.1.329-.164.221-.064.463-.136.734-.228.272-.093.543-.193.807-.321.264-.122.435-.271.528-.443l-9.111-.092a8.213 8.213 0 0 1-.806.52c-.299.172-.692.321-1.184.457s-1.106.25-1.834.328c-.734.086-1.655.129-2.768.136a27.665 27.665 0 0 1-2.447-.093 16.818 16.818 0 0 1-2.118-.3c-.621-.135-1.128-.299-1.52-.499-.392-.2-.614-.428-.663-.685l-2.476-.028c-.221 0-.414-.022-.585-.05-.171-.036-.257-.079-.257-.129v-.25l3.382.036c.15-.264.456-.485.927-.678a10.894 10.894 0 0 1 1.712-.513l1.135.157c.342.05.513.107.513.171 0 .036-.071.078-.214.128-.142.05-.314.114-.506.186a3.983 3.983 0 0 0-.564.257c-.185.1-.321.207-.414.328l8.312.078zm-8.347.336c.071.164.221.299.449.421.229.121.514.214.856.292.343.078.728.128 1.156.164a16.16 16.16 0 0 0 2.782-.021 8.638 8.638 0 0 0 1.07-.179c.307-.078.578-.164.807-.264.228-.099.435-.214.613-.328l-7.733-.085zm19.84-.222c-.072-.164-.236-.306-.493-.435a4.606 4.606 0 0 0-.984-.314c-.4-.085-.87-.149-1.398-.185a22.159 22.159 0 0 0-1.762-.057c-.571 0-1.063.028-1.477.078-.414.05-.771.114-1.07.193-.3.078-.564.178-.771.285a4.756 4.756 0 0 0-.592.35l8.547.085z" fill="#FCB048"/><path d="M135.337 149.68c-11.893 0-24.278 1.048-26.261 3.074.079.072.15.15.214.229 1.67-1.406 11.893-2.825 26.04-2.825 14.51 0 24.898 1.491 26.16 2.932.065-.079.129-.157.2-.229-1.627-2.097-14.247-3.181-26.353-3.181z" fill="url(#J)"/><path d="M105.328 146.557v5.914c0 1.912 11.943 3.46 26.674 3.46 14.732 0 26.675-1.548 26.675-3.46v-5.914h-53.349z" fill="url(#K)"/><path d="M158.677 146.556c0 1.912-11.943 3.46-26.675 3.46-14.731 0-26.674-1.548-26.674-3.46s11.943-3.46 26.674-3.46c14.732 0 26.675 1.548 26.675 3.46z" fill="url(#L)"/><path d="M132.003 150.253c-13.048 0-26.689-1.249-26.689-3.653 0-.128.05-.364.179-.364.135 0 .078.179.078.314 0 1.527 10.858 3.225 26.432 3.225 15.581 0 26.432-1.698 26.432-3.225 0-.135.021-.257.157-.257.135 0 .1.179.1.307.007 2.411-13.641 3.653-26.689 3.653z" fill="url(#M)"/><path d="M129.486 146.748c.264-.178.542-.356.841-.535.293-.178.678-.335 1.149-.478.471-.142 1.056-.256 1.755-.349.706-.093 1.584-.136 2.632-.143a34.137 34.137 0 0 1 2.904.1c.906.071 1.698.178 2.39.314.685.143 1.241.314 1.676.521.428.207.685.442.764.713l3.003.029c.221 0 .414.021.578.05.171.035.25.078.25.128v.25l-3.86-.036c-.135.3-.478.578-1.034.835-.55.249-1.256.47-2.119.656l-1.405-.193a1.958 1.958 0 0 1-.314-.071c-.079-.029-.122-.064-.122-.1 0-.05.107-.1.329-.164.221-.064.463-.135.734-.228.271-.093.543-.193.807-.321.263-.122.435-.271.527-.443l-9.11-.092a8.213 8.213 0 0 1-.806.52c-.3.172-.692.322-1.184.457-.492.136-1.106.25-1.834.328-.734.086-1.655.129-2.768.136a27.665 27.665 0 0 1-2.447-.093 16.818 16.818 0 0 1-2.118-.3c-.621-.135-1.128-.299-1.52-.499-.392-.2-.614-.428-.664-.685l-2.475-.028c-.221 0-.414-.022-.585-.05-.171-.036-.257-.079-.257-.129v-.249l3.382.035c.149-.264.456-.485.927-.678a10.894 10.894 0 0 1 1.712-.513l1.135.157c.342.05.513.107.513.171 0 .036-.071.078-.214.128-.142.05-.314.115-.506.186a3.933 3.933 0 0 0-.564.257c-.185.1-.321.207-.414.328l8.312.078zm-8.34.336c.071.164.221.299.449.421.229.121.514.214.856.292.343.079.728.129 1.156.164.428.036.878.05 1.348.05.55 0 1.028-.028 1.434-.071a8.638 8.638 0 0 0 1.07-.179c.307-.078.578-.164.807-.264.228-.099.435-.214.613-.328l-7.733-.085zm19.84-.221c-.072-.165-.236-.307-.493-.436a4.606 4.606 0 0 0-.984-.314c-.4-.085-.87-.149-1.398-.185a22.159 22.159 0 0 0-1.762-.057c-.571 0-1.063.028-1.477.078-.414.05-.771.115-1.07.193-.3.078-.564.178-.771.285a4.756 4.756 0 0 0-.592.35l8.547.086z" fill="#FCB048"/><path d="M132.011 143.467c-11.893 0-24.278 1.048-26.261 3.075.078.071.15.149.214.228 1.669-1.406 11.893-2.825 26.039-2.825 14.511 0 24.898 1.491 26.161 2.932.064-.079.129-.157.2-.228-1.634-2.098-14.247-3.182-26.353-3.182z" fill="url(#N)"/><path d="m166.267 150.721-4.822 3.431c-1.556 1.106 4.102 11.736 12.641 23.742 8.54 12.007 16.723 20.839 18.285 19.733l4.823-3.431-30.927-43.475z" fill="url(#O)"/><path d="M197.185 194.196c-1.555 1.105-9.745-7.727-18.284-19.733-8.54-12.007-14.197-22.637-12.642-23.743 1.555-1.105 9.745 7.727 18.285 19.733 8.539 12.007 14.204 22.637 12.641 23.743z" fill="url(#P)"/><path d="M178.71 174.605c-7.562-10.63-14.454-22.472-12.499-23.863.107-.079.321-.172.399-.065.079.107-.107.164-.214.243-1.241.884 3.667 10.715 12.699 23.407 9.032 12.691 16.708 20.56 17.949 19.676.107-.079.222-.129.3-.022.079.107-.086.186-.193.257-1.954 1.391-10.879-9.003-18.441-19.633z" fill="url(#Q)"/><path d="M180.107 170.518c.3.107.607.228.92.371a5.08 5.08 0 0 1 1.056.656c.386.3.821.714 1.306 1.235.478.52 1.027 1.212 1.641 2.061a35.613 35.613 0 0 1 1.605 2.426c.464.778.842 1.484 1.127 2.126.285.642.464 1.199.549 1.669.079.471.036.814-.135 1.035l1.719 2.468c.129.179.221.343.293.5.071.157.078.249.035.278l-.199.142-2.205-3.167c-.328.064-.749-.057-1.277-.364-.528-.307-1.113-.756-1.762-1.348l-.656-1.263a1.794 1.794 0 0 1-.122-.292c-.021-.086-.021-.136.008-.157.035-.029.142.028.321.171.178.142.378.299.613.471.228.171.471.328.728.471.249.142.471.199.663.178l-5.208-7.477a8.599 8.599 0 0 1-.891-.356c-.314-.143-.664-.378-1.063-.7a12.294 12.294 0 0 1-1.334-1.305c-.493-.549-1.063-1.27-1.713-2.176a29.136 29.136 0 0 1-1.341-2.047 16.338 16.338 0 0 1-.984-1.905c-.25-.585-.407-1.092-.478-1.527-.065-.435-.015-.749.171-.934l-1.413-2.027a3.205 3.205 0 0 1-.299-.506c-.072-.157-.086-.257-.043-.285l.2-.143 1.933 2.775c.3-.029.663.086 1.092.357.428.271.898.635 1.412 1.098l.528 1.013c.157.307.214.478.157.521-.029.022-.107-.014-.228-.1-.129-.085-.271-.185-.443-.306a4.682 4.682 0 0 0-.535-.314 1.16 1.16 0 0 0-.506-.143l4.758 6.82zm-5.108-6.599c-.093.15-.121.357-.078.607.035.256.121.542.264.87.135.321.314.671.535 1.041.221.371.471.75.742 1.128.321.442.613.82.884 1.127.271.307.528.563.771.77a4.588 4.588 0 0 0 1.312.814l-4.43-6.357zm11.679 16.038c.092-.15.114-.371.064-.65a4.469 4.469 0 0 0-.321-.984 11.404 11.404 0 0 0-.656-1.249c-.272-.456-.6-.948-.978-1.469a13.607 13.607 0 0 0-.92-1.156 7.499 7.499 0 0 0-.778-.763 3.972 3.972 0 0 0-.677-.464 5.3 5.3 0 0 0-.628-.278l4.894 7.013z" fill="#FCB048"/><path d="M184.245 170.673c-6.892-9.695-14.925-19.176-17.721-19.618-.014.107-.036.207-.057.306 2.111.543 9.196 8.055 17.393 19.584 8.411 11.821 13.219 21.152 12.77 23.014.1.007.199.014.299.029.764-2.54-5.671-13.448-12.684-23.315z" fill="url(#R)"/><path d="M137.71 107.611c1.128-.728.1-2.854.043-7.406-.071-5.586 1.406-6.62.221-8.81-1.455-2.675-5.122-3.788-7.547-3.838-.536-.015-.664-.307-5.151.856-8.083 2.097-10.109-.15-13.733 2.09-3.496 2.169-1.969 4.537-5.365 7.077-5.508 4.116-11.293-.335-15.231 3.11-3.725 3.261-3.81 11.558.106 16.088 4.438 5.136 12.442 3.595 17.807 2.575 1.127-.214 6.828-1.412 12.763-5.793a34.08 34.08 0 0 0 6.97-6.92c.335-.378.863-.834 1.555-.913.835-.085 1.498.421 1.827.642 1.69 1.184 4.63 1.962 5.735 1.242z" fill="url(#S)"/><path d="M133.194 104.551c1.448-1.32 6.606 1.22 10.024 4.594 4.016 3.959 3.709 7.17 7.212 12.085 1.741 2.447 4.73 5.736 10.023 8.618-.378.935-.749 1.876-1.127 2.811-2.561.157-7.583.064-12.277-2.996-3.261-2.126-4.93-4.944-8.155-10.495-3.217-5.564-7.512-12.969-5.7-14.617z" fill="url(#T)"/><path d="m165.784 179.856-4.031-2.418h-1.819s-.621 2.304-.549 2.418c.813 1.327 4.58 2.34 6.934 2.418.392.015.934.015 1.077-.264.243-.485-.82-1.491-1.612-2.154z" fill="url(#U)"/><path d="M161.688 174.793c-.257 1.498.072 2.283.421 2.718.25.307.471.392 1.948 1.669.485.421.735.65.678.764-.065.135-.493.064-1.427-.164-2.026-.485-3.047-.742-3.289-1.227-.228-.443-.029-.642-.036-1.841a6.136 6.136 0 0 0-.299-1.826c.663-.029 1.334-.064 2.004-.093z" fill="url(#V)"/><path d="M164.6 162.913s1.819 2.169 1.526 4.552c-.299 2.383-3.481-1.099-3.93-2.276-.443-1.177-.964-2.854-.964-2.854s2.233-1.384 3.368.578z" fill="url(#W)"/><path d="M163.899 159.52s-.492 2.532.45 3.866c.471.664 1.098 1.227.913 1.769-.121.364-.599.621-.999.585-.77-.078-1.191-1.255-1.491-2.083-.442-1.227-.692-3.852-.692-3.852l1.819-.285z" fill="url(#X)"/><path d="M162.451 161.652c.557-.207 1.12-.407 1.677-.614.87-1.997 1.94-5.272 1.583-9.253-.913-10.237-10.387-15.666-11.436-16.244-2.582 1.291-5.193 3.118-5.286 5.422-.121 2.889 3.817 4.416 7.519 8.646 2.219 2.54 4.595 6.321 5.943 12.043z" fill="url(#Y)"/><path d="M161.851 175.962c1.848-7.227 1.377-13.119.842-16.515-.807-5.13-2.447-15.574-9.417-19.469-1.52-.849-3.696-1.612-6.35-3.974a22.635 22.635 0 0 1-4.473-5.514c-9.324-2.733-17.921-1.627-21.716 3.374-.435.578-1.534 1.833-1.748 3.681-.478 4.166 3.617 9.189 8.212 10.238 5.842 1.334 9.231-4.666 14.403-2.669 1.449.557 2.676 1.941 5.13 4.709 3.124 3.517 4.879 6.77 5.543 8.069 1.976 3.866 3.474 6.727 3.695 10.43.05.863.079 2.603 1.092 4.487.777 1.441 1.826 2.404 2.611 2.996.728.05 1.448.107 2.176.157z" fill="url(#Z)"/><path opacity=".3" d="M118.989 137.545c.214-1.848 1.313-3.103 1.748-3.681 3.795-5.001 12.392-6.107 21.716-3.374a22.468 22.468 0 0 0 4.473 5.514c2.654 2.362 4.83 3.125 6.35 3.974 4.259 2.375 6.52 7.198 7.826 11.757-1.934-3.004-3.596-3.803-4.88-3.817-1.833-.021-2.654 1.548-4.851 1.334-2.34-.228-2.882-2.169-4.78-2.39-.571-.064-1.27.022-2.112.471-1.12-1.177-1.954-1.869-2.882-2.226-5.172-1.997-8.568 4.002-14.404 2.668-4.587-1.041-8.682-6.056-8.204-10.23z" fill="url(#aa)"/><path d="M157.022 143.209a30.796 30.796 0 0 0-4.637.107c-9.303.921-11.864 5.522-19.555 6.642-1.819.264-9.916 1.449-13.426-3.231-2.519-3.361-2.14-9.153.621-11.429 1.162-.963 2.318-.935 9.78-.871 2.811.029 5.622.036 8.433.072 11.899.15 14.175-.671 16.337 1.298 1.013.92 2.49 2.889 2.447 7.412z" fill="url(#ab)"/><path d="M145.482 131.142s-5.9 1.156-12.128 2.262c-7.041 1.248-14.497 2.447-14.304 1.84 2.019-6.185-.007-10.251-1.462-14.824-.871-2.719-1.534-5.622-1.013-9.26 1.441-10.167 15.324-6.122 15.324-6.122 4.501.186 4.993.657 5.407 1.113 2.882 3.182 3.681 6.885 3.681 6.885.714 3.317-.092 4.594 0 7.398.086 2.561.914 6.242 4.495 10.708z" fill="url(#ac)"/><path d="M122.979 132.996s13.026-3.489 20.788-3.924l-20.788 3.924z" fill="url(#ad)"/><path d="M128.885 98.938c.128.592.778 3.781-.528 4.601-.285.178-.827.278-1.912.485a24.46 24.46 0 0 1-1.726.264c.064.535.242 1.405.856 2.197 1.726 2.219 5.201 1.648 5.693 1.556 1.748-.321 3.46-.856 3.874-1.185.627-.499 1.127-.877 1.419-1.262-.677-.329-2.04-1.185-2.953-1.47a17.639 17.639 0 0 0-1.912-.471c-.093-.613-.193-1.234-.285-1.848-.842-.948-1.684-1.912-2.526-2.868z" fill="#fff"/><path d="M128.822 100.531s.235 2.34 2.504 2.746c2.033.371 3.567-4.544 2.525-5.814-.349-.42-1.205-.827-1.947-.806-.521.014-2.29.685-2.533 2.454-.349-.37-.792-.478-1.006-.32-.271.199-.128.77-.092.898.114.442.406.721.549.842z" fill="#fff"/><path d="m148.313 132.281-21.253 1.035a.892.892 0 0 0-.713.421l-.585.941a.69.69 0 0 0 .614 1.056l22.508-.856-.571-2.597z" fill="url(#ae)"/><path d="m170.415 120.446-21.959.428a1.83 1.83 0 0 0-1.562.934l-7.605 13.377 23.186-.921a1.889 1.889 0 0 0 1.541-.913l7.041-11.771c.307-.514-.057-1.149-.642-1.134z" fill="url(#af)"/><path opacity=".3" d="M146.893 121.801c.321-.564.913-.92 1.563-.934l.478-.008c.071.707.292 1.356.72 1.884 1.356 1.633 3.603.628 5.279 2.354 1.841 1.898.143 4.159 1.784 5.928 1.734 1.862 4.537.343 7.755 1.534l-.464.778a1.866 1.866 0 0 1-1.541.913l-23.186.92 7.612-13.369z" fill="url(#ag)"/><path opacity=".3" d="M133.352 133.401c-7.041 1.248-14.496 2.447-14.304 1.84 2.019-6.185-.007-10.251-1.462-14.824l.378-2.355s2.618 1.128 3.26 3.824c.642 2.697-.05 4.709 2.554 5.101 1.655.25 5.173 1.948 7.555 4.024.129.114.25.221.371.335.714.664 1.292 1.363 1.648 2.055z" fill="url(#ah)"/><path d="M128.784 131.569c.279-.728.557-1.462.828-2.19-3.061-.842-7.284-2.076-11.621-3.624-.678-.243-1.484-.542-1.748-1.256-.742-2.004 3.973-4.08 5.807-8.461 1.698-4.052.763-9.666-1.206-10.33-4.095-1.384-18.606 16.687-13.426 24.306 2.932 4.302 11.971 4.987 21.366 1.555z" fill="url(#ai)"/><path d="M129.621 129.378c1.919-1.021 4.216.028 4.366.092.421.2 1.034.557 1.655 1.185.071.092.906 1.248.599 1.619-.243.3-1.184.05-2.319-.656a8.788 8.788 0 0 0-2.026-.05c-1.555.142-2.261.635-2.832.207-.414-.307-.556-.964-.406-1.456.164-.506.634-.77.963-.941z" fill="#fff"/><defs><linearGradient id="E" x1="128.528" y1="155.533" x2="129.522" y2="163.852" gradientUnits="userSpaceOnUse"><stop stop-color="#FFDB44"/><stop offset="1" stop-color="#FEEF06"/></linearGradient><linearGradient id="a" x1="17.024" y1="99.178" x2="189.98" y2="72.371" gradientUnits="userSpaceOnUse"><stop stop-color="#444B8C"/><stop offset=".996" stop-color="#26264F"/></linearGradient><linearGradient id="c" x1="95.745" y1="31.971" x2="-74.415" y2="384.914" gradientUnits="userSpaceOnUse"><stop offset=".004" stop-color="#E38DDD"/><stop offset="1" stop-color="#9571F6"/></linearGradient><linearGradient id="d" x1="57.205" y1="48.492" x2="63.419" y2="61.824" gradientUnits="userSpaceOnUse"><stop stop-color="#6A50FC"/><stop offset="1" stop-color="#9150FC"/></linearGradient><linearGradient id="e" x1="82.136" y1="48.492" x2="88.351" y2="61.824" gradientUnits="userSpaceOnUse"><stop stop-color="#6A50FC"/><stop offset="1" stop-color="#9150FC"/></linearGradient><linearGradient id="f" x1="107.072" y1="48.492" x2="113.286" y2="61.824" gradientUnits="userSpaceOnUse"><stop stop-color="#6A50FC"/><stop offset="1" stop-color="#9150FC"/></linearGradient><linearGradient id="g" x1="1.919" y1="16.263" x2="8.017" y2="64.445" gradientUnits="userSpaceOnUse"><stop stop-color="#6A50FC"/><stop offset="1" stop-color="#9150FC"/></linearGradient><linearGradient id="h" x1="132.074" y1="55.764" x2="133.446" y2="62.502" gradientUnits="userSpaceOnUse"><stop stop-color="#6A50FC"/><stop offset="1" stop-color="#9150FC"/></linearGradient><linearGradient id="i" x1="105.114" y1="195.2" x2="166.488" y2="195.2" gradientUnits="userSpaceOnUse"><stop stop-color="#F57E53"/><stop offset=".005" stop-color="#F58152"/><stop offset=".042" stop-color="#F99A4D"/><stop offset=".084" stop-color="#FCAD49"/><stop offset=".133" stop-color="#FEBA46"/><stop offset=".196" stop-color="#FFC244"/><stop offset=".318" stop-color="#FFC444"/><stop offset=".455" stop-color="#FDB946"/><stop offset=".694" stop-color="#F99C4C"/><stop offset=".996" stop-color="#F36F56"/></linearGradient><linearGradient id="j" x1="136.083" y1="188.285" x2="139.319" y2="215.372" gradientUnits="userSpaceOnUse"><stop stop-color="#FFDB44"/><stop offset="1" stop-color="#FEEF06"/></linearGradient><linearGradient id="k" x1="135.943" y1="187.078" x2="136.937" y2="195.396" gradientUnits="userSpaceOnUse"><stop stop-color="#FFDB44"/><stop offset="1" stop-color="#FEEF06"/></linearGradient><linearGradient id="l" x1="136.878" y1="194.524" x2="135.887" y2="186.235" gradientUnits="userSpaceOnUse"><stop offset=".004" stop-color="#F36F56"/><stop offset=".306" stop-color="#F99C4C"/><stop offset=".545" stop-color="#FDB946"/><stop offset=".682" stop-color="#FFC444"/><stop offset=".804" stop-color="#FFC244"/><stop offset=".867" stop-color="#FEBA46"/><stop offset=".916" stop-color="#FCAD49"/><stop offset=".958" stop-color="#F99A4D"/><stop offset=".996" stop-color="#F58152"/><stop offset="1" stop-color="#F57E53"/></linearGradient><linearGradient id="m" x1="97.699" y1="188.984" x2="159.073" y2="188.984" gradientUnits="userSpaceOnUse"><stop stop-color="#F57E53"/><stop offset=".005" stop-color="#F58152"/><stop offset=".042" stop-color="#F99A4D"/><stop offset=".084" stop-color="#FCAD49"/><stop offset=".133" stop-color="#FEBA46"/><stop offset=".196" stop-color="#FFC244"/><stop offset=".318" stop-color="#FFC444"/><stop offset=".455" stop-color="#FDB946"/><stop offset=".694" stop-color="#F99C4C"/><stop offset=".996" stop-color="#F36F56"/></linearGradient><linearGradient id="n" x1="128.668" y1="182.07" x2="131.904" y2="209.156" gradientUnits="userSpaceOnUse"><stop stop-color="#FFDB44"/><stop offset="1" stop-color="#FEEF06"/></linearGradient><linearGradient id="o" x1="128.528" y1="180.862" x2="129.522" y2="189.181" gradientUnits="userSpaceOnUse"><stop stop-color="#FFDB44"/><stop offset="1" stop-color="#FEEF06"/></linearGradient><linearGradient id="p" x1="129.462" y1="188.308" x2="128.472" y2="180.019" gradientUnits="userSpaceOnUse"><stop offset=".004" stop-color="#F36F56"/><stop offset=".306" stop-color="#F99C4C"/><stop offset=".545" stop-color="#FDB946"/><stop offset=".682" stop-color="#FFC444"/><stop offset=".804" stop-color="#FFC244"/><stop offset=".867" stop-color="#FEBA46"/><stop offset=".916" stop-color="#FCAD49"/><stop offset=".958" stop-color="#F99A4D"/><stop offset=".996" stop-color="#F58152"/><stop offset="1" stop-color="#F57E53"/></linearGradient><linearGradient id="q" x1="104.099" y1="182.79" x2="165.473" y2="182.79" gradientUnits="userSpaceOnUse"><stop stop-color="#F57E53"/><stop offset=".005" stop-color="#F58152"/><stop offset=".042" stop-color="#F99A4D"/><stop offset=".084" stop-color="#FCAD49"/><stop offset=".133" stop-color="#FEBA46"/><stop offset=".196" stop-color="#FFC244"/><stop offset=".318" stop-color="#FFC444"/><stop offset=".455" stop-color="#FDB946"/><stop offset=".694" stop-color="#F99C4C"/><stop offset=".996" stop-color="#F36F56"/></linearGradient><linearGradient id="r" x1="135.068" y1="175.876" x2="138.303" y2="202.962" gradientUnits="userSpaceOnUse"><stop stop-color="#FFDB44"/><stop offset="1" stop-color="#FEEF06"/></linearGradient><linearGradient id="s" x1="134.927" y1="174.668" x2="135.921" y2="182.987" gradientUnits="userSpaceOnUse"><stop stop-color="#FFDB44"/><stop offset="1" stop-color="#FEEF06"/></linearGradient><linearGradient id="t" x1="135.863" y1="182.115" x2="134.873" y2="173.826" gradientUnits="userSpaceOnUse"><stop offset=".004" stop-color="#F36F56"/><stop offset=".306" stop-color="#F99C4C"/><stop offset=".545" stop-color="#FDB946"/><stop offset=".682" stop-color="#FFC444"/><stop offset=".804" stop-color="#FFC244"/><stop offset=".867" stop-color="#FEBA46"/><stop offset=".916" stop-color="#FCAD49"/><stop offset=".958" stop-color="#F99A4D"/><stop offset=".996" stop-color="#F58152"/><stop offset="1" stop-color="#F57E53"/></linearGradient><linearGradient id="u" x1="107.981" y1="176.576" x2="169.355" y2="176.576" gradientUnits="userSpaceOnUse"><stop stop-color="#F57E53"/><stop offset=".005" stop-color="#F58152"/><stop offset=".042" stop-color="#F99A4D"/><stop offset=".084" stop-color="#FCAD49"/><stop offset=".133" stop-color="#FEBA46"/><stop offset=".196" stop-color="#FFC244"/><stop offset=".318" stop-color="#FFC444"/><stop offset=".455" stop-color="#FDB946"/><stop offset=".694" stop-color="#F99C4C"/><stop offset=".996" stop-color="#F36F56"/></linearGradient><linearGradient id="v" x1="138.95" y1="169.662" x2="142.186" y2="196.749" gradientUnits="userSpaceOnUse"><stop stop-color="#FFDB44"/><stop offset="1" stop-color="#FEEF06"/></linearGradient><linearGradient id="w" x1="138.81" y1="168.454" x2="139.804" y2="176.773" gradientUnits="userSpaceOnUse"><stop stop-color="#FFDB44"/><stop offset="1" stop-color="#FEEF06"/></linearGradient><linearGradient id="x" x1="139.745" y1="175.9" x2="138.754" y2="167.61" gradientUnits="userSpaceOnUse"><stop offset=".004" stop-color="#F36F56"/><stop offset=".306" stop-color="#F99C4C"/><stop offset=".545" stop-color="#FDB946"/><stop offset=".682" stop-color="#FFC444"/><stop offset=".804" stop-color="#FFC244"/><stop offset=".867" stop-color="#FEBA46"/><stop offset=".916" stop-color="#FCAD49"/><stop offset=".958" stop-color="#F99A4D"/><stop offset=".996" stop-color="#F58152"/><stop offset="1" stop-color="#F57E53"/></linearGradient><linearGradient id="y" x1="105.114" y1="169.869" x2="166.488" y2="169.869" gradientUnits="userSpaceOnUse"><stop stop-color="#F57E53"/><stop offset=".005" stop-color="#F58152"/><stop offset=".042" stop-color="#F99A4D"/><stop offset=".084" stop-color="#FCAD49"/><stop offset=".133" stop-color="#FEBA46"/><stop offset=".196" stop-color="#FFC244"/><stop offset=".318" stop-color="#FFC444"/><stop offset=".455" stop-color="#FDB946"/><stop offset=".694" stop-color="#F99C4C"/><stop offset=".996" stop-color="#F36F56"/></linearGradient><linearGradient id="z" x1="136.083" y1="162.955" x2="139.319" y2="190.042" gradientUnits="userSpaceOnUse"><stop stop-color="#FFDB44"/><stop offset="1" stop-color="#FEEF06"/></linearGradient><linearGradient id="A" x1="135.943" y1="161.749" x2="136.937" y2="170.067" gradientUnits="userSpaceOnUse"><stop stop-color="#FFDB44"/><stop offset="1" stop-color="#FEEF06"/></linearGradient><linearGradient id="B" x1="136.878" y1="169.194" x2="135.887" y2="160.905" gradientUnits="userSpaceOnUse"><stop offset=".004" stop-color="#F36F56"/><stop offset=".306" stop-color="#F99C4C"/><stop offset=".545" stop-color="#FDB946"/><stop offset=".682" stop-color="#FFC444"/><stop offset=".804" stop-color="#FFC244"/><stop offset=".867" stop-color="#FEBA46"/><stop offset=".916" stop-color="#FCAD49"/><stop offset=".958" stop-color="#F99A4D"/><stop offset=".996" stop-color="#F58152"/><stop offset="1" stop-color="#F57E53"/></linearGradient><linearGradient id="C" x1="97.699" y1="163.655" x2="159.073" y2="163.655" gradientUnits="userSpaceOnUse"><stop stop-color="#F57E53"/><stop offset=".005" stop-color="#F58152"/><stop offset=".042" stop-color="#F99A4D"/><stop offset=".084" stop-color="#FCAD49"/><stop offset=".133" stop-color="#FEBA46"/><stop offset=".196" stop-color="#FFC244"/><stop offset=".318" stop-color="#FFC444"/><stop offset=".455" stop-color="#FDB946"/><stop offset=".694" stop-color="#F99C4C"/><stop offset=".996" stop-color="#F36F56"/></linearGradient><linearGradient id="D" x1="128.668" y1="156.741" x2="131.904" y2="183.827" gradientUnits="userSpaceOnUse"><stop stop-color="#FFDB44"/><stop offset="1" stop-color="#FEEF06"/></linearGradient><linearGradient id="b" x1="4.037" y1="35.426" x2="96.171" y2="176.044" gradientUnits="userSpaceOnUse"><stop stop-color="#6A50FC"/><stop offset="1" stop-color="#9150FC"/></linearGradient><linearGradient id="F" x1="129.462" y1="162.978" x2="128.472" y2="154.689" gradientUnits="userSpaceOnUse"><stop offset=".004" stop-color="#F36F56"/><stop offset=".306" stop-color="#F99C4C"/><stop offset=".545" stop-color="#FDB946"/><stop offset=".682" stop-color="#FFC444"/><stop offset=".804" stop-color="#FFC244"/><stop offset=".867" stop-color="#FEBA46"/><stop offset=".916" stop-color="#FCAD49"/><stop offset=".958" stop-color="#F99A4D"/><stop offset=".996" stop-color="#F58152"/><stop offset="1" stop-color="#F57E53"/></linearGradient><linearGradient id="G" x1="104.099" y1="157.456" x2="165.473" y2="157.456" gradientUnits="userSpaceOnUse"><stop stop-color="#F57E53"/><stop offset=".005" stop-color="#F58152"/><stop offset=".042" stop-color="#F99A4D"/><stop offset=".084" stop-color="#FCAD49"/><stop offset=".133" stop-color="#FEBA46"/><stop offset=".196" stop-color="#FFC244"/><stop offset=".318" stop-color="#FFC444"/><stop offset=".455" stop-color="#FDB946"/><stop offset=".694" stop-color="#F99C4C"/><stop offset=".996" stop-color="#F36F56"/></linearGradient><linearGradient id="H" x1="135.068" y1="150.543" x2="138.303" y2="177.63" gradientUnits="userSpaceOnUse"><stop stop-color="#FFDB44"/><stop offset="1" stop-color="#FEEF06"/></linearGradient><linearGradient id="I" x1="134.927" y1="149.336" x2="135.921" y2="157.654" gradientUnits="userSpaceOnUse"><stop stop-color="#FFDB44"/><stop offset="1" stop-color="#FEEF06"/></linearGradient><linearGradient id="J" x1="135.863" y1="156.782" x2="134.873" y2="148.493" gradientUnits="userSpaceOnUse"><stop offset=".004" stop-color="#F36F56"/><stop offset=".306" stop-color="#F99C4C"/><stop offset=".545" stop-color="#FDB946"/><stop offset=".682" stop-color="#FFC444"/><stop offset=".804" stop-color="#FFC244"/><stop offset=".867" stop-color="#FEBA46"/><stop offset=".916" stop-color="#FCAD49"/><stop offset=".958" stop-color="#F99A4D"/><stop offset=".996" stop-color="#F58152"/><stop offset="1" stop-color="#F57E53"/></linearGradient><linearGradient id="K" x1="100.77" y1="151.244" x2="162.144" y2="151.244" gradientUnits="userSpaceOnUse"><stop stop-color="#F57E53"/><stop offset=".005" stop-color="#F58152"/><stop offset=".042" stop-color="#F99A4D"/><stop offset=".084" stop-color="#FCAD49"/><stop offset=".133" stop-color="#FEBA46"/><stop offset=".196" stop-color="#FFC244"/><stop offset=".318" stop-color="#FFC444"/><stop offset=".455" stop-color="#FDB946"/><stop offset=".694" stop-color="#F99C4C"/><stop offset=".996" stop-color="#F36F56"/></linearGradient><linearGradient id="L" x1="131.739" y1="144.33" x2="134.975" y2="171.416" gradientUnits="userSpaceOnUse"><stop stop-color="#FFDB44"/><stop offset="1" stop-color="#FEEF06"/></linearGradient><linearGradient id="M" x1="131.599" y1="143.123" x2="132.593" y2="151.442" gradientUnits="userSpaceOnUse"><stop stop-color="#FFDB44"/><stop offset="1" stop-color="#FEEF06"/></linearGradient><linearGradient id="N" x1="132.534" y1="150.568" x2="131.543" y2="142.279" gradientUnits="userSpaceOnUse"><stop offset=".004" stop-color="#F36F56"/><stop offset=".306" stop-color="#F99C4C"/><stop offset=".545" stop-color="#FDB946"/><stop offset=".682" stop-color="#FFC444"/><stop offset=".804" stop-color="#FFC244"/><stop offset=".867" stop-color="#FEBA46"/><stop offset=".916" stop-color="#FCAD49"/><stop offset=".958" stop-color="#F99A4D"/><stop offset=".996" stop-color="#F58152"/><stop offset="1" stop-color="#F57E53"/></linearGradient><linearGradient id="O" x1="159.803" y1="149.724" x2="195.376" y2="199.738" gradientUnits="userSpaceOnUse"><stop stop-color="#F57E53"/><stop offset=".005" stop-color="#F58152"/><stop offset=".042" stop-color="#F99A4D"/><stop offset=".084" stop-color="#FCAD49"/><stop offset=".133" stop-color="#FEBA46"/><stop offset=".196" stop-color="#FFC244"/><stop offset=".318" stop-color="#FFC444"/><stop offset=".455" stop-color="#FDB946"/><stop offset=".694" stop-color="#F99C4C"/><stop offset=".996" stop-color="#F36F56"/></linearGradient><linearGradient id="P" x1="183.385" y1="170.954" x2="163.19" y2="189.288" gradientUnits="userSpaceOnUse"><stop stop-color="#FFDB44"/><stop offset="1" stop-color="#FEEF06"/></linearGradient><linearGradient id="Q" x1="184.289" y1="170.139" x2="178.087" y2="175.77" gradientUnits="userSpaceOnUse"><stop stop-color="#FFDB44"/><stop offset="1" stop-color="#FEEF06"/></linearGradient><linearGradient id="R" x1="178.763" y1="175.215" x2="184.942" y2="169.605" gradientUnits="userSpaceOnUse"><stop offset=".004" stop-color="#F36F56"/><stop offset=".306" stop-color="#F99C4C"/><stop offset=".545" stop-color="#FDB946"/><stop offset=".682" stop-color="#FFC444"/><stop offset=".804" stop-color="#FFC244"/><stop offset=".867" stop-color="#FEBA46"/><stop offset=".916" stop-color="#FCAD49"/><stop offset=".958" stop-color="#F99A4D"/><stop offset=".996" stop-color="#F58152"/><stop offset="1" stop-color="#F57E53"/></linearGradient><linearGradient id="S" x1="140.996" y1="86.013" x2="81.215" y2="126.619" gradientUnits="userSpaceOnUse"><stop stop-color="#311944"/><stop offset="1" stop-color="#6B3976"/></linearGradient><linearGradient id="T" x1="162.875" y1="228.083" x2="141.678" y2="84.566" gradientUnits="userSpaceOnUse"><stop stop-color="#FF9085"/><stop offset="1" stop-color="#FB6FBB"/></linearGradient><linearGradient id="U" x1="167.436" y1="179.855" x2="159.385" y2="179.855" gradientUnits="userSpaceOnUse"><stop stop-color="#311944"/><stop offset="1" stop-color="#6B3976"/></linearGradient><linearGradient id="V" x1="163.638" y1="183.03" x2="151.627" y2="146.995" gradientUnits="userSpaceOnUse"><stop stop-color="#FFC444"/><stop offset=".996" stop-color="#F36F56"/></linearGradient><linearGradient id="W" x1="166.154" y1="165.073" x2="161.231" y2="165.073" gradientUnits="userSpaceOnUse"><stop stop-color="#311944"/><stop offset="1" stop-color="#6B3976"/></linearGradient><linearGradient id="X" x1="169.007" y1="178.595" x2="160.967" y2="154.474" gradientUnits="userSpaceOnUse"><stop stop-color="#FFC444"/><stop offset=".996" stop-color="#F36F56"/></linearGradient><linearGradient id="Y" x1="159.1" y1="137.957" x2="153.103" y2="172.627" gradientUnits="userSpaceOnUse"><stop stop-color="#AB316D"/><stop offset="1" stop-color="#792D3D"/></linearGradient><linearGradient id="Z" x1="150.63" y1="179.045" x2="142.103" y2="152.059" gradientUnits="userSpaceOnUse"><stop stop-color="#AB316D"/><stop offset="1" stop-color="#792D3D"/></linearGradient><linearGradient id="aa" x1="150.629" y1="179.045" x2="142.102" y2="152.059" gradientUnits="userSpaceOnUse"><stop stop-color="#AB316D"/><stop offset="1" stop-color="#792D3D"/></linearGradient><linearGradient id="ab" x1="138.631" y1="134.457" x2="132.648" y2="169.047" gradientUnits="userSpaceOnUse"><stop stop-color="#AB316D"/><stop offset="1" stop-color="#792D3D"/></linearGradient><linearGradient id="ac" x1="146.631" y1="230.486" x2="125.435" y2="86.968" gradientUnits="userSpaceOnUse"><stop stop-color="#FF9085"/><stop offset="1" stop-color="#FB6FBB"/></linearGradient><linearGradient id="ad" x1="148.032" y1="230.278" x2="126.836" y2="86.76" gradientUnits="userSpaceOnUse"><stop stop-color="#FF9085"/><stop offset="1" stop-color="#FB6FBB"/></linearGradient><linearGradient id="ae" x1="148.879" y1="134.006" x2="125.651" y2="134.006" gradientUnits="userSpaceOnUse"><stop stop-color="#40447E"/><stop offset=".996" stop-color="#3C3B6B"/></linearGradient><linearGradient id="af" x1="163.734" y1="119.354" x2="148.505" y2="134.461" gradientUnits="userSpaceOnUse"><stop stop-color="#40447E"/><stop offset=".996" stop-color="#3C3B6B"/></linearGradient><linearGradient id="ag" x1="163.734" y1="119.354" x2="148.504" y2="134.461" gradientUnits="userSpaceOnUse"><stop stop-color="#40447E"/><stop offset=".996" stop-color="#3C3B6B"/></linearGradient><linearGradient id="ah" x1="126.821" y1="112.99" x2="123.272" y2="149.544" gradientUnits="userSpaceOnUse"><stop stop-color="#FF9085"/><stop offset="1" stop-color="#FB6FBB"/></linearGradient><linearGradient id="ai" x1="133.386" y1="232.44" x2="112.19" y2="88.923" gradientUnits="userSpaceOnUse"><stop stop-color="#FF9085"/><stop offset="1" stop-color="#FB6FBB"/></linearGradient></defs></svg>